<?xml version="1.0" encoding="utf-8" standalone="no"?>
<!DOCTYPE svg PUBLIC "-//W3C//DTD SVG 1.1//EN"
  "http://www.w3.org/Graphics/SVG/1.1/DTD/svg11.dtd">
<!-- Created with matplotlib (http://matplotlib.org/) -->
<svg height="288pt" version="1.1" viewBox="0 0 432 288" width="432pt" xmlns="http://www.w3.org/2000/svg" xmlns:xlink="http://www.w3.org/1999/xlink">
 <defs>
  <style type="text/css">
*{stroke-linecap:butt;stroke-linejoin:round;}
  </style>
 </defs>
 <g id="figure_1">
  <g id="patch_1">
   <path d="M 0 288 
L 432 288 
L 432 0 
L 0 0 
z
" style="fill:#ffffff;"/>
  </g>
  <g id="axes_1">
   <g id="patch_2">
    <path d="M 54 252 
L 388.8 252 
L 388.8 34.56 
L 54 34.56 
z
" style="fill:#e5e5e5;"/>
   </g>
   <g id="matplotlib.axis_1">
    <g id="xtick_1">
     <g id="line2d_1">
      <path clip-path="url(#p62b6b378e8)" d="M 58.722884 252 
L 58.722884 34.56 
" style="fill:none;stroke:#ffffff;stroke-linecap:square;stroke-width:0.8;"/>
     </g>
     <g id="line2d_2">
      <defs>
       <path d="M 0 0 
L 0 3.5 
" id="m7f0cf44a69" style="stroke:#555555;stroke-width:0.8;"/>
      </defs>
      <g>
       <use style="fill:#555555;stroke:#555555;stroke-width:0.8;" x="58.722884" xlink:href="#m7f0cf44a69" y="252"/>
      </g>
     </g>
     <g id="text_1">
      <text style="fill:#555555;font-family:DejaVu Sans;font-size:10px;font-style:normal;font-weight:400;text-anchor:middle;" transform="rotate(-0, 58.722884, 266.598437)" x="58.722884" y="266.598437">0</text>
     </g>
    </g>
    <g id="xtick_2">
     <g id="line2d_3">
      <path clip-path="url(#p62b6b378e8)" d="M 111.199373 252 
L 111.199373 34.56 
" style="fill:none;stroke:#ffffff;stroke-linecap:square;stroke-width:0.8;"/>
     </g>
     <g id="line2d_4">
      <g>
       <use style="fill:#555555;stroke:#555555;stroke-width:0.8;" x="111.199373" xlink:href="#m7f0cf44a69" y="252"/>
      </g>
     </g>
     <g id="text_2">
      <text style="fill:#555555;font-family:DejaVu Sans;font-size:10px;font-style:normal;font-weight:400;text-anchor:middle;" transform="rotate(-0, 111.199373, 266.598437)" x="111.199373" y="266.598437">5</text>
     </g>
    </g>
    <g id="xtick_3">
     <g id="line2d_5">
      <path clip-path="url(#p62b6b378e8)" d="M 163.675862 252 
L 163.675862 34.56 
" style="fill:none;stroke:#ffffff;stroke-linecap:square;stroke-width:0.8;"/>
     </g>
     <g id="line2d_6">
      <g>
       <use style="fill:#555555;stroke:#555555;stroke-width:0.8;" x="163.675862" xlink:href="#m7f0cf44a69" y="252"/>
      </g>
     </g>
     <g id="text_3">
      <text style="fill:#555555;font-family:DejaVu Sans;font-size:10px;font-style:normal;font-weight:400;text-anchor:middle;" transform="rotate(-0, 163.675862, 266.598437)" x="163.675862" y="266.598437">10</text>
     </g>
    </g>
    <g id="xtick_4">
     <g id="line2d_7">
      <path clip-path="url(#p62b6b378e8)" d="M 216.152351 252 
L 216.152351 34.56 
" style="fill:none;stroke:#ffffff;stroke-linecap:square;stroke-width:0.8;"/>
     </g>
     <g id="line2d_8">
      <g>
       <use style="fill:#555555;stroke:#555555;stroke-width:0.8;" x="216.152351" xlink:href="#m7f0cf44a69" y="252"/>
      </g>
     </g>
     <g id="text_4">
      <text style="fill:#555555;font-family:DejaVu Sans;font-size:10px;font-style:normal;font-weight:400;text-anchor:middle;" transform="rotate(-0, 216.152351, 266.598437)" x="216.152351" y="266.598437">15</text>
     </g>
    </g>
    <g id="xtick_5">
     <g id="line2d_9">
      <path clip-path="url(#p62b6b378e8)" d="M 268.62884 252 
L 268.62884 34.56 
" style="fill:none;stroke:#ffffff;stroke-linecap:square;stroke-width:0.8;"/>
     </g>
     <g id="line2d_10">
      <g>
       <use style="fill:#555555;stroke:#555555;stroke-width:0.8;" x="268.62884" xlink:href="#m7f0cf44a69" y="252"/>
      </g>
     </g>
     <g id="text_5">
      <text style="fill:#555555;font-family:DejaVu Sans;font-size:10px;font-style:normal;font-weight:400;text-anchor:middle;" transform="rotate(-0, 268.62884, 266.598437)" x="268.62884" y="266.598437">20</text>
     </g>
    </g>
    <g id="xtick_6">
     <g id="line2d_11">
      <path clip-path="url(#p62b6b378e8)" d="M 321.105329 252 
L 321.105329 34.56 
" style="fill:none;stroke:#ffffff;stroke-linecap:square;stroke-width:0.8;"/>
     </g>
     <g id="line2d_12">
      <g>
       <use style="fill:#555555;stroke:#555555;stroke-width:0.8;" x="321.105329" xlink:href="#m7f0cf44a69" y="252"/>
      </g>
     </g>
     <g id="text_6">
      <text style="fill:#555555;font-family:DejaVu Sans;font-size:10px;font-style:normal;font-weight:400;text-anchor:middle;" transform="rotate(-0, 321.105329, 266.598437)" x="321.105329" y="266.598437">25</text>
     </g>
    </g>
    <g id="xtick_7">
     <g id="line2d_13">
      <path clip-path="url(#p62b6b378e8)" d="M 373.581818 252 
L 373.581818 34.56 
" style="fill:none;stroke:#ffffff;stroke-linecap:square;stroke-width:0.8;"/>
     </g>
     <g id="line2d_14">
      <g>
       <use style="fill:#555555;stroke:#555555;stroke-width:0.8;" x="373.581818" xlink:href="#m7f0cf44a69" y="252"/>
      </g>
     </g>
     <g id="text_7">
      <text style="fill:#555555;font-family:DejaVu Sans;font-size:10px;font-style:normal;font-weight:400;text-anchor:middle;" transform="rotate(-0, 373.581818, 266.598437)" x="373.581818" y="266.598437">30</text>
     </g>
    </g>
    <g id="text_8">
     <text style="fill:#555555;font-family:DejaVu Sans;font-size:12px;font-style:normal;font-weight:400;text-anchor:middle;" transform="rotate(-0, 221.4, 281.79625)" x="221.4" y="281.79625">Time (days)</text>
    </g>
   </g>
   <g id="matplotlib.axis_2">
    <g id="ytick_1">
     <g id="line2d_15">
      <path clip-path="url(#p62b6b378e8)" d="M 54 252 
L 388.8 252 
" style="fill:none;stroke:#ffffff;stroke-linecap:square;stroke-width:0.8;"/>
     </g>
     <g id="line2d_16">
      <defs>
       <path d="M 0 0 
L -3.5 0 
" id="m3076677233" style="stroke:#555555;stroke-width:0.8;"/>
      </defs>
      <g>
       <use style="fill:#555555;stroke:#555555;stroke-width:0.8;" x="54" xlink:href="#m3076677233" y="252"/>
      </g>
     </g>
     <g id="text_9">
      <text style="fill:#555555;font-family:DejaVu Sans;font-size:10px;font-style:normal;font-weight:400;text-anchor:end;" transform="rotate(-0, 47, 255.799219)" x="47" y="255.799219">0.0</text>
     </g>
    </g>
    <g id="ytick_2">
     <g id="line2d_17">
      <path clip-path="url(#p62b6b378e8)" d="M 54 208.512 
L 388.8 208.512 
" style="fill:none;stroke:#ffffff;stroke-linecap:square;stroke-width:0.8;"/>
     </g>
     <g id="line2d_18">
      <g>
       <use style="fill:#555555;stroke:#555555;stroke-width:0.8;" x="54" xlink:href="#m3076677233" y="208.512"/>
      </g>
     </g>
     <g id="text_10">
      <text style="fill:#555555;font-family:DejaVu Sans;font-size:10px;font-style:normal;font-weight:400;text-anchor:end;" transform="rotate(-0, 47, 212.311219)" x="47" y="212.311219">0.2</text>
     </g>
    </g>
    <g id="ytick_3">
     <g id="line2d_19">
      <path clip-path="url(#p62b6b378e8)" d="M 54 165.024 
L 388.8 165.024 
" style="fill:none;stroke:#ffffff;stroke-linecap:square;stroke-width:0.8;"/>
     </g>
     <g id="line2d_20">
      <g>
       <use style="fill:#555555;stroke:#555555;stroke-width:0.8;" x="54" xlink:href="#m3076677233" y="165.024"/>
      </g>
     </g>
     <g id="text_11">
      <text style="fill:#555555;font-family:DejaVu Sans;font-size:10px;font-style:normal;font-weight:400;text-anchor:end;" transform="rotate(-0, 47, 168.823219)" x="47" y="168.823219">0.4</text>
     </g>
    </g>
    <g id="ytick_4">
     <g id="line2d_21">
      <path clip-path="url(#p62b6b378e8)" d="M 54 121.536 
L 388.8 121.536 
" style="fill:none;stroke:#ffffff;stroke-linecap:square;stroke-width:0.8;"/>
     </g>
     <g id="line2d_22">
      <g>
       <use style="fill:#555555;stroke:#555555;stroke-width:0.8;" x="54" xlink:href="#m3076677233" y="121.536"/>
      </g>
     </g>
     <g id="text_12">
      <text style="fill:#555555;font-family:DejaVu Sans;font-size:10px;font-style:normal;font-weight:400;text-anchor:end;" transform="rotate(-0, 47, 125.335219)" x="47" y="125.335219">0.6</text>
     </g>
    </g>
    <g id="ytick_5">
     <g id="line2d_23">
      <path clip-path="url(#p62b6b378e8)" d="M 54 78.048 
L 388.8 78.048 
" style="fill:none;stroke:#ffffff;stroke-linecap:square;stroke-width:0.8;"/>
     </g>
     <g id="line2d_24">
      <g>
       <use style="fill:#555555;stroke:#555555;stroke-width:0.8;" x="54" xlink:href="#m3076677233" y="78.048"/>
      </g>
     </g>
     <g id="text_13">
      <text style="fill:#555555;font-family:DejaVu Sans;font-size:10px;font-style:normal;font-weight:400;text-anchor:end;" transform="rotate(-0, 47, 81.847219)" x="47" y="81.847219">0.8</text>
     </g>
    </g>
    <g id="ytick_6">
     <g id="line2d_25">
      <path clip-path="url(#p62b6b378e8)" d="M 54 34.56 
L 388.8 34.56 
" style="fill:none;stroke:#ffffff;stroke-linecap:square;stroke-width:0.8;"/>
     </g>
     <g id="line2d_26">
      <g>
       <use style="fill:#555555;stroke:#555555;stroke-width:0.8;" x="54" xlink:href="#m3076677233" y="34.56"/>
      </g>
     </g>
     <g id="text_14">
      <text style="fill:#555555;font-family:DejaVu Sans;font-size:10px;font-style:normal;font-weight:400;text-anchor:end;" transform="rotate(-0, 47, 38.359219)" x="47" y="38.359219">1.0</text>
     </g>
    </g>
    <g id="text_15">
     <text style="fill:#555555;font-family:DejaVu Sans;font-size:12px;font-style:normal;font-weight:400;text-anchor:middle;" transform="rotate(-90, 24.60125, 143.28)" x="24.60125" y="143.28">Recall probability</text>
    </g>
   </g>
   <g id="LineCollection_1">
    <path clip-path="url(#p62b6b378e8)" d="M 69.218182 50.157218 
L 69.218182 48.498102 
" style="fill:none;stroke:#e24a33;stroke-width:1.5;"/>
    <path clip-path="url(#p62b6b378e8)" d="M 79.71348 64.288599 
L 79.71348 61.263149 
" style="fill:none;stroke:#e24a33;stroke-width:1.5;"/>
    <path clip-path="url(#p62b6b378e8)" d="M 90.208777 77.125983 
L 90.208777 72.974858 
" style="fill:none;stroke:#e24a33;stroke-width:1.5;"/>
    <path clip-path="url(#p62b6b378e8)" d="M 100.704075 88.816884 
L 100.704075 83.739006 
" style="fill:none;stroke:#e24a33;stroke-width:1.5;"/>
    <path clip-path="url(#p62b6b378e8)" d="M 111.199373 99.488558 
L 111.199373 93.649153 
" style="fill:none;stroke:#e24a33;stroke-width:1.5;"/>
    <path clip-path="url(#p62b6b378e8)" d="M 121.694671 109.251285 
L 121.694671 102.788178 
" style="fill:none;stroke:#e24a33;stroke-width:1.5;"/>
    <path clip-path="url(#p62b6b378e8)" d="M 132.189969 118.201028 
L 132.189969 111.229617 
" style="fill:none;stroke:#e24a33;stroke-width:1.5;"/>
    <path clip-path="url(#p62b6b378e8)" d="M 142.685266 126.421615 
L 142.685266 119.038827 
" style="fill:none;stroke:#e24a33;stroke-width:1.5;"/>
    <path clip-path="url(#p62b6b378e8)" d="M 153.180564 133.986533 
L 153.180564 126.274011 
" style="fill:none;stroke:#e24a33;stroke-width:1.5;"/>
    <path clip-path="url(#p62b6b378e8)" d="M 163.675862 140.960418 
L 163.675862 132.98709 
" style="fill:none;stroke:#e24a33;stroke-width:1.5;"/>
    <path clip-path="url(#p62b6b378e8)" d="M 174.17116 147.400302 
L 174.17116 139.224472 
" style="fill:none;stroke:#e24a33;stroke-width:1.5;"/>
    <path clip-path="url(#p62b6b378e8)" d="M 184.666458 153.356648 
L 184.666458 145.027712 
" style="fill:none;stroke:#e24a33;stroke-width:1.5;"/>
    <path clip-path="url(#p62b6b378e8)" d="M 195.161755 158.874241 
L 195.161755 150.434093 
" style="fill:none;stroke:#e24a33;stroke-width:1.5;"/>
    <path clip-path="url(#p62b6b378e8)" d="M 205.657053 163.992921 
L 205.657053 155.47712 
" style="fill:none;stroke:#e24a33;stroke-width:1.5;"/>
    <path clip-path="url(#p62b6b378e8)" d="M 216.152351 168.748223 
L 216.152351 160.186962 
" style="fill:none;stroke:#e24a33;stroke-width:1.5;"/>
    <path clip-path="url(#p62b6b378e8)" d="M 226.647649 173.171918 
L 226.647649 164.590826 
" style="fill:none;stroke:#e24a33;stroke-width:1.5;"/>
    <path clip-path="url(#p62b6b378e8)" d="M 237.142947 177.29247 
L 237.142947 168.713295 
" style="fill:none;stroke:#e24a33;stroke-width:1.5;"/>
    <path clip-path="url(#p62b6b378e8)" d="M 247.638245 181.135441 
L 247.638245 172.576614 
" style="fill:none;stroke:#e24a33;stroke-width:1.5;"/>
    <path clip-path="url(#p62b6b378e8)" d="M 258.133542 184.723833 
L 258.133542 176.200948 
" style="fill:none;stroke:#e24a33;stroke-width:1.5;"/>
    <path clip-path="url(#p62b6b378e8)" d="M 268.62884 188.07838 
L 268.62884 179.604601 
" style="fill:none;stroke:#e24a33;stroke-width:1.5;"/>
    <path clip-path="url(#p62b6b378e8)" d="M 279.124138 191.217815 
L 279.124138 182.804219 
" style="fill:none;stroke:#e24a33;stroke-width:1.5;"/>
    <path clip-path="url(#p62b6b378e8)" d="M 289.619436 194.159086 
L 289.619436 185.814956 
" style="fill:none;stroke:#e24a33;stroke-width:1.5;"/>
    <path clip-path="url(#p62b6b378e8)" d="M 300.114734 196.91756 
L 300.114734 188.650634 
" style="fill:none;stroke:#e24a33;stroke-width:1.5;"/>
    <path clip-path="url(#p62b6b378e8)" d="M 310.610031 199.507186 
L 310.610031 191.323874 
" style="fill:none;stroke:#e24a33;stroke-width:1.5;"/>
    <path clip-path="url(#p62b6b378e8)" d="M 321.105329 201.940654 
L 321.105329 193.846216 
" style="fill:none;stroke:#e24a33;stroke-width:1.5;"/>
    <path clip-path="url(#p62b6b378e8)" d="M 331.600627 204.22952 
L 331.600627 196.228229 
" style="fill:none;stroke:#e24a33;stroke-width:1.5;"/>
    <path clip-path="url(#p62b6b378e8)" d="M 342.095925 206.384329 
L 342.095925 198.4796 
" style="fill:none;stroke:#e24a33;stroke-width:1.5;"/>
    <path clip-path="url(#p62b6b378e8)" d="M 352.591223 208.414711 
L 352.591223 200.609224 
" style="fill:none;stroke:#e24a33;stroke-width:1.5;"/>
    <path clip-path="url(#p62b6b378e8)" d="M 363.08652 210.329478 
L 363.08652 202.625276 
" style="fill:none;stroke:#e24a33;stroke-width:1.5;"/>
    <path clip-path="url(#p62b6b378e8)" d="M 373.581818 212.136703 
L 373.581818 204.535277 
" style="fill:none;stroke:#e24a33;stroke-width:1.5;"/>
   </g>
   <g id="LineCollection_2">
    <path clip-path="url(#p62b6b378e8)" d="M 69.218182 53.770112 
L 69.218182 52.715939 
" style="fill:none;stroke:#348abd;stroke-width:1.5;"/>
    <path clip-path="url(#p62b6b378e8)" d="M 79.71348 71.14925 
L 79.71348 69.236723 
" style="fill:none;stroke:#348abd;stroke-width:1.5;"/>
    <path clip-path="url(#p62b6b378e8)" d="M 90.208777 86.88525 
L 90.208777 84.279895 
" style="fill:none;stroke:#348abd;stroke-width:1.5;"/>
    <path clip-path="url(#p62b6b378e8)" d="M 100.704075 101.145247 
L 100.704075 97.986889 
" style="fill:none;stroke:#348abd;stroke-width:1.5;"/>
    <path clip-path="url(#p62b6b378e8)" d="M 111.199373 114.078128 
L 111.199373 110.484765 
" style="fill:none;stroke:#348abd;stroke-width:1.5;"/>
    <path clip-path="url(#p62b6b378e8)" d="M 121.694671 125.816662 
L 121.694671 121.887744 
" style="fill:none;stroke:#348abd;stroke-width:1.5;"/>
    <path clip-path="url(#p62b6b378e8)" d="M 132.189969 136.479374 
L 132.189969 132.298575 
" style="fill:none;stroke:#348abd;stroke-width:1.5;"/>
    <path clip-path="url(#p62b6b378e8)" d="M 142.685266 146.172178 
L 142.685266 141.809756 
" style="fill:none;stroke:#348abd;stroke-width:1.5;"/>
    <path clip-path="url(#p62b6b378e8)" d="M 153.180564 154.989815 
L 153.180564 150.504606 
" style="fill:none;stroke:#348abd;stroke-width:1.5;"/>
    <path clip-path="url(#p62b6b378e8)" d="M 163.675862 163.017113 
L 163.675862 158.458232 
" style="fill:none;stroke:#348abd;stroke-width:1.5;"/>
    <path clip-path="url(#p62b6b378e8)" d="M 174.17116 170.330093 
L 174.17116 165.738384 
" style="fill:none;stroke:#348abd;stroke-width:1.5;"/>
    <path clip-path="url(#p62b6b378e8)" d="M 184.666458 176.99695 
L 184.666458 172.406215 
" style="fill:none;stroke:#348abd;stroke-width:1.5;"/>
    <path clip-path="url(#p62b6b378e8)" d="M 195.161755 183.078913 
L 195.161755 178.516964 
" style="fill:none;stroke:#348abd;stroke-width:1.5;"/>
    <path clip-path="url(#p62b6b378e8)" d="M 205.657053 188.631003 
L 205.657053 184.120559 
" style="fill:none;stroke:#348abd;stroke-width:1.5;"/>
    <path clip-path="url(#p62b6b378e8)" d="M 216.152351 193.702705 
L 216.152351 189.262159 
" style="fill:none;stroke:#348abd;stroke-width:1.5;"/>
    <path clip-path="url(#p62b6b378e8)" d="M 226.647649 198.338563 
L 226.647649 193.982635 
" style="fill:none;stroke:#348abd;stroke-width:1.5;"/>
    <path clip-path="url(#p62b6b378e8)" d="M 237.142947 202.578706 
L 237.142947 198.319005 
" style="fill:none;stroke:#348abd;stroke-width:1.5;"/>
    <path clip-path="url(#p62b6b378e8)" d="M 247.638245 206.459316 
L 247.638245 202.304814 
" style="fill:none;stroke:#348abd;stroke-width:1.5;"/>
    <path clip-path="url(#p62b6b378e8)" d="M 258.133542 210.013039 
L 258.133542 205.970484 
" style="fill:none;stroke:#348abd;stroke-width:1.5;"/>
    <path clip-path="url(#p62b6b378e8)" d="M 268.62884 213.269355 
L 268.62884 209.34362 
" style="fill:none;stroke:#348abd;stroke-width:1.5;"/>
    <path clip-path="url(#p62b6b378e8)" d="M 279.124138 216.254907 
L 279.124138 212.449288 
" style="fill:none;stroke:#348abd;stroke-width:1.5;"/>
    <path clip-path="url(#p62b6b378e8)" d="M 289.619436 218.993786 
L 289.619436 215.310261 
" style="fill:none;stroke:#348abd;stroke-width:1.5;"/>
    <path clip-path="url(#p62b6b378e8)" d="M 300.114734 221.507798 
L 300.114734 217.947244 
" style="fill:none;stroke:#348abd;stroke-width:1.5;"/>
    <path clip-path="url(#p62b6b378e8)" d="M 310.610031 223.816692 
L 310.610031 220.379071 
" style="fill:none;stroke:#348abd;stroke-width:1.5;"/>
    <path clip-path="url(#p62b6b378e8)" d="M 321.105329 225.938364 
L 321.105329 222.622887 
" style="fill:none;stroke:#348abd;stroke-width:1.5;"/>
    <path clip-path="url(#p62b6b378e8)" d="M 331.600627 227.889045 
L 331.600627 224.694305 
" style="fill:none;stroke:#348abd;stroke-width:1.5;"/>
    <path clip-path="url(#p62b6b378e8)" d="M 342.095925 229.683468 
L 342.095925 226.607556 
" style="fill:none;stroke:#348abd;stroke-width:1.5;"/>
    <path clip-path="url(#p62b6b378e8)" d="M 352.591223 231.335009 
L 352.591223 228.375617 
" style="fill:none;stroke:#348abd;stroke-width:1.5;"/>
    <path clip-path="url(#p62b6b378e8)" d="M 363.08652 232.855825 
L 363.08652 230.010325 
" style="fill:none;stroke:#348abd;stroke-width:1.5;"/>
    <path clip-path="url(#p62b6b378e8)" d="M 373.581818 234.256969 
L 373.581818 231.52249 
" style="fill:none;stroke:#348abd;stroke-width:1.5;"/>
   </g>
   <g id="line2d_27">
    <path clip-path="url(#p62b6b378e8)" d="M 69.218182 47.845072 
L 79.71348 60.318457 
L 90.208777 72.029748 
L 100.704075 83.025506 
L 111.199373 93.34945 
L 121.694671 103.042625 
L 132.189969 112.14357 
L 142.685266 120.688468 
L 153.180564 128.711293 
L 163.675862 136.243943 
L 174.17116 143.316365 
L 184.666458 149.956679 
L 195.161755 156.191286 
L 205.657053 162.044973 
L 216.152351 167.541013 
L 226.647649 172.701258 
L 237.142947 177.546225 
L 247.638245 182.095175 
L 258.133542 186.366195 
L 268.62884 190.376266 
L 279.124138 194.141331 
L 289.619436 197.676359 
L 300.114734 200.995406 
L 310.610031 204.111666 
L 321.105329 207.037531 
L 331.600627 209.784632 
L 342.095925 212.363891 
L 352.591223 214.785564 
L 363.08652 217.059279 
L 373.581818 219.194074 
" style="fill:none;stroke:#e24a33;stroke-dasharray:5.6,2.4;stroke-dashoffset:0;stroke-width:1.5;"/>
   </g>
   <g id="line2d_28">
    <path clip-path="url(#p62b6b378e8)" d="M 69.218182 52.775123 
L 79.71348 69.464351 
L 90.208777 84.755509 
L 100.704075 98.765714 
L 111.199373 111.602273 
L 121.694671 123.363503 
L 132.189969 134.139485 
L 142.685266 144.012755 
L 153.180564 153.058933 
L 163.675862 161.347306 
L 174.17116 168.941355 
L 184.666458 175.899244 
L 195.161755 182.274265 
L 205.657053 188.115246 
L 216.152351 193.466923 
L 226.647649 198.370286 
L 237.142947 202.86289 
L 247.638245 206.979145 
L 258.133542 210.750578 
L 268.62884 214.206075 
L 279.124138 217.372103 
L 289.619436 220.272909 
L 300.114734 222.930713 
L 310.610031 225.365871 
L 321.105329 227.597033 
L 331.600627 229.641289 
L 342.095925 231.514296 
L 352.591223 233.2304 
L 363.08652 234.802745 
L 373.581818 236.243372 
" style="fill:none;stroke:#348abd;stroke-dasharray:5.6,2.4;stroke-dashoffset:0;stroke-width:1.5;"/>
   </g>
   <g id="line2d_29">
    <path clip-path="url(#p62b6b378e8)" d="M 69.218182 49.32766 
L 79.71348 62.775874 
L 90.208777 75.050421 
L 100.704075 86.277945 
L 111.199373 96.568856 
L 121.694671 106.019732 
L 132.189969 114.715322 
L 142.685266 122.730221 
L 153.180564 130.130272 
L 163.675862 136.973754 
L 174.17116 143.312387 
L 184.666458 149.19218 
L 195.161755 154.654167 
L 205.657053 159.735021 
L 216.152351 164.467592 
L 226.647649 168.881372 
L 237.142947 173.002882 
L 247.638245 176.856028 
L 258.133542 180.46239 
L 268.62884 183.841491 
L 279.124138 187.011017 
L 289.619436 189.987021 
L 300.114734 192.784097 
L 310.610031 195.41553 
L 321.105329 197.893435 
L 331.600627 200.228875 
L 342.095925 202.431964 
L 352.591223 204.511968 
L 363.08652 206.477377 
L 373.581818 208.33599 
" style="fill:none;stroke:#e24a33;stroke-linecap:square;stroke-width:1.5;"/>
    <defs>
     <path d="M 0 1.5 
C 0.397805 1.5 0.77937 1.341951 1.06066 1.06066 
C 1.341951 0.77937 1.5 0.397805 1.5 0 
C 1.5 -0.397805 1.341951 -0.77937 1.06066 -1.06066 
C 0.77937 -1.341951 0.397805 -1.5 0 -1.5 
C -0.397805 -1.5 -0.77937 -1.341951 -1.06066 -1.06066 
C -1.341951 -0.77937 -1.5 -0.397805 -1.5 0 
C -1.5 0.397805 -1.341951 0.77937 -1.06066 1.06066 
C -0.77937 1.341951 -0.397805 1.5 0 1.5 
z
" id="m002d246c49" style="stroke:#e24a33;"/>
    </defs>
    <g clip-path="url(#p62b6b378e8)">
     <use style="fill:#e24a33;stroke:#e24a33;" x="69.218182" xlink:href="#m002d246c49" y="49.32766"/>
     <use style="fill:#e24a33;stroke:#e24a33;" x="79.71348" xlink:href="#m002d246c49" y="62.775874"/>
     <use style="fill:#e24a33;stroke:#e24a33;" x="90.208777" xlink:href="#m002d246c49" y="75.050421"/>
     <use style="fill:#e24a33;stroke:#e24a33;" x="100.704075" xlink:href="#m002d246c49" y="86.277945"/>
     <use style="fill:#e24a33;stroke:#e24a33;" x="111.199373" xlink:href="#m002d246c49" y="96.568856"/>
     <use style="fill:#e24a33;stroke:#e24a33;" x="121.694671" xlink:href="#m002d246c49" y="106.019732"/>
     <use style="fill:#e24a33;stroke:#e24a33;" x="132.189969" xlink:href="#m002d246c49" y="114.715322"/>
     <use style="fill:#e24a33;stroke:#e24a33;" x="142.685266" xlink:href="#m002d246c49" y="122.730221"/>
     <use style="fill:#e24a33;stroke:#e24a33;" x="153.180564" xlink:href="#m002d246c49" y="130.130272"/>
     <use style="fill:#e24a33;stroke:#e24a33;" x="163.675862" xlink:href="#m002d246c49" y="136.973754"/>
     <use style="fill:#e24a33;stroke:#e24a33;" x="174.17116" xlink:href="#m002d246c49" y="143.312387"/>
     <use style="fill:#e24a33;stroke:#e24a33;" x="184.666458" xlink:href="#m002d246c49" y="149.19218"/>
     <use style="fill:#e24a33;stroke:#e24a33;" x="195.161755" xlink:href="#m002d246c49" y="154.654167"/>
     <use style="fill:#e24a33;stroke:#e24a33;" x="205.657053" xlink:href="#m002d246c49" y="159.735021"/>
     <use style="fill:#e24a33;stroke:#e24a33;" x="216.152351" xlink:href="#m002d246c49" y="164.467592"/>
     <use style="fill:#e24a33;stroke:#e24a33;" x="226.647649" xlink:href="#m002d246c49" y="168.881372"/>
     <use style="fill:#e24a33;stroke:#e24a33;" x="237.142947" xlink:href="#m002d246c49" y="173.002882"/>
     <use style="fill:#e24a33;stroke:#e24a33;" x="247.638245" xlink:href="#m002d246c49" y="176.856028"/>
     <use style="fill:#e24a33;stroke:#e24a33;" x="258.133542" xlink:href="#m002d246c49" y="180.46239"/>
     <use style="fill:#e24a33;stroke:#e24a33;" x="268.62884" xlink:href="#m002d246c49" y="183.841491"/>
     <use style="fill:#e24a33;stroke:#e24a33;" x="279.124138" xlink:href="#m002d246c49" y="187.011017"/>
     <use style="fill:#e24a33;stroke:#e24a33;" x="289.619436" xlink:href="#m002d246c49" y="189.987021"/>
     <use style="fill:#e24a33;stroke:#e24a33;" x="300.114734" xlink:href="#m002d246c49" y="192.784097"/>
     <use style="fill:#e24a33;stroke:#e24a33;" x="310.610031" xlink:href="#m002d246c49" y="195.41553"/>
     <use style="fill:#e24a33;stroke:#e24a33;" x="321.105329" xlink:href="#m002d246c49" y="197.893435"/>
     <use style="fill:#e24a33;stroke:#e24a33;" x="331.600627" xlink:href="#m002d246c49" y="200.228875"/>
     <use style="fill:#e24a33;stroke:#e24a33;" x="342.095925" xlink:href="#m002d246c49" y="202.431964"/>
     <use style="fill:#e24a33;stroke:#e24a33;" x="352.591223" xlink:href="#m002d246c49" y="204.511968"/>
     <use style="fill:#e24a33;stroke:#e24a33;" x="363.08652" xlink:href="#m002d246c49" y="206.477377"/>
     <use style="fill:#e24a33;stroke:#e24a33;" x="373.581818" xlink:href="#m002d246c49" y="208.33599"/>
    </g>
   </g>
   <g id="line2d_30">
    <path clip-path="url(#p62b6b378e8)" d="M 69.218182 53.243025 
L 79.71348 70.192987 
L 90.208777 85.582572 
L 100.704075 99.566068 
L 111.199373 112.281446 
L 121.694671 123.852203 
L 132.189969 134.388975 
L 142.685266 143.990967 
L 153.180564 152.747211 
L 163.675862 160.737672 
L 174.17116 168.034238 
L 184.666458 174.701583 
L 195.161755 180.797939 
L 205.657053 186.375781 
L 216.152351 191.482432 
L 226.647649 196.160599 
L 237.142947 200.448855 
L 247.638245 204.382065 
L 258.133542 207.991761 
L 268.62884 211.306488 
L 279.124138 214.352097 
L 289.619436 217.152024 
L 300.114734 219.727521 
L 310.610031 222.097881 
L 321.105329 224.280625 
L 331.600627 226.291675 
L 342.095925 228.145512 
L 352.591223 229.855313 
L 363.08652 231.433075 
L 373.581818 232.889729 
" style="fill:none;stroke:#348abd;stroke-linecap:square;stroke-width:1.5;"/>
    <defs>
     <path d="M 0 1.5 
C 0.397805 1.5 0.77937 1.341951 1.06066 1.06066 
C 1.341951 0.77937 1.5 0.397805 1.5 0 
C 1.5 -0.397805 1.341951 -0.77937 1.06066 -1.06066 
C 0.77937 -1.341951 0.397805 -1.5 0 -1.5 
C -0.397805 -1.5 -0.77937 -1.341951 -1.06066 -1.06066 
C -1.341951 -0.77937 -1.5 -0.397805 -1.5 0 
C -1.5 0.397805 -1.341951 0.77937 -1.06066 1.06066 
C -0.77937 1.341951 -0.397805 1.5 0 1.5 
z
" id="mc820886473" style="stroke:#348abd;"/>
    </defs>
    <g clip-path="url(#p62b6b378e8)">
     <use style="fill:#348abd;stroke:#348abd;" x="69.218182" xlink:href="#mc820886473" y="53.243025"/>
     <use style="fill:#348abd;stroke:#348abd;" x="79.71348" xlink:href="#mc820886473" y="70.192987"/>
     <use style="fill:#348abd;stroke:#348abd;" x="90.208777" xlink:href="#mc820886473" y="85.582572"/>
     <use style="fill:#348abd;stroke:#348abd;" x="100.704075" xlink:href="#mc820886473" y="99.566068"/>
     <use style="fill:#348abd;stroke:#348abd;" x="111.199373" xlink:href="#mc820886473" y="112.281446"/>
     <use style="fill:#348abd;stroke:#348abd;" x="121.694671" xlink:href="#mc820886473" y="123.852203"/>
     <use style="fill:#348abd;stroke:#348abd;" x="132.189969" xlink:href="#mc820886473" y="134.388975"/>
     <use style="fill:#348abd;stroke:#348abd;" x="142.685266" xlink:href="#mc820886473" y="143.990967"/>
     <use style="fill:#348abd;stroke:#348abd;" x="153.180564" xlink:href="#mc820886473" y="152.747211"/>
     <use style="fill:#348abd;stroke:#348abd;" x="163.675862" xlink:href="#mc820886473" y="160.737672"/>
     <use style="fill:#348abd;stroke:#348abd;" x="174.17116" xlink:href="#mc820886473" y="168.034238"/>
     <use style="fill:#348abd;stroke:#348abd;" x="184.666458" xlink:href="#mc820886473" y="174.701583"/>
     <use style="fill:#348abd;stroke:#348abd;" x="195.161755" xlink:href="#mc820886473" y="180.797939"/>
     <use style="fill:#348abd;stroke:#348abd;" x="205.657053" xlink:href="#mc820886473" y="186.375781"/>
     <use style="fill:#348abd;stroke:#348abd;" x="216.152351" xlink:href="#mc820886473" y="191.482432"/>
     <use style="fill:#348abd;stroke:#348abd;" x="226.647649" xlink:href="#mc820886473" y="196.160599"/>
     <use style="fill:#348abd;stroke:#348abd;" x="237.142947" xlink:href="#mc820886473" y="200.448855"/>
     <use style="fill:#348abd;stroke:#348abd;" x="247.638245" xlink:href="#mc820886473" y="204.382065"/>
     <use style="fill:#348abd;stroke:#348abd;" x="258.133542" xlink:href="#mc820886473" y="207.991761"/>
     <use style="fill:#348abd;stroke:#348abd;" x="268.62884" xlink:href="#mc820886473" y="211.306488"/>
     <use style="fill:#348abd;stroke:#348abd;" x="279.124138" xlink:href="#mc820886473" y="214.352097"/>
     <use style="fill:#348abd;stroke:#348abd;" x="289.619436" xlink:href="#mc820886473" y="217.152024"/>
     <use style="fill:#348abd;stroke:#348abd;" x="300.114734" xlink:href="#mc820886473" y="219.727521"/>
     <use style="fill:#348abd;stroke:#348abd;" x="310.610031" xlink:href="#mc820886473" y="222.097881"/>
     <use style="fill:#348abd;stroke:#348abd;" x="321.105329" xlink:href="#mc820886473" y="224.280625"/>
     <use style="fill:#348abd;stroke:#348abd;" x="331.600627" xlink:href="#mc820886473" y="226.291675"/>
     <use style="fill:#348abd;stroke:#348abd;" x="342.095925" xlink:href="#mc820886473" y="228.145512"/>
     <use style="fill:#348abd;stroke:#348abd;" x="352.591223" xlink:href="#mc820886473" y="229.855313"/>
     <use style="fill:#348abd;stroke:#348abd;" x="363.08652" xlink:href="#mc820886473" y="231.433075"/>
     <use style="fill:#348abd;stroke:#348abd;" x="373.581818" xlink:href="#mc820886473" y="232.889729"/>
    </g>
   </g>
   <g id="patch_3">
    <path d="M 54 252 
L 54 34.56 
" style="fill:none;stroke:#ffffff;stroke-linecap:square;stroke-linejoin:miter;"/>
   </g>
   <g id="patch_4">
    <path d="M 388.8 252 
L 388.8 34.56 
" style="fill:none;stroke:#ffffff;stroke-linecap:square;stroke-linejoin:miter;"/>
   </g>
   <g id="patch_5">
    <path d="M 54 252 
L 388.8 252 
" style="fill:none;stroke:#ffffff;stroke-linecap:square;stroke-linejoin:miter;"/>
   </g>
   <g id="patch_6">
    <path d="M 54 34.56 
L 388.8 34.56 
" style="fill:none;stroke:#ffffff;stroke-linecap:square;stroke-linejoin:miter;"/>
   </g>
   <g id="text_16">
    <text style="font-family:DejaVu Sans;font-size:14.4px;font-style:normal;font-weight:400;text-anchor:middle;" transform="rotate(-0, 221.4, 28.56)" x="221.4" y="28.56">Predicted forgetting curves (A: a=b=3, B: a=b=12)</text>
   </g>
   <g id="legend_1">
    <g id="patch_7">
     <path d="M 304.795313 101.2725 
L 381.8 101.2725 
Q 383.8 101.2725 383.8 99.2725 
L 383.8 41.56 
Q 383.8 39.56 381.8 39.56 
L 304.795313 39.56 
Q 302.795313 39.56 302.795313 41.56 
L 302.795313 99.2725 
Q 302.795313 101.2725 304.795313 101.2725 
z
" style="fill:#e5e5e5;opacity:0.8;stroke:#cccccc;stroke-linejoin:miter;stroke-width:0.5;"/>
    </g>
    <g id="line2d_31">
     <path d="M 306.795313 47.658437 
L 326.795313 47.658437 
" style="fill:none;stroke:#e24a33;stroke-dasharray:5.6,2.4;stroke-dashoffset:0;stroke-width:1.5;"/>
    </g>
    <g id="line2d_32"/>
    <g id="text_17">
     <text style="font-family:DejaVu Sans;font-size:10px;font-style:normal;font-weight:400;text-anchor:start;" transform="rotate(-0, 334.795313, 51.158437)" x="334.795313" y="51.158437">approx A</text>
    </g>
    <g id="line2d_33">
     <path d="M 306.795313 62.336562 
L 326.795313 62.336562 
" style="fill:none;stroke:#348abd;stroke-dasharray:5.6,2.4;stroke-dashoffset:0;stroke-width:1.5;"/>
    </g>
    <g id="line2d_34"/>
    <g id="text_18">
     <text style="font-family:DejaVu Sans;font-size:10px;font-style:normal;font-weight:400;text-anchor:start;" transform="rotate(-0, 334.795313, 65.836562)" x="334.795313" y="65.836562">approx B</text>
    </g>
    <g id="LineCollection_3">
     <path d="M 316.795313 82.014687 
L 316.795313 72.014687 
" style="fill:none;stroke:#e24a33;stroke-width:1.5;"/>
    </g>
    <g id="line2d_35">
     <path d="M 306.795313 77.014687 
L 326.795313 77.014687 
" style="fill:none;stroke:#e24a33;stroke-linecap:square;stroke-width:1.5;"/>
    </g>
    <g id="line2d_36">
     <g>
      <use style="fill:#e24a33;stroke:#e24a33;" x="316.795313" xlink:href="#m002d246c49" y="77.014687"/>
     </g>
    </g>
    <g id="text_19">
     <text style="font-family:DejaVu Sans;font-size:10px;font-style:normal;font-weight:400;text-anchor:start;" transform="rotate(-0, 334.795313, 80.514687)" x="334.795313" y="80.514687">Model A</text>
    </g>
    <g id="LineCollection_4">
     <path d="M 316.795313 96.692813 
L 316.795313 86.692813 
" style="fill:none;stroke:#348abd;stroke-width:1.5;"/>
    </g>
    <g id="line2d_37">
     <path d="M 306.795313 91.692813 
L 326.795313 91.692813 
" style="fill:none;stroke:#348abd;stroke-linecap:square;stroke-width:1.5;"/>
    </g>
    <g id="line2d_38">
     <g>
      <use style="fill:#348abd;stroke:#348abd;" x="316.795313" xlink:href="#mc820886473" y="91.692813"/>
     </g>
    </g>
    <g id="text_20">
     <text style="font-family:DejaVu Sans;font-size:10px;font-style:normal;font-weight:400;text-anchor:start;" transform="rotate(-0, 334.795313, 95.192813)" x="334.795313" y="95.192813">Model B</text>
    </g>
   </g>
  </g>
 </g>
 <defs>
  <clipPath id="p62b6b378e8">
   <rect height="217.44" width="334.8" x="54" y="34.56"/>
  </clipPath>
 </defs>
</svg>
