<?xml version="1.0" encoding="utf-8" standalone="no"?>
<!DOCTYPE svg PUBLIC "-//W3C//DTD SVG 1.1//EN"
  "http://www.w3.org/Graphics/SVG/1.1/DTD/svg11.dtd">
<!-- Created with matplotlib (http://matplotlib.org/) -->
<svg height="288pt" version="1.1" viewBox="0 0 432 288" width="432pt" xmlns="http://www.w3.org/2000/svg" xmlns:xlink="http://www.w3.org/1999/xlink">
 <defs>
  <style type="text/css">
*{stroke-linecap:butt;stroke-linejoin:round;}
  </style>
 </defs>
 <g id="figure_1">
  <g id="patch_1">
   <path d="M 0 288 
L 432 288 
L 432 0 
L 0 0 
z
" style="fill:#ffffff;"/>
  </g>
  <g id="axes_1">
   <g id="patch_2">
    <path d="M 64.8 252 
L 388.8 252 
L 388.8 34.56 
L 64.8 34.56 
z
" style="fill:#e5e5e5;"/>
   </g>
   <g id="matplotlib.axis_1">
    <g id="xtick_1">
     <g id="line2d_1">
      <path clip-path="url(#pe7e6170e6c)" d="M 102.184615 252 
L 102.184615 34.56 
" style="fill:none;stroke:#ffffff;stroke-linecap:square;stroke-width:0.8;"/>
     </g>
     <g id="line2d_2">
      <defs>
       <path d="M 0 0 
L 0 3.5 
" id="ma76c712f37" style="stroke:#555555;stroke-width:0.8;"/>
      </defs>
      <g>
       <use style="fill:#555555;stroke:#555555;stroke-width:0.8;" x="102.184615" xlink:href="#ma76c712f37" y="252"/>
      </g>
     </g>
     <g id="text_1">
      <text style="fill:#555555;font-family:DejaVu Sans;font-size:10px;font-style:normal;font-weight:400;text-anchor:middle;" transform="rotate(-0, 102.184615, 266.598437)" x="102.184615" y="266.598437">2</text>
     </g>
    </g>
    <g id="xtick_2">
     <g id="line2d_3">
      <path clip-path="url(#pe7e6170e6c)" d="M 147.499301 252 
L 147.499301 34.56 
" style="fill:none;stroke:#ffffff;stroke-linecap:square;stroke-width:0.8;"/>
     </g>
     <g id="line2d_4">
      <g>
       <use style="fill:#555555;stroke:#555555;stroke-width:0.8;" x="147.499301" xlink:href="#ma76c712f37" y="252"/>
      </g>
     </g>
     <g id="text_2">
      <text style="fill:#555555;font-family:DejaVu Sans;font-size:10px;font-style:normal;font-weight:400;text-anchor:middle;" transform="rotate(-0, 147.499301, 266.598437)" x="147.499301" y="266.598437">4</text>
     </g>
    </g>
    <g id="xtick_3">
     <g id="line2d_5">
      <path clip-path="url(#pe7e6170e6c)" d="M 192.813986 252 
L 192.813986 34.56 
" style="fill:none;stroke:#ffffff;stroke-linecap:square;stroke-width:0.8;"/>
     </g>
     <g id="line2d_6">
      <g>
       <use style="fill:#555555;stroke:#555555;stroke-width:0.8;" x="192.813986" xlink:href="#ma76c712f37" y="252"/>
      </g>
     </g>
     <g id="text_3">
      <text style="fill:#555555;font-family:DejaVu Sans;font-size:10px;font-style:normal;font-weight:400;text-anchor:middle;" transform="rotate(-0, 192.813986, 266.598437)" x="192.813986" y="266.598437">6</text>
     </g>
    </g>
    <g id="xtick_4">
     <g id="line2d_7">
      <path clip-path="url(#pe7e6170e6c)" d="M 238.128671 252 
L 238.128671 34.56 
" style="fill:none;stroke:#ffffff;stroke-linecap:square;stroke-width:0.8;"/>
     </g>
     <g id="line2d_8">
      <g>
       <use style="fill:#555555;stroke:#555555;stroke-width:0.8;" x="238.128671" xlink:href="#ma76c712f37" y="252"/>
      </g>
     </g>
     <g id="text_4">
      <text style="fill:#555555;font-family:DejaVu Sans;font-size:10px;font-style:normal;font-weight:400;text-anchor:middle;" transform="rotate(-0, 238.128671, 266.598437)" x="238.128671" y="266.598437">8</text>
     </g>
    </g>
    <g id="xtick_5">
     <g id="line2d_9">
      <path clip-path="url(#pe7e6170e6c)" d="M 283.443357 252 
L 283.443357 34.56 
" style="fill:none;stroke:#ffffff;stroke-linecap:square;stroke-width:0.8;"/>
     </g>
     <g id="line2d_10">
      <g>
       <use style="fill:#555555;stroke:#555555;stroke-width:0.8;" x="283.443357" xlink:href="#ma76c712f37" y="252"/>
      </g>
     </g>
     <g id="text_5">
      <text style="fill:#555555;font-family:DejaVu Sans;font-size:10px;font-style:normal;font-weight:400;text-anchor:middle;" transform="rotate(-0, 283.443357, 266.598437)" x="283.443357" y="266.598437">10</text>
     </g>
    </g>
    <g id="xtick_6">
     <g id="line2d_11">
      <path clip-path="url(#pe7e6170e6c)" d="M 328.758042 252 
L 328.758042 34.56 
" style="fill:none;stroke:#ffffff;stroke-linecap:square;stroke-width:0.8;"/>
     </g>
     <g id="line2d_12">
      <g>
       <use style="fill:#555555;stroke:#555555;stroke-width:0.8;" x="328.758042" xlink:href="#ma76c712f37" y="252"/>
      </g>
     </g>
     <g id="text_6">
      <text style="fill:#555555;font-family:DejaVu Sans;font-size:10px;font-style:normal;font-weight:400;text-anchor:middle;" transform="rotate(-0, 328.758042, 266.598437)" x="328.758042" y="266.598437">12</text>
     </g>
    </g>
    <g id="xtick_7">
     <g id="line2d_13">
      <path clip-path="url(#pe7e6170e6c)" d="M 374.072727 252 
L 374.072727 34.56 
" style="fill:none;stroke:#ffffff;stroke-linecap:square;stroke-width:0.8;"/>
     </g>
     <g id="line2d_14">
      <g>
       <use style="fill:#555555;stroke:#555555;stroke-width:0.8;" x="374.072727" xlink:href="#ma76c712f37" y="252"/>
      </g>
     </g>
     <g id="text_7">
      <text style="fill:#555555;font-family:DejaVu Sans;font-size:10px;font-style:normal;font-weight:400;text-anchor:middle;" transform="rotate(-0, 374.072727, 266.598437)" x="374.072727" y="266.598437">14</text>
     </g>
    </g>
    <g id="text_8">
     <text style="fill:#555555;font-family:DejaVu Sans;font-size:12px;font-style:normal;font-weight:400;text-anchor:middle;" transform="rotate(-0, 226.8, 281.79625)" x="226.8" y="281.79625">Time (days)</text>
    </g>
   </g>
   <g id="matplotlib.axis_2">
    <g id="ytick_1">
     <g id="line2d_15">
      <path clip-path="url(#pe7e6170e6c)" d="M 64.8 241.931733 
L 388.8 241.931733 
" style="fill:none;stroke:#ffffff;stroke-linecap:square;stroke-width:0.8;"/>
     </g>
     <g id="line2d_16">
      <defs>
       <path d="M 0 0 
L -3.5 0 
" id="m121aea2aeb" style="stroke:#555555;stroke-width:0.8;"/>
      </defs>
      <g>
       <use style="fill:#555555;stroke:#555555;stroke-width:0.8;" x="64.8" xlink:href="#m121aea2aeb" y="241.931733"/>
      </g>
     </g>
     <g id="text_9">
      <text style="fill:#555555;font-family:DejaVu Sans;font-size:10px;font-style:normal;font-weight:400;text-anchor:end;" transform="rotate(-0, 57.8, 245.730951)" x="57.8" y="245.730951">−0.015</text>
     </g>
    </g>
    <g id="ytick_2">
     <g id="line2d_17">
      <path clip-path="url(#pe7e6170e6c)" d="M 64.8 203.395065 
L 388.8 203.395065 
" style="fill:none;stroke:#ffffff;stroke-linecap:square;stroke-width:0.8;"/>
     </g>
     <g id="line2d_18">
      <g>
       <use style="fill:#555555;stroke:#555555;stroke-width:0.8;" x="64.8" xlink:href="#m121aea2aeb" y="203.395065"/>
      </g>
     </g>
     <g id="text_10">
      <text style="fill:#555555;font-family:DejaVu Sans;font-size:10px;font-style:normal;font-weight:400;text-anchor:end;" transform="rotate(-0, 57.8, 207.194283)" x="57.8" y="207.194283">−0.010</text>
     </g>
    </g>
    <g id="ytick_3">
     <g id="line2d_19">
      <path clip-path="url(#pe7e6170e6c)" d="M 64.8 164.858397 
L 388.8 164.858397 
" style="fill:none;stroke:#ffffff;stroke-linecap:square;stroke-width:0.8;"/>
     </g>
     <g id="line2d_20">
      <g>
       <use style="fill:#555555;stroke:#555555;stroke-width:0.8;" x="64.8" xlink:href="#m121aea2aeb" y="164.858397"/>
      </g>
     </g>
     <g id="text_11">
      <text style="fill:#555555;font-family:DejaVu Sans;font-size:10px;font-style:normal;font-weight:400;text-anchor:end;" transform="rotate(-0, 57.8, 168.657615)" x="57.8" y="168.657615">−0.005</text>
     </g>
    </g>
    <g id="ytick_4">
     <g id="line2d_21">
      <path clip-path="url(#pe7e6170e6c)" d="M 64.8 126.321729 
L 388.8 126.321729 
" style="fill:none;stroke:#ffffff;stroke-linecap:square;stroke-width:0.8;"/>
     </g>
     <g id="line2d_22">
      <g>
       <use style="fill:#555555;stroke:#555555;stroke-width:0.8;" x="64.8" xlink:href="#m121aea2aeb" y="126.321729"/>
      </g>
     </g>
     <g id="text_12">
      <text style="fill:#555555;font-family:DejaVu Sans;font-size:10px;font-style:normal;font-weight:400;text-anchor:end;" transform="rotate(-0, 57.8, 130.120947)" x="57.8" y="130.120947">0.000</text>
     </g>
    </g>
    <g id="ytick_5">
     <g id="line2d_23">
      <path clip-path="url(#pe7e6170e6c)" d="M 64.8 87.785061 
L 388.8 87.785061 
" style="fill:none;stroke:#ffffff;stroke-linecap:square;stroke-width:0.8;"/>
     </g>
     <g id="line2d_24">
      <g>
       <use style="fill:#555555;stroke:#555555;stroke-width:0.8;" x="64.8" xlink:href="#m121aea2aeb" y="87.785061"/>
      </g>
     </g>
     <g id="text_13">
      <text style="fill:#555555;font-family:DejaVu Sans;font-size:10px;font-style:normal;font-weight:400;text-anchor:end;" transform="rotate(-0, 57.8, 91.584279)" x="57.8" y="91.584279">0.005</text>
     </g>
    </g>
    <g id="ytick_6">
     <g id="line2d_25">
      <path clip-path="url(#pe7e6170e6c)" d="M 64.8 49.248393 
L 388.8 49.248393 
" style="fill:none;stroke:#ffffff;stroke-linecap:square;stroke-width:0.8;"/>
     </g>
     <g id="line2d_26">
      <g>
       <use style="fill:#555555;stroke:#555555;stroke-width:0.8;" x="64.8" xlink:href="#m121aea2aeb" y="49.248393"/>
      </g>
     </g>
     <g id="text_14">
      <text style="fill:#555555;font-family:DejaVu Sans;font-size:10px;font-style:normal;font-weight:400;text-anchor:end;" transform="rotate(-0, 57.8, 53.047611)" x="57.8" y="53.047611">0.010</text>
     </g>
    </g>
    <g id="text_15">
     <text style="fill:#555555;font-family:DejaVu Sans;font-size:12px;font-style:normal;font-weight:400;text-anchor:middle;" transform="rotate(-90, 14.296562, 143.28)" x="14.296562" y="143.28">Difference</text>
    </g>
   </g>
   <g id="line2d_27">
    <path clip-path="url(#pe7e6170e6c)" d="M 64.8 126.321729 
L 388.8 126.321729 
" style="fill:none;stroke:#545454;stroke-linecap:square;stroke-width:3;"/>
   </g>
   <g id="line2d_28">
    <path clip-path="url(#pe7e6170e6c)" d="M 79.527273 178.873249 
L 85.538404 189.643208 
L 91.549536 199.217916 
L 97.560668 207.661984 
L 103.5718 215.036957 
L 109.582931 221.401459 
L 115.594063 226.811333 
L 121.605195 231.319773 
L 127.616327 234.977457 
L 133.627458 237.832659 
L 139.63859 239.931368 
L 145.649722 241.317395 
L 151.660853 242.032474 
L 157.671985 242.116364 
L 163.683117 241.606934 
L 169.694249 240.540258 
L 175.70538 238.950696 
L 181.716512 236.870973 
L 187.727644 234.332257 
L 193.738776 231.364226 
L 199.749907 227.995143 
L 205.761039 224.251916 
L 211.772171 220.160162 
L 217.783302 215.744265 
L 223.794434 211.027437 
L 229.805566 206.031762 
L 235.816698 200.778257 
L 241.827829 195.286914 
L 247.838961 189.576749 
L 253.850093 183.665847 
L 259.861224 177.571402 
L 265.872356 171.309757 
L 271.883488 164.896443 
L 277.89462 158.346219 
L 283.905751 151.673101 
L 289.916883 144.890397 
L 295.928015 138.010743 
L 301.939147 131.046126 
L 307.950278 124.00792 
L 313.96141 116.906909 
L 319.972542 109.753315 
L 325.983673 102.556822 
L 331.994805 95.326604 
L 338.005937 88.071341 
L 344.017069 80.799249 
L 350.0282 73.518094 
L 356.039332 66.235216 
L 362.050464 58.957547 
L 368.061596 51.69163 
L 374.072727 44.443636 
" style="fill:none;stroke:#e24a33;stroke-linecap:square;stroke-width:1.5;"/>
   </g>
   <g id="line2d_29">
    <path clip-path="url(#pe7e6170e6c)" d="M 79.527273 142.906898 
L 85.538404 146.003821 
L 91.549536 148.6173 
L 97.560668 150.777493 
L 103.5718 152.513099 
L 109.582931 153.851427 
L 115.594063 154.818452 
L 121.605195 155.438877 
L 127.616327 155.736186 
L 133.627458 155.732697 
L 139.63859 155.449616 
L 145.649722 154.907082 
L 151.660853 154.124219 
L 157.671985 153.119174 
L 163.683117 151.909169 
L 169.694249 150.510534 
L 175.70538 148.93875 
L 181.716512 147.208489 
L 187.727644 145.333647 
L 193.738776 143.327379 
L 199.749907 141.202136 
L 205.761039 138.969691 
L 211.772171 136.641176 
L 217.783302 134.227106 
L 223.794434 131.737411 
L 229.805566 129.18146 
L 235.816698 126.568088 
L 241.827829 123.905622 
L 247.838961 121.2019 
L 253.850093 118.4643 
L 259.861224 115.699758 
L 265.872356 112.914787 
L 271.883488 110.115502 
L 277.89462 107.307634 
L 283.905751 104.49655 
L 289.916883 101.687273 
L 295.928015 98.884493 
L 301.939147 96.09259 
L 307.950278 93.315642 
L 313.96141 90.557444 
L 319.972542 87.821523 
L 325.983673 85.111148 
L 331.994805 82.429343 
L 338.005937 79.778903 
L 344.017069 77.162401 
L 350.0282 74.582201 
L 356.039332 72.040472 
L 362.050464 69.539191 
L 368.061596 67.080161 
L 374.072727 64.665013 
" style="fill:none;stroke:#348abd;stroke-linecap:square;stroke-width:1.5;"/>
   </g>
   <g id="patch_3">
    <path d="M 64.8 252 
L 64.8 34.56 
" style="fill:none;stroke:#ffffff;stroke-linecap:square;stroke-linejoin:miter;"/>
   </g>
   <g id="patch_4">
    <path d="M 388.8 252 
L 388.8 34.56 
" style="fill:none;stroke:#ffffff;stroke-linecap:square;stroke-linejoin:miter;"/>
   </g>
   <g id="patch_5">
    <path d="M 64.8 252 
L 388.8 252 
" style="fill:none;stroke:#ffffff;stroke-linecap:square;stroke-linejoin:miter;"/>
   </g>
   <g id="patch_6">
    <path d="M 64.8 34.56 
L 388.8 34.56 
" style="fill:none;stroke:#ffffff;stroke-linecap:square;stroke-linejoin:miter;"/>
   </g>
   <g id="text_16">
    <text style="font-family:DejaVu Sans;font-size:14.4px;font-style:normal;font-weight:400;text-anchor:middle;" transform="rotate(-0, 226.8, 28.56)" x="226.8" y="28.56">Expected recall probability minus approximation</text>
   </g>
   <g id="legend_1">
    <g id="patch_7">
     <path d="M 71.8 71.91625 
L 143.865625 71.91625 
Q 145.865625 71.91625 145.865625 69.91625 
L 145.865625 41.56 
Q 145.865625 39.56 143.865625 39.56 
L 71.8 39.56 
Q 69.8 39.56 69.8 41.56 
L 69.8 69.91625 
Q 69.8 71.91625 71.8 71.91625 
z
" style="fill:#e5e5e5;opacity:0.8;stroke:#cccccc;stroke-linejoin:miter;stroke-width:0.5;"/>
    </g>
    <g id="line2d_30">
     <path d="M 73.8 47.658437 
L 93.8 47.658437 
" style="fill:none;stroke:#e24a33;stroke-linecap:square;stroke-width:1.5;"/>
    </g>
    <g id="line2d_31"/>
    <g id="text_17">
     <text style="font-family:DejaVu Sans;font-size:10px;font-style:normal;font-weight:400;text-anchor:start;" transform="rotate(-0, 101.8, 51.158437)" x="101.8" y="51.158437">Model A</text>
    </g>
    <g id="line2d_32">
     <path d="M 73.8 62.336562 
L 93.8 62.336562 
" style="fill:none;stroke:#348abd;stroke-linecap:square;stroke-width:1.5;"/>
    </g>
    <g id="line2d_33"/>
    <g id="text_18">
     <text style="font-family:DejaVu Sans;font-size:10px;font-style:normal;font-weight:400;text-anchor:start;" transform="rotate(-0, 101.8, 65.836562)" x="101.8" y="65.836562">Model B</text>
    </g>
   </g>
  </g>
 </g>
 <defs>
  <clipPath id="pe7e6170e6c">
   <rect height="217.44" width="324" x="64.8" y="34.56"/>
  </clipPath>
 </defs>
</svg>
