<?xml version="1.0" encoding="utf-8" standalone="no"?>
<!DOCTYPE svg PUBLIC "-//W3C//DTD SVG 1.1//EN"
  "http://www.w3.org/Graphics/SVG/1.1/DTD/svg11.dtd">
<!-- Created with matplotlib (http://matplotlib.org/) -->
<svg height="288pt" version="1.1" viewBox="0 0 432 288" width="432pt" xmlns="http://www.w3.org/2000/svg" xmlns:xlink="http://www.w3.org/1999/xlink">
 <defs>
  <style type="text/css">
*{stroke-linecap:butt;stroke-linejoin:round;}
  </style>
 </defs>
 <g id="figure_1">
  <g id="patch_1">
   <path d="M 0 288 
L 432 288 
L 432 0 
L 0 0 
z
" style="fill:#ffffff;"/>
  </g>
  <g id="axes_1">
   <g id="patch_2">
    <path d="M 54 252 
L 388.8 252 
L 388.8 34.56 
L 54 34.56 
z
" style="fill:#e5e5e5;"/>
   </g>
   <g id="matplotlib.axis_1">
    <g id="xtick_1">
     <g id="line2d_1">
      <path clip-path="url(#p13a59a6abf)" d="M 61.609091 252 
L 61.609091 34.56 
" style="fill:none;stroke:#ffffff;stroke-linecap:square;stroke-width:0.8;"/>
     </g>
     <g id="line2d_2">
      <defs>
       <path d="M 0 0 
L 0 3.5 
" id="m78dc7d0f0b" style="stroke:#555555;stroke-width:0.8;"/>
      </defs>
      <g>
       <use style="fill:#555555;stroke:#555555;stroke-width:0.8;" x="61.609091" xlink:href="#m78dc7d0f0b" y="252"/>
      </g>
     </g>
     <g id="text_1">
      <text style="fill:#555555;font-family:DejaVu Sans;font-size:10px;font-style:normal;font-weight:400;text-anchor:middle;" transform="rotate(-0, 61.609091, 266.598437)" x="61.609091" y="266.598437">0</text>
     </g>
    </g>
    <g id="xtick_2">
     <g id="line2d_3">
      <path clip-path="url(#p13a59a6abf)" d="M 99.654545 252 
L 99.654545 34.56 
" style="fill:none;stroke:#ffffff;stroke-linecap:square;stroke-width:0.8;"/>
     </g>
     <g id="line2d_4">
      <g>
       <use style="fill:#555555;stroke:#555555;stroke-width:0.8;" x="99.654545" xlink:href="#m78dc7d0f0b" y="252"/>
      </g>
     </g>
     <g id="text_2">
      <text style="fill:#555555;font-family:DejaVu Sans;font-size:10px;font-style:normal;font-weight:400;text-anchor:middle;" transform="rotate(-0, 99.654545, 266.598437)" x="99.654545" y="266.598437">5</text>
     </g>
    </g>
    <g id="xtick_3">
     <g id="line2d_5">
      <path clip-path="url(#p13a59a6abf)" d="M 137.7 252 
L 137.7 34.56 
" style="fill:none;stroke:#ffffff;stroke-linecap:square;stroke-width:0.8;"/>
     </g>
     <g id="line2d_6">
      <g>
       <use style="fill:#555555;stroke:#555555;stroke-width:0.8;" x="137.7" xlink:href="#m78dc7d0f0b" y="252"/>
      </g>
     </g>
     <g id="text_3">
      <text style="fill:#555555;font-family:DejaVu Sans;font-size:10px;font-style:normal;font-weight:400;text-anchor:middle;" transform="rotate(-0, 137.7, 266.598437)" x="137.7" y="266.598437">10</text>
     </g>
    </g>
    <g id="xtick_4">
     <g id="line2d_7">
      <path clip-path="url(#p13a59a6abf)" d="M 175.745455 252 
L 175.745455 34.56 
" style="fill:none;stroke:#ffffff;stroke-linecap:square;stroke-width:0.8;"/>
     </g>
     <g id="line2d_8">
      <g>
       <use style="fill:#555555;stroke:#555555;stroke-width:0.8;" x="175.745455" xlink:href="#m78dc7d0f0b" y="252"/>
      </g>
     </g>
     <g id="text_4">
      <text style="fill:#555555;font-family:DejaVu Sans;font-size:10px;font-style:normal;font-weight:400;text-anchor:middle;" transform="rotate(-0, 175.745455, 266.598437)" x="175.745455" y="266.598437">15</text>
     </g>
    </g>
    <g id="xtick_5">
     <g id="line2d_9">
      <path clip-path="url(#p13a59a6abf)" d="M 213.790909 252 
L 213.790909 34.56 
" style="fill:none;stroke:#ffffff;stroke-linecap:square;stroke-width:0.8;"/>
     </g>
     <g id="line2d_10">
      <g>
       <use style="fill:#555555;stroke:#555555;stroke-width:0.8;" x="213.790909" xlink:href="#m78dc7d0f0b" y="252"/>
      </g>
     </g>
     <g id="text_5">
      <text style="fill:#555555;font-family:DejaVu Sans;font-size:10px;font-style:normal;font-weight:400;text-anchor:middle;" transform="rotate(-0, 213.790909, 266.598437)" x="213.790909" y="266.598437">20</text>
     </g>
    </g>
    <g id="xtick_6">
     <g id="line2d_11">
      <path clip-path="url(#p13a59a6abf)" d="M 251.836364 252 
L 251.836364 34.56 
" style="fill:none;stroke:#ffffff;stroke-linecap:square;stroke-width:0.8;"/>
     </g>
     <g id="line2d_12">
      <g>
       <use style="fill:#555555;stroke:#555555;stroke-width:0.8;" x="251.836364" xlink:href="#m78dc7d0f0b" y="252"/>
      </g>
     </g>
     <g id="text_6">
      <text style="fill:#555555;font-family:DejaVu Sans;font-size:10px;font-style:normal;font-weight:400;text-anchor:middle;" transform="rotate(-0, 251.836364, 266.598437)" x="251.836364" y="266.598437">25</text>
     </g>
    </g>
    <g id="xtick_7">
     <g id="line2d_13">
      <path clip-path="url(#p13a59a6abf)" d="M 289.881818 252 
L 289.881818 34.56 
" style="fill:none;stroke:#ffffff;stroke-linecap:square;stroke-width:0.8;"/>
     </g>
     <g id="line2d_14">
      <g>
       <use style="fill:#555555;stroke:#555555;stroke-width:0.8;" x="289.881818" xlink:href="#m78dc7d0f0b" y="252"/>
      </g>
     </g>
     <g id="text_7">
      <text style="fill:#555555;font-family:DejaVu Sans;font-size:10px;font-style:normal;font-weight:400;text-anchor:middle;" transform="rotate(-0, 289.881818, 266.598437)" x="289.881818" y="266.598437">30</text>
     </g>
    </g>
    <g id="xtick_8">
     <g id="line2d_15">
      <path clip-path="url(#p13a59a6abf)" d="M 327.927273 252 
L 327.927273 34.56 
" style="fill:none;stroke:#ffffff;stroke-linecap:square;stroke-width:0.8;"/>
     </g>
     <g id="line2d_16">
      <g>
       <use style="fill:#555555;stroke:#555555;stroke-width:0.8;" x="327.927273" xlink:href="#m78dc7d0f0b" y="252"/>
      </g>
     </g>
     <g id="text_8">
      <text style="fill:#555555;font-family:DejaVu Sans;font-size:10px;font-style:normal;font-weight:400;text-anchor:middle;" transform="rotate(-0, 327.927273, 266.598437)" x="327.927273" y="266.598437">35</text>
     </g>
    </g>
    <g id="xtick_9">
     <g id="line2d_17">
      <path clip-path="url(#p13a59a6abf)" d="M 365.972727 252 
L 365.972727 34.56 
" style="fill:none;stroke:#ffffff;stroke-linecap:square;stroke-width:0.8;"/>
     </g>
     <g id="line2d_18">
      <g>
       <use style="fill:#555555;stroke:#555555;stroke-width:0.8;" x="365.972727" xlink:href="#m78dc7d0f0b" y="252"/>
      </g>
     </g>
     <g id="text_9">
      <text style="fill:#555555;font-family:DejaVu Sans;font-size:10px;font-style:normal;font-weight:400;text-anchor:middle;" transform="rotate(-0, 365.972727, 266.598437)" x="365.972727" y="266.598437">40</text>
     </g>
    </g>
    <g id="text_10">
     <text style="fill:#555555;font-family:DejaVu Sans;font-size:12px;font-style:normal;font-weight:400;text-anchor:middle;" transform="rotate(-0, 221.4, 281.79625)" x="221.4" y="281.79625">Time (days)</text>
    </g>
   </g>
   <g id="matplotlib.axis_2">
    <g id="ytick_1">
     <g id="line2d_19">
      <path clip-path="url(#p13a59a6abf)" d="M 54 252 
L 388.8 252 
" style="fill:none;stroke:#ffffff;stroke-linecap:square;stroke-width:0.8;"/>
     </g>
     <g id="line2d_20">
      <defs>
       <path d="M 0 0 
L -3.5 0 
" id="m8b842592d9" style="stroke:#555555;stroke-width:0.8;"/>
      </defs>
      <g>
       <use style="fill:#555555;stroke:#555555;stroke-width:0.8;" x="54" xlink:href="#m8b842592d9" y="252"/>
      </g>
     </g>
     <g id="text_11">
      <text style="fill:#555555;font-family:DejaVu Sans;font-size:10px;font-style:normal;font-weight:400;text-anchor:end;" transform="rotate(-0, 47, 255.799219)" x="47" y="255.799219">0.0</text>
     </g>
    </g>
    <g id="ytick_2">
     <g id="line2d_21">
      <path clip-path="url(#p13a59a6abf)" d="M 54 208.512 
L 388.8 208.512 
" style="fill:none;stroke:#ffffff;stroke-linecap:square;stroke-width:0.8;"/>
     </g>
     <g id="line2d_22">
      <g>
       <use style="fill:#555555;stroke:#555555;stroke-width:0.8;" x="54" xlink:href="#m8b842592d9" y="208.512"/>
      </g>
     </g>
     <g id="text_12">
      <text style="fill:#555555;font-family:DejaVu Sans;font-size:10px;font-style:normal;font-weight:400;text-anchor:end;" transform="rotate(-0, 47, 212.311219)" x="47" y="212.311219">0.2</text>
     </g>
    </g>
    <g id="ytick_3">
     <g id="line2d_23">
      <path clip-path="url(#p13a59a6abf)" d="M 54 165.024 
L 388.8 165.024 
" style="fill:none;stroke:#ffffff;stroke-linecap:square;stroke-width:0.8;"/>
     </g>
     <g id="line2d_24">
      <g>
       <use style="fill:#555555;stroke:#555555;stroke-width:0.8;" x="54" xlink:href="#m8b842592d9" y="165.024"/>
      </g>
     </g>
     <g id="text_13">
      <text style="fill:#555555;font-family:DejaVu Sans;font-size:10px;font-style:normal;font-weight:400;text-anchor:end;" transform="rotate(-0, 47, 168.823219)" x="47" y="168.823219">0.4</text>
     </g>
    </g>
    <g id="ytick_4">
     <g id="line2d_25">
      <path clip-path="url(#p13a59a6abf)" d="M 54 121.536 
L 388.8 121.536 
" style="fill:none;stroke:#ffffff;stroke-linecap:square;stroke-width:0.8;"/>
     </g>
     <g id="line2d_26">
      <g>
       <use style="fill:#555555;stroke:#555555;stroke-width:0.8;" x="54" xlink:href="#m8b842592d9" y="121.536"/>
      </g>
     </g>
     <g id="text_14">
      <text style="fill:#555555;font-family:DejaVu Sans;font-size:10px;font-style:normal;font-weight:400;text-anchor:end;" transform="rotate(-0, 47, 125.335219)" x="47" y="125.335219">0.6</text>
     </g>
    </g>
    <g id="ytick_5">
     <g id="line2d_27">
      <path clip-path="url(#p13a59a6abf)" d="M 54 78.048 
L 388.8 78.048 
" style="fill:none;stroke:#ffffff;stroke-linecap:square;stroke-width:0.8;"/>
     </g>
     <g id="line2d_28">
      <g>
       <use style="fill:#555555;stroke:#555555;stroke-width:0.8;" x="54" xlink:href="#m8b842592d9" y="78.048"/>
      </g>
     </g>
     <g id="text_15">
      <text style="fill:#555555;font-family:DejaVu Sans;font-size:10px;font-style:normal;font-weight:400;text-anchor:end;" transform="rotate(-0, 47, 81.847219)" x="47" y="81.847219">0.8</text>
     </g>
    </g>
    <g id="ytick_6">
     <g id="line2d_29">
      <path clip-path="url(#p13a59a6abf)" d="M 54 34.56 
L 388.8 34.56 
" style="fill:none;stroke:#ffffff;stroke-linecap:square;stroke-width:0.8;"/>
     </g>
     <g id="line2d_30">
      <g>
       <use style="fill:#555555;stroke:#555555;stroke-width:0.8;" x="54" xlink:href="#m8b842592d9" y="34.56"/>
      </g>
     </g>
     <g id="text_16">
      <text style="fill:#555555;font-family:DejaVu Sans;font-size:10px;font-style:normal;font-weight:400;text-anchor:end;" transform="rotate(-0, 47, 38.359219)" x="47" y="38.359219">1.0</text>
     </g>
    </g>
    <g id="text_17">
     <text style="fill:#555555;font-family:DejaVu Sans;font-size:12px;font-style:normal;font-weight:400;text-anchor:middle;" transform="rotate(-90, 24.60125, 143.28)" x="24.60125" y="143.28">Recall probability</text>
    </g>
   </g>
   <g id="LineCollection_1">
    <path clip-path="url(#p13a59a6abf)" d="M 69.218182 50.157218 
L 69.218182 48.498102 
" style="fill:none;stroke:#e24a33;stroke-width:1.5;"/>
    <path clip-path="url(#p13a59a6abf)" d="M 75.429685 61.794778 
L 75.429685 59.000859 
" style="fill:none;stroke:#e24a33;stroke-width:1.5;"/>
    <path clip-path="url(#p13a59a6abf)" d="M 81.641187 72.55077 
L 81.641187 68.788027 
" style="fill:none;stroke:#e24a33;stroke-width:1.5;"/>
    <path clip-path="url(#p13a59a6abf)" d="M 87.85269 82.508746 
L 87.85269 77.919098 
" style="fill:none;stroke:#e24a33;stroke-width:1.5;"/>
    <path clip-path="url(#p13a59a6abf)" d="M 94.064193 91.742665 
L 94.064193 86.447873 
" style="fill:none;stroke:#e24a33;stroke-width:1.5;"/>
    <path clip-path="url(#p13a59a6abf)" d="M 100.275696 100.318203 
L 100.275696 94.42305 
" style="fill:none;stroke:#e24a33;stroke-width:1.5;"/>
    <path clip-path="url(#p13a59a6abf)" d="M 106.487199 108.293846 
L 106.487199 101.888753 
" style="fill:none;stroke:#e24a33;stroke-width:1.5;"/>
    <path clip-path="url(#p13a59a6abf)" d="M 112.698701 115.72182 
L 112.698701 108.885006 
" style="fill:none;stroke:#e24a33;stroke-width:1.5;"/>
    <path clip-path="url(#p13a59a6abf)" d="M 118.910204 122.648883 
L 118.910204 115.448158 
" style="fill:none;stroke:#e24a33;stroke-width:1.5;"/>
    <path clip-path="url(#p13a59a6abf)" d="M 125.121707 129.116996 
L 125.121707 121.611258 
" style="fill:none;stroke:#e24a33;stroke-width:1.5;"/>
    <path clip-path="url(#p13a59a6abf)" d="M 131.33321 135.1639 
L 131.33321 127.404394 
" style="fill:none;stroke:#e24a33;stroke-width:1.5;"/>
    <path clip-path="url(#p13a59a6abf)" d="M 137.544712 140.823614 
L 137.544712 132.854993 
" style="fill:none;stroke:#e24a33;stroke-width:1.5;"/>
    <path clip-path="url(#p13a59a6abf)" d="M 143.756215 146.126867 
L 143.756215 137.988085 
" style="fill:none;stroke:#e24a33;stroke-width:1.5;"/>
    <path clip-path="url(#p13a59a6abf)" d="M 149.967718 151.101467 
L 149.967718 142.826542 
" style="fill:none;stroke:#e24a33;stroke-width:1.5;"/>
    <path clip-path="url(#p13a59a6abf)" d="M 156.179221 155.772627 
L 156.179221 147.391293 
" style="fill:none;stroke:#e24a33;stroke-width:1.5;"/>
    <path clip-path="url(#p13a59a6abf)" d="M 162.390724 160.163248 
L 162.390724 151.701506 
" style="fill:none;stroke:#e24a33;stroke-width:1.5;"/>
    <path clip-path="url(#p13a59a6abf)" d="M 168.602226 164.294164 
L 168.602226 155.774763 
" style="fill:none;stroke:#e24a33;stroke-width:1.5;"/>
    <path clip-path="url(#p13a59a6abf)" d="M 174.813729 168.184364 
L 174.813729 159.627207 
" style="fill:none;stroke:#e24a33;stroke-width:1.5;"/>
    <path clip-path="url(#p13a59a6abf)" d="M 181.025232 171.851177 
L 181.025232 163.273678 
" style="fill:none;stroke:#e24a33;stroke-width:1.5;"/>
    <path clip-path="url(#p13a59a6abf)" d="M 187.236735 175.310446 
L 187.236735 166.727835 
" style="fill:none;stroke:#e24a33;stroke-width:1.5;"/>
    <path clip-path="url(#p13a59a6abf)" d="M 193.448237 178.576671 
L 193.448237 170.002261 
" style="fill:none;stroke:#e24a33;stroke-width:1.5;"/>
    <path clip-path="url(#p13a59a6abf)" d="M 199.65974 181.663148 
L 199.65974 173.108562 
" style="fill:none;stroke:#e24a33;stroke-width:1.5;"/>
    <path clip-path="url(#p13a59a6abf)" d="M 205.871243 184.582079 
L 205.871243 176.057454 
" style="fill:none;stroke:#e24a33;stroke-width:1.5;"/>
    <path clip-path="url(#p13a59a6abf)" d="M 212.082746 187.344679 
L 212.082746 178.858843 
" style="fill:none;stroke:#e24a33;stroke-width:1.5;"/>
    <path clip-path="url(#p13a59a6abf)" d="M 218.294249 189.961271 
L 218.294249 181.521893 
" style="fill:none;stroke:#e24a33;stroke-width:1.5;"/>
    <path clip-path="url(#p13a59a6abf)" d="M 224.505751 192.441364 
L 224.505751 184.055093 
" style="fill:none;stroke:#e24a33;stroke-width:1.5;"/>
    <path clip-path="url(#p13a59a6abf)" d="M 230.717254 194.793731 
L 230.717254 186.466309 
" style="fill:none;stroke:#e24a33;stroke-width:1.5;"/>
    <path clip-path="url(#p13a59a6abf)" d="M 236.928757 197.026474 
L 236.928757 188.762844 
" style="fill:none;stroke:#e24a33;stroke-width:1.5;"/>
    <path clip-path="url(#p13a59a6abf)" d="M 243.14026 199.147083 
L 243.14026 190.95148 
" style="fill:none;stroke:#e24a33;stroke-width:1.5;"/>
    <path clip-path="url(#p13a59a6abf)" d="M 249.351763 201.162492 
L 249.351763 193.038519 
" style="fill:none;stroke:#e24a33;stroke-width:1.5;"/>
    <path clip-path="url(#p13a59a6abf)" d="M 255.563265 203.079122 
L 255.563265 195.02983 
" style="fill:none;stroke:#e24a33;stroke-width:1.5;"/>
    <path clip-path="url(#p13a59a6abf)" d="M 261.774768 204.902931 
L 261.774768 196.930873 
" style="fill:none;stroke:#e24a33;stroke-width:1.5;"/>
    <path clip-path="url(#p13a59a6abf)" d="M 267.986271 206.639447 
L 267.986271 198.746741 
" style="fill:none;stroke:#e24a33;stroke-width:1.5;"/>
    <path clip-path="url(#p13a59a6abf)" d="M 274.197774 208.29381 
L 274.197774 200.482183 
" style="fill:none;stroke:#e24a33;stroke-width:1.5;"/>
    <path clip-path="url(#p13a59a6abf)" d="M 280.409276 209.870797 
L 280.409276 202.141633 
" style="fill:none;stroke:#e24a33;stroke-width:1.5;"/>
    <path clip-path="url(#p13a59a6abf)" d="M 286.620779 211.374857 
L 286.620779 203.729234 
" style="fill:none;stroke:#e24a33;stroke-width:1.5;"/>
    <path clip-path="url(#p13a59a6abf)" d="M 292.832282 212.810135 
L 292.832282 205.248859 
" style="fill:none;stroke:#e24a33;stroke-width:1.5;"/>
    <path clip-path="url(#p13a59a6abf)" d="M 299.043785 214.180495 
L 299.043785 206.704133 
" style="fill:none;stroke:#e24a33;stroke-width:1.5;"/>
    <path clip-path="url(#p13a59a6abf)" d="M 305.255288 215.489544 
L 305.255288 208.098451 
" style="fill:none;stroke:#e24a33;stroke-width:1.5;"/>
    <path clip-path="url(#p13a59a6abf)" d="M 311.46679 216.740651 
L 311.46679 209.434994 
" style="fill:none;stroke:#e24a33;stroke-width:1.5;"/>
    <path clip-path="url(#p13a59a6abf)" d="M 317.678293 217.936966 
L 317.678293 210.716744 
" style="fill:none;stroke:#e24a33;stroke-width:1.5;"/>
    <path clip-path="url(#p13a59a6abf)" d="M 323.889796 219.081434 
L 323.889796 211.946501 
" style="fill:none;stroke:#e24a33;stroke-width:1.5;"/>
    <path clip-path="url(#p13a59a6abf)" d="M 330.101299 220.176813 
L 330.101299 213.126893 
" style="fill:none;stroke:#e24a33;stroke-width:1.5;"/>
    <path clip-path="url(#p13a59a6abf)" d="M 336.312801 221.225687 
L 336.312801 214.260391 
" style="fill:none;stroke:#e24a33;stroke-width:1.5;"/>
    <path clip-path="url(#p13a59a6abf)" d="M 342.524304 222.230478 
L 342.524304 215.349318 
" style="fill:none;stroke:#e24a33;stroke-width:1.5;"/>
    <path clip-path="url(#p13a59a6abf)" d="M 348.735807 223.19346 
L 348.735807 216.39586 
" style="fill:none;stroke:#e24a33;stroke-width:1.5;"/>
    <path clip-path="url(#p13a59a6abf)" d="M 354.94731 224.116765 
L 354.94731 217.402073 
" style="fill:none;stroke:#e24a33;stroke-width:1.5;"/>
    <path clip-path="url(#p13a59a6abf)" d="M 361.158813 225.002399 
L 361.158813 218.369897 
" style="fill:none;stroke:#e24a33;stroke-width:1.5;"/>
    <path clip-path="url(#p13a59a6abf)" d="M 367.370315 225.852246 
L 367.370315 219.301158 
" style="fill:none;stroke:#e24a33;stroke-width:1.5;"/>
    <path clip-path="url(#p13a59a6abf)" d="M 373.581818 226.668077 
L 373.581818 220.19758 
" style="fill:none;stroke:#e24a33;stroke-width:1.5;"/>
   </g>
   <g id="LineCollection_2">
    <path clip-path="url(#p13a59a6abf)" d="M 69.218182 53.770112 
L 69.218182 52.715939 
" style="fill:none;stroke:#348abd;stroke-width:1.5;"/>
    <path clip-path="url(#p13a59a6abf)" d="M 75.429685 68.085611 
L 75.429685 66.317501 
" style="fill:none;stroke:#348abd;stroke-width:1.5;"/>
    <path clip-path="url(#p13a59a6abf)" d="M 81.641187 81.284626 
L 81.641187 78.916261 
" style="fill:none;stroke:#348abd;stroke-width:1.5;"/>
    <path clip-path="url(#p13a59a6abf)" d="M 87.85269 93.460984 
L 87.85269 90.591433 
" style="fill:none;stroke:#348abd;stroke-width:1.5;"/>
    <path clip-path="url(#p13a59a6abf)" d="M 94.064193 104.700031 
L 94.064193 101.41558 
" style="fill:none;stroke:#348abd;stroke-width:1.5;"/>
    <path clip-path="url(#p13a59a6abf)" d="M 100.275696 115.079455 
L 100.275696 111.455203 
" style="fill:none;stroke:#348abd;stroke-width:1.5;"/>
    <path clip-path="url(#p13a59a6abf)" d="M 106.487199 124.670029 
L 106.487199 120.771272 
" style="fill:none;stroke:#348abd;stroke-width:1.5;"/>
    <path clip-path="url(#p13a59a6abf)" d="M 112.698701 133.536266 
L 112.698701 129.419718 
" style="fill:none;stroke:#348abd;stroke-width:1.5;"/>
    <path clip-path="url(#p13a59a6abf)" d="M 118.910204 141.737014 
L 118.910204 137.451863 
" style="fill:none;stroke:#348abd;stroke-width:1.5;"/>
    <path clip-path="url(#p13a59a6abf)" d="M 125.121707 149.325991 
L 125.121707 144.914832 
" style="fill:none;stroke:#348abd;stroke-width:1.5;"/>
    <path clip-path="url(#p13a59a6abf)" d="M 131.33321 156.352264 
L 131.33321 151.851907 
" style="fill:none;stroke:#348abd;stroke-width:1.5;"/>
    <path clip-path="url(#p13a59a6abf)" d="M 137.544712 162.860675 
L 137.544712 158.302864 
" style="fill:none;stroke:#348abd;stroke-width:1.5;"/>
    <path clip-path="url(#p13a59a6abf)" d="M 143.756215 168.892239 
L 143.756215 164.304271 
" style="fill:none;stroke:#348abd;stroke-width:1.5;"/>
    <path clip-path="url(#p13a59a6abf)" d="M 149.967718 174.484487 
L 149.967718 169.889765 
" style="fill:none;stroke:#348abd;stroke-width:1.5;"/>
    <path clip-path="url(#p13a59a6abf)" d="M 156.179221 179.671783 
L 156.179221 175.090295 
" style="fill:none;stroke:#348abd;stroke-width:1.5;"/>
    <path clip-path="url(#p13a59a6abf)" d="M 162.390724 184.485615 
L 162.390724 179.934356 
" style="fill:none;stroke:#348abd;stroke-width:1.5;"/>
    <path clip-path="url(#p13a59a6abf)" d="M 168.602226 188.954845 
L 168.602226 184.448192 
" style="fill:none;stroke:#348abd;stroke-width:1.5;"/>
    <path clip-path="url(#p13a59a6abf)" d="M 174.813729 193.105949 
L 174.813729 188.655985 
" style="fill:none;stroke:#348abd;stroke-width:1.5;"/>
    <path clip-path="url(#p13a59a6abf)" d="M 181.025232 196.963224 
L 181.025232 192.580026 
" style="fill:none;stroke:#348abd;stroke-width:1.5;"/>
    <path clip-path="url(#p13a59a6abf)" d="M 187.236735 200.548982 
L 187.236735 196.240875 
" style="fill:none;stroke:#348abd;stroke-width:1.5;"/>
    <path clip-path="url(#p13a59a6abf)" d="M 193.448237 203.883721 
L 193.448237 199.6575 
" style="fill:none;stroke:#348abd;stroke-width:1.5;"/>
    <path clip-path="url(#p13a59a6abf)" d="M 199.65974 206.986284 
L 199.65974 202.847408 
" style="fill:none;stroke:#348abd;stroke-width:1.5;"/>
    <path clip-path="url(#p13a59a6abf)" d="M 205.871243 209.874001 
L 205.871243 205.82677 
" style="fill:none;stroke:#348abd;stroke-width:1.5;"/>
    <path clip-path="url(#p13a59a6abf)" d="M 212.082746 212.562819 
L 212.082746 208.610521 
" style="fill:none;stroke:#348abd;stroke-width:1.5;"/>
    <path clip-path="url(#p13a59a6abf)" d="M 218.294249 215.06742 
L 218.294249 211.212466 
" style="fill:none;stroke:#348abd;stroke-width:1.5;"/>
    <path clip-path="url(#p13a59a6abf)" d="M 224.505751 217.401325 
L 224.505751 213.645369 
" style="fill:none;stroke:#348abd;stroke-width:1.5;"/>
    <path clip-path="url(#p13a59a6abf)" d="M 230.717254 219.576998 
L 230.717254 215.921037 
" style="fill:none;stroke:#348abd;stroke-width:1.5;"/>
    <path clip-path="url(#p13a59a6abf)" d="M 236.928757 221.605927 
L 236.928757 218.050396 
" style="fill:none;stroke:#348abd;stroke-width:1.5;"/>
    <path clip-path="url(#p13a59a6abf)" d="M 243.14026 223.498711 
L 243.14026 220.043561 
" style="fill:none;stroke:#348abd;stroke-width:1.5;"/>
    <path clip-path="url(#p13a59a6abf)" d="M 249.351763 225.265131 
L 249.351763 221.909898 
" style="fill:none;stroke:#348abd;stroke-width:1.5;"/>
    <path clip-path="url(#p13a59a6abf)" d="M 255.563265 226.914217 
L 255.563265 223.658086 
" style="fill:none;stroke:#348abd;stroke-width:1.5;"/>
    <path clip-path="url(#p13a59a6abf)" d="M 261.774768 228.45431 
L 261.774768 225.296169 
" style="fill:none;stroke:#348abd;stroke-width:1.5;"/>
    <path clip-path="url(#p13a59a6abf)" d="M 267.986271 229.893119 
L 267.986271 226.831606 
" style="fill:none;stroke:#348abd;stroke-width:1.5;"/>
    <path clip-path="url(#p13a59a6abf)" d="M 274.197774 231.237769 
L 274.197774 228.271315 
" style="fill:none;stroke:#348abd;stroke-width:1.5;"/>
    <path clip-path="url(#p13a59a6abf)" d="M 280.409276 232.494852 
L 280.409276 229.621717 
" style="fill:none;stroke:#348abd;stroke-width:1.5;"/>
    <path clip-path="url(#p13a59a6abf)" d="M 286.620779 233.670466 
L 286.620779 230.888771 
" style="fill:none;stroke:#348abd;stroke-width:1.5;"/>
    <path clip-path="url(#p13a59a6abf)" d="M 292.832282 234.770256 
L 292.832282 232.078011 
" style="fill:none;stroke:#348abd;stroke-width:1.5;"/>
    <path clip-path="url(#p13a59a6abf)" d="M 299.043785 235.799451 
L 299.043785 233.194579 
" style="fill:none;stroke:#348abd;stroke-width:1.5;"/>
    <path clip-path="url(#p13a59a6abf)" d="M 305.255288 236.762894 
L 305.255288 234.243254 
" style="fill:none;stroke:#348abd;stroke-width:1.5;"/>
    <path clip-path="url(#p13a59a6abf)" d="M 311.46679 237.665075 
L 311.46679 235.228478 
" style="fill:none;stroke:#348abd;stroke-width:1.5;"/>
    <path clip-path="url(#p13a59a6abf)" d="M 317.678293 238.510156 
L 317.678293 236.154382 
" style="fill:none;stroke:#348abd;stroke-width:1.5;"/>
    <path clip-path="url(#p13a59a6abf)" d="M 323.889796 239.301997 
L 323.889796 237.024811 
" style="fill:none;stroke:#348abd;stroke-width:1.5;"/>
    <path clip-path="url(#p13a59a6abf)" d="M 330.101299 240.044181 
L 330.101299 237.843341 
" style="fill:none;stroke:#348abd;stroke-width:1.5;"/>
    <path clip-path="url(#p13a59a6abf)" d="M 336.312801 240.740033 
L 336.312801 238.613303 
" style="fill:none;stroke:#348abd;stroke-width:1.5;"/>
    <path clip-path="url(#p13a59a6abf)" d="M 342.524304 241.392642 
L 342.524304 239.3378 
" style="fill:none;stroke:#348abd;stroke-width:1.5;"/>
    <path clip-path="url(#p13a59a6abf)" d="M 348.735807 242.004877 
L 348.735807 240.019721 
" style="fill:none;stroke:#348abd;stroke-width:1.5;"/>
    <path clip-path="url(#p13a59a6abf)" d="M 354.94731 242.579403 
L 354.94731 240.661761 
" style="fill:none;stroke:#348abd;stroke-width:1.5;"/>
    <path clip-path="url(#p13a59a6abf)" d="M 361.158813 243.118699 
L 361.158813 241.26643 
" style="fill:none;stroke:#348abd;stroke-width:1.5;"/>
    <path clip-path="url(#p13a59a6abf)" d="M 367.370315 243.62507 
L 367.370315 241.83607 
" style="fill:none;stroke:#348abd;stroke-width:1.5;"/>
    <path clip-path="url(#p13a59a6abf)" d="M 373.581818 244.10066 
L 373.581818 242.372868 
" style="fill:none;stroke:#348abd;stroke-width:1.5;"/>
   </g>
   <g id="line2d_31">
    <path clip-path="url(#p13a59a6abf)" d="M 69.218182 47.845072 
L 75.429685 58.085986 
L 81.641187 67.81319 
L 87.85269 77.052453 
L 94.064193 85.828253 
L 100.275696 94.163837 
L 106.487199 102.081287 
L 112.698701 109.601579 
L 118.910204 116.744634 
L 125.121707 123.529376 
L 131.33321 129.973779 
L 137.544712 136.094914 
L 143.756215 141.908999 
L 149.967718 147.431434 
L 156.179221 152.676851 
L 162.390724 157.659145 
L 168.602226 162.391514 
L 174.813729 166.886496 
L 181.025232 171.155999 
L 187.236735 175.211333 
L 193.448237 179.063242 
L 199.65974 182.721929 
L 205.871243 186.197088 
L 212.082746 189.497924 
L 218.294249 192.633182 
L 224.505751 195.611167 
L 230.717254 198.43977 
L 236.928757 201.126483 
L 243.14026 203.678424 
L 249.351763 206.102353 
L 255.563265 208.404692 
L 261.774768 210.59154 
L 267.986271 212.66869 
L 274.197774 214.641645 
L 280.409276 216.515632 
L 286.620779 218.295616 
L 292.832282 219.986311 
L 299.043785 221.592196 
L 305.255288 223.117526 
L 311.46679 224.566342 
L 317.678293 225.942482 
L 323.889796 227.249591 
L 330.101299 228.491133 
L 336.312801 229.670395 
L 342.524304 230.790503 
L 348.735807 231.854424 
L 354.94731 232.864975 
L 361.158813 233.824835 
L 367.370315 234.736546 
L 373.581818 235.602524 
" style="fill:none;stroke:#e24a33;stroke-dasharray:5.6,2.4;stroke-dashoffset:0;stroke-width:1.5;"/>
   </g>
   <g id="line2d_32">
    <path clip-path="url(#p13a59a6abf)" d="M 69.218182 52.775123 
L 75.429685 66.507426 
L 81.641187 79.293179 
L 87.85269 91.197628 
L 94.064193 102.281519 
L 100.275696 112.601412 
L 106.487199 122.209969 
L 112.698701 131.156221 
L 118.910204 139.48582 
L 125.121707 147.241271 
L 131.33321 154.462149 
L 137.544712 161.185302 
L 143.756215 167.445037 
L 149.967718 173.273297 
L 156.179221 178.699823 
L 162.390724 183.752305 
L 168.602226 188.456527 
L 174.813729 192.836493 
L 181.025232 196.914554 
L 187.236735 200.711519 
L 193.448237 204.246765 
L 199.65974 207.538332 
L 205.871243 210.603015 
L 212.082746 213.456453 
L 218.294249 216.113208 
L 224.505751 218.586836 
L 230.717254 220.889961 
L 236.928757 223.034334 
L 243.14026 225.030898 
L 249.351763 226.889842 
L 255.563265 228.620651 
L 261.774768 230.232158 
L 267.986271 231.732586 
L 274.197774 233.129592 
L 280.409276 234.430304 
L 286.620779 235.641359 
L 292.832282 236.768938 
L 299.043785 237.818795 
L 305.255288 238.796286 
L 311.46679 239.706401 
L 317.678293 240.553782 
L 323.889796 241.342754 
L 330.101299 242.077344 
L 336.312801 242.761299 
L 342.524304 243.39811 
L 348.735807 243.991027 
L 354.94731 244.543075 
L 361.158813 245.057071 
L 367.370315 245.535637 
L 373.581818 245.981217 
" style="fill:none;stroke:#348abd;stroke-dasharray:5.6,2.4;stroke-dashoffset:0;stroke-width:1.5;"/>
   </g>
   <g id="line2d_33">
    <path clip-path="url(#p13a59a6abf)" d="M 69.218182 49.32766 
L 75.429685 60.397818 
L 81.641187 70.669398 
L 87.85269 80.213922 
L 94.064193 89.095269 
L 100.275696 97.370627 
L 106.487199 105.091299 
L 112.698701 112.303413 
L 118.910204 119.04852 
L 125.121707 125.364127 
L 131.33321 131.284147 
L 137.544712 136.839304 
L 143.756215 142.057476 
L 149.967718 146.964005 
L 156.179221 151.58196 
L 162.390724 155.932377 
L 168.602226 160.034463 
L 174.813729 163.905785 
L 181.025232 167.562428 
L 187.236735 171.01914 
L 193.448237 174.289466 
L 199.65974 177.385855 
L 205.871243 180.319767 
L 212.082746 183.101761 
L 218.294249 185.741582 
L 224.505751 188.248228 
L 230.717254 190.63002 
L 236.928757 192.894659 
L 243.14026 195.049281 
L 249.351763 197.100506 
L 255.563265 199.054476 
L 261.774768 200.916902 
L 267.986271 202.693094 
L 274.197774 204.387996 
L 280.409276 206.006215 
L 286.620779 207.552045 
L 292.832282 209.029497 
L 299.043785 210.442314 
L 305.255288 211.793998 
L 311.46679 213.087822 
L 317.678293 214.326855 
L 323.889796 215.513967 
L 330.101299 216.651853 
L 336.312801 217.743039 
L 342.524304 218.789898 
L 348.735807 219.79466 
L 354.94731 220.759419 
L 361.158813 221.686148 
L 367.370315 222.576702 
L 373.581818 223.432829 
" style="fill:none;stroke:#e24a33;stroke-linecap:square;stroke-width:1.5;"/>
    <defs>
     <path d="M 0 1.5 
C 0.397805 1.5 0.77937 1.341951 1.06066 1.06066 
C 1.341951 0.77937 1.5 0.397805 1.5 0 
C 1.5 -0.397805 1.341951 -0.77937 1.06066 -1.06066 
C 0.77937 -1.341951 0.397805 -1.5 0 -1.5 
C -0.397805 -1.5 -0.77937 -1.341951 -1.06066 -1.06066 
C -1.341951 -0.77937 -1.5 -0.397805 -1.5 0 
C -1.5 0.397805 -1.341951 0.77937 -1.06066 1.06066 
C -0.77937 1.341951 -0.397805 1.5 0 1.5 
z
" id="md570788f00" style="stroke:#e24a33;"/>
    </defs>
    <g clip-path="url(#p13a59a6abf)">
     <use style="fill:#e24a33;stroke:#e24a33;" x="69.218182" xlink:href="#md570788f00" y="49.32766"/>
     <use style="fill:#e24a33;stroke:#e24a33;" x="75.429685" xlink:href="#md570788f00" y="60.397818"/>
     <use style="fill:#e24a33;stroke:#e24a33;" x="81.641187" xlink:href="#md570788f00" y="70.669398"/>
     <use style="fill:#e24a33;stroke:#e24a33;" x="87.85269" xlink:href="#md570788f00" y="80.213922"/>
     <use style="fill:#e24a33;stroke:#e24a33;" x="94.064193" xlink:href="#md570788f00" y="89.095269"/>
     <use style="fill:#e24a33;stroke:#e24a33;" x="100.275696" xlink:href="#md570788f00" y="97.370627"/>
     <use style="fill:#e24a33;stroke:#e24a33;" x="106.487199" xlink:href="#md570788f00" y="105.091299"/>
     <use style="fill:#e24a33;stroke:#e24a33;" x="112.698701" xlink:href="#md570788f00" y="112.303413"/>
     <use style="fill:#e24a33;stroke:#e24a33;" x="118.910204" xlink:href="#md570788f00" y="119.04852"/>
     <use style="fill:#e24a33;stroke:#e24a33;" x="125.121707" xlink:href="#md570788f00" y="125.364127"/>
     <use style="fill:#e24a33;stroke:#e24a33;" x="131.33321" xlink:href="#md570788f00" y="131.284147"/>
     <use style="fill:#e24a33;stroke:#e24a33;" x="137.544712" xlink:href="#md570788f00" y="136.839304"/>
     <use style="fill:#e24a33;stroke:#e24a33;" x="143.756215" xlink:href="#md570788f00" y="142.057476"/>
     <use style="fill:#e24a33;stroke:#e24a33;" x="149.967718" xlink:href="#md570788f00" y="146.964005"/>
     <use style="fill:#e24a33;stroke:#e24a33;" x="156.179221" xlink:href="#md570788f00" y="151.58196"/>
     <use style="fill:#e24a33;stroke:#e24a33;" x="162.390724" xlink:href="#md570788f00" y="155.932377"/>
     <use style="fill:#e24a33;stroke:#e24a33;" x="168.602226" xlink:href="#md570788f00" y="160.034463"/>
     <use style="fill:#e24a33;stroke:#e24a33;" x="174.813729" xlink:href="#md570788f00" y="163.905785"/>
     <use style="fill:#e24a33;stroke:#e24a33;" x="181.025232" xlink:href="#md570788f00" y="167.562428"/>
     <use style="fill:#e24a33;stroke:#e24a33;" x="187.236735" xlink:href="#md570788f00" y="171.01914"/>
     <use style="fill:#e24a33;stroke:#e24a33;" x="193.448237" xlink:href="#md570788f00" y="174.289466"/>
     <use style="fill:#e24a33;stroke:#e24a33;" x="199.65974" xlink:href="#md570788f00" y="177.385855"/>
     <use style="fill:#e24a33;stroke:#e24a33;" x="205.871243" xlink:href="#md570788f00" y="180.319767"/>
     <use style="fill:#e24a33;stroke:#e24a33;" x="212.082746" xlink:href="#md570788f00" y="183.101761"/>
     <use style="fill:#e24a33;stroke:#e24a33;" x="218.294249" xlink:href="#md570788f00" y="185.741582"/>
     <use style="fill:#e24a33;stroke:#e24a33;" x="224.505751" xlink:href="#md570788f00" y="188.248228"/>
     <use style="fill:#e24a33;stroke:#e24a33;" x="230.717254" xlink:href="#md570788f00" y="190.63002"/>
     <use style="fill:#e24a33;stroke:#e24a33;" x="236.928757" xlink:href="#md570788f00" y="192.894659"/>
     <use style="fill:#e24a33;stroke:#e24a33;" x="243.14026" xlink:href="#md570788f00" y="195.049281"/>
     <use style="fill:#e24a33;stroke:#e24a33;" x="249.351763" xlink:href="#md570788f00" y="197.100506"/>
     <use style="fill:#e24a33;stroke:#e24a33;" x="255.563265" xlink:href="#md570788f00" y="199.054476"/>
     <use style="fill:#e24a33;stroke:#e24a33;" x="261.774768" xlink:href="#md570788f00" y="200.916902"/>
     <use style="fill:#e24a33;stroke:#e24a33;" x="267.986271" xlink:href="#md570788f00" y="202.693094"/>
     <use style="fill:#e24a33;stroke:#e24a33;" x="274.197774" xlink:href="#md570788f00" y="204.387996"/>
     <use style="fill:#e24a33;stroke:#e24a33;" x="280.409276" xlink:href="#md570788f00" y="206.006215"/>
     <use style="fill:#e24a33;stroke:#e24a33;" x="286.620779" xlink:href="#md570788f00" y="207.552045"/>
     <use style="fill:#e24a33;stroke:#e24a33;" x="292.832282" xlink:href="#md570788f00" y="209.029497"/>
     <use style="fill:#e24a33;stroke:#e24a33;" x="299.043785" xlink:href="#md570788f00" y="210.442314"/>
     <use style="fill:#e24a33;stroke:#e24a33;" x="305.255288" xlink:href="#md570788f00" y="211.793998"/>
     <use style="fill:#e24a33;stroke:#e24a33;" x="311.46679" xlink:href="#md570788f00" y="213.087822"/>
     <use style="fill:#e24a33;stroke:#e24a33;" x="317.678293" xlink:href="#md570788f00" y="214.326855"/>
     <use style="fill:#e24a33;stroke:#e24a33;" x="323.889796" xlink:href="#md570788f00" y="215.513967"/>
     <use style="fill:#e24a33;stroke:#e24a33;" x="330.101299" xlink:href="#md570788f00" y="216.651853"/>
     <use style="fill:#e24a33;stroke:#e24a33;" x="336.312801" xlink:href="#md570788f00" y="217.743039"/>
     <use style="fill:#e24a33;stroke:#e24a33;" x="342.524304" xlink:href="#md570788f00" y="218.789898"/>
     <use style="fill:#e24a33;stroke:#e24a33;" x="348.735807" xlink:href="#md570788f00" y="219.79466"/>
     <use style="fill:#e24a33;stroke:#e24a33;" x="354.94731" xlink:href="#md570788f00" y="220.759419"/>
     <use style="fill:#e24a33;stroke:#e24a33;" x="361.158813" xlink:href="#md570788f00" y="221.686148"/>
     <use style="fill:#e24a33;stroke:#e24a33;" x="367.370315" xlink:href="#md570788f00" y="222.576702"/>
     <use style="fill:#e24a33;stroke:#e24a33;" x="373.581818" xlink:href="#md570788f00" y="223.432829"/>
    </g>
   </g>
   <g id="line2d_34">
    <path clip-path="url(#p13a59a6abf)" d="M 69.218182 53.243025 
L 75.429685 67.201556 
L 81.641187 80.100444 
L 87.85269 92.026209 
L 94.064193 103.057805 
L 100.275696 113.267329 
L 106.487199 122.720651 
L 112.698701 131.477992 
L 118.910204 139.594439 
L 125.121707 147.120412 
L 131.33321 154.102085 
L 137.544712 160.581769 
L 143.756215 166.598255 
L 149.967718 172.187126 
L 156.179221 177.381039 
L 162.390724 182.209985 
L 168.602226 186.701518 
L 174.813729 190.880967 
L 181.025232 194.771625 
L 187.236735 198.394928 
L 193.448237 201.77061 
L 199.65974 204.916846 
L 205.871243 207.850385 
L 212.082746 210.58667 
L 218.294249 213.139943 
L 224.505751 215.523347 
L 230.717254 217.749017 
L 236.928757 219.828162 
L 243.14026 221.771136 
L 249.351763 223.587514 
L 255.563265 225.286151 
L 261.774768 226.87524 
L 267.986271 228.362363 
L 274.197774 229.754542 
L 280.409276 231.058284 
L 286.620779 232.279618 
L 292.832282 233.424134 
L 299.043785 234.497015 
L 305.255288 235.503074 
L 311.46679 236.446777 
L 317.678293 237.332269 
L 323.889796 238.163404 
L 330.101299 238.943761 
L 336.312801 239.676668 
L 342.524304 240.365221 
L 348.735807 241.012299 
L 354.94731 241.620582 
L 361.158813 242.192564 
L 367.370315 242.73057 
L 373.581818 243.236764 
" style="fill:none;stroke:#348abd;stroke-linecap:square;stroke-width:1.5;"/>
    <defs>
     <path d="M 0 1.5 
C 0.397805 1.5 0.77937 1.341951 1.06066 1.06066 
C 1.341951 0.77937 1.5 0.397805 1.5 0 
C 1.5 -0.397805 1.341951 -0.77937 1.06066 -1.06066 
C 0.77937 -1.341951 0.397805 -1.5 0 -1.5 
C -0.397805 -1.5 -0.77937 -1.341951 -1.06066 -1.06066 
C -1.341951 -0.77937 -1.5 -0.397805 -1.5 0 
C -1.5 0.397805 -1.341951 0.77937 -1.06066 1.06066 
C -0.77937 1.341951 -0.397805 1.5 0 1.5 
z
" id="m95b6299e64" style="stroke:#348abd;"/>
    </defs>
    <g clip-path="url(#p13a59a6abf)">
     <use style="fill:#348abd;stroke:#348abd;" x="69.218182" xlink:href="#m95b6299e64" y="53.243025"/>
     <use style="fill:#348abd;stroke:#348abd;" x="75.429685" xlink:href="#m95b6299e64" y="67.201556"/>
     <use style="fill:#348abd;stroke:#348abd;" x="81.641187" xlink:href="#m95b6299e64" y="80.100444"/>
     <use style="fill:#348abd;stroke:#348abd;" x="87.85269" xlink:href="#m95b6299e64" y="92.026209"/>
     <use style="fill:#348abd;stroke:#348abd;" x="94.064193" xlink:href="#m95b6299e64" y="103.057805"/>
     <use style="fill:#348abd;stroke:#348abd;" x="100.275696" xlink:href="#m95b6299e64" y="113.267329"/>
     <use style="fill:#348abd;stroke:#348abd;" x="106.487199" xlink:href="#m95b6299e64" y="122.720651"/>
     <use style="fill:#348abd;stroke:#348abd;" x="112.698701" xlink:href="#m95b6299e64" y="131.477992"/>
     <use style="fill:#348abd;stroke:#348abd;" x="118.910204" xlink:href="#m95b6299e64" y="139.594439"/>
     <use style="fill:#348abd;stroke:#348abd;" x="125.121707" xlink:href="#m95b6299e64" y="147.120412"/>
     <use style="fill:#348abd;stroke:#348abd;" x="131.33321" xlink:href="#m95b6299e64" y="154.102085"/>
     <use style="fill:#348abd;stroke:#348abd;" x="137.544712" xlink:href="#m95b6299e64" y="160.581769"/>
     <use style="fill:#348abd;stroke:#348abd;" x="143.756215" xlink:href="#m95b6299e64" y="166.598255"/>
     <use style="fill:#348abd;stroke:#348abd;" x="149.967718" xlink:href="#m95b6299e64" y="172.187126"/>
     <use style="fill:#348abd;stroke:#348abd;" x="156.179221" xlink:href="#m95b6299e64" y="177.381039"/>
     <use style="fill:#348abd;stroke:#348abd;" x="162.390724" xlink:href="#m95b6299e64" y="182.209985"/>
     <use style="fill:#348abd;stroke:#348abd;" x="168.602226" xlink:href="#m95b6299e64" y="186.701518"/>
     <use style="fill:#348abd;stroke:#348abd;" x="174.813729" xlink:href="#m95b6299e64" y="190.880967"/>
     <use style="fill:#348abd;stroke:#348abd;" x="181.025232" xlink:href="#m95b6299e64" y="194.771625"/>
     <use style="fill:#348abd;stroke:#348abd;" x="187.236735" xlink:href="#m95b6299e64" y="198.394928"/>
     <use style="fill:#348abd;stroke:#348abd;" x="193.448237" xlink:href="#m95b6299e64" y="201.77061"/>
     <use style="fill:#348abd;stroke:#348abd;" x="199.65974" xlink:href="#m95b6299e64" y="204.916846"/>
     <use style="fill:#348abd;stroke:#348abd;" x="205.871243" xlink:href="#m95b6299e64" y="207.850385"/>
     <use style="fill:#348abd;stroke:#348abd;" x="212.082746" xlink:href="#m95b6299e64" y="210.58667"/>
     <use style="fill:#348abd;stroke:#348abd;" x="218.294249" xlink:href="#m95b6299e64" y="213.139943"/>
     <use style="fill:#348abd;stroke:#348abd;" x="224.505751" xlink:href="#m95b6299e64" y="215.523347"/>
     <use style="fill:#348abd;stroke:#348abd;" x="230.717254" xlink:href="#m95b6299e64" y="217.749017"/>
     <use style="fill:#348abd;stroke:#348abd;" x="236.928757" xlink:href="#m95b6299e64" y="219.828162"/>
     <use style="fill:#348abd;stroke:#348abd;" x="243.14026" xlink:href="#m95b6299e64" y="221.771136"/>
     <use style="fill:#348abd;stroke:#348abd;" x="249.351763" xlink:href="#m95b6299e64" y="223.587514"/>
     <use style="fill:#348abd;stroke:#348abd;" x="255.563265" xlink:href="#m95b6299e64" y="225.286151"/>
     <use style="fill:#348abd;stroke:#348abd;" x="261.774768" xlink:href="#m95b6299e64" y="226.87524"/>
     <use style="fill:#348abd;stroke:#348abd;" x="267.986271" xlink:href="#m95b6299e64" y="228.362363"/>
     <use style="fill:#348abd;stroke:#348abd;" x="274.197774" xlink:href="#m95b6299e64" y="229.754542"/>
     <use style="fill:#348abd;stroke:#348abd;" x="280.409276" xlink:href="#m95b6299e64" y="231.058284"/>
     <use style="fill:#348abd;stroke:#348abd;" x="286.620779" xlink:href="#m95b6299e64" y="232.279618"/>
     <use style="fill:#348abd;stroke:#348abd;" x="292.832282" xlink:href="#m95b6299e64" y="233.424134"/>
     <use style="fill:#348abd;stroke:#348abd;" x="299.043785" xlink:href="#m95b6299e64" y="234.497015"/>
     <use style="fill:#348abd;stroke:#348abd;" x="305.255288" xlink:href="#m95b6299e64" y="235.503074"/>
     <use style="fill:#348abd;stroke:#348abd;" x="311.46679" xlink:href="#m95b6299e64" y="236.446777"/>
     <use style="fill:#348abd;stroke:#348abd;" x="317.678293" xlink:href="#m95b6299e64" y="237.332269"/>
     <use style="fill:#348abd;stroke:#348abd;" x="323.889796" xlink:href="#m95b6299e64" y="238.163404"/>
     <use style="fill:#348abd;stroke:#348abd;" x="330.101299" xlink:href="#m95b6299e64" y="238.943761"/>
     <use style="fill:#348abd;stroke:#348abd;" x="336.312801" xlink:href="#m95b6299e64" y="239.676668"/>
     <use style="fill:#348abd;stroke:#348abd;" x="342.524304" xlink:href="#m95b6299e64" y="240.365221"/>
     <use style="fill:#348abd;stroke:#348abd;" x="348.735807" xlink:href="#m95b6299e64" y="241.012299"/>
     <use style="fill:#348abd;stroke:#348abd;" x="354.94731" xlink:href="#m95b6299e64" y="241.620582"/>
     <use style="fill:#348abd;stroke:#348abd;" x="361.158813" xlink:href="#m95b6299e64" y="242.192564"/>
     <use style="fill:#348abd;stroke:#348abd;" x="367.370315" xlink:href="#m95b6299e64" y="242.73057"/>
     <use style="fill:#348abd;stroke:#348abd;" x="373.581818" xlink:href="#m95b6299e64" y="243.236764"/>
    </g>
   </g>
   <g id="patch_3">
    <path d="M 54 252 
L 54 34.56 
" style="fill:none;stroke:#ffffff;stroke-linecap:square;stroke-linejoin:miter;"/>
   </g>
   <g id="patch_4">
    <path d="M 388.8 252 
L 388.8 34.56 
" style="fill:none;stroke:#ffffff;stroke-linecap:square;stroke-linejoin:miter;"/>
   </g>
   <g id="patch_5">
    <path d="M 54 252 
L 388.8 252 
" style="fill:none;stroke:#ffffff;stroke-linecap:square;stroke-linejoin:miter;"/>
   </g>
   <g id="patch_6">
    <path d="M 54 34.56 
L 388.8 34.56 
" style="fill:none;stroke:#ffffff;stroke-linecap:square;stroke-linejoin:miter;"/>
   </g>
   <g id="text_18">
    <text style="font-family:DejaVu Sans;font-size:14.4px;font-style:normal;font-weight:400;text-anchor:middle;" transform="rotate(-0, 221.4, 28.56)" x="221.4" y="28.56">Predicted forgetting curves (halflife A=11, B=8)</text>
   </g>
   <g id="legend_1">
    <g id="patch_7">
     <path d="M 304.795313 101.2725 
L 381.8 101.2725 
Q 383.8 101.2725 383.8 99.2725 
L 383.8 41.56 
Q 383.8 39.56 381.8 39.56 
L 304.795313 39.56 
Q 302.795313 39.56 302.795313 41.56 
L 302.795313 99.2725 
Q 302.795313 101.2725 304.795313 101.2725 
z
" style="fill:#e5e5e5;opacity:0.8;stroke:#cccccc;stroke-linejoin:miter;stroke-width:0.5;"/>
    </g>
    <g id="line2d_35">
     <path d="M 306.795313 47.658437 
L 326.795313 47.658437 
" style="fill:none;stroke:#e24a33;stroke-dasharray:5.6,2.4;stroke-dashoffset:0;stroke-width:1.5;"/>
    </g>
    <g id="line2d_36"/>
    <g id="text_19">
     <text style="font-family:DejaVu Sans;font-size:10px;font-style:normal;font-weight:400;text-anchor:start;" transform="rotate(-0, 334.795313, 51.158437)" x="334.795313" y="51.158437">approx A</text>
    </g>
    <g id="line2d_37">
     <path d="M 306.795313 62.336562 
L 326.795313 62.336562 
" style="fill:none;stroke:#348abd;stroke-dasharray:5.6,2.4;stroke-dashoffset:0;stroke-width:1.5;"/>
    </g>
    <g id="line2d_38"/>
    <g id="text_20">
     <text style="font-family:DejaVu Sans;font-size:10px;font-style:normal;font-weight:400;text-anchor:start;" transform="rotate(-0, 334.795313, 65.836562)" x="334.795313" y="65.836562">approx B</text>
    </g>
    <g id="LineCollection_3">
     <path d="M 316.795313 82.014687 
L 316.795313 72.014687 
" style="fill:none;stroke:#e24a33;stroke-width:1.5;"/>
    </g>
    <g id="line2d_39">
     <path d="M 306.795313 77.014687 
L 326.795313 77.014687 
" style="fill:none;stroke:#e24a33;stroke-linecap:square;stroke-width:1.5;"/>
    </g>
    <g id="line2d_40">
     <g>
      <use style="fill:#e24a33;stroke:#e24a33;" x="316.795313" xlink:href="#md570788f00" y="77.014687"/>
     </g>
    </g>
    <g id="text_21">
     <text style="font-family:DejaVu Sans;font-size:10px;font-style:normal;font-weight:400;text-anchor:start;" transform="rotate(-0, 334.795313, 80.514687)" x="334.795313" y="80.514687">Model A</text>
    </g>
    <g id="LineCollection_4">
     <path d="M 316.795313 96.692813 
L 316.795313 86.692813 
" style="fill:none;stroke:#348abd;stroke-width:1.5;"/>
    </g>
    <g id="line2d_41">
     <path d="M 306.795313 91.692813 
L 326.795313 91.692813 
" style="fill:none;stroke:#348abd;stroke-linecap:square;stroke-width:1.5;"/>
    </g>
    <g id="line2d_42">
     <g>
      <use style="fill:#348abd;stroke:#348abd;" x="316.795313" xlink:href="#m95b6299e64" y="91.692813"/>
     </g>
    </g>
    <g id="text_22">
     <text style="font-family:DejaVu Sans;font-size:10px;font-style:normal;font-weight:400;text-anchor:start;" transform="rotate(-0, 334.795313, 95.192813)" x="334.795313" y="95.192813">Model B</text>
    </g>
   </g>
  </g>
 </g>
 <defs>
  <clipPath id="p13a59a6abf">
   <rect height="217.44" width="334.8" x="54" y="34.56"/>
  </clipPath>
 </defs>
</svg>
