<?xml version="1.0" encoding="utf-8" standalone="no"?>
<!DOCTYPE svg PUBLIC "-//W3C//DTD SVG 1.1//EN"
  "http://www.w3.org/Graphics/SVG/1.1/DTD/svg11.dtd">
<!-- Created with matplotlib (https://matplotlib.org/) -->
<svg height="345.6pt" version="1.1" viewBox="0 0 460.8 345.6" width="460.8pt" xmlns="http://www.w3.org/2000/svg" xmlns:xlink="http://www.w3.org/1999/xlink">
 <defs>
  <style type="text/css">
*{stroke-linecap:butt;stroke-linejoin:round;}
  </style>
 </defs>
 <g id="figure_1">
  <g id="patch_1">
   <path d="M 0 345.6 
L 460.8 345.6 
L 460.8 0 
L 0 0 
z
" style="fill:#ffffff;"/>
  </g>
  <g id="axes_1">
   <g id="patch_2">
    <path d="M 57.6 307.584 
L 414.72 307.584 
L 414.72 41.472 
L 57.6 41.472 
z
" style="fill:#e5e5e5;"/>
   </g>
   <g id="matplotlib.axis_1">
    <g id="xtick_1">
     <g id="line2d_1">
      <path clip-path="url(#p534b9c2e2f)" d="M 65.716364 307.584 
L 65.716364 41.472 
" style="fill:none;stroke:#ffffff;stroke-linecap:square;stroke-width:0.8;"/>
     </g>
     <g id="line2d_2">
      <defs>
       <path d="M 0 0 
L 0 3.5 
" id="m6771c1ca06" style="stroke:#555555;stroke-width:0.8;"/>
      </defs>
      <g>
       <use style="fill:#555555;stroke:#555555;stroke-width:0.8;" x="65.716364" xlink:href="#m6771c1ca06" y="307.584"/>
      </g>
     </g>
     <g id="text_1">
      <text style="fill:#555555;font-family:DejaVu Sans;font-size:10px;font-style:normal;font-weight:normal;text-anchor:middle;" transform="rotate(-0, 65.716364, 322.182437)" x="65.716364" y="322.182437">0</text>
     </g>
    </g>
    <g id="xtick_2">
     <g id="line2d_3">
      <path clip-path="url(#p534b9c2e2f)" d="M 106.298182 307.584 
L 106.298182 41.472 
" style="fill:none;stroke:#ffffff;stroke-linecap:square;stroke-width:0.8;"/>
     </g>
     <g id="line2d_4">
      <g>
       <use style="fill:#555555;stroke:#555555;stroke-width:0.8;" x="106.298182" xlink:href="#m6771c1ca06" y="307.584"/>
      </g>
     </g>
     <g id="text_2">
      <text style="fill:#555555;font-family:DejaVu Sans;font-size:10px;font-style:normal;font-weight:normal;text-anchor:middle;" transform="rotate(-0, 106.298182, 322.182437)" x="106.298182" y="322.182437">5</text>
     </g>
    </g>
    <g id="xtick_3">
     <g id="line2d_5">
      <path clip-path="url(#p534b9c2e2f)" d="M 146.88 307.584 
L 146.88 41.472 
" style="fill:none;stroke:#ffffff;stroke-linecap:square;stroke-width:0.8;"/>
     </g>
     <g id="line2d_6">
      <g>
       <use style="fill:#555555;stroke:#555555;stroke-width:0.8;" x="146.88" xlink:href="#m6771c1ca06" y="307.584"/>
      </g>
     </g>
     <g id="text_3">
      <text style="fill:#555555;font-family:DejaVu Sans;font-size:10px;font-style:normal;font-weight:normal;text-anchor:middle;" transform="rotate(-0, 146.88, 322.182437)" x="146.88" y="322.182437">10</text>
     </g>
    </g>
    <g id="xtick_4">
     <g id="line2d_7">
      <path clip-path="url(#p534b9c2e2f)" d="M 187.461818 307.584 
L 187.461818 41.472 
" style="fill:none;stroke:#ffffff;stroke-linecap:square;stroke-width:0.8;"/>
     </g>
     <g id="line2d_8">
      <g>
       <use style="fill:#555555;stroke:#555555;stroke-width:0.8;" x="187.461818" xlink:href="#m6771c1ca06" y="307.584"/>
      </g>
     </g>
     <g id="text_4">
      <text style="fill:#555555;font-family:DejaVu Sans;font-size:10px;font-style:normal;font-weight:normal;text-anchor:middle;" transform="rotate(-0, 187.461818, 322.182437)" x="187.461818" y="322.182437">15</text>
     </g>
    </g>
    <g id="xtick_5">
     <g id="line2d_9">
      <path clip-path="url(#p534b9c2e2f)" d="M 228.043636 307.584 
L 228.043636 41.472 
" style="fill:none;stroke:#ffffff;stroke-linecap:square;stroke-width:0.8;"/>
     </g>
     <g id="line2d_10">
      <g>
       <use style="fill:#555555;stroke:#555555;stroke-width:0.8;" x="228.043636" xlink:href="#m6771c1ca06" y="307.584"/>
      </g>
     </g>
     <g id="text_5">
      <text style="fill:#555555;font-family:DejaVu Sans;font-size:10px;font-style:normal;font-weight:normal;text-anchor:middle;" transform="rotate(-0, 228.043636, 322.182437)" x="228.043636" y="322.182437">20</text>
     </g>
    </g>
    <g id="xtick_6">
     <g id="line2d_11">
      <path clip-path="url(#p534b9c2e2f)" d="M 268.625455 307.584 
L 268.625455 41.472 
" style="fill:none;stroke:#ffffff;stroke-linecap:square;stroke-width:0.8;"/>
     </g>
     <g id="line2d_12">
      <g>
       <use style="fill:#555555;stroke:#555555;stroke-width:0.8;" x="268.625455" xlink:href="#m6771c1ca06" y="307.584"/>
      </g>
     </g>
     <g id="text_6">
      <text style="fill:#555555;font-family:DejaVu Sans;font-size:10px;font-style:normal;font-weight:normal;text-anchor:middle;" transform="rotate(-0, 268.625455, 322.182437)" x="268.625455" y="322.182437">25</text>
     </g>
    </g>
    <g id="xtick_7">
     <g id="line2d_13">
      <path clip-path="url(#p534b9c2e2f)" d="M 309.207273 307.584 
L 309.207273 41.472 
" style="fill:none;stroke:#ffffff;stroke-linecap:square;stroke-width:0.8;"/>
     </g>
     <g id="line2d_14">
      <g>
       <use style="fill:#555555;stroke:#555555;stroke-width:0.8;" x="309.207273" xlink:href="#m6771c1ca06" y="307.584"/>
      </g>
     </g>
     <g id="text_7">
      <text style="fill:#555555;font-family:DejaVu Sans;font-size:10px;font-style:normal;font-weight:normal;text-anchor:middle;" transform="rotate(-0, 309.207273, 322.182437)" x="309.207273" y="322.182437">30</text>
     </g>
    </g>
    <g id="xtick_8">
     <g id="line2d_15">
      <path clip-path="url(#p534b9c2e2f)" d="M 349.789091 307.584 
L 349.789091 41.472 
" style="fill:none;stroke:#ffffff;stroke-linecap:square;stroke-width:0.8;"/>
     </g>
     <g id="line2d_16">
      <g>
       <use style="fill:#555555;stroke:#555555;stroke-width:0.8;" x="349.789091" xlink:href="#m6771c1ca06" y="307.584"/>
      </g>
     </g>
     <g id="text_8">
      <text style="fill:#555555;font-family:DejaVu Sans;font-size:10px;font-style:normal;font-weight:normal;text-anchor:middle;" transform="rotate(-0, 349.789091, 322.182437)" x="349.789091" y="322.182437">35</text>
     </g>
    </g>
    <g id="xtick_9">
     <g id="line2d_17">
      <path clip-path="url(#p534b9c2e2f)" d="M 390.370909 307.584 
L 390.370909 41.472 
" style="fill:none;stroke:#ffffff;stroke-linecap:square;stroke-width:0.8;"/>
     </g>
     <g id="line2d_18">
      <g>
       <use style="fill:#555555;stroke:#555555;stroke-width:0.8;" x="390.370909" xlink:href="#m6771c1ca06" y="307.584"/>
      </g>
     </g>
     <g id="text_9">
      <text style="fill:#555555;font-family:DejaVu Sans;font-size:10px;font-style:normal;font-weight:normal;text-anchor:middle;" transform="rotate(-0, 390.370909, 322.182437)" x="390.370909" y="322.182437">40</text>
     </g>
    </g>
    <g id="text_10">
     <text style="fill:#555555;font-family:DejaVu Sans;font-size:12px;font-style:normal;font-weight:normal;text-anchor:middle;" transform="rotate(-0, 236.16, 337.38025)" x="236.16" y="337.38025">Time (days)</text>
    </g>
   </g>
   <g id="matplotlib.axis_2">
    <g id="ytick_1">
     <g id="line2d_19">
      <path clip-path="url(#p534b9c2e2f)" d="M 57.6 307.584 
L 414.72 307.584 
" style="fill:none;stroke:#ffffff;stroke-linecap:square;stroke-width:0.8;"/>
     </g>
     <g id="line2d_20">
      <defs>
       <path d="M 0 0 
L -3.5 0 
" id="m07a8bdc357" style="stroke:#555555;stroke-width:0.8;"/>
      </defs>
      <g>
       <use style="fill:#555555;stroke:#555555;stroke-width:0.8;" x="57.6" xlink:href="#m07a8bdc357" y="307.584"/>
      </g>
     </g>
     <g id="text_11">
      <text style="fill:#555555;font-family:DejaVu Sans;font-size:10px;font-style:normal;font-weight:normal;text-anchor:end;" transform="rotate(-0, 50.6, 311.383219)" x="50.6" y="311.383219">0.0</text>
     </g>
    </g>
    <g id="ytick_2">
     <g id="line2d_21">
      <path clip-path="url(#p534b9c2e2f)" d="M 57.6 254.3616 
L 414.72 254.3616 
" style="fill:none;stroke:#ffffff;stroke-linecap:square;stroke-width:0.8;"/>
     </g>
     <g id="line2d_22">
      <g>
       <use style="fill:#555555;stroke:#555555;stroke-width:0.8;" x="57.6" xlink:href="#m07a8bdc357" y="254.3616"/>
      </g>
     </g>
     <g id="text_12">
      <text style="fill:#555555;font-family:DejaVu Sans;font-size:10px;font-style:normal;font-weight:normal;text-anchor:end;" transform="rotate(-0, 50.6, 258.160819)" x="50.6" y="258.160819">0.2</text>
     </g>
    </g>
    <g id="ytick_3">
     <g id="line2d_23">
      <path clip-path="url(#p534b9c2e2f)" d="M 57.6 201.1392 
L 414.72 201.1392 
" style="fill:none;stroke:#ffffff;stroke-linecap:square;stroke-width:0.8;"/>
     </g>
     <g id="line2d_24">
      <g>
       <use style="fill:#555555;stroke:#555555;stroke-width:0.8;" x="57.6" xlink:href="#m07a8bdc357" y="201.1392"/>
      </g>
     </g>
     <g id="text_13">
      <text style="fill:#555555;font-family:DejaVu Sans;font-size:10px;font-style:normal;font-weight:normal;text-anchor:end;" transform="rotate(-0, 50.6, 204.938419)" x="50.6" y="204.938419">0.4</text>
     </g>
    </g>
    <g id="ytick_4">
     <g id="line2d_25">
      <path clip-path="url(#p534b9c2e2f)" d="M 57.6 147.9168 
L 414.72 147.9168 
" style="fill:none;stroke:#ffffff;stroke-linecap:square;stroke-width:0.8;"/>
     </g>
     <g id="line2d_26">
      <g>
       <use style="fill:#555555;stroke:#555555;stroke-width:0.8;" x="57.6" xlink:href="#m07a8bdc357" y="147.9168"/>
      </g>
     </g>
     <g id="text_14">
      <text style="fill:#555555;font-family:DejaVu Sans;font-size:10px;font-style:normal;font-weight:normal;text-anchor:end;" transform="rotate(-0, 50.6, 151.716019)" x="50.6" y="151.716019">0.6</text>
     </g>
    </g>
    <g id="ytick_5">
     <g id="line2d_27">
      <path clip-path="url(#p534b9c2e2f)" d="M 57.6 94.6944 
L 414.72 94.6944 
" style="fill:none;stroke:#ffffff;stroke-linecap:square;stroke-width:0.8;"/>
     </g>
     <g id="line2d_28">
      <g>
       <use style="fill:#555555;stroke:#555555;stroke-width:0.8;" x="57.6" xlink:href="#m07a8bdc357" y="94.6944"/>
      </g>
     </g>
     <g id="text_15">
      <text style="fill:#555555;font-family:DejaVu Sans;font-size:10px;font-style:normal;font-weight:normal;text-anchor:end;" transform="rotate(-0, 50.6, 98.493619)" x="50.6" y="98.493619">0.8</text>
     </g>
    </g>
    <g id="ytick_6">
     <g id="line2d_29">
      <path clip-path="url(#p534b9c2e2f)" d="M 57.6 41.472 
L 414.72 41.472 
" style="fill:none;stroke:#ffffff;stroke-linecap:square;stroke-width:0.8;"/>
     </g>
     <g id="line2d_30">
      <g>
       <use style="fill:#555555;stroke:#555555;stroke-width:0.8;" x="57.6" xlink:href="#m07a8bdc357" y="41.472"/>
      </g>
     </g>
     <g id="text_16">
      <text style="fill:#555555;font-family:DejaVu Sans;font-size:10px;font-style:normal;font-weight:normal;text-anchor:end;" transform="rotate(-0, 50.6, 45.271219)" x="50.6" y="45.271219">1.0</text>
     </g>
    </g>
    <g id="text_17">
     <text style="fill:#555555;font-family:DejaVu Sans;font-size:12px;font-style:normal;font-weight:normal;text-anchor:middle;" transform="rotate(-90, 28.20125, 174.528)" x="28.20125" y="174.528">Recall probability</text>
    </g>
   </g>
   <g id="line2d_31">
    <path clip-path="url(#p534b9c2e2f)" d="M 73.832727 59.510232 
L 80.45833 73.040607 
L 87.083933 85.600904 
L 93.709536 97.276844 
L 100.335139 108.145186 
L 106.960742 118.274803 
L 113.586345 127.727613 
L 120.211948 136.559393 
L 126.837551 144.820475 
L 133.463154 152.556358 
L 140.088757 159.808247 
L 146.71436 166.613515 
L 153.339963 173.006116 
L 159.965566 179.016944 
L 166.591169 184.674153 
L 173.216772 190.003433 
L 179.842375 195.028265 
L 186.467978 199.770132 
L 193.093581 204.248722 
L 199.719184 208.482097 
L 206.344787 212.486849 
L 212.97039 216.278239 
L 219.595993 219.870317 
L 226.221596 223.276037 
L 232.847199 226.507353 
L 239.472801 229.575309 
L 246.098404 232.490118 
L 252.724007 235.261236 
L 259.34961 237.897425 
L 265.975213 240.406812 
L 272.600816 242.796944 
L 279.226419 245.074833 
L 285.852022 247.247003 
L 292.477625 249.319525 
L 299.103228 251.298058 
L 305.728831 253.187877 
L 312.354434 254.993908 
L 318.980037 256.720749 
L 325.60564 258.3727 
L 332.231243 259.953783 
L 338.856846 261.467762 
L 345.482449 262.918166 
L 352.108052 264.3083 
L 358.733655 265.641267 
L 365.359258 266.919979 
L 371.984861 268.147173 
L 378.610464 269.325419 
L 385.236067 270.457138 
L 391.86167 271.544605 
L 398.487273 272.589965 
" style="fill:none;stroke:#e24a33;stroke-linecap:square;stroke-width:1.5;"/>
    <defs>
     <path d="M 0 1.5 
C 0.397805 1.5 0.77937 1.341951 1.06066 1.06066 
C 1.341951 0.77937 1.5 0.397805 1.5 0 
C 1.5 -0.397805 1.341951 -0.77937 1.06066 -1.06066 
C 0.77937 -1.341951 0.397805 -1.5 0 -1.5 
C -0.397805 -1.5 -0.77937 -1.341951 -1.06066 -1.06066 
C -1.341951 -0.77937 -1.5 -0.397805 -1.5 0 
C -1.5 0.397805 -1.341951 0.77937 -1.06066 1.06066 
C -0.77937 1.341951 -0.397805 1.5 0 1.5 
z
" id="m7029f49885" style="stroke:#e24a33;"/>
    </defs>
    <g clip-path="url(#p534b9c2e2f)">
     <use style="fill:#e24a33;stroke:#e24a33;" x="73.832727" xlink:href="#m7029f49885" y="59.510232"/>
     <use style="fill:#e24a33;stroke:#e24a33;" x="80.45833" xlink:href="#m7029f49885" y="73.040607"/>
     <use style="fill:#e24a33;stroke:#e24a33;" x="87.083933" xlink:href="#m7029f49885" y="85.600904"/>
     <use style="fill:#e24a33;stroke:#e24a33;" x="93.709536" xlink:href="#m7029f49885" y="97.276844"/>
     <use style="fill:#e24a33;stroke:#e24a33;" x="100.335139" xlink:href="#m7029f49885" y="108.145186"/>
     <use style="fill:#e24a33;stroke:#e24a33;" x="106.960742" xlink:href="#m7029f49885" y="118.274803"/>
     <use style="fill:#e24a33;stroke:#e24a33;" x="113.586345" xlink:href="#m7029f49885" y="127.727613"/>
     <use style="fill:#e24a33;stroke:#e24a33;" x="120.211948" xlink:href="#m7029f49885" y="136.559393"/>
     <use style="fill:#e24a33;stroke:#e24a33;" x="126.837551" xlink:href="#m7029f49885" y="144.820475"/>
     <use style="fill:#e24a33;stroke:#e24a33;" x="133.463154" xlink:href="#m7029f49885" y="152.556358"/>
     <use style="fill:#e24a33;stroke:#e24a33;" x="140.088757" xlink:href="#m7029f49885" y="159.808247"/>
     <use style="fill:#e24a33;stroke:#e24a33;" x="146.71436" xlink:href="#m7029f49885" y="166.613515"/>
     <use style="fill:#e24a33;stroke:#e24a33;" x="153.339963" xlink:href="#m7029f49885" y="173.006116"/>
     <use style="fill:#e24a33;stroke:#e24a33;" x="159.965566" xlink:href="#m7029f49885" y="179.016944"/>
     <use style="fill:#e24a33;stroke:#e24a33;" x="166.591169" xlink:href="#m7029f49885" y="184.674153"/>
     <use style="fill:#e24a33;stroke:#e24a33;" x="173.216772" xlink:href="#m7029f49885" y="190.003433"/>
     <use style="fill:#e24a33;stroke:#e24a33;" x="179.842375" xlink:href="#m7029f49885" y="195.028265"/>
     <use style="fill:#e24a33;stroke:#e24a33;" x="186.467978" xlink:href="#m7029f49885" y="199.770132"/>
     <use style="fill:#e24a33;stroke:#e24a33;" x="193.093581" xlink:href="#m7029f49885" y="204.248722"/>
     <use style="fill:#e24a33;stroke:#e24a33;" x="199.719184" xlink:href="#m7029f49885" y="208.482097"/>
     <use style="fill:#e24a33;stroke:#e24a33;" x="206.344787" xlink:href="#m7029f49885" y="212.486849"/>
     <use style="fill:#e24a33;stroke:#e24a33;" x="212.97039" xlink:href="#m7029f49885" y="216.278239"/>
     <use style="fill:#e24a33;stroke:#e24a33;" x="219.595993" xlink:href="#m7029f49885" y="219.870317"/>
     <use style="fill:#e24a33;stroke:#e24a33;" x="226.221596" xlink:href="#m7029f49885" y="223.276037"/>
     <use style="fill:#e24a33;stroke:#e24a33;" x="232.847199" xlink:href="#m7029f49885" y="226.507353"/>
     <use style="fill:#e24a33;stroke:#e24a33;" x="239.472801" xlink:href="#m7029f49885" y="229.575309"/>
     <use style="fill:#e24a33;stroke:#e24a33;" x="246.098404" xlink:href="#m7029f49885" y="232.490118"/>
     <use style="fill:#e24a33;stroke:#e24a33;" x="252.724007" xlink:href="#m7029f49885" y="235.261236"/>
     <use style="fill:#e24a33;stroke:#e24a33;" x="259.34961" xlink:href="#m7029f49885" y="237.897425"/>
     <use style="fill:#e24a33;stroke:#e24a33;" x="265.975213" xlink:href="#m7029f49885" y="240.406812"/>
     <use style="fill:#e24a33;stroke:#e24a33;" x="272.600816" xlink:href="#m7029f49885" y="242.796944"/>
     <use style="fill:#e24a33;stroke:#e24a33;" x="279.226419" xlink:href="#m7029f49885" y="245.074833"/>
     <use style="fill:#e24a33;stroke:#e24a33;" x="285.852022" xlink:href="#m7029f49885" y="247.247003"/>
     <use style="fill:#e24a33;stroke:#e24a33;" x="292.477625" xlink:href="#m7029f49885" y="249.319525"/>
     <use style="fill:#e24a33;stroke:#e24a33;" x="299.103228" xlink:href="#m7029f49885" y="251.298058"/>
     <use style="fill:#e24a33;stroke:#e24a33;" x="305.728831" xlink:href="#m7029f49885" y="253.187877"/>
     <use style="fill:#e24a33;stroke:#e24a33;" x="312.354434" xlink:href="#m7029f49885" y="254.993908"/>
     <use style="fill:#e24a33;stroke:#e24a33;" x="318.980037" xlink:href="#m7029f49885" y="256.720749"/>
     <use style="fill:#e24a33;stroke:#e24a33;" x="325.60564" xlink:href="#m7029f49885" y="258.3727"/>
     <use style="fill:#e24a33;stroke:#e24a33;" x="332.231243" xlink:href="#m7029f49885" y="259.953783"/>
     <use style="fill:#e24a33;stroke:#e24a33;" x="338.856846" xlink:href="#m7029f49885" y="261.467762"/>
     <use style="fill:#e24a33;stroke:#e24a33;" x="345.482449" xlink:href="#m7029f49885" y="262.918166"/>
     <use style="fill:#e24a33;stroke:#e24a33;" x="352.108052" xlink:href="#m7029f49885" y="264.3083"/>
     <use style="fill:#e24a33;stroke:#e24a33;" x="358.733655" xlink:href="#m7029f49885" y="265.641267"/>
     <use style="fill:#e24a33;stroke:#e24a33;" x="365.359258" xlink:href="#m7029f49885" y="266.919979"/>
     <use style="fill:#e24a33;stroke:#e24a33;" x="371.984861" xlink:href="#m7029f49885" y="268.147173"/>
     <use style="fill:#e24a33;stroke:#e24a33;" x="378.610464" xlink:href="#m7029f49885" y="269.325419"/>
     <use style="fill:#e24a33;stroke:#e24a33;" x="385.236067" xlink:href="#m7029f49885" y="270.457138"/>
     <use style="fill:#e24a33;stroke:#e24a33;" x="391.86167" xlink:href="#m7029f49885" y="271.544605"/>
     <use style="fill:#e24a33;stroke:#e24a33;" x="398.487273" xlink:href="#m7029f49885" y="272.589965"/>
    </g>
   </g>
   <g id="line2d_32">
    <path clip-path="url(#p534b9c2e2f)" d="M 73.832727 64.322209 
L 80.45833 81.397473 
L 87.083933 97.178914 
L 93.709536 111.771732 
L 100.335139 125.271996 
L 106.960742 137.767485 
L 113.586345 149.338448 
L 120.211948 160.058293 
L 126.837551 169.994203 
L 133.463154 179.207699 
L 140.088757 187.755149 
L 146.71436 195.688225 
L 153.339963 203.054317 
L 159.965566 209.896913 
L 166.591169 216.255942 
L 173.216772 222.168076 
L 179.842375 227.667024 
L 186.467978 232.783774 
L 193.093581 237.546837 
L 199.719184 241.982451 
L 206.344787 246.114776 
L 212.97039 249.966069 
L 219.595993 253.556843 
L 226.221596 256.906011 
L 232.847199 260.031021 
L 239.472801 262.947975 
L 246.098404 265.671741 
L 252.724007 268.216052 
L 259.34961 270.593597 
L 265.975213 272.816108 
L 272.600816 274.894437 
L 279.226419 276.838623 
L 285.852022 278.657959 
L 292.477625 280.36105 
L 299.103228 281.95587 
L 305.728831 283.449806 
L 312.354434 284.849709 
L 318.980037 286.161931 
L 325.60564 287.392367 
L 332.231243 288.546489 
L 338.856846 289.629378 
L 345.482449 290.645753 
L 352.108052 291.6 
L 358.733655 292.496195 
L 365.359258 293.33813 
L 371.984861 294.12933 
L 378.610464 294.873078 
L 385.236067 295.572429 
L 391.86167 296.230228 
L 398.487273 296.849124 
" style="fill:none;stroke:#348abd;stroke-linecap:square;stroke-width:1.5;"/>
    <defs>
     <path d="M 0 1.5 
C 0.397805 1.5 0.77937 1.341951 1.06066 1.06066 
C 1.341951 0.77937 1.5 0.397805 1.5 0 
C 1.5 -0.397805 1.341951 -0.77937 1.06066 -1.06066 
C 0.77937 -1.341951 0.397805 -1.5 0 -1.5 
C -0.397805 -1.5 -0.77937 -1.341951 -1.06066 -1.06066 
C -1.341951 -0.77937 -1.5 -0.397805 -1.5 0 
C -1.5 0.397805 -1.341951 0.77937 -1.06066 1.06066 
C -0.77937 1.341951 -0.397805 1.5 0 1.5 
z
" id="m37ad1066c7" style="stroke:#348abd;"/>
    </defs>
    <g clip-path="url(#p534b9c2e2f)">
     <use style="fill:#348abd;stroke:#348abd;" x="73.832727" xlink:href="#m37ad1066c7" y="64.322209"/>
     <use style="fill:#348abd;stroke:#348abd;" x="80.45833" xlink:href="#m37ad1066c7" y="81.397473"/>
     <use style="fill:#348abd;stroke:#348abd;" x="87.083933" xlink:href="#m37ad1066c7" y="97.178914"/>
     <use style="fill:#348abd;stroke:#348abd;" x="93.709536" xlink:href="#m37ad1066c7" y="111.771732"/>
     <use style="fill:#348abd;stroke:#348abd;" x="100.335139" xlink:href="#m37ad1066c7" y="125.271996"/>
     <use style="fill:#348abd;stroke:#348abd;" x="106.960742" xlink:href="#m37ad1066c7" y="137.767485"/>
     <use style="fill:#348abd;stroke:#348abd;" x="113.586345" xlink:href="#m37ad1066c7" y="149.338448"/>
     <use style="fill:#348abd;stroke:#348abd;" x="120.211948" xlink:href="#m37ad1066c7" y="160.058293"/>
     <use style="fill:#348abd;stroke:#348abd;" x="126.837551" xlink:href="#m37ad1066c7" y="169.994203"/>
     <use style="fill:#348abd;stroke:#348abd;" x="133.463154" xlink:href="#m37ad1066c7" y="179.207699"/>
     <use style="fill:#348abd;stroke:#348abd;" x="140.088757" xlink:href="#m37ad1066c7" y="187.755149"/>
     <use style="fill:#348abd;stroke:#348abd;" x="146.71436" xlink:href="#m37ad1066c7" y="195.688225"/>
     <use style="fill:#348abd;stroke:#348abd;" x="153.339963" xlink:href="#m37ad1066c7" y="203.054317"/>
     <use style="fill:#348abd;stroke:#348abd;" x="159.965566" xlink:href="#m37ad1066c7" y="209.896913"/>
     <use style="fill:#348abd;stroke:#348abd;" x="166.591169" xlink:href="#m37ad1066c7" y="216.255942"/>
     <use style="fill:#348abd;stroke:#348abd;" x="173.216772" xlink:href="#m37ad1066c7" y="222.168076"/>
     <use style="fill:#348abd;stroke:#348abd;" x="179.842375" xlink:href="#m37ad1066c7" y="227.667024"/>
     <use style="fill:#348abd;stroke:#348abd;" x="186.467978" xlink:href="#m37ad1066c7" y="232.783774"/>
     <use style="fill:#348abd;stroke:#348abd;" x="193.093581" xlink:href="#m37ad1066c7" y="237.546837"/>
     <use style="fill:#348abd;stroke:#348abd;" x="199.719184" xlink:href="#m37ad1066c7" y="241.982451"/>
     <use style="fill:#348abd;stroke:#348abd;" x="206.344787" xlink:href="#m37ad1066c7" y="246.114776"/>
     <use style="fill:#348abd;stroke:#348abd;" x="212.97039" xlink:href="#m37ad1066c7" y="249.966069"/>
     <use style="fill:#348abd;stroke:#348abd;" x="219.595993" xlink:href="#m37ad1066c7" y="253.556843"/>
     <use style="fill:#348abd;stroke:#348abd;" x="226.221596" xlink:href="#m37ad1066c7" y="256.906011"/>
     <use style="fill:#348abd;stroke:#348abd;" x="232.847199" xlink:href="#m37ad1066c7" y="260.031021"/>
     <use style="fill:#348abd;stroke:#348abd;" x="239.472801" xlink:href="#m37ad1066c7" y="262.947975"/>
     <use style="fill:#348abd;stroke:#348abd;" x="246.098404" xlink:href="#m37ad1066c7" y="265.671741"/>
     <use style="fill:#348abd;stroke:#348abd;" x="252.724007" xlink:href="#m37ad1066c7" y="268.216052"/>
     <use style="fill:#348abd;stroke:#348abd;" x="259.34961" xlink:href="#m37ad1066c7" y="270.593597"/>
     <use style="fill:#348abd;stroke:#348abd;" x="265.975213" xlink:href="#m37ad1066c7" y="272.816108"/>
     <use style="fill:#348abd;stroke:#348abd;" x="272.600816" xlink:href="#m37ad1066c7" y="274.894437"/>
     <use style="fill:#348abd;stroke:#348abd;" x="279.226419" xlink:href="#m37ad1066c7" y="276.838623"/>
     <use style="fill:#348abd;stroke:#348abd;" x="285.852022" xlink:href="#m37ad1066c7" y="278.657959"/>
     <use style="fill:#348abd;stroke:#348abd;" x="292.477625" xlink:href="#m37ad1066c7" y="280.36105"/>
     <use style="fill:#348abd;stroke:#348abd;" x="299.103228" xlink:href="#m37ad1066c7" y="281.95587"/>
     <use style="fill:#348abd;stroke:#348abd;" x="305.728831" xlink:href="#m37ad1066c7" y="283.449806"/>
     <use style="fill:#348abd;stroke:#348abd;" x="312.354434" xlink:href="#m37ad1066c7" y="284.849709"/>
     <use style="fill:#348abd;stroke:#348abd;" x="318.980037" xlink:href="#m37ad1066c7" y="286.161931"/>
     <use style="fill:#348abd;stroke:#348abd;" x="325.60564" xlink:href="#m37ad1066c7" y="287.392367"/>
     <use style="fill:#348abd;stroke:#348abd;" x="332.231243" xlink:href="#m37ad1066c7" y="288.546489"/>
     <use style="fill:#348abd;stroke:#348abd;" x="338.856846" xlink:href="#m37ad1066c7" y="289.629378"/>
     <use style="fill:#348abd;stroke:#348abd;" x="345.482449" xlink:href="#m37ad1066c7" y="290.645753"/>
     <use style="fill:#348abd;stroke:#348abd;" x="352.108052" xlink:href="#m37ad1066c7" y="291.6"/>
     <use style="fill:#348abd;stroke:#348abd;" x="358.733655" xlink:href="#m37ad1066c7" y="292.496195"/>
     <use style="fill:#348abd;stroke:#348abd;" x="365.359258" xlink:href="#m37ad1066c7" y="293.33813"/>
     <use style="fill:#348abd;stroke:#348abd;" x="371.984861" xlink:href="#m37ad1066c7" y="294.12933"/>
     <use style="fill:#348abd;stroke:#348abd;" x="378.610464" xlink:href="#m37ad1066c7" y="294.873078"/>
     <use style="fill:#348abd;stroke:#348abd;" x="385.236067" xlink:href="#m37ad1066c7" y="295.572429"/>
     <use style="fill:#348abd;stroke:#348abd;" x="391.86167" xlink:href="#m37ad1066c7" y="296.230228"/>
     <use style="fill:#348abd;stroke:#348abd;" x="398.487273" xlink:href="#m37ad1066c7" y="296.849124"/>
    </g>
   </g>
   <g id="line2d_33">
    <path clip-path="url(#p534b9c2e2f)" d="M 73.832727 57.72618 
L 80.45833 70.256068 
L 87.083933 82.157606 
L 93.709536 93.462305 
L 100.335139 104.200096 
L 106.960742 114.399406 
L 113.586345 124.087242 
L 120.211948 133.28925 
L 126.837551 142.029796 
L 133.463154 150.33202 
L 140.088757 158.217904 
L 146.71436 165.708326 
L 153.339963 172.823117 
L 159.965566 179.581116 
L 166.591169 186.000214 
L 173.216772 192.097406 
L 179.842375 197.888836 
L 186.467978 203.389837 
L 193.093581 208.614974 
L 199.719184 213.57808 
L 206.344787 218.292295 
L 212.97039 222.770102 
L 219.595993 227.023356 
L 226.221596 231.063317 
L 232.847199 234.900682 
L 239.472801 238.54561 
L 246.098404 242.007752 
L 252.724007 245.296275 
L 259.34961 248.419884 
L 265.975213 251.38685 
L 272.600816 254.205029 
L 279.226419 256.881882 
L 285.852022 259.424495 
L 292.477625 261.839601 
L 299.103228 264.133595 
L 305.728831 266.312549 
L 312.354434 268.382233 
L 318.980037 270.348126 
L 325.60564 272.215433 
L 332.231243 273.989098 
L 338.856846 275.673818 
L 345.482449 277.274052 
L 352.108052 278.794038 
L 358.733655 280.237799 
L 365.359258 281.609158 
L 371.984861 282.911746 
L 378.610464 284.149012 
L 385.236067 285.324232 
L 391.86167 286.440516 
L 398.487273 287.500821 
" style="fill:none;stroke:#e24a33;stroke-dasharray:5.55,2.4;stroke-dashoffset:0;stroke-width:1.5;"/>
   </g>
   <g id="line2d_34">
    <path clip-path="url(#p534b9c2e2f)" d="M 73.832727 63.759203 
L 80.45833 80.561756 
L 87.083933 96.206404 
L 93.709536 110.772943 
L 100.335139 124.335666 
L 106.960742 136.963749 
L 113.586345 148.721601 
L 120.211948 159.669191 
L 126.837551 169.862356 
L 133.463154 179.353085 
L 140.088757 188.189786 
L 146.71436 196.417528 
L 153.339963 204.078277 
L 159.965566 211.211105 
L 166.591169 217.852393 
L 173.216772 224.036014 
L 179.842375 229.793506 
L 186.467978 235.154236 
L 193.093581 240.145545 
L 199.719184 244.792892 
L 206.344787 249.119978 
L 212.97039 253.148874 
L 219.595993 256.900129 
L 226.221596 260.392877 
L 232.847199 263.644931 
L 239.472801 266.672877 
L 246.098404 269.492161 
L 252.724007 272.117161 
L 259.34961 274.561267 
L 265.975213 276.836943 
L 272.600816 278.955796 
L 279.226419 280.928635 
L 285.852022 282.76552 
L 292.477625 284.475821 
L 299.103228 286.068261 
L 305.728831 287.550962 
L 312.354434 288.931487 
L 318.980037 290.216877 
L 325.60564 291.413687 
L 332.231243 292.528022 
L 338.856846 293.565566 
L 345.482449 294.53161 
L 352.108052 295.431081 
L 358.733655 296.268568 
L 365.359258 297.048342 
L 371.984861 297.774379 
L 378.610464 298.450384 
L 385.236067 299.079803 
L 391.86167 299.665848 
L 398.487273 300.211507 
" style="fill:none;stroke:#348abd;stroke-dasharray:5.55,2.4;stroke-dashoffset:0;stroke-width:1.5;"/>
   </g>
   <g id="patch_3">
    <path d="M 57.6 307.584 
L 57.6 41.472 
" style="fill:none;stroke:#ffffff;stroke-linecap:square;stroke-linejoin:miter;"/>
   </g>
   <g id="patch_4">
    <path d="M 414.72 307.584 
L 414.72 41.472 
" style="fill:none;stroke:#ffffff;stroke-linecap:square;stroke-linejoin:miter;"/>
   </g>
   <g id="patch_5">
    <path d="M 57.6 307.584 
L 414.72 307.584 
" style="fill:none;stroke:#ffffff;stroke-linecap:square;stroke-linejoin:miter;"/>
   </g>
   <g id="patch_6">
    <path d="M 57.6 41.472 
L 414.72 41.472 
" style="fill:none;stroke:#ffffff;stroke-linecap:square;stroke-linejoin:miter;"/>
   </g>
   <g id="text_18">
    <text style="font-family:DejaVu Sans;font-size:14.4px;font-style:normal;font-weight:normal;text-anchor:middle;" transform="rotate(-0, 236.16, 35.472)" x="236.16" y="35.472">Predicted forgetting curves (halflife A=11, B=8)</text>
   </g>
   <g id="legend_1">
    <g id="patch_7">
     <path d="M 330.715313 108.1845 
L 407.72 108.1845 
Q 409.72 108.1845 409.72 106.1845 
L 409.72 48.472 
Q 409.72 46.472 407.72 46.472 
L 330.715313 46.472 
Q 328.715313 46.472 328.715313 48.472 
L 328.715313 106.1845 
Q 328.715313 108.1845 330.715313 108.1845 
z
" style="fill:#e5e5e5;opacity:0.8;stroke:#cccccc;stroke-linejoin:miter;stroke-width:0.5;"/>
    </g>
    <g id="line2d_35">
     <path d="M 332.715313 54.570438 
L 352.715313 54.570438 
" style="fill:none;stroke:#e24a33;stroke-linecap:square;stroke-width:1.5;"/>
    </g>
    <g id="line2d_36">
     <g>
      <use style="fill:#e24a33;stroke:#e24a33;" x="342.715313" xlink:href="#m7029f49885" y="54.570438"/>
     </g>
    </g>
    <g id="text_19">
     <text style="font-family:DejaVu Sans;font-size:10px;font-style:normal;font-weight:normal;text-anchor:start;" transform="rotate(-0, 360.715313, 58.070438)" x="360.715313" y="58.070438">Model A</text>
    </g>
    <g id="line2d_37">
     <path d="M 332.715313 69.248563 
L 352.715313 69.248563 
" style="fill:none;stroke:#348abd;stroke-linecap:square;stroke-width:1.5;"/>
    </g>
    <g id="line2d_38">
     <g>
      <use style="fill:#348abd;stroke:#348abd;" x="342.715313" xlink:href="#m37ad1066c7" y="69.248563"/>
     </g>
    </g>
    <g id="text_20">
     <text style="font-family:DejaVu Sans;font-size:10px;font-style:normal;font-weight:normal;text-anchor:start;" transform="rotate(-0, 360.715313, 72.748563)" x="360.715313" y="72.748563">Model B</text>
    </g>
    <g id="line2d_39">
     <path d="M 332.715313 83.926688 
L 352.715313 83.926688 
" style="fill:none;stroke:#e24a33;stroke-dasharray:5.55,2.4;stroke-dashoffset:0;stroke-width:1.5;"/>
    </g>
    <g id="line2d_40"/>
    <g id="text_21">
     <text style="font-family:DejaVu Sans;font-size:10px;font-style:normal;font-weight:normal;text-anchor:start;" transform="rotate(-0, 360.715313, 87.426688)" x="360.715313" y="87.426688">approx A</text>
    </g>
    <g id="line2d_41">
     <path d="M 332.715313 98.604813 
L 352.715313 98.604813 
" style="fill:none;stroke:#348abd;stroke-dasharray:5.55,2.4;stroke-dashoffset:0;stroke-width:1.5;"/>
    </g>
    <g id="line2d_42"/>
    <g id="text_22">
     <text style="font-family:DejaVu Sans;font-size:10px;font-style:normal;font-weight:normal;text-anchor:start;" transform="rotate(-0, 360.715313, 102.104813)" x="360.715313" y="102.104813">approx B</text>
    </g>
   </g>
  </g>
 </g>
 <defs>
  <clipPath id="p534b9c2e2f">
   <rect height="266.112" width="357.12" x="57.6" y="41.472"/>
  </clipPath>
 </defs>
</svg>
