<?xml version="1.0" encoding="utf-8" standalone="no"?>
<!DOCTYPE svg PUBLIC "-//W3C//DTD SVG 1.1//EN"
  "http://www.w3.org/Graphics/SVG/1.1/DTD/svg11.dtd">
<!-- Created with matplotlib (http://matplotlib.org/) -->
<svg height="288pt" version="1.1" viewBox="0 0 432 288" width="432pt" xmlns="http://www.w3.org/2000/svg" xmlns:xlink="http://www.w3.org/1999/xlink">
 <defs>
  <style type="text/css">
*{stroke-linecap:butt;stroke-linejoin:round;}
  </style>
 </defs>
 <g id="figure_1">
  <g id="patch_1">
   <path d="M 0 288 
L 432 288 
L 432 0 
L 0 0 
z
" style="fill:#ffffff;"/>
  </g>
  <g id="axes_1">
   <g id="patch_2">
    <path d="M 54 252 
L 388.8 252 
L 388.8 34.56 
L 54 34.56 
z
" style="fill:#e5e5e5;"/>
   </g>
   <g id="matplotlib.axis_1">
    <g id="xtick_1">
     <g id="line2d_1">
      <path clip-path="url(#pf6a184e367)" d="M 58.722884 252 
L 58.722884 34.56 
" style="fill:none;stroke:#ffffff;stroke-linecap:square;stroke-width:0.8;"/>
     </g>
     <g id="line2d_2">
      <defs>
       <path d="M 0 0 
L 0 3.5 
" id="m4357eea4fb" style="stroke:#555555;stroke-width:0.8;"/>
      </defs>
      <g>
       <use style="fill:#555555;stroke:#555555;stroke-width:0.8;" x="58.722884" xlink:href="#m4357eea4fb" y="252"/>
      </g>
     </g>
     <g id="text_1">
      <text style="fill:#555555;font-family:DejaVu Sans;font-size:10px;font-style:normal;font-weight:400;text-anchor:middle;" transform="rotate(-0, 58.722884, 266.598437)" x="58.722884" y="266.598437">0</text>
     </g>
    </g>
    <g id="xtick_2">
     <g id="line2d_3">
      <path clip-path="url(#pf6a184e367)" d="M 111.199373 252 
L 111.199373 34.56 
" style="fill:none;stroke:#ffffff;stroke-linecap:square;stroke-width:0.8;"/>
     </g>
     <g id="line2d_4">
      <g>
       <use style="fill:#555555;stroke:#555555;stroke-width:0.8;" x="111.199373" xlink:href="#m4357eea4fb" y="252"/>
      </g>
     </g>
     <g id="text_2">
      <text style="fill:#555555;font-family:DejaVu Sans;font-size:10px;font-style:normal;font-weight:400;text-anchor:middle;" transform="rotate(-0, 111.199373, 266.598437)" x="111.199373" y="266.598437">5</text>
     </g>
    </g>
    <g id="xtick_3">
     <g id="line2d_5">
      <path clip-path="url(#pf6a184e367)" d="M 163.675862 252 
L 163.675862 34.56 
" style="fill:none;stroke:#ffffff;stroke-linecap:square;stroke-width:0.8;"/>
     </g>
     <g id="line2d_6">
      <g>
       <use style="fill:#555555;stroke:#555555;stroke-width:0.8;" x="163.675862" xlink:href="#m4357eea4fb" y="252"/>
      </g>
     </g>
     <g id="text_3">
      <text style="fill:#555555;font-family:DejaVu Sans;font-size:10px;font-style:normal;font-weight:400;text-anchor:middle;" transform="rotate(-0, 163.675862, 266.598437)" x="163.675862" y="266.598437">10</text>
     </g>
    </g>
    <g id="xtick_4">
     <g id="line2d_7">
      <path clip-path="url(#pf6a184e367)" d="M 216.152351 252 
L 216.152351 34.56 
" style="fill:none;stroke:#ffffff;stroke-linecap:square;stroke-width:0.8;"/>
     </g>
     <g id="line2d_8">
      <g>
       <use style="fill:#555555;stroke:#555555;stroke-width:0.8;" x="216.152351" xlink:href="#m4357eea4fb" y="252"/>
      </g>
     </g>
     <g id="text_4">
      <text style="fill:#555555;font-family:DejaVu Sans;font-size:10px;font-style:normal;font-weight:400;text-anchor:middle;" transform="rotate(-0, 216.152351, 266.598437)" x="216.152351" y="266.598437">15</text>
     </g>
    </g>
    <g id="xtick_5">
     <g id="line2d_9">
      <path clip-path="url(#pf6a184e367)" d="M 268.62884 252 
L 268.62884 34.56 
" style="fill:none;stroke:#ffffff;stroke-linecap:square;stroke-width:0.8;"/>
     </g>
     <g id="line2d_10">
      <g>
       <use style="fill:#555555;stroke:#555555;stroke-width:0.8;" x="268.62884" xlink:href="#m4357eea4fb" y="252"/>
      </g>
     </g>
     <g id="text_5">
      <text style="fill:#555555;font-family:DejaVu Sans;font-size:10px;font-style:normal;font-weight:400;text-anchor:middle;" transform="rotate(-0, 268.62884, 266.598437)" x="268.62884" y="266.598437">20</text>
     </g>
    </g>
    <g id="xtick_6">
     <g id="line2d_11">
      <path clip-path="url(#pf6a184e367)" d="M 321.105329 252 
L 321.105329 34.56 
" style="fill:none;stroke:#ffffff;stroke-linecap:square;stroke-width:0.8;"/>
     </g>
     <g id="line2d_12">
      <g>
       <use style="fill:#555555;stroke:#555555;stroke-width:0.8;" x="321.105329" xlink:href="#m4357eea4fb" y="252"/>
      </g>
     </g>
     <g id="text_6">
      <text style="fill:#555555;font-family:DejaVu Sans;font-size:10px;font-style:normal;font-weight:400;text-anchor:middle;" transform="rotate(-0, 321.105329, 266.598437)" x="321.105329" y="266.598437">25</text>
     </g>
    </g>
    <g id="xtick_7">
     <g id="line2d_13">
      <path clip-path="url(#pf6a184e367)" d="M 373.581818 252 
L 373.581818 34.56 
" style="fill:none;stroke:#ffffff;stroke-linecap:square;stroke-width:0.8;"/>
     </g>
     <g id="line2d_14">
      <g>
       <use style="fill:#555555;stroke:#555555;stroke-width:0.8;" x="373.581818" xlink:href="#m4357eea4fb" y="252"/>
      </g>
     </g>
     <g id="text_7">
      <text style="fill:#555555;font-family:DejaVu Sans;font-size:10px;font-style:normal;font-weight:400;text-anchor:middle;" transform="rotate(-0, 373.581818, 266.598437)" x="373.581818" y="266.598437">30</text>
     </g>
    </g>
    <g id="text_8">
     <text style="fill:#555555;font-family:DejaVu Sans;font-size:12px;font-style:normal;font-weight:400;text-anchor:middle;" transform="rotate(-0, 221.4, 281.79625)" x="221.4" y="281.79625">Time of test (days after previous test)</text>
    </g>
   </g>
   <g id="matplotlib.axis_2">
    <g id="ytick_1">
     <g id="line2d_15">
      <path clip-path="url(#pf6a184e367)" d="M 54 224.637423 
L 388.8 224.637423 
" style="fill:none;stroke:#ffffff;stroke-linecap:square;stroke-width:0.8;"/>
     </g>
     <g id="line2d_16">
      <defs>
       <path d="M 0 0 
L -3.5 0 
" id="m83048ba05a" style="stroke:#555555;stroke-width:0.8;"/>
      </defs>
      <g>
       <use style="fill:#555555;stroke:#555555;stroke-width:0.8;" x="54" xlink:href="#m83048ba05a" y="224.637423"/>
      </g>
     </g>
     <g id="text_9">
      <text style="fill:#555555;font-family:DejaVu Sans;font-size:10px;font-style:normal;font-weight:400;text-anchor:end;" transform="rotate(-0, 47, 228.436642)" x="47" y="228.436642">6</text>
     </g>
    </g>
    <g id="ytick_2">
     <g id="line2d_17">
      <path clip-path="url(#pf6a184e367)" d="M 54 184.160775 
L 388.8 184.160775 
" style="fill:none;stroke:#ffffff;stroke-linecap:square;stroke-width:0.8;"/>
     </g>
     <g id="line2d_18">
      <g>
       <use style="fill:#555555;stroke:#555555;stroke-width:0.8;" x="54" xlink:href="#m83048ba05a" y="184.160775"/>
      </g>
     </g>
     <g id="text_10">
      <text style="fill:#555555;font-family:DejaVu Sans;font-size:10px;font-style:normal;font-weight:400;text-anchor:end;" transform="rotate(-0, 47, 187.959994)" x="47" y="187.959994">8</text>
     </g>
    </g>
    <g id="ytick_3">
     <g id="line2d_19">
      <path clip-path="url(#pf6a184e367)" d="M 54 143.684127 
L 388.8 143.684127 
" style="fill:none;stroke:#ffffff;stroke-linecap:square;stroke-width:0.8;"/>
     </g>
     <g id="line2d_20">
      <g>
       <use style="fill:#555555;stroke:#555555;stroke-width:0.8;" x="54" xlink:href="#m83048ba05a" y="143.684127"/>
      </g>
     </g>
     <g id="text_11">
      <text style="fill:#555555;font-family:DejaVu Sans;font-size:10px;font-style:normal;font-weight:400;text-anchor:end;" transform="rotate(-0, 47, 147.483346)" x="47" y="147.483346">10</text>
     </g>
    </g>
    <g id="ytick_4">
     <g id="line2d_21">
      <path clip-path="url(#pf6a184e367)" d="M 54 103.207479 
L 388.8 103.207479 
" style="fill:none;stroke:#ffffff;stroke-linecap:square;stroke-width:0.8;"/>
     </g>
     <g id="line2d_22">
      <g>
       <use style="fill:#555555;stroke:#555555;stroke-width:0.8;" x="54" xlink:href="#m83048ba05a" y="103.207479"/>
      </g>
     </g>
     <g id="text_12">
      <text style="fill:#555555;font-family:DejaVu Sans;font-size:10px;font-style:normal;font-weight:400;text-anchor:end;" transform="rotate(-0, 47, 107.006698)" x="47" y="107.006698">12</text>
     </g>
    </g>
    <g id="ytick_5">
     <g id="line2d_23">
      <path clip-path="url(#pf6a184e367)" d="M 54 62.730831 
L 388.8 62.730831 
" style="fill:none;stroke:#ffffff;stroke-linecap:square;stroke-width:0.8;"/>
     </g>
     <g id="line2d_24">
      <g>
       <use style="fill:#555555;stroke:#555555;stroke-width:0.8;" x="54" xlink:href="#m83048ba05a" y="62.730831"/>
      </g>
     </g>
     <g id="text_13">
      <text style="fill:#555555;font-family:DejaVu Sans;font-size:10px;font-style:normal;font-weight:400;text-anchor:end;" transform="rotate(-0, 47, 66.53005)" x="47" y="66.53005">14</text>
     </g>
    </g>
    <g id="text_14">
     <text style="fill:#555555;font-family:DejaVu Sans;font-size:12px;font-style:normal;font-weight:400;text-anchor:middle;" transform="rotate(-90, 27.779375, 143.28)" x="27.779375" y="143.28">Half-life (days)</text>
    </g>
   </g>
   <g id="line2d_25">
    <path clip-path="url(#pf6a184e367)" d="M 54 204.399099 
L 388.8 204.399099 
" style="fill:none;stroke:#808080;stroke-linecap:square;"/>
   </g>
   <g id="line2d_26">
    <path clip-path="url(#pf6a184e367)" d="M 69.218182 198.879543 
L 79.71348 193.462838 
L 90.208777 188.045288 
L 100.704075 182.629961 
L 111.199373 177.219187 
L 121.694671 171.814658 
L 132.189969 166.417554 
L 142.685266 161.028653 
L 153.180564 155.648428 
L 163.675862 150.27712 
L 174.17116 144.914803 
L 184.666458 139.561424 
L 195.161755 134.216841 
L 205.657053 128.880849 
L 216.152351 123.553198 
L 226.647649 118.233612 
L 237.142947 112.921798 
L 247.638245 107.617454 
L 258.133542 102.320275 
L 268.62884 97.029959 
L 279.124138 91.74621 
L 289.619436 86.468738 
L 300.114734 81.197263 
L 310.610031 75.931517 
L 321.105329 70.671241 
L 331.600627 65.416187 
L 342.095925 60.166119 
L 352.591223 54.920812 
L 363.08652 49.680053 
L 373.581818 44.443636 
" style="fill:none;stroke:#e24a33;stroke-linecap:square;stroke-width:1.5;"/>
    <defs>
     <path d="M -3 3 
L 3 -3 
M -3 -3 
L 3 3 
" id="m480beb7bbe" style="stroke:#e24a33;"/>
    </defs>
    <g clip-path="url(#pf6a184e367)">
     <use style="fill:#e24a33;stroke:#e24a33;" x="69.218182" xlink:href="#m480beb7bbe" y="198.879543"/>
     <use style="fill:#e24a33;stroke:#e24a33;" x="79.71348" xlink:href="#m480beb7bbe" y="193.462838"/>
     <use style="fill:#e24a33;stroke:#e24a33;" x="90.208777" xlink:href="#m480beb7bbe" y="188.045288"/>
     <use style="fill:#e24a33;stroke:#e24a33;" x="100.704075" xlink:href="#m480beb7bbe" y="182.629961"/>
     <use style="fill:#e24a33;stroke:#e24a33;" x="111.199373" xlink:href="#m480beb7bbe" y="177.219187"/>
     <use style="fill:#e24a33;stroke:#e24a33;" x="121.694671" xlink:href="#m480beb7bbe" y="171.814658"/>
     <use style="fill:#e24a33;stroke:#e24a33;" x="132.189969" xlink:href="#m480beb7bbe" y="166.417554"/>
     <use style="fill:#e24a33;stroke:#e24a33;" x="142.685266" xlink:href="#m480beb7bbe" y="161.028653"/>
     <use style="fill:#e24a33;stroke:#e24a33;" x="153.180564" xlink:href="#m480beb7bbe" y="155.648428"/>
     <use style="fill:#e24a33;stroke:#e24a33;" x="163.675862" xlink:href="#m480beb7bbe" y="150.27712"/>
     <use style="fill:#e24a33;stroke:#e24a33;" x="174.17116" xlink:href="#m480beb7bbe" y="144.914803"/>
     <use style="fill:#e24a33;stroke:#e24a33;" x="184.666458" xlink:href="#m480beb7bbe" y="139.561424"/>
     <use style="fill:#e24a33;stroke:#e24a33;" x="195.161755" xlink:href="#m480beb7bbe" y="134.216841"/>
     <use style="fill:#e24a33;stroke:#e24a33;" x="205.657053" xlink:href="#m480beb7bbe" y="128.880849"/>
     <use style="fill:#e24a33;stroke:#e24a33;" x="216.152351" xlink:href="#m480beb7bbe" y="123.553198"/>
     <use style="fill:#e24a33;stroke:#e24a33;" x="226.647649" xlink:href="#m480beb7bbe" y="118.233612"/>
     <use style="fill:#e24a33;stroke:#e24a33;" x="237.142947" xlink:href="#m480beb7bbe" y="112.921798"/>
     <use style="fill:#e24a33;stroke:#e24a33;" x="247.638245" xlink:href="#m480beb7bbe" y="107.617454"/>
     <use style="fill:#e24a33;stroke:#e24a33;" x="258.133542" xlink:href="#m480beb7bbe" y="102.320275"/>
     <use style="fill:#e24a33;stroke:#e24a33;" x="268.62884" xlink:href="#m480beb7bbe" y="97.029959"/>
     <use style="fill:#e24a33;stroke:#e24a33;" x="279.124138" xlink:href="#m480beb7bbe" y="91.74621"/>
     <use style="fill:#e24a33;stroke:#e24a33;" x="289.619436" xlink:href="#m480beb7bbe" y="86.468738"/>
     <use style="fill:#e24a33;stroke:#e24a33;" x="300.114734" xlink:href="#m480beb7bbe" y="81.197263"/>
     <use style="fill:#e24a33;stroke:#e24a33;" x="310.610031" xlink:href="#m480beb7bbe" y="75.931517"/>
     <use style="fill:#e24a33;stroke:#e24a33;" x="321.105329" xlink:href="#m480beb7bbe" y="70.671241"/>
     <use style="fill:#e24a33;stroke:#e24a33;" x="331.600627" xlink:href="#m480beb7bbe" y="65.416187"/>
     <use style="fill:#e24a33;stroke:#e24a33;" x="342.095925" xlink:href="#m480beb7bbe" y="60.166119"/>
     <use style="fill:#e24a33;stroke:#e24a33;" x="352.591223" xlink:href="#m480beb7bbe" y="54.920812"/>
     <use style="fill:#e24a33;stroke:#e24a33;" x="363.08652" xlink:href="#m480beb7bbe" y="49.680053"/>
     <use style="fill:#e24a33;stroke:#e24a33;" x="373.581818" xlink:href="#m480beb7bbe" y="44.443636"/>
    </g>
   </g>
   <g id="line2d_27">
    <path clip-path="url(#pf6a184e367)" d="M 69.218182 242.116364 
L 79.71348 240.295314 
L 90.208777 238.57117 
L 100.704075 236.940581 
L 111.199373 235.400429 
L 121.694671 233.947776 
L 132.189969 232.579831 
L 142.685266 231.293939 
L 153.180564 230.087564 
L 163.675862 228.958278 
L 174.17116 227.903749 
L 184.666458 226.921732 
L 195.161755 226.010058 
L 205.657053 225.166626 
L 216.152351 224.389396 
L 226.647649 223.676382 
L 237.142947 223.025645 
L 247.638245 222.435292 
L 258.133542 221.903469 
L 268.62884 221.428358 
L 279.124138 221.008177 
L 289.619436 220.641177 
L 300.114734 220.325638 
L 310.610031 220.059873 
L 321.105329 219.842223 
L 331.600627 219.671059 
L 342.095925 219.54478 
L 352.591223 219.461813 
L 363.08652 219.420616 
L 373.581818 219.419674 
" style="fill:none;stroke:#e24a33;stroke-linecap:square;stroke-width:1.5;"/>
    <defs>
     <path d="M 0 3 
C 0.795609 3 1.55874 2.683901 2.12132 2.12132 
C 2.683901 1.55874 3 0.795609 3 0 
C 3 -0.795609 2.683901 -1.55874 2.12132 -2.12132 
C 1.55874 -2.683901 0.795609 -3 0 -3 
C -0.795609 -3 -1.55874 -2.683901 -2.12132 -2.12132 
C -2.683901 -1.55874 -3 -0.795609 -3 0 
C -3 0.795609 -2.683901 1.55874 -2.12132 2.12132 
C -1.55874 2.683901 -0.795609 3 0 3 
z
" id="m58ed458a1e" style="stroke:#e24a33;"/>
    </defs>
    <g clip-path="url(#pf6a184e367)">
     <use style="fill:#e24a33;stroke:#e24a33;" x="69.218182" xlink:href="#m58ed458a1e" y="242.116364"/>
     <use style="fill:#e24a33;stroke:#e24a33;" x="79.71348" xlink:href="#m58ed458a1e" y="240.295314"/>
     <use style="fill:#e24a33;stroke:#e24a33;" x="90.208777" xlink:href="#m58ed458a1e" y="238.57117"/>
     <use style="fill:#e24a33;stroke:#e24a33;" x="100.704075" xlink:href="#m58ed458a1e" y="236.940581"/>
     <use style="fill:#e24a33;stroke:#e24a33;" x="111.199373" xlink:href="#m58ed458a1e" y="235.400429"/>
     <use style="fill:#e24a33;stroke:#e24a33;" x="121.694671" xlink:href="#m58ed458a1e" y="233.947776"/>
     <use style="fill:#e24a33;stroke:#e24a33;" x="132.189969" xlink:href="#m58ed458a1e" y="232.579831"/>
     <use style="fill:#e24a33;stroke:#e24a33;" x="142.685266" xlink:href="#m58ed458a1e" y="231.293939"/>
     <use style="fill:#e24a33;stroke:#e24a33;" x="153.180564" xlink:href="#m58ed458a1e" y="230.087564"/>
     <use style="fill:#e24a33;stroke:#e24a33;" x="163.675862" xlink:href="#m58ed458a1e" y="228.958278"/>
     <use style="fill:#e24a33;stroke:#e24a33;" x="174.17116" xlink:href="#m58ed458a1e" y="227.903749"/>
     <use style="fill:#e24a33;stroke:#e24a33;" x="184.666458" xlink:href="#m58ed458a1e" y="226.921732"/>
     <use style="fill:#e24a33;stroke:#e24a33;" x="195.161755" xlink:href="#m58ed458a1e" y="226.010058"/>
     <use style="fill:#e24a33;stroke:#e24a33;" x="205.657053" xlink:href="#m58ed458a1e" y="225.166626"/>
     <use style="fill:#e24a33;stroke:#e24a33;" x="216.152351" xlink:href="#m58ed458a1e" y="224.389396"/>
     <use style="fill:#e24a33;stroke:#e24a33;" x="226.647649" xlink:href="#m58ed458a1e" y="223.676382"/>
     <use style="fill:#e24a33;stroke:#e24a33;" x="237.142947" xlink:href="#m58ed458a1e" y="223.025645"/>
     <use style="fill:#e24a33;stroke:#e24a33;" x="247.638245" xlink:href="#m58ed458a1e" y="222.435292"/>
     <use style="fill:#e24a33;stroke:#e24a33;" x="258.133542" xlink:href="#m58ed458a1e" y="221.903469"/>
     <use style="fill:#e24a33;stroke:#e24a33;" x="268.62884" xlink:href="#m58ed458a1e" y="221.428358"/>
     <use style="fill:#e24a33;stroke:#e24a33;" x="279.124138" xlink:href="#m58ed458a1e" y="221.008177"/>
     <use style="fill:#e24a33;stroke:#e24a33;" x="289.619436" xlink:href="#m58ed458a1e" y="220.641177"/>
     <use style="fill:#e24a33;stroke:#e24a33;" x="300.114734" xlink:href="#m58ed458a1e" y="220.325638"/>
     <use style="fill:#e24a33;stroke:#e24a33;" x="310.610031" xlink:href="#m58ed458a1e" y="220.059873"/>
     <use style="fill:#e24a33;stroke:#e24a33;" x="321.105329" xlink:href="#m58ed458a1e" y="219.842223"/>
     <use style="fill:#e24a33;stroke:#e24a33;" x="331.600627" xlink:href="#m58ed458a1e" y="219.671059"/>
     <use style="fill:#e24a33;stroke:#e24a33;" x="342.095925" xlink:href="#m58ed458a1e" y="219.54478"/>
     <use style="fill:#e24a33;stroke:#e24a33;" x="352.591223" xlink:href="#m58ed458a1e" y="219.461813"/>
     <use style="fill:#e24a33;stroke:#e24a33;" x="363.08652" xlink:href="#m58ed458a1e" y="219.420616"/>
     <use style="fill:#e24a33;stroke:#e24a33;" x="373.581818" xlink:href="#m58ed458a1e" y="219.419674"/>
    </g>
   </g>
   <g id="line2d_28">
    <path clip-path="url(#pf6a184e367)" d="M 69.218182 203.141995 
L 79.71348 201.892042 
L 90.208777 200.64215 
L 100.704075 199.392373 
L 111.199373 198.14286 
L 121.694671 196.893826 
L 132.189969 195.645538 
L 142.685266 194.398299 
L 153.180564 193.152433 
L 163.675862 191.90828 
L 174.17116 190.666183 
L 184.666458 189.426487 
L 195.161755 188.18953 
L 205.657053 186.955642 
L 216.152351 185.725145 
L 226.647649 184.498345 
L 237.142947 183.275535 
L 247.638245 182.056993 
L 258.133542 180.842981 
L 268.62884 179.633748 
L 279.124138 178.429523 
L 289.619436 177.230522 
L 300.114734 176.036947 
L 310.610031 174.848982 
L 321.105329 173.666798 
L 331.600627 172.490553 
L 342.095925 171.320391 
L 352.591223 170.156441 
L 363.08652 168.998823 
L 373.581818 167.847643 
" style="fill:none;stroke:#348abd;stroke-linecap:square;stroke-width:1.5;"/>
    <defs>
     <path d="M -3 3 
L 3 -3 
M -3 -3 
L 3 3 
" id="mdcd34bfd46" style="stroke:#348abd;"/>
    </defs>
    <g clip-path="url(#pf6a184e367)">
     <use style="fill:#348abd;stroke:#348abd;" x="69.218182" xlink:href="#mdcd34bfd46" y="203.141995"/>
     <use style="fill:#348abd;stroke:#348abd;" x="79.71348" xlink:href="#mdcd34bfd46" y="201.892042"/>
     <use style="fill:#348abd;stroke:#348abd;" x="90.208777" xlink:href="#mdcd34bfd46" y="200.64215"/>
     <use style="fill:#348abd;stroke:#348abd;" x="100.704075" xlink:href="#mdcd34bfd46" y="199.392373"/>
     <use style="fill:#348abd;stroke:#348abd;" x="111.199373" xlink:href="#mdcd34bfd46" y="198.14286"/>
     <use style="fill:#348abd;stroke:#348abd;" x="121.694671" xlink:href="#mdcd34bfd46" y="196.893826"/>
     <use style="fill:#348abd;stroke:#348abd;" x="132.189969" xlink:href="#mdcd34bfd46" y="195.645538"/>
     <use style="fill:#348abd;stroke:#348abd;" x="142.685266" xlink:href="#mdcd34bfd46" y="194.398299"/>
     <use style="fill:#348abd;stroke:#348abd;" x="153.180564" xlink:href="#mdcd34bfd46" y="193.152433"/>
     <use style="fill:#348abd;stroke:#348abd;" x="163.675862" xlink:href="#mdcd34bfd46" y="191.90828"/>
     <use style="fill:#348abd;stroke:#348abd;" x="174.17116" xlink:href="#mdcd34bfd46" y="190.666183"/>
     <use style="fill:#348abd;stroke:#348abd;" x="184.666458" xlink:href="#mdcd34bfd46" y="189.426487"/>
     <use style="fill:#348abd;stroke:#348abd;" x="195.161755" xlink:href="#mdcd34bfd46" y="188.18953"/>
     <use style="fill:#348abd;stroke:#348abd;" x="205.657053" xlink:href="#mdcd34bfd46" y="186.955642"/>
     <use style="fill:#348abd;stroke:#348abd;" x="216.152351" xlink:href="#mdcd34bfd46" y="185.725145"/>
     <use style="fill:#348abd;stroke:#348abd;" x="226.647649" xlink:href="#mdcd34bfd46" y="184.498345"/>
     <use style="fill:#348abd;stroke:#348abd;" x="237.142947" xlink:href="#mdcd34bfd46" y="183.275535"/>
     <use style="fill:#348abd;stroke:#348abd;" x="247.638245" xlink:href="#mdcd34bfd46" y="182.056993"/>
     <use style="fill:#348abd;stroke:#348abd;" x="258.133542" xlink:href="#mdcd34bfd46" y="180.842981"/>
     <use style="fill:#348abd;stroke:#348abd;" x="268.62884" xlink:href="#mdcd34bfd46" y="179.633748"/>
     <use style="fill:#348abd;stroke:#348abd;" x="279.124138" xlink:href="#mdcd34bfd46" y="178.429523"/>
     <use style="fill:#348abd;stroke:#348abd;" x="289.619436" xlink:href="#mdcd34bfd46" y="177.230522"/>
     <use style="fill:#348abd;stroke:#348abd;" x="300.114734" xlink:href="#mdcd34bfd46" y="176.036947"/>
     <use style="fill:#348abd;stroke:#348abd;" x="310.610031" xlink:href="#mdcd34bfd46" y="174.848982"/>
     <use style="fill:#348abd;stroke:#348abd;" x="321.105329" xlink:href="#mdcd34bfd46" y="173.666798"/>
     <use style="fill:#348abd;stroke:#348abd;" x="331.600627" xlink:href="#mdcd34bfd46" y="172.490553"/>
     <use style="fill:#348abd;stroke:#348abd;" x="342.095925" xlink:href="#mdcd34bfd46" y="171.320391"/>
     <use style="fill:#348abd;stroke:#348abd;" x="352.591223" xlink:href="#mdcd34bfd46" y="170.156441"/>
     <use style="fill:#348abd;stroke:#348abd;" x="363.08652" xlink:href="#mdcd34bfd46" y="168.998823"/>
     <use style="fill:#348abd;stroke:#348abd;" x="373.581818" xlink:href="#mdcd34bfd46" y="167.847643"/>
    </g>
   </g>
   <g id="line2d_29">
    <path clip-path="url(#pf6a184e367)" d="M 69.218182 215.447019 
L 79.71348 214.903582 
L 90.208777 214.381435 
L 100.704075 213.88023 
L 111.199373 213.399687 
L 121.694671 212.939587 
L 132.189969 212.499756 
L 142.685266 212.080062 
L 153.180564 211.680411 
L 163.675862 211.300735 
L 174.17116 210.940997 
L 184.666458 210.601186 
L 195.161755 210.281314 
L 205.657053 209.981415 
L 216.152351 209.701548 
L 226.647649 209.441789 
L 237.142947 209.202238 
L 247.638245 208.983012 
L 258.133542 208.784248 
L 268.62884 208.606099 
L 279.124138 208.448737 
L 289.619436 208.312347 
L 300.114734 208.19713 
L 310.610031 208.103298 
L 321.105329 208.031077 
L 331.600627 207.980701 
L 342.095925 207.952412 
L 352.591223 207.94646 
L 363.08652 207.963098 
L 373.581818 208.002583 
" style="fill:none;stroke:#348abd;stroke-linecap:square;stroke-width:1.5;"/>
    <defs>
     <path d="M 0 3 
C 0.795609 3 1.55874 2.683901 2.12132 2.12132 
C 2.683901 1.55874 3 0.795609 3 0 
C 3 -0.795609 2.683901 -1.55874 2.12132 -2.12132 
C 1.55874 -2.683901 0.795609 -3 0 -3 
C -0.795609 -3 -1.55874 -2.683901 -2.12132 -2.12132 
C -2.683901 -1.55874 -3 -0.795609 -3 0 
C -3 0.795609 -2.683901 1.55874 -2.12132 2.12132 
C -1.55874 2.683901 -0.795609 3 0 3 
z
" id="m09b0c12731" style="stroke:#348abd;"/>
    </defs>
    <g clip-path="url(#pf6a184e367)">
     <use style="fill:#348abd;stroke:#348abd;" x="69.218182" xlink:href="#m09b0c12731" y="215.447019"/>
     <use style="fill:#348abd;stroke:#348abd;" x="79.71348" xlink:href="#m09b0c12731" y="214.903582"/>
     <use style="fill:#348abd;stroke:#348abd;" x="90.208777" xlink:href="#m09b0c12731" y="214.381435"/>
     <use style="fill:#348abd;stroke:#348abd;" x="100.704075" xlink:href="#m09b0c12731" y="213.88023"/>
     <use style="fill:#348abd;stroke:#348abd;" x="111.199373" xlink:href="#m09b0c12731" y="213.399687"/>
     <use style="fill:#348abd;stroke:#348abd;" x="121.694671" xlink:href="#m09b0c12731" y="212.939587"/>
     <use style="fill:#348abd;stroke:#348abd;" x="132.189969" xlink:href="#m09b0c12731" y="212.499756"/>
     <use style="fill:#348abd;stroke:#348abd;" x="142.685266" xlink:href="#m09b0c12731" y="212.080062"/>
     <use style="fill:#348abd;stroke:#348abd;" x="153.180564" xlink:href="#m09b0c12731" y="211.680411"/>
     <use style="fill:#348abd;stroke:#348abd;" x="163.675862" xlink:href="#m09b0c12731" y="211.300735"/>
     <use style="fill:#348abd;stroke:#348abd;" x="174.17116" xlink:href="#m09b0c12731" y="210.940997"/>
     <use style="fill:#348abd;stroke:#348abd;" x="184.666458" xlink:href="#m09b0c12731" y="210.601186"/>
     <use style="fill:#348abd;stroke:#348abd;" x="195.161755" xlink:href="#m09b0c12731" y="210.281314"/>
     <use style="fill:#348abd;stroke:#348abd;" x="205.657053" xlink:href="#m09b0c12731" y="209.981415"/>
     <use style="fill:#348abd;stroke:#348abd;" x="216.152351" xlink:href="#m09b0c12731" y="209.701548"/>
     <use style="fill:#348abd;stroke:#348abd;" x="226.647649" xlink:href="#m09b0c12731" y="209.441789"/>
     <use style="fill:#348abd;stroke:#348abd;" x="237.142947" xlink:href="#m09b0c12731" y="209.202238"/>
     <use style="fill:#348abd;stroke:#348abd;" x="247.638245" xlink:href="#m09b0c12731" y="208.983012"/>
     <use style="fill:#348abd;stroke:#348abd;" x="258.133542" xlink:href="#m09b0c12731" y="208.784248"/>
     <use style="fill:#348abd;stroke:#348abd;" x="268.62884" xlink:href="#m09b0c12731" y="208.606099"/>
     <use style="fill:#348abd;stroke:#348abd;" x="279.124138" xlink:href="#m09b0c12731" y="208.448737"/>
     <use style="fill:#348abd;stroke:#348abd;" x="289.619436" xlink:href="#m09b0c12731" y="208.312347"/>
     <use style="fill:#348abd;stroke:#348abd;" x="300.114734" xlink:href="#m09b0c12731" y="208.19713"/>
     <use style="fill:#348abd;stroke:#348abd;" x="310.610031" xlink:href="#m09b0c12731" y="208.103298"/>
     <use style="fill:#348abd;stroke:#348abd;" x="321.105329" xlink:href="#m09b0c12731" y="208.031077"/>
     <use style="fill:#348abd;stroke:#348abd;" x="331.600627" xlink:href="#m09b0c12731" y="207.980701"/>
     <use style="fill:#348abd;stroke:#348abd;" x="342.095925" xlink:href="#m09b0c12731" y="207.952412"/>
     <use style="fill:#348abd;stroke:#348abd;" x="352.591223" xlink:href="#m09b0c12731" y="207.94646"/>
     <use style="fill:#348abd;stroke:#348abd;" x="363.08652" xlink:href="#m09b0c12731" y="207.963098"/>
     <use style="fill:#348abd;stroke:#348abd;" x="373.581818" xlink:href="#m09b0c12731" y="208.002583"/>
    </g>
   </g>
   <g id="patch_3">
    <path d="M 54 252 
L 54 34.56 
" style="fill:none;stroke:#ffffff;stroke-linecap:square;stroke-linejoin:miter;"/>
   </g>
   <g id="patch_4">
    <path d="M 388.8 252 
L 388.8 34.56 
" style="fill:none;stroke:#ffffff;stroke-linecap:square;stroke-linejoin:miter;"/>
   </g>
   <g id="patch_5">
    <path d="M 54 252 
L 388.8 252 
" style="fill:none;stroke:#ffffff;stroke-linecap:square;stroke-linejoin:miter;"/>
   </g>
   <g id="patch_6">
    <path d="M 54 34.56 
L 388.8 34.56 
" style="fill:none;stroke:#ffffff;stroke-linecap:square;stroke-linejoin:miter;"/>
   </g>
   <g id="text_15">
    <text style="font-family:DejaVu Sans;font-size:14.4px;font-style:normal;font-weight:400;text-anchor:middle;" transform="rotate(-0, 221.4, 28.56)" x="221.4" y="28.56">New half-life (previously 7 days)</text>
   </g>
   <g id="legend_1">
    <g id="patch_7">
     <path d="M 61 101.5225 
L 164.709375 101.5225 
Q 166.709375 101.5225 166.709375 99.5225 
L 166.709375 41.56 
Q 166.709375 39.56 164.709375 39.56 
L 61 39.56 
Q 59 39.56 59 41.56 
L 59 99.5225 
Q 59 101.5225 61 101.5225 
z
" style="fill:#e5e5e5;opacity:0.8;stroke:#cccccc;stroke-linejoin:miter;stroke-width:0.5;"/>
    </g>
    <g id="line2d_30">
     <path d="M 63 47.720937 
L 83 47.720937 
" style="fill:none;stroke:#e24a33;stroke-linecap:square;stroke-width:1.5;"/>
    </g>
    <g id="line2d_31">
     <g>
      <use style="fill:#e24a33;stroke:#e24a33;" x="73" xlink:href="#m480beb7bbe" y="47.720937"/>
     </g>
    </g>
    <g id="text_16">
     <text style="font-family:DejaVu Sans;font-size:10px;font-style:normal;font-weight:400;text-anchor:start;" transform="rotate(-0, 91, 51.220937)" x="91" y="51.220937">α=β=3, pass</text>
    </g>
    <g id="line2d_32">
     <path d="M 63 62.461562 
L 83 62.461562 
" style="fill:none;stroke:#e24a33;stroke-linecap:square;stroke-width:1.5;"/>
    </g>
    <g id="line2d_33">
     <g>
      <use style="fill:#e24a33;stroke:#e24a33;" x="73" xlink:href="#m58ed458a1e" y="62.461562"/>
     </g>
    </g>
    <g id="text_17">
     <text style="font-family:DejaVu Sans;font-size:10px;font-style:normal;font-weight:400;text-anchor:start;" transform="rotate(-0, 91, 65.961562)" x="91" y="65.961562">α=β=3, fail</text>
    </g>
    <g id="line2d_34">
     <path d="M 63 77.202187 
L 83 77.202187 
" style="fill:none;stroke:#348abd;stroke-linecap:square;stroke-width:1.5;"/>
    </g>
    <g id="line2d_35">
     <g>
      <use style="fill:#348abd;stroke:#348abd;" x="73" xlink:href="#mdcd34bfd46" y="77.202187"/>
     </g>
    </g>
    <g id="text_18">
     <text style="font-family:DejaVu Sans;font-size:10px;font-style:normal;font-weight:400;text-anchor:start;" transform="rotate(-0, 91, 80.702187)" x="91" y="80.702187">α=β=12, pass</text>
    </g>
    <g id="line2d_36">
     <path d="M 63 91.942813 
L 83 91.942813 
" style="fill:none;stroke:#348abd;stroke-linecap:square;stroke-width:1.5;"/>
    </g>
    <g id="line2d_37">
     <g>
      <use style="fill:#348abd;stroke:#348abd;" x="73" xlink:href="#m09b0c12731" y="91.942813"/>
     </g>
    </g>
    <g id="text_19">
     <text style="font-family:DejaVu Sans;font-size:10px;font-style:normal;font-weight:400;text-anchor:start;" transform="rotate(-0, 91, 95.442813)" x="91" y="95.442813">α=β=12, fail</text>
    </g>
   </g>
  </g>
 </g>
 <defs>
  <clipPath id="pf6a184e367">
   <rect height="217.44" width="334.8" x="54" y="34.56"/>
  </clipPath>
 </defs>
</svg>
