<?xml version="1.0" encoding="utf-8" standalone="no"?>
<!DOCTYPE svg PUBLIC "-//W3C//DTD SVG 1.1//EN"
  "http://www.w3.org/Graphics/SVG/1.1/DTD/svg11.dtd">
<!-- Created with matplotlib (http://matplotlib.org/) -->
<svg height="288pt" version="1.1" viewBox="0 0 432 288" width="432pt" xmlns="http://www.w3.org/2000/svg" xmlns:xlink="http://www.w3.org/1999/xlink">
 <defs>
  <style type="text/css">
*{stroke-linecap:butt;stroke-linejoin:round;}
  </style>
 </defs>
 <g id="figure_1">
  <g id="patch_1">
   <path d="M 0 288 
L 432 288 
L 432 0 
L 0 0 
z
" style="fill:#ffffff;"/>
  </g>
  <g id="axes_1">
   <g id="patch_2">
    <path d="M 54 252 
L 388.8 252 
L 388.8 34.56 
L 54 34.56 
z
" style="fill:#e5e5e5;"/>
   </g>
   <g id="matplotlib.axis_1">
    <g id="xtick_1">
     <g id="line2d_1">
      <path clip-path="url(#p07b7f09c26)" d="M 68.707667 252 
L 68.707667 34.56 
" style="fill:none;stroke:#ffffff;stroke-linecap:square;stroke-width:0.8;"/>
     </g>
     <g id="line2d_2">
      <defs>
       <path d="M 0 0 
L 0 3.5 
" id="m3cb5f1866f" style="stroke:#555555;stroke-width:0.8;"/>
      </defs>
      <g>
       <use style="fill:#555555;stroke:#555555;stroke-width:0.8;" x="68.707667" xlink:href="#m3cb5f1866f" y="252"/>
      </g>
     </g>
     <g id="text_1">
      <text style="fill:#555555;font-family:DejaVu Sans;font-size:10px;font-style:normal;font-weight:400;text-anchor:middle;" transform="rotate(-0, 68.707667, 266.598437)" x="68.707667" y="266.598437">0.0</text>
     </g>
    </g>
    <g id="xtick_2">
     <g id="line2d_3">
      <path clip-path="url(#p07b7f09c26)" d="M 132.365705 252 
L 132.365705 34.56 
" style="fill:none;stroke:#ffffff;stroke-linecap:square;stroke-width:0.8;"/>
     </g>
     <g id="line2d_4">
      <g>
       <use style="fill:#555555;stroke:#555555;stroke-width:0.8;" x="132.365705" xlink:href="#m3cb5f1866f" y="252"/>
      </g>
     </g>
     <g id="text_2">
      <text style="fill:#555555;font-family:DejaVu Sans;font-size:10px;font-style:normal;font-weight:400;text-anchor:middle;" transform="rotate(-0, 132.365705, 266.598437)" x="132.365705" y="266.598437">0.2</text>
     </g>
    </g>
    <g id="xtick_3">
     <g id="line2d_5">
      <path clip-path="url(#p07b7f09c26)" d="M 196.023742 252 
L 196.023742 34.56 
" style="fill:none;stroke:#ffffff;stroke-linecap:square;stroke-width:0.8;"/>
     </g>
     <g id="line2d_6">
      <g>
       <use style="fill:#555555;stroke:#555555;stroke-width:0.8;" x="196.023742" xlink:href="#m3cb5f1866f" y="252"/>
      </g>
     </g>
     <g id="text_3">
      <text style="fill:#555555;font-family:DejaVu Sans;font-size:10px;font-style:normal;font-weight:400;text-anchor:middle;" transform="rotate(-0, 196.023742, 266.598437)" x="196.023742" y="266.598437">0.4</text>
     </g>
    </g>
    <g id="xtick_4">
     <g id="line2d_7">
      <path clip-path="url(#p07b7f09c26)" d="M 259.68178 252 
L 259.68178 34.56 
" style="fill:none;stroke:#ffffff;stroke-linecap:square;stroke-width:0.8;"/>
     </g>
     <g id="line2d_8">
      <g>
       <use style="fill:#555555;stroke:#555555;stroke-width:0.8;" x="259.68178" xlink:href="#m3cb5f1866f" y="252"/>
      </g>
     </g>
     <g id="text_4">
      <text style="fill:#555555;font-family:DejaVu Sans;font-size:10px;font-style:normal;font-weight:400;text-anchor:middle;" transform="rotate(-0, 259.68178, 266.598437)" x="259.68178" y="266.598437">0.6</text>
     </g>
    </g>
    <g id="xtick_5">
     <g id="line2d_9">
      <path clip-path="url(#p07b7f09c26)" d="M 323.339818 252 
L 323.339818 34.56 
" style="fill:none;stroke:#ffffff;stroke-linecap:square;stroke-width:0.8;"/>
     </g>
     <g id="line2d_10">
      <g>
       <use style="fill:#555555;stroke:#555555;stroke-width:0.8;" x="323.339818" xlink:href="#m3cb5f1866f" y="252"/>
      </g>
     </g>
     <g id="text_5">
      <text style="fill:#555555;font-family:DejaVu Sans;font-size:10px;font-style:normal;font-weight:400;text-anchor:middle;" transform="rotate(-0, 323.339818, 266.598437)" x="323.339818" y="266.598437">0.8</text>
     </g>
    </g>
    <g id="xtick_6">
     <g id="line2d_11">
      <path clip-path="url(#p07b7f09c26)" d="M 386.997856 252 
L 386.997856 34.56 
" style="fill:none;stroke:#ffffff;stroke-linecap:square;stroke-width:0.8;"/>
     </g>
     <g id="line2d_12">
      <g>
       <use style="fill:#555555;stroke:#555555;stroke-width:0.8;" x="386.997856" xlink:href="#m3cb5f1866f" y="252"/>
      </g>
     </g>
     <g id="text_6">
      <text style="fill:#555555;font-family:DejaVu Sans;font-size:10px;font-style:normal;font-weight:400;text-anchor:middle;" transform="rotate(-0, 386.997856, 266.598437)" x="386.997856" y="266.598437">1.0</text>
     </g>
    </g>
    <g id="text_7">
     <text style="fill:#555555;font-family:DejaVu Sans;font-size:12px;font-style:normal;font-weight:400;text-anchor:middle;" transform="rotate(-0, 221.4, 281.79625)" x="221.4" y="281.79625">p (recall probability)</text>
    </g>
   </g>
   <g id="matplotlib.axis_2">
    <g id="ytick_1">
     <g id="line2d_13">
      <path clip-path="url(#p07b7f09c26)" d="M 54 252 
L 388.8 252 
" style="fill:none;stroke:#ffffff;stroke-linecap:square;stroke-width:0.8;"/>
     </g>
     <g id="line2d_14">
      <defs>
       <path d="M 0 0 
L -3.5 0 
" id="m8c0bb81d35" style="stroke:#555555;stroke-width:0.8;"/>
      </defs>
      <g>
       <use style="fill:#555555;stroke:#555555;stroke-width:0.8;" x="54" xlink:href="#m8c0bb81d35" y="252"/>
      </g>
     </g>
     <g id="text_8">
      <text style="fill:#555555;font-family:DejaVu Sans;font-size:10px;font-style:normal;font-weight:400;text-anchor:end;" transform="rotate(-0, 47, 255.799219)" x="47" y="255.799219">0</text>
     </g>
    </g>
    <g id="ytick_2">
     <g id="line2d_15">
      <path clip-path="url(#p07b7f09c26)" d="M 54 225.990823 
L 388.8 225.990823 
" style="fill:none;stroke:#ffffff;stroke-linecap:square;stroke-width:0.8;"/>
     </g>
     <g id="line2d_16">
      <g>
       <use style="fill:#555555;stroke:#555555;stroke-width:0.8;" x="54" xlink:href="#m8c0bb81d35" y="225.990823"/>
      </g>
     </g>
     <g id="text_9">
      <text style="fill:#555555;font-family:DejaVu Sans;font-size:10px;font-style:normal;font-weight:400;text-anchor:end;" transform="rotate(-0, 47, 229.790042)" x="47" y="229.790042">1</text>
     </g>
    </g>
    <g id="ytick_3">
     <g id="line2d_17">
      <path clip-path="url(#p07b7f09c26)" d="M 54 199.981646 
L 388.8 199.981646 
" style="fill:none;stroke:#ffffff;stroke-linecap:square;stroke-width:0.8;"/>
     </g>
     <g id="line2d_18">
      <g>
       <use style="fill:#555555;stroke:#555555;stroke-width:0.8;" x="54" xlink:href="#m8c0bb81d35" y="199.981646"/>
      </g>
     </g>
     <g id="text_10">
      <text style="fill:#555555;font-family:DejaVu Sans;font-size:10px;font-style:normal;font-weight:400;text-anchor:end;" transform="rotate(-0, 47, 203.780864)" x="47" y="203.780864">2</text>
     </g>
    </g>
    <g id="ytick_4">
     <g id="line2d_19">
      <path clip-path="url(#p07b7f09c26)" d="M 54 173.972468 
L 388.8 173.972468 
" style="fill:none;stroke:#ffffff;stroke-linecap:square;stroke-width:0.8;"/>
     </g>
     <g id="line2d_20">
      <g>
       <use style="fill:#555555;stroke:#555555;stroke-width:0.8;" x="54" xlink:href="#m8c0bb81d35" y="173.972468"/>
      </g>
     </g>
     <g id="text_11">
      <text style="fill:#555555;font-family:DejaVu Sans;font-size:10px;font-style:normal;font-weight:400;text-anchor:end;" transform="rotate(-0, 47, 177.771687)" x="47" y="177.771687">3</text>
     </g>
    </g>
    <g id="ytick_5">
     <g id="line2d_21">
      <path clip-path="url(#p07b7f09c26)" d="M 54 147.963291 
L 388.8 147.963291 
" style="fill:none;stroke:#ffffff;stroke-linecap:square;stroke-width:0.8;"/>
     </g>
     <g id="line2d_22">
      <g>
       <use style="fill:#555555;stroke:#555555;stroke-width:0.8;" x="54" xlink:href="#m8c0bb81d35" y="147.963291"/>
      </g>
     </g>
     <g id="text_12">
      <text style="fill:#555555;font-family:DejaVu Sans;font-size:10px;font-style:normal;font-weight:400;text-anchor:end;" transform="rotate(-0, 47, 151.76251)" x="47" y="151.76251">4</text>
     </g>
    </g>
    <g id="ytick_6">
     <g id="line2d_23">
      <path clip-path="url(#p07b7f09c26)" d="M 54 121.954114 
L 388.8 121.954114 
" style="fill:none;stroke:#ffffff;stroke-linecap:square;stroke-width:0.8;"/>
     </g>
     <g id="line2d_24">
      <g>
       <use style="fill:#555555;stroke:#555555;stroke-width:0.8;" x="54" xlink:href="#m8c0bb81d35" y="121.954114"/>
      </g>
     </g>
     <g id="text_13">
      <text style="fill:#555555;font-family:DejaVu Sans;font-size:10px;font-style:normal;font-weight:400;text-anchor:end;" transform="rotate(-0, 47, 125.753333)" x="47" y="125.753333">5</text>
     </g>
    </g>
    <g id="ytick_7">
     <g id="line2d_25">
      <path clip-path="url(#p07b7f09c26)" d="M 54 95.944937 
L 388.8 95.944937 
" style="fill:none;stroke:#ffffff;stroke-linecap:square;stroke-width:0.8;"/>
     </g>
     <g id="line2d_26">
      <g>
       <use style="fill:#555555;stroke:#555555;stroke-width:0.8;" x="54" xlink:href="#m8c0bb81d35" y="95.944937"/>
      </g>
     </g>
     <g id="text_14">
      <text style="fill:#555555;font-family:DejaVu Sans;font-size:10px;font-style:normal;font-weight:400;text-anchor:end;" transform="rotate(-0, 47, 99.744155)" x="47" y="99.744155">6</text>
     </g>
    </g>
    <g id="ytick_8">
     <g id="line2d_27">
      <path clip-path="url(#p07b7f09c26)" d="M 54 69.935759 
L 388.8 69.935759 
" style="fill:none;stroke:#ffffff;stroke-linecap:square;stroke-width:0.8;"/>
     </g>
     <g id="line2d_28">
      <g>
       <use style="fill:#555555;stroke:#555555;stroke-width:0.8;" x="54" xlink:href="#m8c0bb81d35" y="69.935759"/>
      </g>
     </g>
     <g id="text_15">
      <text style="fill:#555555;font-family:DejaVu Sans;font-size:10px;font-style:normal;font-weight:400;text-anchor:end;" transform="rotate(-0, 47, 73.734978)" x="47" y="73.734978">7</text>
     </g>
    </g>
    <g id="ytick_9">
     <g id="line2d_29">
      <path clip-path="url(#p07b7f09c26)" d="M 54 43.926582 
L 388.8 43.926582 
" style="fill:none;stroke:#ffffff;stroke-linecap:square;stroke-width:0.8;"/>
     </g>
     <g id="line2d_30">
      <g>
       <use style="fill:#555555;stroke:#555555;stroke-width:0.8;" x="54" xlink:href="#m8c0bb81d35" y="43.926582"/>
      </g>
     </g>
     <g id="text_16">
      <text style="fill:#555555;font-family:DejaVu Sans;font-size:10px;font-style:normal;font-weight:400;text-anchor:end;" transform="rotate(-0, 47, 47.725801)" x="47" y="47.725801">8</text>
     </g>
    </g>
    <g id="text_17">
     <text style="fill:#555555;font-family:DejaVu Sans;font-size:12px;font-style:normal;font-weight:400;text-anchor:middle;" transform="rotate(-90, 34.141875, 143.28)" x="34.141875" y="143.28">Probability(p)</text>
    </g>
   </g>
   <g id="patch_3">
    <path clip-path="url(#p07b7f09c26)" d="M 251.558966 252 
L 257.660109 252 
L 257.660109 251.89145 
L 251.558966 251.89145 
z
" style="fill:#e24a33;opacity:0.25;"/>
   </g>
   <g id="patch_4">
    <path clip-path="url(#p07b7f09c26)" d="M 257.660109 252 
L 263.761251 252 
L 263.761251 251.647213 
L 257.660109 251.647213 
z
" style="fill:#e24a33;opacity:0.25;"/>
   </g>
   <g id="patch_5">
    <path clip-path="url(#p07b7f09c26)" d="M 263.761251 252 
L 269.862394 252 
L 269.862394 250.724541 
L 263.761251 250.724541 
z
" style="fill:#e24a33;opacity:0.25;"/>
   </g>
   <g id="patch_6">
    <path clip-path="url(#p07b7f09c26)" d="M 269.862394 252 
L 275.963537 252 
L 275.963537 249.286257 
L 269.862394 249.286257 
z
" style="fill:#e24a33;opacity:0.25;"/>
   </g>
   <g id="patch_7">
    <path clip-path="url(#p07b7f09c26)" d="M 275.963537 252 
L 282.064679 252 
L 282.064679 245.622704 
L 275.963537 245.622704 
z
" style="fill:#e24a33;opacity:0.25;"/>
   </g>
   <g id="patch_8">
    <path clip-path="url(#p07b7f09c26)" d="M 282.064679 252 
L 288.165822 252 
L 288.165822 240.222356 
L 282.064679 240.222356 
z
" style="fill:#e24a33;opacity:0.25;"/>
   </g>
   <g id="patch_9">
    <path clip-path="url(#p07b7f09c26)" d="M 288.165822 252 
L 294.266964 252 
L 294.266964 229.20456 
L 288.165822 229.20456 
z
" style="fill:#e24a33;opacity:0.25;"/>
   </g>
   <g id="patch_10">
    <path clip-path="url(#p07b7f09c26)" d="M 294.266964 252 
L 300.368107 252 
L 300.368107 210.561147 
L 294.266964 210.561147 
z
" style="fill:#e24a33;opacity:0.25;"/>
   </g>
   <g id="patch_11">
    <path clip-path="url(#p07b7f09c26)" d="M 300.368107 252 
L 306.46925 252 
L 306.46925 182.202535 
L 300.368107 182.202535 
z
" style="fill:#e24a33;opacity:0.25;"/>
   </g>
   <g id="patch_12">
    <path clip-path="url(#p07b7f09c26)" d="M 306.46925 252 
L 312.570392 252 
L 312.570392 145.675556 
L 306.46925 145.675556 
z
" style="fill:#e24a33;opacity:0.25;"/>
   </g>
   <g id="patch_13">
    <path clip-path="url(#p07b7f09c26)" d="M 312.570392 252 
L 318.671535 252 
L 318.671535 104.725177 
L 312.570392 104.725177 
z
" style="fill:#e24a33;opacity:0.25;"/>
   </g>
   <g id="patch_14">
    <path clip-path="url(#p07b7f09c26)" d="M 318.671535 252 
L 324.772677 252 
L 324.772677 64.127585 
L 318.671535 64.127585 
z
" style="fill:#e24a33;opacity:0.25;"/>
   </g>
   <g id="patch_15">
    <path clip-path="url(#p07b7f09c26)" d="M 324.772677 252 
L 330.87382 252 
L 330.87382 44.914286 
L 324.772677 44.914286 
z
" style="fill:#e24a33;opacity:0.25;"/>
   </g>
   <g id="patch_16">
    <path clip-path="url(#p07b7f09c26)" d="M 330.87382 252 
L 336.974963 252 
L 336.974963 53.8425 
L 330.87382 53.8425 
z
" style="fill:#e24a33;opacity:0.25;"/>
   </g>
   <g id="patch_17">
    <path clip-path="url(#p07b7f09c26)" d="M 336.974963 252 
L 343.076105 252 
L 343.076105 88.089934 
L 336.974963 88.089934 
z
" style="fill:#e24a33;opacity:0.25;"/>
   </g>
   <g id="patch_18">
    <path clip-path="url(#p07b7f09c26)" d="M 343.076105 252 
L 349.177248 252 
L 349.177248 142.880401 
L 343.076105 142.880401 
z
" style="fill:#e24a33;opacity:0.25;"/>
   </g>
   <g id="patch_19">
    <path clip-path="url(#p07b7f09c26)" d="M 349.177248 252 
L 355.27839 252 
L 355.27839 195.961211 
L 349.177248 195.961211 
z
" style="fill:#e24a33;opacity:0.25;"/>
   </g>
   <g id="patch_20">
    <path clip-path="url(#p07b7f09c26)" d="M 355.27839 252 
L 361.379533 252 
L 361.379533 232.243952 
L 355.27839 232.243952 
z
" style="fill:#e24a33;opacity:0.25;"/>
   </g>
   <g id="patch_21">
    <path clip-path="url(#p07b7f09c26)" d="M 361.379533 252 
L 367.480676 252 
L 367.480676 247.793699 
L 361.379533 247.793699 
z
" style="fill:#e24a33;opacity:0.25;"/>
   </g>
   <g id="patch_22">
    <path clip-path="url(#p07b7f09c26)" d="M 367.480676 252 
L 373.581818 252 
L 373.581818 251.511526 
L 367.480676 251.511526 
z
" style="fill:#e24a33;opacity:0.25;"/>
   </g>
   <g id="patch_23">
    <path clip-path="url(#p07b7f09c26)" d="M 116.427879 252 
L 127.887491 252 
L 127.887491 251.725487 
L 116.427879 251.725487 
z
" style="fill:#348abd;opacity:0.25;"/>
   </g>
   <g id="patch_24">
    <path clip-path="url(#p07b7f09c26)" d="M 127.887491 252 
L 139.347104 252 
L 139.347104 251.292044 
L 127.887491 251.292044 
z
" style="fill:#348abd;opacity:0.25;"/>
   </g>
   <g id="patch_25">
    <path clip-path="url(#p07b7f09c26)" d="M 139.347104 252 
L 150.806716 252 
L 150.806716 249.095937 
L 139.347104 249.095937 
z
" style="fill:#348abd;opacity:0.25;"/>
   </g>
   <g id="patch_26">
    <path clip-path="url(#p07b7f09c26)" d="M 150.806716 252 
L 162.266329 252 
L 162.266329 243.360052 
L 150.806716 243.360052 
z
" style="fill:#348abd;opacity:0.25;"/>
   </g>
   <g id="patch_27">
    <path clip-path="url(#p07b7f09c26)" d="M 162.266329 252 
L 173.725941 252 
L 173.725941 232.942992 
L 162.266329 232.942992 
z
" style="fill:#348abd;opacity:0.25;"/>
   </g>
   <g id="patch_28">
    <path clip-path="url(#p07b7f09c26)" d="M 173.725941 252 
L 185.185554 252 
L 185.185554 215.200758 
L 173.725941 215.200758 
z
" style="fill:#348abd;opacity:0.25;"/>
   </g>
   <g id="patch_29">
    <path clip-path="url(#p07b7f09c26)" d="M 185.185554 252 
L 196.645166 252 
L 196.645166 198.23872 
L 185.185554 198.23872 
z
" style="fill:#348abd;opacity:0.25;"/>
   </g>
   <g id="patch_30">
    <path clip-path="url(#p07b7f09c26)" d="M 196.645166 252 
L 208.104779 252 
L 208.104779 176.364338 
L 196.645166 176.364338 
z
" style="fill:#348abd;opacity:0.25;"/>
   </g>
   <g id="patch_31">
    <path clip-path="url(#p07b7f09c26)" d="M 208.104779 252 
L 219.564391 252 
L 219.564391 161.439478 
L 208.104779 161.439478 
z
" style="fill:#348abd;opacity:0.25;"/>
   </g>
   <g id="patch_32">
    <path clip-path="url(#p07b7f09c26)" d="M 219.564391 252 
L 231.024004 252 
L 231.024004 150.719008 
L 219.564391 150.719008 
z
" style="fill:#348abd;opacity:0.25;"/>
   </g>
   <g id="patch_33">
    <path clip-path="url(#p07b7f09c26)" d="M 231.024004 252 
L 242.483616 252 
L 242.483616 155.241255 
L 231.024004 155.241255 
z
" style="fill:#348abd;opacity:0.25;"/>
   </g>
   <g id="patch_34">
    <path clip-path="url(#p07b7f09c26)" d="M 242.483616 252 
L 253.943229 252 
L 253.943229 168.865788 
L 242.483616 168.865788 
z
" style="fill:#348abd;opacity:0.25;"/>
   </g>
   <g id="patch_35">
    <path clip-path="url(#p07b7f09c26)" d="M 253.943229 252 
L 265.402842 252 
L 265.402842 188.081725 
L 253.943229 188.081725 
z
" style="fill:#348abd;opacity:0.25;"/>
   </g>
   <g id="patch_36">
    <path clip-path="url(#p07b7f09c26)" d="M 265.402842 252 
L 276.862454 252 
L 276.862454 208.525748 
L 265.402842 208.525748 
z
" style="fill:#348abd;opacity:0.25;"/>
   </g>
   <g id="patch_37">
    <path clip-path="url(#p07b7f09c26)" d="M 276.862454 252 
L 288.322067 252 
L 288.322067 226.340222 
L 276.862454 226.340222 
z
" style="fill:#348abd;opacity:0.25;"/>
   </g>
   <g id="patch_38">
    <path clip-path="url(#p07b7f09c26)" d="M 288.322067 252 
L 299.781679 252 
L 299.781679 239.719138 
L 288.322067 239.719138 
z
" style="fill:#348abd;opacity:0.25;"/>
   </g>
   <g id="patch_39">
    <path clip-path="url(#p07b7f09c26)" d="M 299.781679 252 
L 311.241292 252 
L 311.241292 246.45194 
L 299.781679 246.45194 
z
" style="fill:#348abd;opacity:0.25;"/>
   </g>
   <g id="patch_40">
    <path clip-path="url(#p07b7f09c26)" d="M 311.241292 252 
L 322.700904 252 
L 322.700904 250.641881 
L 311.241292 250.641881 
z
" style="fill:#348abd;opacity:0.25;"/>
   </g>
   <g id="patch_41">
    <path clip-path="url(#p07b7f09c26)" d="M 322.700904 252 
L 334.160517 252 
L 334.160517 251.450973 
L 322.700904 251.450973 
z
" style="fill:#348abd;opacity:0.25;"/>
   </g>
   <g id="patch_42">
    <path clip-path="url(#p07b7f09c26)" d="M 334.160517 252 
L 345.620129 252 
L 345.620129 251.898863 
L 334.160517 251.898863 
z
" style="fill:#348abd;opacity:0.25;"/>
   </g>
   <g id="patch_43">
    <path clip-path="url(#p07b7f09c26)" d="M 69.218182 252 
L 79.88908 252 
L 79.88908 218.330348 
L 69.218182 218.330348 
z
" style="fill:#988ed5;opacity:0.25;"/>
   </g>
   <g id="patch_44">
    <path clip-path="url(#p07b7f09c26)" d="M 79.88908 252 
L 90.559978 252 
L 90.559978 141.014275 
L 79.88908 141.014275 
z
" style="fill:#988ed5;opacity:0.25;"/>
   </g>
   <g id="patch_45">
    <path clip-path="url(#p07b7f09c26)" d="M 90.559978 252 
L 101.230875 252 
L 101.230875 107.530814 
L 90.559978 107.530814 
z
" style="fill:#988ed5;opacity:0.25;"/>
   </g>
   <g id="patch_46">
    <path clip-path="url(#p07b7f09c26)" d="M 101.230875 252 
L 111.901773 252 
L 111.901773 113.163111 
L 101.230875 113.163111 
z
" style="fill:#988ed5;opacity:0.25;"/>
   </g>
   <g id="patch_47">
    <path clip-path="url(#p07b7f09c26)" d="M 111.901773 252 
L 122.572671 252 
L 122.572671 140.005737 
L 111.901773 140.005737 
z
" style="fill:#988ed5;opacity:0.25;"/>
   </g>
   <g id="patch_48">
    <path clip-path="url(#p07b7f09c26)" d="M 122.572671 252 
L 133.243569 252 
L 133.243569 169.455046 
L 122.572671 169.455046 
z
" style="fill:#988ed5;opacity:0.25;"/>
   </g>
   <g id="patch_49">
    <path clip-path="url(#p07b7f09c26)" d="M 133.243569 252 
L 143.914467 252 
L 143.914467 194.296112 
L 133.243569 194.296112 
z
" style="fill:#988ed5;opacity:0.25;"/>
   </g>
   <g id="patch_50">
    <path clip-path="url(#p07b7f09c26)" d="M 143.914467 252 
L 154.585365 252 
L 154.585365 213.784169 
L 143.914467 213.784169 
z
" style="fill:#988ed5;opacity:0.25;"/>
   </g>
   <g id="patch_51">
    <path clip-path="url(#p07b7f09c26)" d="M 154.585365 252 
L 165.256263 252 
L 165.256263 227.624413 
L 154.585365 227.624413 
z
" style="fill:#988ed5;opacity:0.25;"/>
   </g>
   <g id="patch_52">
    <path clip-path="url(#p07b7f09c26)" d="M 165.256263 252 
L 175.927161 252 
L 175.927161 237.942532 
L 165.256263 237.942532 
z
" style="fill:#988ed5;opacity:0.25;"/>
   </g>
   <g id="patch_53">
    <path clip-path="url(#p07b7f09c26)" d="M 175.927161 252 
L 186.598058 252 
L 186.598058 243.621377 
L 175.927161 243.621377 
z
" style="fill:#988ed5;opacity:0.25;"/>
   </g>
   <g id="patch_54">
    <path clip-path="url(#p07b7f09c26)" d="M 186.598058 252 
L 197.268956 252 
L 197.268956 247.03489 
L 186.598058 247.03489 
z
" style="fill:#988ed5;opacity:0.25;"/>
   </g>
   <g id="patch_55">
    <path clip-path="url(#p07b7f09c26)" d="M 197.268956 252 
L 207.939854 252 
L 207.939854 249.455381 
L 197.268956 249.455381 
z
" style="fill:#988ed5;opacity:0.25;"/>
   </g>
   <g id="patch_56">
    <path clip-path="url(#p07b7f09c26)" d="M 207.939854 252 
L 218.610752 252 
L 218.610752 250.479435 
L 207.939854 250.479435 
z
" style="fill:#988ed5;opacity:0.25;"/>
   </g>
   <g id="patch_57">
    <path clip-path="url(#p07b7f09c26)" d="M 218.610752 252 
L 229.28165 252 
L 229.28165 250.929398 
L 218.610752 250.929398 
z
" style="fill:#988ed5;opacity:0.25;"/>
   </g>
   <g id="patch_58">
    <path clip-path="url(#p07b7f09c26)" d="M 229.28165 252 
L 239.952548 252 
L 239.952548 251.751744 
L 229.28165 251.751744 
z
" style="fill:#988ed5;opacity:0.25;"/>
   </g>
   <g id="patch_59">
    <path clip-path="url(#p07b7f09c26)" d="M 239.952548 252 
L 250.623446 252 
L 250.623446 251.891388 
L 239.952548 251.891388 
z
" style="fill:#988ed5;opacity:0.25;"/>
   </g>
   <g id="patch_60">
    <path clip-path="url(#p07b7f09c26)" d="M 250.623446 252 
L 261.294344 252 
L 261.294344 251.937936 
L 250.623446 251.937936 
z
" style="fill:#988ed5;opacity:0.25;"/>
   </g>
   <g id="patch_61">
    <path clip-path="url(#p07b7f09c26)" d="M 261.294344 252 
L 271.965241 252 
L 271.965241 251.968968 
L 261.294344 251.968968 
z
" style="fill:#988ed5;opacity:0.25;"/>
   </g>
   <g id="patch_62">
    <path clip-path="url(#p07b7f09c26)" d="M 271.965241 252 
L 282.636139 252 
L 282.636139 251.984484 
L 271.965241 251.984484 
z
" style="fill:#988ed5;opacity:0.25;"/>
   </g>
   <g id="patch_63">
    <path d="M 54 252 
L 54 34.56 
" style="fill:none;stroke:#ffffff;stroke-linecap:square;stroke-linejoin:miter;"/>
   </g>
   <g id="patch_64">
    <path d="M 388.8 252 
L 388.8 34.56 
" style="fill:none;stroke:#ffffff;stroke-linecap:square;stroke-linejoin:miter;"/>
   </g>
   <g id="patch_65">
    <path d="M 54 252 
L 388.8 252 
" style="fill:none;stroke:#ffffff;stroke-linecap:square;stroke-linejoin:miter;"/>
   </g>
   <g id="patch_66">
    <path d="M 54 34.56 
L 388.8 34.56 
" style="fill:none;stroke:#ffffff;stroke-linecap:square;stroke-linejoin:miter;"/>
   </g>
   <g id="text_18">
    <text style="font-family:DejaVu Sans;font-size:14.4px;font-style:normal;font-weight:400;text-anchor:middle;" transform="rotate(-0, 221.4, 28.56)" x="221.4" y="28.56">Histograms of p_t^δ for different δ</text>
   </g>
   <g id="legend_1">
    <g id="patch_67">
     <path d="M 61 86.594375 
L 123.401562 86.594375 
Q 125.401562 86.594375 125.401562 84.594375 
L 125.401562 41.56 
Q 125.401562 39.56 123.401562 39.56 
L 61 39.56 
Q 59 39.56 59 41.56 
L 59 84.594375 
Q 59 86.594375 61 86.594375 
z
" style="fill:#e5e5e5;opacity:0.8;stroke:#cccccc;stroke-linejoin:miter;stroke-width:0.5;"/>
    </g>
    <g id="patch_68">
     <path d="M 63 51.158438 
L 83 51.158438 
L 83 44.158438 
L 63 44.158438 
z
" style="fill:#e24a33;opacity:0.25;"/>
    </g>
    <g id="text_19">
     <text style="font-family:DejaVu Sans;font-size:10px;font-style:normal;font-weight:400;text-anchor:start;" transform="rotate(-0, 91, 51.158438)" x="91" y="51.158438">δ=0.3</text>
    </g>
    <g id="patch_69">
     <path d="M 63 65.836563 
L 83 65.836563 
L 83 58.836563 
L 63 58.836563 
z
" style="fill:#348abd;opacity:0.25;"/>
    </g>
    <g id="text_20">
     <text style="font-family:DejaVu Sans;font-size:10px;font-style:normal;font-weight:400;text-anchor:start;" transform="rotate(-0, 91, 65.836563)" x="91" y="65.836563">δ=1.0</text>
    </g>
    <g id="patch_70">
     <path d="M 63 80.514688 
L 83 80.514688 
L 83 73.514688 
L 63 73.514688 
z
" style="fill:#988ed5;opacity:0.25;"/>
    </g>
    <g id="text_21">
     <text style="font-family:DejaVu Sans;font-size:10px;font-style:normal;font-weight:400;text-anchor:start;" transform="rotate(-0, 91, 80.514688)" x="91" y="80.514688">δ=3.0</text>
    </g>
   </g>
  </g>
 </g>
 <defs>
  <clipPath id="p07b7f09c26">
   <rect height="217.44" width="334.8" x="54" y="34.56"/>
  </clipPath>
 </defs>
</svg>
