<?xml version="1.0" encoding="utf-8" standalone="no"?>
<!DOCTYPE svg PUBLIC "-//W3C//DTD SVG 1.1//EN"
  "http://www.w3.org/Graphics/SVG/1.1/DTD/svg11.dtd">
<!-- Created with matplotlib (http://matplotlib.org/) -->
<svg height="288pt" version="1.1" viewBox="0 0 432 288" width="432pt" xmlns="http://www.w3.org/2000/svg" xmlns:xlink="http://www.w3.org/1999/xlink">
 <defs>
  <style type="text/css">
*{stroke-linecap:butt;stroke-linejoin:round;}
  </style>
 </defs>
 <g id="figure_1">
  <g id="patch_1">
   <path d="M 0 288 
L 432 288 
L 432 0 
L 0 0 
z
" style="fill:#ffffff;"/>
  </g>
  <g id="axes_1">
   <g id="patch_2">
    <path d="M 54 252 
L 388.8 252 
L 388.8 34.56 
L 54 34.56 
z
" style="fill:#e5e5e5;"/>
   </g>
   <g id="matplotlib.axis_1">
    <g id="xtick_1">
     <g id="line2d_1">
      <path clip-path="url(#p06be46bd61)" d="M 68.429282 252 
L 68.429282 34.56 
" style="fill:none;stroke:#ffffff;stroke-linecap:square;stroke-width:0.8;"/>
     </g>
     <g id="line2d_2">
      <defs>
       <path d="M 0 0 
L 0 3.5 
" id="mc22d963c61" style="stroke:#555555;stroke-width:0.8;"/>
      </defs>
      <g>
       <use style="fill:#555555;stroke:#555555;stroke-width:0.8;" x="68.429282" xlink:href="#mc22d963c61" y="252"/>
      </g>
     </g>
     <g id="text_1">
      <text style="fill:#555555;font-family:DejaVu Sans;font-size:10px;font-style:normal;font-weight:400;text-anchor:middle;" transform="rotate(-0, 68.429282, 266.598437)" x="68.429282" y="266.598437">0.0</text>
     </g>
    </g>
    <g id="xtick_2">
     <g id="line2d_3">
      <path clip-path="url(#p06be46bd61)" d="M 132.500111 252 
L 132.500111 34.56 
" style="fill:none;stroke:#ffffff;stroke-linecap:square;stroke-width:0.8;"/>
     </g>
     <g id="line2d_4">
      <g>
       <use style="fill:#555555;stroke:#555555;stroke-width:0.8;" x="132.500111" xlink:href="#mc22d963c61" y="252"/>
      </g>
     </g>
     <g id="text_2">
      <text style="fill:#555555;font-family:DejaVu Sans;font-size:10px;font-style:normal;font-weight:400;text-anchor:middle;" transform="rotate(-0, 132.500111, 266.598437)" x="132.500111" y="266.598437">0.2</text>
     </g>
    </g>
    <g id="xtick_3">
     <g id="line2d_5">
      <path clip-path="url(#p06be46bd61)" d="M 196.57094 252 
L 196.57094 34.56 
" style="fill:none;stroke:#ffffff;stroke-linecap:square;stroke-width:0.8;"/>
     </g>
     <g id="line2d_6">
      <g>
       <use style="fill:#555555;stroke:#555555;stroke-width:0.8;" x="196.57094" xlink:href="#mc22d963c61" y="252"/>
      </g>
     </g>
     <g id="text_3">
      <text style="fill:#555555;font-family:DejaVu Sans;font-size:10px;font-style:normal;font-weight:400;text-anchor:middle;" transform="rotate(-0, 196.57094, 266.598437)" x="196.57094" y="266.598437">0.4</text>
     </g>
    </g>
    <g id="xtick_4">
     <g id="line2d_7">
      <path clip-path="url(#p06be46bd61)" d="M 260.64177 252 
L 260.64177 34.56 
" style="fill:none;stroke:#ffffff;stroke-linecap:square;stroke-width:0.8;"/>
     </g>
     <g id="line2d_8">
      <g>
       <use style="fill:#555555;stroke:#555555;stroke-width:0.8;" x="260.64177" xlink:href="#mc22d963c61" y="252"/>
      </g>
     </g>
     <g id="text_4">
      <text style="fill:#555555;font-family:DejaVu Sans;font-size:10px;font-style:normal;font-weight:400;text-anchor:middle;" transform="rotate(-0, 260.64177, 266.598437)" x="260.64177" y="266.598437">0.6</text>
     </g>
    </g>
    <g id="xtick_5">
     <g id="line2d_9">
      <path clip-path="url(#p06be46bd61)" d="M 324.712599 252 
L 324.712599 34.56 
" style="fill:none;stroke:#ffffff;stroke-linecap:square;stroke-width:0.8;"/>
     </g>
     <g id="line2d_10">
      <g>
       <use style="fill:#555555;stroke:#555555;stroke-width:0.8;" x="324.712599" xlink:href="#mc22d963c61" y="252"/>
      </g>
     </g>
     <g id="text_5">
      <text style="fill:#555555;font-family:DejaVu Sans;font-size:10px;font-style:normal;font-weight:400;text-anchor:middle;" transform="rotate(-0, 324.712599, 266.598437)" x="324.712599" y="266.598437">0.8</text>
     </g>
    </g>
    <g id="xtick_6">
     <g id="line2d_11">
      <path clip-path="url(#p06be46bd61)" d="M 388.783428 252 
L 388.783428 34.56 
" style="fill:none;stroke:#ffffff;stroke-linecap:square;stroke-width:0.8;"/>
     </g>
     <g id="line2d_12">
      <g>
       <use style="fill:#555555;stroke:#555555;stroke-width:0.8;" x="388.783428" xlink:href="#mc22d963c61" y="252"/>
      </g>
     </g>
     <g id="text_6">
      <text style="fill:#555555;font-family:DejaVu Sans;font-size:10px;font-style:normal;font-weight:400;text-anchor:middle;" transform="rotate(-0, 388.783428, 266.598437)" x="388.783428" y="266.598437">1.0</text>
     </g>
    </g>
    <g id="text_7">
     <text style="fill:#555555;font-family:DejaVu Sans;font-size:12px;font-style:normal;font-weight:400;text-anchor:middle;" transform="rotate(-0, 221.4, 281.79625)" x="221.4" y="281.79625">π (recall probability)</text>
    </g>
   </g>
   <g id="matplotlib.axis_2">
    <g id="ytick_1">
     <g id="line2d_13">
      <path clip-path="url(#p06be46bd61)" d="M 54 252 
L 388.8 252 
" style="fill:none;stroke:#ffffff;stroke-linecap:square;stroke-width:0.8;"/>
     </g>
     <g id="line2d_14">
      <defs>
       <path d="M 0 0 
L -3.5 0 
" id="m95b636821a" style="stroke:#555555;stroke-width:0.8;"/>
      </defs>
      <g>
       <use style="fill:#555555;stroke:#555555;stroke-width:0.8;" x="54" xlink:href="#m95b636821a" y="252"/>
      </g>
     </g>
     <g id="text_8">
      <text style="fill:#555555;font-family:DejaVu Sans;font-size:10px;font-style:normal;font-weight:400;text-anchor:end;" transform="rotate(-0, 47, 255.799219)" x="47" y="255.799219">0</text>
     </g>
    </g>
    <g id="ytick_2">
     <g id="line2d_15">
      <path clip-path="url(#p06be46bd61)" d="M 54 225.992217 
L 388.8 225.992217 
" style="fill:none;stroke:#ffffff;stroke-linecap:square;stroke-width:0.8;"/>
     </g>
     <g id="line2d_16">
      <g>
       <use style="fill:#555555;stroke:#555555;stroke-width:0.8;" x="54" xlink:href="#m95b636821a" y="225.992217"/>
      </g>
     </g>
     <g id="text_9">
      <text style="fill:#555555;font-family:DejaVu Sans;font-size:10px;font-style:normal;font-weight:400;text-anchor:end;" transform="rotate(-0, 47, 229.791436)" x="47" y="229.791436">1</text>
     </g>
    </g>
    <g id="ytick_3">
     <g id="line2d_17">
      <path clip-path="url(#p06be46bd61)" d="M 54 199.984435 
L 388.8 199.984435 
" style="fill:none;stroke:#ffffff;stroke-linecap:square;stroke-width:0.8;"/>
     </g>
     <g id="line2d_18">
      <g>
       <use style="fill:#555555;stroke:#555555;stroke-width:0.8;" x="54" xlink:href="#m95b636821a" y="199.984435"/>
      </g>
     </g>
     <g id="text_10">
      <text style="fill:#555555;font-family:DejaVu Sans;font-size:10px;font-style:normal;font-weight:400;text-anchor:end;" transform="rotate(-0, 47, 203.783654)" x="47" y="203.783654">2</text>
     </g>
    </g>
    <g id="ytick_4">
     <g id="line2d_19">
      <path clip-path="url(#p06be46bd61)" d="M 54 173.976652 
L 388.8 173.976652 
" style="fill:none;stroke:#ffffff;stroke-linecap:square;stroke-width:0.8;"/>
     </g>
     <g id="line2d_20">
      <g>
       <use style="fill:#555555;stroke:#555555;stroke-width:0.8;" x="54" xlink:href="#m95b636821a" y="173.976652"/>
      </g>
     </g>
     <g id="text_11">
      <text style="fill:#555555;font-family:DejaVu Sans;font-size:10px;font-style:normal;font-weight:400;text-anchor:end;" transform="rotate(-0, 47, 177.775871)" x="47" y="177.775871">3</text>
     </g>
    </g>
    <g id="ytick_5">
     <g id="line2d_21">
      <path clip-path="url(#p06be46bd61)" d="M 54 147.96887 
L 388.8 147.96887 
" style="fill:none;stroke:#ffffff;stroke-linecap:square;stroke-width:0.8;"/>
     </g>
     <g id="line2d_22">
      <g>
       <use style="fill:#555555;stroke:#555555;stroke-width:0.8;" x="54" xlink:href="#m95b636821a" y="147.96887"/>
      </g>
     </g>
     <g id="text_12">
      <text style="fill:#555555;font-family:DejaVu Sans;font-size:10px;font-style:normal;font-weight:400;text-anchor:end;" transform="rotate(-0, 47, 151.768089)" x="47" y="151.768089">4</text>
     </g>
    </g>
    <g id="ytick_6">
     <g id="line2d_23">
      <path clip-path="url(#p06be46bd61)" d="M 54 121.961087 
L 388.8 121.961087 
" style="fill:none;stroke:#ffffff;stroke-linecap:square;stroke-width:0.8;"/>
     </g>
     <g id="line2d_24">
      <g>
       <use style="fill:#555555;stroke:#555555;stroke-width:0.8;" x="54" xlink:href="#m95b636821a" y="121.961087"/>
      </g>
     </g>
     <g id="text_13">
      <text style="fill:#555555;font-family:DejaVu Sans;font-size:10px;font-style:normal;font-weight:400;text-anchor:end;" transform="rotate(-0, 47, 125.760306)" x="47" y="125.760306">5</text>
     </g>
    </g>
    <g id="ytick_7">
     <g id="line2d_25">
      <path clip-path="url(#p06be46bd61)" d="M 54 95.953305 
L 388.8 95.953305 
" style="fill:none;stroke:#ffffff;stroke-linecap:square;stroke-width:0.8;"/>
     </g>
     <g id="line2d_26">
      <g>
       <use style="fill:#555555;stroke:#555555;stroke-width:0.8;" x="54" xlink:href="#m95b636821a" y="95.953305"/>
      </g>
     </g>
     <g id="text_14">
      <text style="fill:#555555;font-family:DejaVu Sans;font-size:10px;font-style:normal;font-weight:400;text-anchor:end;" transform="rotate(-0, 47, 99.752524)" x="47" y="99.752524">6</text>
     </g>
    </g>
    <g id="ytick_8">
     <g id="line2d_27">
      <path clip-path="url(#p06be46bd61)" d="M 54 69.945522 
L 388.8 69.945522 
" style="fill:none;stroke:#ffffff;stroke-linecap:square;stroke-width:0.8;"/>
     </g>
     <g id="line2d_28">
      <g>
       <use style="fill:#555555;stroke:#555555;stroke-width:0.8;" x="54" xlink:href="#m95b636821a" y="69.945522"/>
      </g>
     </g>
     <g id="text_15">
      <text style="fill:#555555;font-family:DejaVu Sans;font-size:10px;font-style:normal;font-weight:400;text-anchor:end;" transform="rotate(-0, 47, 73.744741)" x="47" y="73.744741">7</text>
     </g>
    </g>
    <g id="ytick_9">
     <g id="line2d_29">
      <path clip-path="url(#p06be46bd61)" d="M 54 43.93774 
L 388.8 43.93774 
" style="fill:none;stroke:#ffffff;stroke-linecap:square;stroke-width:0.8;"/>
     </g>
     <g id="line2d_30">
      <g>
       <use style="fill:#555555;stroke:#555555;stroke-width:0.8;" x="54" xlink:href="#m95b636821a" y="43.93774"/>
      </g>
     </g>
     <g id="text_16">
      <text style="fill:#555555;font-family:DejaVu Sans;font-size:10px;font-style:normal;font-weight:400;text-anchor:end;" transform="rotate(-0, 47, 47.736959)" x="47" y="47.736959">8</text>
     </g>
    </g>
    <g id="text_17">
     <text style="fill:#555555;font-family:DejaVu Sans;font-size:12px;font-style:normal;font-weight:400;text-anchor:middle;" transform="rotate(-90, 34.141875, 143.28)" x="34.141875" y="143.28">Probability(π)</text>
    </g>
   </g>
   <g id="patch_3">
    <path clip-path="url(#p06be46bd61)" d="M 241.053976 252 
L 247.680368 252 
L 247.680368 251.949706 
L 241.053976 251.949706 
z
" style="fill:#e24a33;opacity:0.25;"/>
   </g>
   <g id="patch_4">
    <path clip-path="url(#p06be46bd61)" d="M 247.680368 252 
L 254.30676 252 
L 254.30676 251.899412 
L 247.680368 251.899412 
z
" style="fill:#e24a33;opacity:0.25;"/>
   </g>
   <g id="patch_5">
    <path clip-path="url(#p06be46bd61)" d="M 254.30676 252 
L 260.933152 252 
L 260.933152 251.74853 
L 254.30676 251.74853 
z
" style="fill:#e24a33;opacity:0.25;"/>
   </g>
   <g id="patch_6">
    <path clip-path="url(#p06be46bd61)" d="M 260.933152 252 
L 267.559544 252 
L 267.559544 251.220442 
L 260.933152 251.220442 
z
" style="fill:#e24a33;opacity:0.25;"/>
   </g>
   <g id="patch_7">
    <path clip-path="url(#p06be46bd61)" d="M 267.559544 252 
L 274.185936 252 
L 274.185936 250.717502 
L 267.559544 250.717502 
z
" style="fill:#e24a33;opacity:0.25;"/>
   </g>
   <g id="patch_8">
    <path clip-path="url(#p06be46bd61)" d="M 274.185936 252 
L 280.812328 252 
L 280.812328 248.353682 
L 274.185936 248.353682 
z
" style="fill:#e24a33;opacity:0.25;"/>
   </g>
   <g id="patch_9">
    <path clip-path="url(#p06be46bd61)" d="M 280.812328 252 
L 287.43872 252 
L 287.43872 243.22369 
L 280.812328 243.22369 
z
" style="fill:#e24a33;opacity:0.25;"/>
   </g>
   <g id="patch_10">
    <path clip-path="url(#p06be46bd61)" d="M 287.43872 252 
L 294.065113 252 
L 294.065113 232.284736 
L 287.43872 232.284736 
z
" style="fill:#e24a33;opacity:0.25;"/>
   </g>
   <g id="patch_11">
    <path clip-path="url(#p06be46bd61)" d="M 294.065113 252 
L 300.691505 252 
L 300.691505 213.097559 
L 294.065113 213.097559 
z
" style="fill:#e24a33;opacity:0.25;"/>
   </g>
   <g id="patch_12">
    <path clip-path="url(#p06be46bd61)" d="M 300.691505 252 
L 307.317897 252 
L 307.317897 184.077897 
L 300.691505 184.077897 
z
" style="fill:#e24a33;opacity:0.25;"/>
   </g>
   <g id="patch_13">
    <path clip-path="url(#p06be46bd61)" d="M 307.317897 252 
L 313.944289 252 
L 313.944289 146.58369 
L 307.317897 146.58369 
z
" style="fill:#e24a33;opacity:0.25;"/>
   </g>
   <g id="patch_14">
    <path clip-path="url(#p06be46bd61)" d="M 313.944289 252 
L 320.570681 252 
L 320.570681 102.299787 
L 313.944289 102.299787 
z
" style="fill:#e24a33;opacity:0.25;"/>
   </g>
   <g id="patch_15">
    <path clip-path="url(#p06be46bd61)" d="M 320.570681 252 
L 327.197073 252 
L 327.197073 62.642935 
L 320.570681 62.642935 
z
" style="fill:#e24a33;opacity:0.25;"/>
   </g>
   <g id="patch_16">
    <path clip-path="url(#p06be46bd61)" d="M 327.197073 252 
L 333.823465 252 
L 333.823465 44.914286 
L 327.197073 44.914286 
z
" style="fill:#e24a33;opacity:0.25;"/>
   </g>
   <g id="patch_17">
    <path clip-path="url(#p06be46bd61)" d="M 333.823465 252 
L 340.449858 252 
L 340.449858 62.366318 
L 333.823465 62.366318 
z
" style="fill:#e24a33;opacity:0.25;"/>
   </g>
   <g id="patch_18">
    <path clip-path="url(#p06be46bd61)" d="M 340.449858 252 
L 347.07625 252 
L 347.07625 108.963747 
L 340.449858 108.963747 
z
" style="fill:#e24a33;opacity:0.25;"/>
   </g>
   <g id="patch_19">
    <path clip-path="url(#p06be46bd61)" d="M 347.07625 252 
L 353.702642 252 
L 353.702642 166.449836 
L 347.07625 166.449836 
z
" style="fill:#e24a33;opacity:0.25;"/>
   </g>
   <g id="patch_20">
    <path clip-path="url(#p06be46bd61)" d="M 353.702642 252 
L 360.329034 252 
L 360.329034 215.939173 
L 353.702642 215.939173 
z
" style="fill:#e24a33;opacity:0.25;"/>
   </g>
   <g id="patch_21">
    <path clip-path="url(#p06be46bd61)" d="M 360.329034 252 
L 366.955426 252 
L 366.955426 243.374572 
L 360.329034 243.374572 
z
" style="fill:#e24a33;opacity:0.25;"/>
   </g>
   <g id="patch_22">
    <path clip-path="url(#p06be46bd61)" d="M 366.955426 252 
L 373.581818 252 
L 373.581818 250.541473 
L 366.955426 250.541473 
z
" style="fill:#e24a33;opacity:0.25;"/>
   </g>
   <g id="patch_23">
    <path clip-path="url(#p06be46bd61)" d="M 110.531671 252 
L 122.625378 252 
L 122.625378 251.944886 
L 110.531671 251.944886 
z
" style="fill:#348abd;opacity:0.25;"/>
   </g>
   <g id="patch_24">
    <path clip-path="url(#p06be46bd61)" d="M 122.625378 252 
L 134.719086 252 
L 134.719086 251.51775 
L 122.625378 251.51775 
z
" style="fill:#348abd;opacity:0.25;"/>
   </g>
   <g id="patch_25">
    <path clip-path="url(#p06be46bd61)" d="M 134.719086 252 
L 146.812793 252 
L 146.812793 250.236343 
L 134.719086 250.236343 
z
" style="fill:#348abd;opacity:0.25;"/>
   </g>
   <g id="patch_26">
    <path clip-path="url(#p06be46bd61)" d="M 146.812793 252 
L 158.9065 252 
L 158.9065 245.73075 
L 146.812793 245.73075 
z
" style="fill:#348abd;opacity:0.25;"/>
   </g>
   <g id="patch_27">
    <path clip-path="url(#p06be46bd61)" d="M 158.9065 252 
L 171.000207 252 
L 171.000207 237.904521 
L 158.9065 237.904521 
z
" style="fill:#348abd;opacity:0.25;"/>
   </g>
   <g id="patch_28">
    <path clip-path="url(#p06be46bd61)" d="M 171.000207 252 
L 183.093915 252 
L 183.093915 222.155612 
L 171.000207 222.155612 
z
" style="fill:#348abd;opacity:0.25;"/>
   </g>
   <g id="patch_29">
    <path clip-path="url(#p06be46bd61)" d="M 183.093915 252 
L 195.187622 252 
L 195.187622 201.680654 
L 183.093915 201.680654 
z
" style="fill:#348abd;opacity:0.25;"/>
   </g>
   <g id="patch_30">
    <path clip-path="url(#p06be46bd61)" d="M 195.187622 252 
L 207.281329 252 
L 207.281329 178.808224 
L 195.187622 178.808224 
z
" style="fill:#348abd;opacity:0.25;"/>
   </g>
   <g id="patch_31">
    <path clip-path="url(#p06be46bd61)" d="M 207.281329 252 
L 219.375036 252 
L 219.375036 161.116537 
L 207.281329 161.116537 
z
" style="fill:#348abd;opacity:0.25;"/>
   </g>
   <g id="patch_32">
    <path clip-path="url(#p06be46bd61)" d="M 219.375036 252 
L 231.468743 252 
L 231.468743 152.132908 
L 219.375036 152.132908 
z
" style="fill:#348abd;opacity:0.25;"/>
   </g>
   <g id="patch_33">
    <path clip-path="url(#p06be46bd61)" d="M 231.468743 252 
L 243.562451 252 
L 243.562451 155.922016 
L 231.468743 155.922016 
z
" style="fill:#348abd;opacity:0.25;"/>
   </g>
   <g id="patch_34">
    <path clip-path="url(#p06be46bd61)" d="M 243.562451 252 
L 255.656158 252 
L 255.656158 168.419181 
L 243.562451 168.419181 
z
" style="fill:#348abd;opacity:0.25;"/>
   </g>
   <g id="patch_35">
    <path clip-path="url(#p06be46bd61)" d="M 255.656158 252 
L 267.749865 252 
L 267.749865 188.563453 
L 255.656158 188.563453 
z
" style="fill:#348abd;opacity:0.25;"/>
   </g>
   <g id="patch_36">
    <path clip-path="url(#p06be46bd61)" d="M 267.749865 252 
L 279.843572 252 
L 279.843572 212.028362 
L 267.749865 212.028362 
z
" style="fill:#348abd;opacity:0.25;"/>
   </g>
   <g id="patch_37">
    <path clip-path="url(#p06be46bd61)" d="M 279.843572 252 
L 291.93728 252 
L 291.93728 228.45242 
L 279.843572 228.45242 
z
" style="fill:#348abd;opacity:0.25;"/>
   </g>
   <g id="patch_38">
    <path clip-path="url(#p06be46bd61)" d="M 291.93728 252 
L 304.030987 252 
L 304.030987 241.790078 
L 291.93728 241.790078 
z
" style="fill:#348abd;opacity:0.25;"/>
   </g>
   <g id="patch_39">
    <path clip-path="url(#p06be46bd61)" d="M 304.030987 252 
L 316.124694 252 
L 316.124694 248.169557 
L 304.030987 248.169557 
z
" style="fill:#348abd;opacity:0.25;"/>
   </g>
   <g id="patch_40">
    <path clip-path="url(#p06be46bd61)" d="M 316.124694 252 
L 328.218401 252 
L 328.218401 250.74615 
L 316.124694 250.74615 
z
" style="fill:#348abd;opacity:0.25;"/>
   </g>
   <g id="patch_41">
    <path clip-path="url(#p06be46bd61)" d="M 328.218401 252 
L 340.312109 252 
L 340.312109 251.793321 
L 328.218401 251.793321 
z
" style="fill:#348abd;opacity:0.25;"/>
   </g>
   <g id="patch_42">
    <path clip-path="url(#p06be46bd61)" d="M 340.312109 252 
L 352.405816 252 
L 352.405816 251.958664 
L 340.312109 251.958664 
z
" style="fill:#348abd;opacity:0.25;"/>
   </g>
   <g id="patch_43">
    <path clip-path="url(#p06be46bd61)" d="M 69.218182 252 
L 80.425535 252 
L 80.425535 216.018772 
L 69.218182 216.018772 
z
" style="fill:#988ed5;opacity:0.25;"/>
   </g>
   <g id="patch_44">
    <path clip-path="url(#p06be46bd61)" d="M 80.425535 252 
L 91.632888 252 
L 91.632888 133.4255 
L 80.425535 133.4255 
z
" style="fill:#988ed5;opacity:0.25;"/>
   </g>
   <g id="patch_45">
    <path clip-path="url(#p06be46bd61)" d="M 91.632888 252 
L 102.840241 252 
L 102.840241 104.209338 
L 91.632888 104.209338 
z
" style="fill:#988ed5;opacity:0.25;"/>
   </g>
   <g id="patch_46">
    <path clip-path="url(#p06be46bd61)" d="M 102.840241 252 
L 114.047595 252 
L 114.047595 120.430627 
L 102.840241 120.430627 
z
" style="fill:#988ed5;opacity:0.25;"/>
   </g>
   <g id="patch_47">
    <path clip-path="url(#p06be46bd61)" d="M 114.047595 252 
L 125.254948 252 
L 125.254948 146.821816 
L 114.047595 146.821816 
z
" style="fill:#988ed5;opacity:0.25;"/>
   </g>
   <g id="patch_48">
    <path clip-path="url(#p06be46bd61)" d="M 125.254948 252 
L 136.462301 252 
L 136.462301 177.182836 
L 125.254948 177.182836 
z
" style="fill:#988ed5;opacity:0.25;"/>
   </g>
   <g id="patch_49">
    <path clip-path="url(#p06be46bd61)" d="M 136.462301 252 
L 147.669654 252 
L 147.669654 200.540897 
L 136.462301 200.540897 
z
" style="fill:#988ed5;opacity:0.25;"/>
   </g>
   <g id="patch_50">
    <path clip-path="url(#p06be46bd61)" d="M 147.669654 252 
L 158.877007 252 
L 158.877007 219.066769 
L 147.669654 219.066769 
z
" style="fill:#988ed5;opacity:0.25;"/>
   </g>
   <g id="patch_51">
    <path clip-path="url(#p06be46bd61)" d="M 158.877007 252 
L 170.08436 252 
L 170.08436 231.466911 
L 158.877007 231.466911 
z
" style="fill:#988ed5;opacity:0.25;"/>
   </g>
   <g id="patch_52">
    <path clip-path="url(#p06be46bd61)" d="M 170.08436 252 
L 181.291714 252 
L 181.291714 240.670374 
L 170.08436 240.670374 
z
" style="fill:#988ed5;opacity:0.25;"/>
   </g>
   <g id="patch_53">
    <path clip-path="url(#p06be46bd61)" d="M 181.291714 252 
L 192.499067 252 
L 192.499067 245.487695 
L 181.291714 245.487695 
z
" style="fill:#988ed5;opacity:0.25;"/>
   </g>
   <g id="patch_54">
    <path clip-path="url(#p06be46bd61)" d="M 192.499067 252 
L 203.70642 252 
L 203.70642 248.46135 
L 192.499067 248.46135 
z
" style="fill:#988ed5;opacity:0.25;"/>
   </g>
   <g id="patch_55">
    <path clip-path="url(#p06be46bd61)" d="M 203.70642 252 
L 214.913773 252 
L 214.913773 250.349621 
L 203.70642 250.349621 
z
" style="fill:#988ed5;opacity:0.25;"/>
   </g>
   <g id="patch_56">
    <path clip-path="url(#p06be46bd61)" d="M 214.913773 252 
L 226.121126 252 
L 226.121126 251.04843 
L 214.913773 251.04843 
z
" style="fill:#988ed5;opacity:0.25;"/>
   </g>
   <g id="patch_57">
    <path clip-path="url(#p06be46bd61)" d="M 226.121126 252 
L 237.328479 252 
L 237.328479 251.628293 
L 226.121126 251.628293 
z
" style="fill:#988ed5;opacity:0.25;"/>
   </g>
   <g id="patch_58">
    <path clip-path="url(#p06be46bd61)" d="M 237.328479 252 
L 248.535833 252 
L 248.535833 251.881054 
L 237.328479 251.881054 
z
" style="fill:#988ed5;opacity:0.25;"/>
   </g>
   <g id="patch_59">
    <path clip-path="url(#p06be46bd61)" d="M 248.535833 252 
L 259.743186 252 
L 259.743186 251.940527 
L 248.535833 251.940527 
z
" style="fill:#988ed5;opacity:0.25;"/>
   </g>
   <g id="patch_60">
    <path clip-path="url(#p06be46bd61)" d="M 259.743186 252 
L 270.950539 252 
L 270.950539 252 
L 259.743186 252 
z
" style="fill:#988ed5;opacity:0.25;"/>
   </g>
   <g id="patch_61">
    <path clip-path="url(#p06be46bd61)" d="M 270.950539 252 
L 282.157892 252 
L 282.157892 251.970263 
L 270.950539 251.970263 
z
" style="fill:#988ed5;opacity:0.25;"/>
   </g>
   <g id="patch_62">
    <path clip-path="url(#p06be46bd61)" d="M 282.157892 252 
L 293.365245 252 
L 293.365245 251.985132 
L 282.157892 251.985132 
z
" style="fill:#988ed5;opacity:0.25;"/>
   </g>
   <g id="patch_63">
    <path d="M 54 252 
L 54 34.56 
" style="fill:none;stroke:#ffffff;stroke-linecap:square;stroke-linejoin:miter;"/>
   </g>
   <g id="patch_64">
    <path d="M 388.8 252 
L 388.8 34.56 
" style="fill:none;stroke:#ffffff;stroke-linecap:square;stroke-linejoin:miter;"/>
   </g>
   <g id="patch_65">
    <path d="M 54 252 
L 388.8 252 
" style="fill:none;stroke:#ffffff;stroke-linecap:square;stroke-linejoin:miter;"/>
   </g>
   <g id="patch_66">
    <path d="M 54 34.56 
L 388.8 34.56 
" style="fill:none;stroke:#ffffff;stroke-linecap:square;stroke-linejoin:miter;"/>
   </g>
   <g id="text_18">
    <text style="font-family:DejaVu Sans;font-size:14.4px;font-style:normal;font-weight:400;text-anchor:middle;" transform="rotate(-0, 221.4, 28.56)" x="221.4" y="28.56">Histograms of π_t^δ for different δ</text>
   </g>
   <g id="legend_1">
    <g id="patch_67">
     <path d="M 61 86.594375 
L 123.401562 86.594375 
Q 125.401562 86.594375 125.401562 84.594375 
L 125.401562 41.56 
Q 125.401562 39.56 123.401562 39.56 
L 61 39.56 
Q 59 39.56 59 41.56 
L 59 84.594375 
Q 59 86.594375 61 86.594375 
z
" style="fill:#e5e5e5;opacity:0.8;stroke:#cccccc;stroke-linejoin:miter;stroke-width:0.5;"/>
    </g>
    <g id="patch_68">
     <path d="M 63 51.158438 
L 83 51.158438 
L 83 44.158438 
L 63 44.158438 
z
" style="fill:#e24a33;opacity:0.25;"/>
    </g>
    <g id="text_19">
     <text style="font-family:DejaVu Sans;font-size:10px;font-style:normal;font-weight:400;text-anchor:start;" transform="rotate(-0, 91, 51.158438)" x="91" y="51.158438">δ=0.3</text>
    </g>
    <g id="patch_69">
     <path d="M 63 65.836563 
L 83 65.836563 
L 83 58.836563 
L 63 58.836563 
z
" style="fill:#348abd;opacity:0.25;"/>
    </g>
    <g id="text_20">
     <text style="font-family:DejaVu Sans;font-size:10px;font-style:normal;font-weight:400;text-anchor:start;" transform="rotate(-0, 91, 65.836563)" x="91" y="65.836563">δ=1.0</text>
    </g>
    <g id="patch_70">
     <path d="M 63 80.514688 
L 83 80.514688 
L 83 73.514688 
L 63 73.514688 
z
" style="fill:#988ed5;opacity:0.25;"/>
    </g>
    <g id="text_21">
     <text style="font-family:DejaVu Sans;font-size:10px;font-style:normal;font-weight:400;text-anchor:start;" transform="rotate(-0, 91, 80.514688)" x="91" y="80.514688">δ=3.0</text>
    </g>
   </g>
  </g>
 </g>
 <defs>
  <clipPath id="p06be46bd61">
   <rect height="217.44" width="334.8" x="54" y="34.56"/>
  </clipPath>
 </defs>
</svg>
