<?xml version="1.0" encoding="utf-8" standalone="no"?>
<!DOCTYPE svg PUBLIC "-//W3C//DTD SVG 1.1//EN"
  "http://www.w3.org/Graphics/SVG/1.1/DTD/svg11.dtd">
<svg xmlns:xlink="http://www.w3.org/1999/xlink" width="460.8pt" height="345.6pt" viewBox="0 0 460.8 345.6" xmlns="http://www.w3.org/2000/svg" version="1.1">
 <metadata>
  <rdf:RDF xmlns:dc="http://purl.org/dc/elements/1.1/" xmlns:cc="http://creativecommons.org/ns#" xmlns:rdf="http://www.w3.org/1999/02/22-rdf-syntax-ns#">
   <cc:Work>
    <dc:type rdf:resource="http://purl.org/dc/dcmitype/StillImage"/>
    <dc:date>2023-11-14T17:58:51.791875</dc:date>
    <dc:format>image/svg+xml</dc:format>
    <dc:creator>
     <cc:Agent>
      <dc:title>Matplotlib v3.6.2, https://matplotlib.org/</dc:title>
     </cc:Agent>
    </dc:creator>
   </cc:Work>
  </rdf:RDF>
 </metadata>
 <defs>
  <style type="text/css">*{stroke-linejoin: round; stroke-linecap: butt}</style>
 </defs>
 <g id="figure_1">
  <g id="patch_1">
   <path d="M 0 345.6 
L 460.8 345.6 
L 460.8 0 
L 0 0 
z
" style="fill: #ffffff"/>
  </g>
  <g id="axes_1">
   <g id="patch_2">
    <path d="M 57.6 307.584 
L 414.72 307.584 
L 414.72 41.472 
L 57.6 41.472 
z
" style="fill: #e5e5e5"/>
   </g>
   <g id="matplotlib.axis_1">
    <g id="xtick_1">
     <g id="line2d_1">
      <path d="M 73.293048 307.584 
L 73.293048 41.472 
" clip-path="url(#pfe84674bba)" style="fill: none; stroke: #ffffff; stroke-width: 0.8; stroke-linecap: square"/>
     </g>
     <g id="line2d_2">
      <defs>
       <path id="m8cf6c1f5b2" d="M 0 0 
L 0 3.5 
" style="stroke: #555555; stroke-width: 0.8"/>
      </defs>
      <g>
       <use xlink:href="#m8cf6c1f5b2" x="73.293048" y="307.584" style="fill: #555555; stroke: #555555; stroke-width: 0.8"/>
      </g>
     </g>
     <g id="text_1">
      <text style="fill: #555555; font: 10px 'DejaVu Sans', 'Bitstream Vera Sans', 'Computer Modern Sans Serif', 'Lucida Grande', 'Verdana', 'Geneva', 'Lucid', 'Arial', 'Helvetica', 'Avant Garde', sans-serif; text-anchor: middle" x="73.293048" y="322.182437" transform="rotate(-0 73.293048 322.182437)">0.0</text>
     </g>
    </g>
    <g id="xtick_2">
     <g id="line2d_3">
      <path d="M 140.929996 307.584 
L 140.929996 41.472 
" clip-path="url(#pfe84674bba)" style="fill: none; stroke: #ffffff; stroke-width: 0.8; stroke-linecap: square"/>
     </g>
     <g id="line2d_4">
      <g>
       <use xlink:href="#m8cf6c1f5b2" x="140.929996" y="307.584" style="fill: #555555; stroke: #555555; stroke-width: 0.8"/>
      </g>
     </g>
     <g id="text_2">
      <text style="fill: #555555; font: 10px 'DejaVu Sans', 'Bitstream Vera Sans', 'Computer Modern Sans Serif', 'Lucida Grande', 'Verdana', 'Geneva', 'Lucid', 'Arial', 'Helvetica', 'Avant Garde', sans-serif; text-anchor: middle" x="140.929996" y="322.182437" transform="rotate(-0 140.929996 322.182437)">0.2</text>
     </g>
    </g>
    <g id="xtick_3">
     <g id="line2d_5">
      <path d="M 208.566944 307.584 
L 208.566944 41.472 
" clip-path="url(#pfe84674bba)" style="fill: none; stroke: #ffffff; stroke-width: 0.8; stroke-linecap: square"/>
     </g>
     <g id="line2d_6">
      <g>
       <use xlink:href="#m8cf6c1f5b2" x="208.566944" y="307.584" style="fill: #555555; stroke: #555555; stroke-width: 0.8"/>
      </g>
     </g>
     <g id="text_3">
      <text style="fill: #555555; font: 10px 'DejaVu Sans', 'Bitstream Vera Sans', 'Computer Modern Sans Serif', 'Lucida Grande', 'Verdana', 'Geneva', 'Lucid', 'Arial', 'Helvetica', 'Avant Garde', sans-serif; text-anchor: middle" x="208.566944" y="322.182437" transform="rotate(-0 208.566944 322.182437)">0.4</text>
     </g>
    </g>
    <g id="xtick_4">
     <g id="line2d_7">
      <path d="M 276.203892 307.584 
L 276.203892 41.472 
" clip-path="url(#pfe84674bba)" style="fill: none; stroke: #ffffff; stroke-width: 0.8; stroke-linecap: square"/>
     </g>
     <g id="line2d_8">
      <g>
       <use xlink:href="#m8cf6c1f5b2" x="276.203892" y="307.584" style="fill: #555555; stroke: #555555; stroke-width: 0.8"/>
      </g>
     </g>
     <g id="text_4">
      <text style="fill: #555555; font: 10px 'DejaVu Sans', 'Bitstream Vera Sans', 'Computer Modern Sans Serif', 'Lucida Grande', 'Verdana', 'Geneva', 'Lucid', 'Arial', 'Helvetica', 'Avant Garde', sans-serif; text-anchor: middle" x="276.203892" y="322.182437" transform="rotate(-0 276.203892 322.182437)">0.6</text>
     </g>
    </g>
    <g id="xtick_5">
     <g id="line2d_9">
      <path d="M 343.84084 307.584 
L 343.84084 41.472 
" clip-path="url(#pfe84674bba)" style="fill: none; stroke: #ffffff; stroke-width: 0.8; stroke-linecap: square"/>
     </g>
     <g id="line2d_10">
      <g>
       <use xlink:href="#m8cf6c1f5b2" x="343.84084" y="307.584" style="fill: #555555; stroke: #555555; stroke-width: 0.8"/>
      </g>
     </g>
     <g id="text_5">
      <text style="fill: #555555; font: 10px 'DejaVu Sans', 'Bitstream Vera Sans', 'Computer Modern Sans Serif', 'Lucida Grande', 'Verdana', 'Geneva', 'Lucid', 'Arial', 'Helvetica', 'Avant Garde', sans-serif; text-anchor: middle" x="343.84084" y="322.182437" transform="rotate(-0 343.84084 322.182437)">0.8</text>
     </g>
    </g>
    <g id="xtick_6">
     <g id="line2d_11">
      <path d="M 411.477788 307.584 
L 411.477788 41.472 
" clip-path="url(#pfe84674bba)" style="fill: none; stroke: #ffffff; stroke-width: 0.8; stroke-linecap: square"/>
     </g>
     <g id="line2d_12">
      <g>
       <use xlink:href="#m8cf6c1f5b2" x="411.477788" y="307.584" style="fill: #555555; stroke: #555555; stroke-width: 0.8"/>
      </g>
     </g>
     <g id="text_6">
      <text style="fill: #555555; font: 10px 'DejaVu Sans', 'Bitstream Vera Sans', 'Computer Modern Sans Serif', 'Lucida Grande', 'Verdana', 'Geneva', 'Lucid', 'Arial', 'Helvetica', 'Avant Garde', sans-serif; text-anchor: middle" x="411.477788" y="322.182437" transform="rotate(-0 411.477788 322.182437)">1.0</text>
     </g>
    </g>
    <g id="text_7">
     <text style="fill: #555555; font: 12px 'DejaVu Sans', 'Bitstream Vera Sans', 'Computer Modern Sans Serif', 'Lucida Grande', 'Verdana', 'Geneva', 'Lucid', 'Arial', 'Helvetica', 'Avant Garde', sans-serif; text-anchor: middle" x="236.16" y="337.38025" transform="rotate(-0 236.16 337.38025)">Recall probability</text>
    </g>
   </g>
   <g id="matplotlib.axis_2">
    <g id="ytick_1">
     <g id="line2d_13">
      <path d="M 57.6 307.584 
L 414.72 307.584 
" clip-path="url(#pfe84674bba)" style="fill: none; stroke: #ffffff; stroke-width: 0.8; stroke-linecap: square"/>
     </g>
     <g id="line2d_14">
      <defs>
       <path id="m8db1d67d61" d="M 0 0 
L -3.5 0 
" style="stroke: #555555; stroke-width: 0.8"/>
      </defs>
      <g>
       <use xlink:href="#m8db1d67d61" x="57.6" y="307.584" style="fill: #555555; stroke: #555555; stroke-width: 0.8"/>
      </g>
     </g>
     <g id="text_8">
      <text style="fill: #555555; font: 10px 'DejaVu Sans', 'Bitstream Vera Sans', 'Computer Modern Sans Serif', 'Lucida Grande', 'Verdana', 'Geneva', 'Lucid', 'Arial', 'Helvetica', 'Avant Garde', sans-serif; text-anchor: end" x="50.6" y="311.383219" transform="rotate(-0 50.6 311.383219)">0</text>
     </g>
    </g>
    <g id="ytick_2">
     <g id="line2d_15">
      <path d="M 57.6 272.153915 
L 414.72 272.153915 
" clip-path="url(#pfe84674bba)" style="fill: none; stroke: #ffffff; stroke-width: 0.8; stroke-linecap: square"/>
     </g>
     <g id="line2d_16">
      <g>
       <use xlink:href="#m8db1d67d61" x="57.6" y="272.153915" style="fill: #555555; stroke: #555555; stroke-width: 0.8"/>
      </g>
     </g>
     <g id="text_9">
      <text style="fill: #555555; font: 10px 'DejaVu Sans', 'Bitstream Vera Sans', 'Computer Modern Sans Serif', 'Lucida Grande', 'Verdana', 'Geneva', 'Lucid', 'Arial', 'Helvetica', 'Avant Garde', sans-serif; text-anchor: end" x="50.6" y="275.953133" transform="rotate(-0 50.6 275.953133)">1</text>
     </g>
    </g>
    <g id="ytick_3">
     <g id="line2d_17">
      <path d="M 57.6 236.723829 
L 414.72 236.723829 
" clip-path="url(#pfe84674bba)" style="fill: none; stroke: #ffffff; stroke-width: 0.8; stroke-linecap: square"/>
     </g>
     <g id="line2d_18">
      <g>
       <use xlink:href="#m8db1d67d61" x="57.6" y="236.723829" style="fill: #555555; stroke: #555555; stroke-width: 0.8"/>
      </g>
     </g>
     <g id="text_10">
      <text style="fill: #555555; font: 10px 'DejaVu Sans', 'Bitstream Vera Sans', 'Computer Modern Sans Serif', 'Lucida Grande', 'Verdana', 'Geneva', 'Lucid', 'Arial', 'Helvetica', 'Avant Garde', sans-serif; text-anchor: end" x="50.6" y="240.523048" transform="rotate(-0 50.6 240.523048)">2</text>
     </g>
    </g>
    <g id="ytick_4">
     <g id="line2d_19">
      <path d="M 57.6 201.293744 
L 414.72 201.293744 
" clip-path="url(#pfe84674bba)" style="fill: none; stroke: #ffffff; stroke-width: 0.8; stroke-linecap: square"/>
     </g>
     <g id="line2d_20">
      <g>
       <use xlink:href="#m8db1d67d61" x="57.6" y="201.293744" style="fill: #555555; stroke: #555555; stroke-width: 0.8"/>
      </g>
     </g>
     <g id="text_11">
      <text style="fill: #555555; font: 10px 'DejaVu Sans', 'Bitstream Vera Sans', 'Computer Modern Sans Serif', 'Lucida Grande', 'Verdana', 'Geneva', 'Lucid', 'Arial', 'Helvetica', 'Avant Garde', sans-serif; text-anchor: end" x="50.6" y="205.092963" transform="rotate(-0 50.6 205.092963)">3</text>
     </g>
    </g>
    <g id="ytick_5">
     <g id="line2d_21">
      <path d="M 57.6 165.863659 
L 414.72 165.863659 
" clip-path="url(#pfe84674bba)" style="fill: none; stroke: #ffffff; stroke-width: 0.8; stroke-linecap: square"/>
     </g>
     <g id="line2d_22">
      <g>
       <use xlink:href="#m8db1d67d61" x="57.6" y="165.863659" style="fill: #555555; stroke: #555555; stroke-width: 0.8"/>
      </g>
     </g>
     <g id="text_12">
      <text style="fill: #555555; font: 10px 'DejaVu Sans', 'Bitstream Vera Sans', 'Computer Modern Sans Serif', 'Lucida Grande', 'Verdana', 'Geneva', 'Lucid', 'Arial', 'Helvetica', 'Avant Garde', sans-serif; text-anchor: end" x="50.6" y="169.662878" transform="rotate(-0 50.6 169.662878)">4</text>
     </g>
    </g>
    <g id="ytick_6">
     <g id="line2d_23">
      <path d="M 57.6 130.433574 
L 414.72 130.433574 
" clip-path="url(#pfe84674bba)" style="fill: none; stroke: #ffffff; stroke-width: 0.8; stroke-linecap: square"/>
     </g>
     <g id="line2d_24">
      <g>
       <use xlink:href="#m8db1d67d61" x="57.6" y="130.433574" style="fill: #555555; stroke: #555555; stroke-width: 0.8"/>
      </g>
     </g>
     <g id="text_13">
      <text style="fill: #555555; font: 10px 'DejaVu Sans', 'Bitstream Vera Sans', 'Computer Modern Sans Serif', 'Lucida Grande', 'Verdana', 'Geneva', 'Lucid', 'Arial', 'Helvetica', 'Avant Garde', sans-serif; text-anchor: end" x="50.6" y="134.232792" transform="rotate(-0 50.6 134.232792)">5</text>
     </g>
    </g>
    <g id="ytick_7">
     <g id="line2d_25">
      <path d="M 57.6 95.003488 
L 414.72 95.003488 
" clip-path="url(#pfe84674bba)" style="fill: none; stroke: #ffffff; stroke-width: 0.8; stroke-linecap: square"/>
     </g>
     <g id="line2d_26">
      <g>
       <use xlink:href="#m8db1d67d61" x="57.6" y="95.003488" style="fill: #555555; stroke: #555555; stroke-width: 0.8"/>
      </g>
     </g>
     <g id="text_14">
      <text style="fill: #555555; font: 10px 'DejaVu Sans', 'Bitstream Vera Sans', 'Computer Modern Sans Serif', 'Lucida Grande', 'Verdana', 'Geneva', 'Lucid', 'Arial', 'Helvetica', 'Avant Garde', sans-serif; text-anchor: end" x="50.6" y="98.802707" transform="rotate(-0 50.6 98.802707)">6</text>
     </g>
    </g>
    <g id="ytick_8">
     <g id="line2d_27">
      <path d="M 57.6 59.573403 
L 414.72 59.573403 
" clip-path="url(#pfe84674bba)" style="fill: none; stroke: #ffffff; stroke-width: 0.8; stroke-linecap: square"/>
     </g>
     <g id="line2d_28">
      <g>
       <use xlink:href="#m8db1d67d61" x="57.6" y="59.573403" style="fill: #555555; stroke: #555555; stroke-width: 0.8"/>
      </g>
     </g>
     <g id="text_15">
      <text style="fill: #555555; font: 10px 'DejaVu Sans', 'Bitstream Vera Sans', 'Computer Modern Sans Serif', 'Lucida Grande', 'Verdana', 'Geneva', 'Lucid', 'Arial', 'Helvetica', 'Avant Garde', sans-serif; text-anchor: end" x="50.6" y="63.372622" transform="rotate(-0 50.6 63.372622)">7</text>
     </g>
    </g>
    <g id="text_16">
     <text style="fill: #555555; font: 12px 'DejaVu Sans', 'Bitstream Vera Sans', 'Computer Modern Sans Serif', 'Lucida Grande', 'Verdana', 'Geneva', 'Lucid', 'Arial', 'Helvetica', 'Avant Garde', sans-serif; text-anchor: middle" x="37.741875" y="174.528" transform="rotate(-90 37.741875 174.528)">Probability of recall probability</text>
    </g>
   </g>
   <g id="patch_3">
    <path d="M 243.267021 307.584 
L 251.028033 307.584 
L 251.028033 307.491368 
L 243.267021 307.491368 
z
" clip-path="url(#pfe84674bba)" style="fill: #e24a33; opacity: 0.25"/>
   </g>
   <g id="patch_4">
    <path d="M 251.028033 307.584 
L 258.789046 307.584 
L 258.789046 307.491368 
L 251.028033 307.491368 
z
" clip-path="url(#pfe84674bba)" style="fill: #e24a33; opacity: 0.25"/>
   </g>
   <g id="patch_5">
    <path d="M 258.789046 307.584 
L 266.550059 307.584 
L 266.550059 307.306105 
L 258.789046 307.306105 
z
" clip-path="url(#pfe84674bba)" style="fill: #e24a33; opacity: 0.25"/>
   </g>
   <g id="patch_6">
    <path d="M 266.550059 307.584 
L 274.311071 307.584 
L 274.311071 306.873825 
L 266.550059 306.873825 
z
" clip-path="url(#pfe84674bba)" style="fill: #e24a33; opacity: 0.25"/>
   </g>
   <g id="patch_7">
    <path d="M 274.311071 307.584 
L 282.072084 307.584 
L 282.072084 305.947509 
L 274.311071 305.947509 
z
" clip-path="url(#pfe84674bba)" style="fill: #e24a33; opacity: 0.25"/>
   </g>
   <g id="patch_8">
    <path d="M 282.072084 307.584 
L 289.833096 307.584 
L 289.833096 303.755228 
L 282.072084 303.755228 
z
" clip-path="url(#pfe84674bba)" style="fill: #e24a33; opacity: 0.25"/>
   </g>
   <g id="patch_9">
    <path d="M 289.833096 307.584 
L 297.594109 307.584 
L 297.594109 298.382596 
L 289.833096 298.382596 
z
" clip-path="url(#pfe84674bba)" style="fill: #e24a33; opacity: 0.25"/>
   </g>
   <g id="patch_10">
    <path d="M 297.594109 307.584 
L 305.355122 307.584 
L 305.355122 287.884351 
L 297.594109 287.884351 
z
" clip-path="url(#pfe84674bba)" style="fill: #e24a33; opacity: 0.25"/>
   </g>
   <g id="patch_11">
    <path d="M 305.355122 307.584 
L 313.116134 307.584 
L 313.116134 269.111018 
L 305.355122 269.111018 
z
" clip-path="url(#pfe84674bba)" style="fill: #e24a33; opacity: 0.25"/>
   </g>
   <g id="patch_12">
    <path d="M 313.116134 307.584 
L 320.877147 307.584 
L 320.877147 237.894175 
L 313.116134 237.894175 
z
" clip-path="url(#pfe84674bba)" style="fill: #e24a33; opacity: 0.25"/>
   </g>
   <g id="patch_13">
    <path d="M 320.877147 307.584 
L 328.638159 307.584 
L 328.638159 196.611368 
L 320.877147 196.611368 
z
" clip-path="url(#pfe84674bba)" style="fill: #e24a33; opacity: 0.25"/>
   </g>
   <g id="patch_14">
    <path d="M 328.638159 307.584 
L 336.399172 307.584 
L 336.399172 138.624 
L 328.638159 138.624 
z
" clip-path="url(#pfe84674bba)" style="fill: #e24a33; opacity: 0.25"/>
   </g>
   <g id="patch_15">
    <path d="M 336.399172 307.584 
L 344.160185 307.584 
L 344.160185 85.60786 
L 336.399172 85.60786 
z
" clip-path="url(#pfe84674bba)" style="fill: #e24a33; opacity: 0.25"/>
   </g>
   <g id="patch_16">
    <path d="M 344.160185 307.584 
L 351.921197 307.584 
L 351.921197 54.144 
L 344.160185 54.144 
z
" clip-path="url(#pfe84674bba)" style="fill: #e24a33; opacity: 0.25"/>
   </g>
   <g id="patch_17">
    <path d="M 351.921197 307.584 
L 359.68221 307.584 
L 359.68221 60.010667 
L 351.921197 60.010667 
z
" clip-path="url(#pfe84674bba)" style="fill: #e24a33; opacity: 0.25"/>
   </g>
   <g id="patch_18">
    <path d="M 359.68221 307.584 
L 367.443222 307.584 
L 367.443222 105.739789 
L 359.68221 105.739789 
z
" clip-path="url(#pfe84674bba)" style="fill: #e24a33; opacity: 0.25"/>
   </g>
   <g id="patch_19">
    <path d="M 367.443222 307.584 
L 375.204235 307.584 
L 375.204235 180.894877 
L 367.443222 180.894877 
z
" clip-path="url(#pfe84674bba)" style="fill: #e24a33; opacity: 0.25"/>
   </g>
   <g id="patch_20">
    <path d="M 375.204235 307.584 
L 382.965248 307.584 
L 382.965248 254.753123 
L 375.204235 254.753123 
z
" clip-path="url(#pfe84674bba)" style="fill: #e24a33; opacity: 0.25"/>
   </g>
   <g id="patch_21">
    <path d="M 382.965248 307.584 
L 390.72626 307.584 
L 390.72626 293.504 
L 382.965248 293.504 
z
" clip-path="url(#pfe84674bba)" style="fill: #e24a33; opacity: 0.25"/>
   </g>
   <g id="patch_22">
    <path d="M 390.72626 307.584 
L 398.487273 307.584 
L 398.487273 305.793123 
L 390.72626 305.793123 
z
" clip-path="url(#pfe84674bba)" style="fill: #e24a33; opacity: 0.25"/>
   </g>
   <g id="patch_23">
    <path d="M 115.135873 307.584 
L 127.939647 307.584 
L 127.939647 307.303257 
L 115.135873 307.303257 
z
" clip-path="url(#pfe84674bba)" style="fill: #348abd; opacity: 0.25"/>
   </g>
   <g id="patch_24">
    <path d="M 127.939647 307.584 
L 140.743421 307.584 
L 140.743421 306.292581 
L 127.939647 306.292581 
z
" clip-path="url(#pfe84674bba)" style="fill: #348abd; opacity: 0.25"/>
   </g>
   <g id="patch_25">
    <path d="M 140.743421 307.584 
L 153.547195 307.584 
L 153.547195 303.185688 
L 140.743421 303.185688 
z
" clip-path="url(#pfe84674bba)" style="fill: #348abd; opacity: 0.25"/>
   </g>
   <g id="patch_26">
    <path d="M 153.547195 307.584 
L 166.350969 307.584 
L 166.350969 296.840888 
L 153.547195 296.840888 
z
" clip-path="url(#pfe84674bba)" style="fill: #348abd; opacity: 0.25"/>
   </g>
   <g id="patch_27">
    <path d="M 166.350969 307.584 
L 179.154743 307.584 
L 179.154743 284.469465 
L 166.350969 284.469465 
z
" clip-path="url(#pfe84674bba)" style="fill: #348abd; opacity: 0.25"/>
   </g>
   <g id="patch_28">
    <path d="M 179.154743 307.584 
L 191.958517 307.584 
L 191.958517 265.154323 
L 179.154743 265.154323 
z
" clip-path="url(#pfe84674bba)" style="fill: #348abd; opacity: 0.25"/>
   </g>
   <g id="patch_29">
    <path d="M 191.958517 307.584 
L 204.762291 307.584 
L 204.762291 243.237627 
L 191.958517 243.237627 
z
" clip-path="url(#pfe84674bba)" style="fill: #348abd; opacity: 0.25"/>
   </g>
   <g id="patch_30">
    <path d="M 204.762291 307.584 
L 217.566065 307.584 
L 217.566065 216.585726 
L 204.762291 216.585726 
z
" clip-path="url(#pfe84674bba)" style="fill: #348abd; opacity: 0.25"/>
   </g>
   <g id="patch_31">
    <path d="M 217.566065 307.584 
L 230.369839 307.584 
L 230.369839 197.401597 
L 217.566065 197.401597 
z
" clip-path="url(#pfe84674bba)" style="fill: #348abd; opacity: 0.25"/>
   </g>
   <g id="patch_32">
    <path d="M 230.369839 307.584 
L 243.173613 307.584 
L 243.173613 181.717403 
L 230.369839 181.717403 
z
" clip-path="url(#pfe84674bba)" style="fill: #348abd; opacity: 0.25"/>
   </g>
   <g id="patch_33">
    <path d="M 243.173613 307.584 
L 255.977387 307.584 
L 255.977387 185.479363 
L 243.173613 185.479363 
z
" clip-path="url(#pfe84674bba)" style="fill: #348abd; opacity: 0.25"/>
   </g>
   <g id="patch_34">
    <path d="M 255.977387 307.584 
L 268.781161 307.584 
L 268.781161 196.765246 
L 255.977387 196.765246 
z
" clip-path="url(#pfe84674bba)" style="fill: #348abd; opacity: 0.25"/>
   </g>
   <g id="patch_35">
    <path d="M 268.781161 307.584 
L 281.584934 307.584 
L 281.584934 219.992078 
L 268.781161 219.992078 
z
" clip-path="url(#pfe84674bba)" style="fill: #348abd; opacity: 0.25"/>
   </g>
   <g id="patch_36">
    <path d="M 281.584934 307.584 
L 294.388708 307.584 
L 294.388708 244.21087 
L 281.584934 244.21087 
z
" clip-path="url(#pfe84674bba)" style="fill: #348abd; opacity: 0.25"/>
   </g>
   <g id="patch_37">
    <path d="M 294.388708 307.584 
L 307.192482 307.584 
L 307.192482 266.782635 
L 294.388708 266.782635 
z
" clip-path="url(#pfe84674bba)" style="fill: #348abd; opacity: 0.25"/>
   </g>
   <g id="patch_38">
    <path d="M 307.192482 307.584 
L 319.996256 307.584 
L 319.996256 284.619195 
L 307.192482 284.619195 
z
" clip-path="url(#pfe84674bba)" style="fill: #348abd; opacity: 0.25"/>
   </g>
   <g id="patch_39">
    <path d="M 319.996256 307.584 
L 332.80003 307.584 
L 332.80003 298.338186 
L 319.996256 298.338186 
z
" clip-path="url(#pfe84674bba)" style="fill: #348abd; opacity: 0.25"/>
   </g>
   <g id="patch_40">
    <path d="M 332.80003 307.584 
L 345.603804 307.584 
L 345.603804 303.447715 
L 332.80003 303.447715 
z
" clip-path="url(#pfe84674bba)" style="fill: #348abd; opacity: 0.25"/>
   </g>
   <g id="patch_41">
    <path d="M 345.603804 307.584 
L 358.407578 307.584 
L 358.407578 306.610756 
L 345.603804 306.610756 
z
" clip-path="url(#pfe84674bba)" style="fill: #348abd; opacity: 0.25"/>
   </g>
   <g id="patch_42">
    <path d="M 358.407578 307.584 
L 371.211352 307.584 
L 371.211352 307.43427 
L 358.407578 307.43427 
z
" clip-path="url(#pfe84674bba)" style="fill: #348abd; opacity: 0.25"/>
   </g>
   <g id="patch_43">
    <path d="M 73.832727 307.584 
L 86.154797 307.584 
L 86.154797 240.235947 
L 73.832727 240.235947 
z
" clip-path="url(#pfe84674bba)" style="fill: #988ed5; opacity: 0.25"/>
   </g>
   <g id="patch_44">
    <path d="M 86.154797 307.584 
L 98.476866 307.584 
L 98.476866 140.44881 
L 86.154797 140.44881 
z
" clip-path="url(#pfe84674bba)" style="fill: #988ed5; opacity: 0.25"/>
   </g>
   <g id="patch_45">
    <path d="M 98.476866 307.584 
L 110.798935 307.584 
L 110.798935 120.78699 
L 98.476866 120.78699 
z
" clip-path="url(#pfe84674bba)" style="fill: #988ed5; opacity: 0.25"/>
   </g>
   <g id="patch_46">
    <path d="M 110.798935 307.584 
L 123.121005 307.584 
L 123.121005 146.497105 
L 110.798935 146.497105 
z
" clip-path="url(#pfe84674bba)" style="fill: #988ed5; opacity: 0.25"/>
   </g>
   <g id="patch_47">
    <path d="M 123.121005 307.584 
L 135.443074 307.584 
L 135.443074 184.848349 
L 123.121005 184.848349 
z
" clip-path="url(#pfe84674bba)" style="fill: #988ed5; opacity: 0.25"/>
   </g>
   <g id="patch_48">
    <path d="M 135.443074 307.584 
L 147.765144 307.584 
L 147.765144 212.853315 
L 135.443074 212.853315 
z
" clip-path="url(#pfe84674bba)" style="fill: #988ed5; opacity: 0.25"/>
   </g>
   <g id="patch_49">
    <path d="M 147.765144 307.584 
L 160.087213 307.584 
L 160.087213 244.767306 
L 147.765144 244.767306 
z
" clip-path="url(#pfe84674bba)" style="fill: #988ed5; opacity: 0.25"/>
   </g>
   <g id="patch_50">
    <path d="M 160.087213 307.584 
L 172.409282 307.584 
L 172.409282 264.954219 
L 160.087213 264.954219 
z
" clip-path="url(#pfe84674bba)" style="fill: #988ed5; opacity: 0.25"/>
   </g>
   <g id="patch_51">
    <path d="M 172.409282 307.584 
L 184.731352 307.584 
L 184.731352 281.776646 
L 172.409282 281.776646 
z
" clip-path="url(#pfe84674bba)" style="fill: #988ed5; opacity: 0.25"/>
   </g>
   <g id="patch_52">
    <path d="M 184.731352 307.584 
L 197.053421 307.584 
L 197.053421 289.614147 
L 184.731352 289.614147 
z
" clip-path="url(#pfe84674bba)" style="fill: #988ed5; opacity: 0.25"/>
   </g>
   <g id="patch_53">
    <path d="M 197.053421 307.584 
L 209.375491 307.584 
L 209.375491 296.770972 
L 197.053421 296.770972 
z
" clip-path="url(#pfe84674bba)" style="fill: #988ed5; opacity: 0.25"/>
   </g>
   <g id="patch_54">
    <path d="M 209.375491 307.584 
L 221.69756 307.584 
L 221.69756 301.360674 
L 209.375491 301.360674 
z
" clip-path="url(#pfe84674bba)" style="fill: #988ed5; opacity: 0.25"/>
   </g>
   <g id="patch_55">
    <path d="M 221.69756 307.584 
L 234.019629 307.584 
L 234.019629 304.452889 
L 221.69756 304.452889 
z
" clip-path="url(#pfe84674bba)" style="fill: #988ed5; opacity: 0.25"/>
   </g>
   <g id="patch_56">
    <path d="M 234.019629 307.584 
L 246.341699 307.584 
L 246.341699 305.989273 
L 234.019629 305.989273 
z
" clip-path="url(#pfe84674bba)" style="fill: #988ed5; opacity: 0.25"/>
   </g>
   <g id="patch_57">
    <path d="M 246.341699 307.584 
L 258.663768 307.584 
L 258.663768 306.747741 
L 246.341699 306.747741 
z
" clip-path="url(#pfe84674bba)" style="fill: #988ed5; opacity: 0.25"/>
   </g>
   <g id="patch_58">
    <path d="M 258.663768 307.584 
L 270.985838 307.584 
L 270.985838 307.039459 
L 258.663768 307.039459 
z
" clip-path="url(#pfe84674bba)" style="fill: #988ed5; opacity: 0.25"/>
   </g>
   <g id="patch_59">
    <path d="M 270.985838 307.584 
L 283.307907 307.584 
L 283.307907 307.467313 
L 270.985838 307.467313 
z
" clip-path="url(#pfe84674bba)" style="fill: #988ed5; opacity: 0.25"/>
   </g>
   <g id="patch_60">
    <path d="M 283.307907 307.584 
L 295.629976 307.584 
L 295.629976 307.525656 
L 283.307907 307.525656 
z
" clip-path="url(#pfe84674bba)" style="fill: #988ed5; opacity: 0.25"/>
   </g>
   <g id="patch_61">
    <path d="M 295.629976 307.584 
L 307.952046 307.584 
L 307.952046 307.584 
L 295.629976 307.584 
z
" clip-path="url(#pfe84674bba)" style="fill: #988ed5; opacity: 0.25"/>
   </g>
   <g id="patch_62">
    <path d="M 307.952046 307.584 
L 320.274115 307.584 
L 320.274115 307.564552 
L 307.952046 307.564552 
z
" clip-path="url(#pfe84674bba)" style="fill: #988ed5; opacity: 0.25"/>
   </g>
   <g id="patch_63">
    <path d="M 57.6 307.584 
L 57.6 41.472 
" style="fill: none; stroke: #ffffff; stroke-linejoin: miter; stroke-linecap: square"/>
   </g>
   <g id="patch_64">
    <path d="M 414.72 307.584 
L 414.72 41.472 
" style="fill: none; stroke: #ffffff; stroke-linejoin: miter; stroke-linecap: square"/>
   </g>
   <g id="patch_65">
    <path d="M 57.6 307.584 
L 414.72 307.584 
" style="fill: none; stroke: #ffffff; stroke-linejoin: miter; stroke-linecap: square"/>
   </g>
   <g id="patch_66">
    <path d="M 57.6 41.472 
L 414.72 41.472 
" style="fill: none; stroke: #ffffff; stroke-linejoin: miter; stroke-linecap: square"/>
   </g>
   <g id="text_17">
    <!-- Histograms of $p_t^δ$ for different δ -->
    <g transform="translate(123.336 35.472)">
     <text>
      <tspan style="font: 14.4px 'DejaVu Sans'" x="0 10.821075 14.819244 22.316696 27.959106 36.763519 45.898193 51.814651 60.633118 74.651321 82.148773 86.723129 95.527542 100.593765 121.529009 126.103365 131.169589 139.974001 145.89046 150.464816 159.59949 163.597659 168.663882 173.730105 182.583712 188.50017 197.353777 206.474398 212.116808 216.691165" y="-0.006250000000001421">Histograms of  for different δ</tspan>
      <tspan style="font: oblique 14.4px 'DejaVu Sans'" x="105.168121" y="-0.006250000000001421">p</tspan>
      <tspan style="font: oblique 10.08px 'DejaVu Sans'" x="114.302795 114.97217" y="3.9312499999999986 -5.518750000000001">tδ</tspan>
     </text>
    </g>
   </g>
   <g id="legend_1">
    <g id="patch_67">
     <path d="M 64.6 93.506375 
L 127.001562 93.506375 
Q 129.001562 93.506375 129.001562 91.506375 
L 129.001562 48.472 
Q 129.001562 46.472 127.001562 46.472 
L 64.6 46.472 
Q 62.6 46.472 62.6 48.472 
L 62.6 91.506375 
Q 62.6 93.506375 64.6 93.506375 
z
" style="fill: #e5e5e5; opacity: 0.8; stroke: #cccccc; stroke-width: 0.5; stroke-linejoin: miter"/>
    </g>
    <g id="patch_68">
     <path d="M 66.6 58.070438 
L 86.6 58.070438 
L 86.6 51.070438 
L 66.6 51.070438 
z
" style="fill: #e24a33; opacity: 0.25"/>
    </g>
    <g id="text_18">
     <text style="font: 10px 'DejaVu Sans', 'Bitstream Vera Sans', 'Computer Modern Sans Serif', 'Lucida Grande', 'Verdana', 'Geneva', 'Lucid', 'Arial', 'Helvetica', 'Avant Garde', sans-serif; text-anchor: start" x="94.6" y="58.070438" transform="rotate(-0 94.6 58.070438)">δ=0.3</text>
    </g>
    <g id="patch_69">
     <path d="M 66.6 72.748563 
L 86.6 72.748563 
L 86.6 65.748563 
L 66.6 65.748563 
z
" style="fill: #348abd; opacity: 0.25"/>
    </g>
    <g id="text_19">
     <text style="font: 10px 'DejaVu Sans', 'Bitstream Vera Sans', 'Computer Modern Sans Serif', 'Lucida Grande', 'Verdana', 'Geneva', 'Lucid', 'Arial', 'Helvetica', 'Avant Garde', sans-serif; text-anchor: start" x="94.6" y="72.748563" transform="rotate(-0 94.6 72.748563)">δ=1.0</text>
    </g>
    <g id="patch_70">
     <path d="M 66.6 87.426688 
L 86.6 87.426688 
L 86.6 80.426688 
L 66.6 80.426688 
z
" style="fill: #988ed5; opacity: 0.25"/>
    </g>
    <g id="text_20">
     <text style="font: 10px 'DejaVu Sans', 'Bitstream Vera Sans', 'Computer Modern Sans Serif', 'Lucida Grande', 'Verdana', 'Geneva', 'Lucid', 'Arial', 'Helvetica', 'Avant Garde', sans-serif; text-anchor: start" x="94.6" y="87.426688" transform="rotate(-0 94.6 87.426688)">δ=3.0</text>
    </g>
   </g>
  </g>
 </g>
 <defs>
  <clipPath id="pfe84674bba">
   <rect x="57.6" y="41.472" width="357.12" height="266.112"/>
  </clipPath>
 </defs>
</svg>
