<?xml version="1.0" encoding="utf-8" standalone="no"?>
<!DOCTYPE svg PUBLIC "-//W3C//DTD SVG 1.1//EN"
  "http://www.w3.org/Graphics/SVG/1.1/DTD/svg11.dtd">
<svg xmlns:xlink="http://www.w3.org/1999/xlink" width="460.8pt" height="345.6pt" viewBox="0 0 460.8 345.6" xmlns="http://www.w3.org/2000/svg" version="1.1">
 <metadata>
  <rdf:RDF xmlns:dc="http://purl.org/dc/elements/1.1/" xmlns:cc="http://creativecommons.org/ns#" xmlns:rdf="http://www.w3.org/1999/02/22-rdf-syntax-ns#">
   <cc:Work>
    <dc:type rdf:resource="http://purl.org/dc/dcmitype/StillImage"/>
    <dc:date>2023-11-15T12:35:14.182876</dc:date>
    <dc:format>image/svg+xml</dc:format>
    <dc:creator>
     <cc:Agent>
      <dc:title>Matplotlib v3.6.2, https://matplotlib.org/</dc:title>
     </cc:Agent>
    </dc:creator>
   </cc:Work>
  </rdf:RDF>
 </metadata>
 <defs>
  <style type="text/css">*{stroke-linejoin: round; stroke-linecap: butt}</style>
 </defs>
 <g id="figure_1">
  <g id="patch_1">
   <path d="M 0 345.6 
L 460.8 345.6 
L 460.8 0 
L 0 0 
z
" style="fill: #ffffff"/>
  </g>
  <g id="axes_1">
   <g id="patch_2">
    <path d="M 57.6 307.584 
L 414.72 307.584 
L 414.72 41.472 
L 57.6 41.472 
z
" style="fill: #e5e5e5"/>
   </g>
   <g id="matplotlib.axis_1">
    <g id="xtick_1">
     <g id="line2d_1">
      <path d="M 73.516854 307.584 
L 73.516854 41.472 
" clip-path="url(#p5e98f7b4a6)" style="fill: none; stroke: #ffffff; stroke-width: 0.8; stroke-linecap: square"/>
     </g>
     <g id="line2d_2">
      <defs>
       <path id="mc980b5893b" d="M 0 0 
L 0 3.5 
" style="stroke: #555555; stroke-width: 0.8"/>
      </defs>
      <g>
       <use xlink:href="#mc980b5893b" x="73.516854" y="307.584" style="fill: #555555; stroke: #555555; stroke-width: 0.8"/>
      </g>
     </g>
     <g id="text_1">
      <text style="fill: #555555; font: 10px 'DejaVu Sans', 'Bitstream Vera Sans', 'Computer Modern Sans Serif', 'Lucida Grande', 'Verdana', 'Geneva', 'Lucid', 'Arial', 'Helvetica', 'Avant Garde', sans-serif; text-anchor: middle" x="73.516854" y="322.182437" transform="rotate(-0 73.516854 322.182437)">0.0</text>
     </g>
    </g>
    <g id="xtick_2">
     <g id="line2d_3">
      <path d="M 140.427385 307.584 
L 140.427385 41.472 
" clip-path="url(#p5e98f7b4a6)" style="fill: none; stroke: #ffffff; stroke-width: 0.8; stroke-linecap: square"/>
     </g>
     <g id="line2d_4">
      <g>
       <use xlink:href="#mc980b5893b" x="140.427385" y="307.584" style="fill: #555555; stroke: #555555; stroke-width: 0.8"/>
      </g>
     </g>
     <g id="text_2">
      <text style="fill: #555555; font: 10px 'DejaVu Sans', 'Bitstream Vera Sans', 'Computer Modern Sans Serif', 'Lucida Grande', 'Verdana', 'Geneva', 'Lucid', 'Arial', 'Helvetica', 'Avant Garde', sans-serif; text-anchor: middle" x="140.427385" y="322.182437" transform="rotate(-0 140.427385 322.182437)">0.2</text>
     </g>
    </g>
    <g id="xtick_3">
     <g id="line2d_5">
      <path d="M 207.337916 307.584 
L 207.337916 41.472 
" clip-path="url(#p5e98f7b4a6)" style="fill: none; stroke: #ffffff; stroke-width: 0.8; stroke-linecap: square"/>
     </g>
     <g id="line2d_6">
      <g>
       <use xlink:href="#mc980b5893b" x="207.337916" y="307.584" style="fill: #555555; stroke: #555555; stroke-width: 0.8"/>
      </g>
     </g>
     <g id="text_3">
      <text style="fill: #555555; font: 10px 'DejaVu Sans', 'Bitstream Vera Sans', 'Computer Modern Sans Serif', 'Lucida Grande', 'Verdana', 'Geneva', 'Lucid', 'Arial', 'Helvetica', 'Avant Garde', sans-serif; text-anchor: middle" x="207.337916" y="322.182437" transform="rotate(-0 207.337916 322.182437)">0.4</text>
     </g>
    </g>
    <g id="xtick_4">
     <g id="line2d_7">
      <path d="M 274.248446 307.584 
L 274.248446 41.472 
" clip-path="url(#p5e98f7b4a6)" style="fill: none; stroke: #ffffff; stroke-width: 0.8; stroke-linecap: square"/>
     </g>
     <g id="line2d_8">
      <g>
       <use xlink:href="#mc980b5893b" x="274.248446" y="307.584" style="fill: #555555; stroke: #555555; stroke-width: 0.8"/>
      </g>
     </g>
     <g id="text_4">
      <text style="fill: #555555; font: 10px 'DejaVu Sans', 'Bitstream Vera Sans', 'Computer Modern Sans Serif', 'Lucida Grande', 'Verdana', 'Geneva', 'Lucid', 'Arial', 'Helvetica', 'Avant Garde', sans-serif; text-anchor: middle" x="274.248446" y="322.182437" transform="rotate(-0 274.248446 322.182437)">0.6</text>
     </g>
    </g>
    <g id="xtick_5">
     <g id="line2d_9">
      <path d="M 341.158977 307.584 
L 341.158977 41.472 
" clip-path="url(#p5e98f7b4a6)" style="fill: none; stroke: #ffffff; stroke-width: 0.8; stroke-linecap: square"/>
     </g>
     <g id="line2d_10">
      <g>
       <use xlink:href="#mc980b5893b" x="341.158977" y="307.584" style="fill: #555555; stroke: #555555; stroke-width: 0.8"/>
      </g>
     </g>
     <g id="text_5">
      <text style="fill: #555555; font: 10px 'DejaVu Sans', 'Bitstream Vera Sans', 'Computer Modern Sans Serif', 'Lucida Grande', 'Verdana', 'Geneva', 'Lucid', 'Arial', 'Helvetica', 'Avant Garde', sans-serif; text-anchor: middle" x="341.158977" y="322.182437" transform="rotate(-0 341.158977 322.182437)">0.8</text>
     </g>
    </g>
    <g id="xtick_6">
     <g id="line2d_11">
      <path d="M 408.069507 307.584 
L 408.069507 41.472 
" clip-path="url(#p5e98f7b4a6)" style="fill: none; stroke: #ffffff; stroke-width: 0.8; stroke-linecap: square"/>
     </g>
     <g id="line2d_12">
      <g>
       <use xlink:href="#mc980b5893b" x="408.069507" y="307.584" style="fill: #555555; stroke: #555555; stroke-width: 0.8"/>
      </g>
     </g>
     <g id="text_6">
      <text style="fill: #555555; font: 10px 'DejaVu Sans', 'Bitstream Vera Sans', 'Computer Modern Sans Serif', 'Lucida Grande', 'Verdana', 'Geneva', 'Lucid', 'Arial', 'Helvetica', 'Avant Garde', sans-serif; text-anchor: middle" x="408.069507" y="322.182437" transform="rotate(-0 408.069507 322.182437)">1.0</text>
     </g>
    </g>
    <g id="text_7">
     <text style="fill: #555555; font: 12px 'DejaVu Sans', 'Bitstream Vera Sans', 'Computer Modern Sans Serif', 'Lucida Grande', 'Verdana', 'Geneva', 'Lucid', 'Arial', 'Helvetica', 'Avant Garde', sans-serif; text-anchor: middle" x="236.16" y="337.38025" transform="rotate(-0 236.16 337.38025)">Recall probability</text>
    </g>
   </g>
   <g id="matplotlib.axis_2">
    <g id="ytick_1">
     <g id="line2d_13">
      <path d="M 57.6 307.584 
L 414.72 307.584 
" clip-path="url(#p5e98f7b4a6)" style="fill: none; stroke: #ffffff; stroke-width: 0.8; stroke-linecap: square"/>
     </g>
     <g id="line2d_14">
      <defs>
       <path id="m4797408bd9" d="M 0 0 
L -3.5 0 
" style="stroke: #555555; stroke-width: 0.8"/>
      </defs>
      <g>
       <use xlink:href="#m4797408bd9" x="57.6" y="307.584" style="fill: #555555; stroke: #555555; stroke-width: 0.8"/>
      </g>
     </g>
     <g id="text_8">
      <text style="fill: #555555; font: 10px 'DejaVu Sans', 'Bitstream Vera Sans', 'Computer Modern Sans Serif', 'Lucida Grande', 'Verdana', 'Geneva', 'Lucid', 'Arial', 'Helvetica', 'Avant Garde', sans-serif; text-anchor: end" x="50.6" y="311.383219" transform="rotate(-0 50.6 311.383219)">0</text>
     </g>
    </g>
    <g id="ytick_2">
     <g id="line2d_15">
      <path d="M 57.6 272.620482 
L 414.72 272.620482 
" clip-path="url(#p5e98f7b4a6)" style="fill: none; stroke: #ffffff; stroke-width: 0.8; stroke-linecap: square"/>
     </g>
     <g id="line2d_16">
      <g>
       <use xlink:href="#m4797408bd9" x="57.6" y="272.620482" style="fill: #555555; stroke: #555555; stroke-width: 0.8"/>
      </g>
     </g>
     <g id="text_9">
      <text style="fill: #555555; font: 10px 'DejaVu Sans', 'Bitstream Vera Sans', 'Computer Modern Sans Serif', 'Lucida Grande', 'Verdana', 'Geneva', 'Lucid', 'Arial', 'Helvetica', 'Avant Garde', sans-serif; text-anchor: end" x="50.6" y="276.419701" transform="rotate(-0 50.6 276.419701)">1</text>
     </g>
    </g>
    <g id="ytick_3">
     <g id="line2d_17">
      <path d="M 57.6 237.656964 
L 414.72 237.656964 
" clip-path="url(#p5e98f7b4a6)" style="fill: none; stroke: #ffffff; stroke-width: 0.8; stroke-linecap: square"/>
     </g>
     <g id="line2d_18">
      <g>
       <use xlink:href="#m4797408bd9" x="57.6" y="237.656964" style="fill: #555555; stroke: #555555; stroke-width: 0.8"/>
      </g>
     </g>
     <g id="text_10">
      <text style="fill: #555555; font: 10px 'DejaVu Sans', 'Bitstream Vera Sans', 'Computer Modern Sans Serif', 'Lucida Grande', 'Verdana', 'Geneva', 'Lucid', 'Arial', 'Helvetica', 'Avant Garde', sans-serif; text-anchor: end" x="50.6" y="241.456183" transform="rotate(-0 50.6 241.456183)">2</text>
     </g>
    </g>
    <g id="ytick_4">
     <g id="line2d_19">
      <path d="M 57.6 202.693446 
L 414.72 202.693446 
" clip-path="url(#p5e98f7b4a6)" style="fill: none; stroke: #ffffff; stroke-width: 0.8; stroke-linecap: square"/>
     </g>
     <g id="line2d_20">
      <g>
       <use xlink:href="#m4797408bd9" x="57.6" y="202.693446" style="fill: #555555; stroke: #555555; stroke-width: 0.8"/>
      </g>
     </g>
     <g id="text_11">
      <text style="fill: #555555; font: 10px 'DejaVu Sans', 'Bitstream Vera Sans', 'Computer Modern Sans Serif', 'Lucida Grande', 'Verdana', 'Geneva', 'Lucid', 'Arial', 'Helvetica', 'Avant Garde', sans-serif; text-anchor: end" x="50.6" y="206.492665" transform="rotate(-0 50.6 206.492665)">3</text>
     </g>
    </g>
    <g id="ytick_5">
     <g id="line2d_21">
      <path d="M 57.6 167.729929 
L 414.72 167.729929 
" clip-path="url(#p5e98f7b4a6)" style="fill: none; stroke: #ffffff; stroke-width: 0.8; stroke-linecap: square"/>
     </g>
     <g id="line2d_22">
      <g>
       <use xlink:href="#m4797408bd9" x="57.6" y="167.729929" style="fill: #555555; stroke: #555555; stroke-width: 0.8"/>
      </g>
     </g>
     <g id="text_12">
      <text style="fill: #555555; font: 10px 'DejaVu Sans', 'Bitstream Vera Sans', 'Computer Modern Sans Serif', 'Lucida Grande', 'Verdana', 'Geneva', 'Lucid', 'Arial', 'Helvetica', 'Avant Garde', sans-serif; text-anchor: end" x="50.6" y="171.529147" transform="rotate(-0 50.6 171.529147)">4</text>
     </g>
    </g>
    <g id="ytick_6">
     <g id="line2d_23">
      <path d="M 57.6 132.766411 
L 414.72 132.766411 
" clip-path="url(#p5e98f7b4a6)" style="fill: none; stroke: #ffffff; stroke-width: 0.8; stroke-linecap: square"/>
     </g>
     <g id="line2d_24">
      <g>
       <use xlink:href="#m4797408bd9" x="57.6" y="132.766411" style="fill: #555555; stroke: #555555; stroke-width: 0.8"/>
      </g>
     </g>
     <g id="text_13">
      <text style="fill: #555555; font: 10px 'DejaVu Sans', 'Bitstream Vera Sans', 'Computer Modern Sans Serif', 'Lucida Grande', 'Verdana', 'Geneva', 'Lucid', 'Arial', 'Helvetica', 'Avant Garde', sans-serif; text-anchor: end" x="50.6" y="136.565629" transform="rotate(-0 50.6 136.565629)">5</text>
     </g>
    </g>
    <g id="ytick_7">
     <g id="line2d_25">
      <path d="M 57.6 97.802893 
L 414.72 97.802893 
" clip-path="url(#p5e98f7b4a6)" style="fill: none; stroke: #ffffff; stroke-width: 0.8; stroke-linecap: square"/>
     </g>
     <g id="line2d_26">
      <g>
       <use xlink:href="#m4797408bd9" x="57.6" y="97.802893" style="fill: #555555; stroke: #555555; stroke-width: 0.8"/>
      </g>
     </g>
     <g id="text_14">
      <text style="fill: #555555; font: 10px 'DejaVu Sans', 'Bitstream Vera Sans', 'Computer Modern Sans Serif', 'Lucida Grande', 'Verdana', 'Geneva', 'Lucid', 'Arial', 'Helvetica', 'Avant Garde', sans-serif; text-anchor: end" x="50.6" y="101.602112" transform="rotate(-0 50.6 101.602112)">6</text>
     </g>
    </g>
    <g id="ytick_8">
     <g id="line2d_27">
      <path d="M 57.6 62.839375 
L 414.72 62.839375 
" clip-path="url(#p5e98f7b4a6)" style="fill: none; stroke: #ffffff; stroke-width: 0.8; stroke-linecap: square"/>
     </g>
     <g id="line2d_28">
      <g>
       <use xlink:href="#m4797408bd9" x="57.6" y="62.839375" style="fill: #555555; stroke: #555555; stroke-width: 0.8"/>
      </g>
     </g>
     <g id="text_15">
      <text style="fill: #555555; font: 10px 'DejaVu Sans', 'Bitstream Vera Sans', 'Computer Modern Sans Serif', 'Lucida Grande', 'Verdana', 'Geneva', 'Lucid', 'Arial', 'Helvetica', 'Avant Garde', sans-serif; text-anchor: end" x="50.6" y="66.638594" transform="rotate(-0 50.6 66.638594)">7</text>
     </g>
    </g>
    <g id="text_16">
     <text style="fill: #555555; font: 12px 'DejaVu Sans', 'Bitstream Vera Sans', 'Computer Modern Sans Serif', 'Lucida Grande', 'Verdana', 'Geneva', 'Lucid', 'Arial', 'Helvetica', 'Avant Garde', sans-serif; text-anchor: middle" x="37.741875" y="174.528" transform="rotate(-90 37.741875 174.528)">Probability of recall probability</text>
    </g>
   </g>
   <g id="patch_3">
    <path d="M 232.334749 307.584 
L 240.642375 307.584 
L 240.642375 307.52768 
L 232.334749 307.52768 
z
" clip-path="url(#p5e98f7b4a6)" style="fill: #e24a33; opacity: 0.25"/>
   </g>
   <g id="patch_4">
    <path d="M 240.642375 307.584 
L 248.950001 307.584 
L 248.950001 307.584 
L 240.642375 307.584 
z
" clip-path="url(#p5e98f7b4a6)" style="fill: #e24a33; opacity: 0.25"/>
   </g>
   <g id="patch_5">
    <path d="M 248.950001 307.584 
L 257.257628 307.584 
L 257.257628 307.55584 
L 248.950001 307.55584 
z
" clip-path="url(#p5e98f7b4a6)" style="fill: #e24a33; opacity: 0.25"/>
   </g>
   <g id="patch_6">
    <path d="M 257.257628 307.584 
L 265.565254 307.584 
L 265.565254 307.4432 
L 257.257628 307.4432 
z
" clip-path="url(#p5e98f7b4a6)" style="fill: #e24a33; opacity: 0.25"/>
   </g>
   <g id="patch_7">
    <path d="M 265.565254 307.584 
L 273.87288 307.584 
L 273.87288 307.0208 
L 265.565254 307.0208 
z
" clip-path="url(#p5e98f7b4a6)" style="fill: #e24a33; opacity: 0.25"/>
   </g>
   <g id="patch_8">
    <path d="M 273.87288 307.584 
L 282.180506 307.584 
L 282.180506 305.78176 
L 273.87288 305.78176 
z
" clip-path="url(#p5e98f7b4a6)" style="fill: #e24a33; opacity: 0.25"/>
   </g>
   <g id="patch_9">
    <path d="M 282.180506 307.584 
L 290.488132 307.584 
L 290.488132 302.28992 
L 282.180506 302.28992 
z
" clip-path="url(#p5e98f7b4a6)" style="fill: #e24a33; opacity: 0.25"/>
   </g>
   <g id="patch_10">
    <path d="M 290.488132 307.584 
L 298.795758 307.584 
L 298.795758 293.95456 
L 290.488132 293.95456 
z
" clip-path="url(#p5e98f7b4a6)" style="fill: #e24a33; opacity: 0.25"/>
   </g>
   <g id="patch_11">
    <path d="M 298.795758 307.584 
L 307.103385 307.584 
L 307.103385 280.71936 
L 298.795758 280.71936 
z
" clip-path="url(#p5e98f7b4a6)" style="fill: #e24a33; opacity: 0.25"/>
   </g>
   <g id="patch_12">
    <path d="M 307.103385 307.584 
L 315.411011 307.584 
L 315.411011 253.12256 
L 307.103385 253.12256 
z
" clip-path="url(#p5e98f7b4a6)" style="fill: #e24a33; opacity: 0.25"/>
   </g>
   <g id="patch_13">
    <path d="M 315.411011 307.584 
L 323.718637 307.584 
L 323.718637 209.64352 
L 315.411011 209.64352 
z
" clip-path="url(#p5e98f7b4a6)" style="fill: #e24a33; opacity: 0.25"/>
   </g>
   <g id="patch_14">
    <path d="M 323.718637 307.584 
L 332.026263 307.584 
L 332.026263 156.3648 
L 323.718637 156.3648 
z
" clip-path="url(#p5e98f7b4a6)" style="fill: #e24a33; opacity: 0.25"/>
   </g>
   <g id="patch_15">
    <path d="M 332.026263 307.584 
L 340.333889 307.584 
L 340.333889 97.73568 
L 332.026263 97.73568 
z
" clip-path="url(#p5e98f7b4a6)" style="fill: #e24a33; opacity: 0.25"/>
   </g>
   <g id="patch_16">
    <path d="M 340.333889 307.584 
L 348.641516 307.584 
L 348.641516 54.144 
L 340.333889 54.144 
z
" clip-path="url(#p5e98f7b4a6)" style="fill: #e24a33; opacity: 0.25"/>
   </g>
   <g id="patch_17">
    <path d="M 348.641516 307.584 
L 356.949142 307.584 
L 356.949142 67.21024 
L 348.641516 67.21024 
z
" clip-path="url(#p5e98f7b4a6)" style="fill: #e24a33; opacity: 0.25"/>
   </g>
   <g id="patch_18">
    <path d="M 356.949142 307.584 
L 365.256768 307.584 
L 365.256768 115.87072 
L 356.949142 115.87072 
z
" clip-path="url(#p5e98f7b4a6)" style="fill: #e24a33; opacity: 0.25"/>
   </g>
   <g id="patch_19">
    <path d="M 365.256768 307.584 
L 373.564394 307.584 
L 373.564394 198.6048 
L 365.256768 198.6048 
z
" clip-path="url(#p5e98f7b4a6)" style="fill: #e24a33; opacity: 0.25"/>
   </g>
   <g id="patch_20">
    <path d="M 373.564394 307.584 
L 381.87202 307.584 
L 381.87202 265.344 
L 373.564394 265.344 
z
" clip-path="url(#p5e98f7b4a6)" style="fill: #e24a33; opacity: 0.25"/>
   </g>
   <g id="patch_21">
    <path d="M 381.87202 307.584 
L 390.179647 307.584 
L 390.179647 298.82624 
L 381.87202 298.82624 
z
" clip-path="url(#p5e98f7b4a6)" style="fill: #e24a33; opacity: 0.25"/>
   </g>
   <g id="patch_22">
    <path d="M 390.179647 307.584 
L 398.487273 307.584 
L 398.487273 306.93632 
L 390.179647 306.93632 
z
" clip-path="url(#p5e98f7b4a6)" style="fill: #e24a33; opacity: 0.25"/>
   </g>
   <g id="patch_23">
    <path d="M 112.653416 307.584 
L 125.287359 307.584 
L 125.287359 307.324762 
L 112.653416 307.324762 
z
" clip-path="url(#p5e98f7b4a6)" style="fill: #348abd; opacity: 0.25"/>
   </g>
   <g id="patch_24">
    <path d="M 125.287359 307.584 
L 137.921302 307.584 
L 137.921302 306.565565 
L 125.287359 306.565565 
z
" clip-path="url(#p5e98f7b4a6)" style="fill: #348abd; opacity: 0.25"/>
   </g>
   <g id="patch_25">
    <path d="M 137.921302 307.584 
L 150.555246 307.584 
L 150.555246 304.084287 
L 137.921302 304.084287 
z
" clip-path="url(#p5e98f7b4a6)" style="fill: #348abd; opacity: 0.25"/>
   </g>
   <g id="patch_26">
    <path d="M 150.555246 307.584 
L 163.189189 307.584 
L 163.189189 298.529186 
L 150.555246 298.529186 
z
" clip-path="url(#p5e98f7b4a6)" style="fill: #348abd; opacity: 0.25"/>
   </g>
   <g id="patch_27">
    <path d="M 163.189189 307.584 
L 175.823132 307.584 
L 175.823132 286.474618 
L 163.189189 286.474618 
z
" clip-path="url(#p5e98f7b4a6)" style="fill: #348abd; opacity: 0.25"/>
   </g>
   <g id="patch_28">
    <path d="M 175.823132 307.584 
L 188.457075 307.584 
L 188.457075 269.994486 
L 175.823132 269.994486 
z
" clip-path="url(#p5e98f7b4a6)" style="fill: #348abd; opacity: 0.25"/>
   </g>
   <g id="patch_29">
    <path d="M 188.457075 307.584 
L 201.091019 307.584 
L 201.091019 246.940818 
L 188.457075 246.940818 
z
" clip-path="url(#p5e98f7b4a6)" style="fill: #348abd; opacity: 0.25"/>
   </g>
   <g id="patch_30">
    <path d="M 201.091019 307.584 
L 213.724962 307.584 
L 213.724962 223.905668 
L 201.091019 223.905668 
z
" clip-path="url(#p5e98f7b4a6)" style="fill: #348abd; opacity: 0.25"/>
   </g>
   <g id="patch_31">
    <path d="M 213.724962 307.584 
L 226.358905 307.584 
L 226.358905 198.000382 
L 213.724962 198.000382 
z
" clip-path="url(#p5e98f7b4a6)" style="fill: #348abd; opacity: 0.25"/>
   </g>
   <g id="patch_32">
    <path d="M 226.358905 307.584 
L 238.992848 307.584 
L 238.992848 187.427174 
L 226.358905 187.427174 
z
" clip-path="url(#p5e98f7b4a6)" style="fill: #348abd; opacity: 0.25"/>
   </g>
   <g id="patch_33">
    <path d="M 238.992848 307.584 
L 251.626792 307.584 
L 251.626792 187.279038 
L 238.992848 187.279038 
z
" clip-path="url(#p5e98f7b4a6)" style="fill: #348abd; opacity: 0.25"/>
   </g>
   <g id="patch_34">
    <path d="M 251.626792 307.584 
L 264.260735 307.584 
L 264.260735 197.407838 
L 251.626792 197.407838 
z
" clip-path="url(#p5e98f7b4a6)" style="fill: #348abd; opacity: 0.25"/>
   </g>
   <g id="patch_35">
    <path d="M 264.260735 307.584 
L 276.894678 307.584 
L 276.894678 214.776786 
L 264.260735 214.776786 
z
" clip-path="url(#p5e98f7b4a6)" style="fill: #348abd; opacity: 0.25"/>
   </g>
   <g id="patch_36">
    <path d="M 276.894678 307.584 
L 289.528621 307.584 
L 289.528621 239.496983 
L 276.894678 239.496983 
z
" clip-path="url(#p5e98f7b4a6)" style="fill: #348abd; opacity: 0.25"/>
   </g>
   <g id="patch_37">
    <path d="M 289.528621 307.584 
L 302.162565 307.584 
L 302.162565 263.180229 
L 289.528621 263.180229 
z
" clip-path="url(#p5e98f7b4a6)" style="fill: #348abd; opacity: 0.25"/>
   </g>
   <g id="patch_38">
    <path d="M 302.162565 307.584 
L 314.796508 307.584 
L 314.796508 282.956387 
L 302.162565 282.956387 
z
" clip-path="url(#p5e98f7b4a6)" style="fill: #348abd; opacity: 0.25"/>
   </g>
   <g id="patch_39">
    <path d="M 314.796508 307.584 
L 327.430451 307.584 
L 327.430451 295.455364 
L 314.796508 295.455364 
z
" clip-path="url(#p5e98f7b4a6)" style="fill: #348abd; opacity: 0.25"/>
   </g>
   <g id="patch_40">
    <path d="M 327.430451 307.584 
L 340.064394 307.584 
L 340.064394 302.676994 
L 327.430451 302.676994 
z
" clip-path="url(#p5e98f7b4a6)" style="fill: #348abd; opacity: 0.25"/>
   </g>
   <g id="patch_41">
    <path d="M 340.064394 307.584 
L 352.698338 307.584 
L 352.698338 306.176708 
L 340.064394 306.176708 
z
" clip-path="url(#p5e98f7b4a6)" style="fill: #348abd; opacity: 0.25"/>
   </g>
   <g id="patch_42">
    <path d="M 352.698338 307.584 
L 365.332281 307.584 
L 365.332281 307.176626 
L 352.698338 307.176626 
z
" clip-path="url(#p5e98f7b4a6)" style="fill: #348abd; opacity: 0.25"/>
   </g>
   <g id="patch_43">
    <path d="M 73.832727 307.584 
L 84.968468 307.584 
L 84.968468 249.979299 
L 73.832727 249.979299 
z
" clip-path="url(#p5e98f7b4a6)" style="fill: #988ed5; opacity: 0.25"/>
   </g>
   <g id="patch_44">
    <path d="M 84.968468 307.584 
L 96.104209 307.584 
L 96.104209 152.269793 
L 84.968468 152.269793 
z
" clip-path="url(#p5e98f7b4a6)" style="fill: #988ed5; opacity: 0.25"/>
   </g>
   <g id="patch_45">
    <path d="M 96.104209 307.584 
L 107.23995 307.584 
L 107.23995 124.055675 
L 96.104209 124.055675 
z
" clip-path="url(#p5e98f7b4a6)" style="fill: #988ed5; opacity: 0.25"/>
   </g>
   <g id="patch_46">
    <path d="M 107.23995 307.584 
L 118.375691 307.584 
L 118.375691 138.320296 
L 107.23995 138.320296 
z
" clip-path="url(#p5e98f7b4a6)" style="fill: #988ed5; opacity: 0.25"/>
   </g>
   <g id="patch_47">
    <path d="M 118.375691 307.584 
L 129.511432 307.584 
L 129.511432 164.139471 
L 118.375691 164.139471 
z
" clip-path="url(#p5e98f7b4a6)" style="fill: #988ed5; opacity: 0.25"/>
   </g>
   <g id="patch_48">
    <path d="M 129.511432 307.584 
L 140.647173 307.584 
L 140.647173 199.91657 
L 129.511432 199.91657 
z
" clip-path="url(#p5e98f7b4a6)" style="fill: #988ed5; opacity: 0.25"/>
   </g>
   <g id="patch_49">
    <path d="M 140.647173 307.584 
L 151.782914 307.584 
L 151.782914 230.000426 
L 140.647173 230.000426 
z
" clip-path="url(#p5e98f7b4a6)" style="fill: #988ed5; opacity: 0.25"/>
   </g>
   <g id="patch_50">
    <path d="M 151.782914 307.584 
L 162.918655 307.584 
L 162.918655 252.920458 
L 151.782914 252.920458 
z
" clip-path="url(#p5e98f7b4a6)" style="fill: #988ed5; opacity: 0.25"/>
   </g>
   <g id="patch_51">
    <path d="M 162.918655 307.584 
L 174.054396 307.584 
L 174.054396 270.71447 
L 162.918655 270.71447 
z
" clip-path="url(#p5e98f7b4a6)" style="fill: #988ed5; opacity: 0.25"/>
   </g>
   <g id="patch_52">
    <path d="M 174.054396 307.584 
L 185.190137 307.584 
L 185.190137 283.067338 
L 174.054396 283.067338 
z
" clip-path="url(#p5e98f7b4a6)" style="fill: #988ed5; opacity: 0.25"/>
   </g>
   <g id="patch_53">
    <path d="M 185.190137 307.584 
L 196.325878 307.584 
L 196.325878 291.5967 
L 185.190137 291.5967 
z
" clip-path="url(#p5e98f7b4a6)" style="fill: #988ed5; opacity: 0.25"/>
   </g>
   <g id="patch_54">
    <path d="M 196.325878 307.584 
L 207.461619 307.584 
L 207.461619 297.647084 
L 196.325878 297.647084 
z
" clip-path="url(#p5e98f7b4a6)" style="fill: #988ed5; opacity: 0.25"/>
   </g>
   <g id="patch_55">
    <path d="M 207.461619 307.584 
L 218.59736 307.584 
L 218.59736 300.861351 
L 207.461619 300.861351 
z
" clip-path="url(#p5e98f7b4a6)" style="fill: #988ed5; opacity: 0.25"/>
   </g>
   <g id="patch_56">
    <path d="M 218.59736 307.584 
L 229.733101 307.584 
L 229.733101 304.369733 
L 218.59736 304.369733 
z
" clip-path="url(#p5e98f7b4a6)" style="fill: #988ed5; opacity: 0.25"/>
   </g>
   <g id="patch_57">
    <path d="M 229.733101 307.584 
L 240.868842 307.584 
L 240.868842 305.588213 
L 229.733101 305.588213 
z
" clip-path="url(#p5e98f7b4a6)" style="fill: #988ed5; opacity: 0.25"/>
   </g>
   <g id="patch_58">
    <path d="M 240.868842 307.584 
L 252.004583 307.584 
L 252.004583 306.407536 
L 240.868842 306.407536 
z
" clip-path="url(#p5e98f7b4a6)" style="fill: #988ed5; opacity: 0.25"/>
   </g>
   <g id="patch_59">
    <path d="M 252.004583 307.584 
L 263.140324 307.584 
L 263.140324 307.079801 
L 252.004583 307.079801 
z
" clip-path="url(#p5e98f7b4a6)" style="fill: #988ed5; opacity: 0.25"/>
   </g>
   <g id="patch_60">
    <path d="M 263.140324 307.584 
L 274.276065 307.584 
L 274.276065 307.310892 
L 263.140324 307.310892 
z
" clip-path="url(#p5e98f7b4a6)" style="fill: #988ed5; opacity: 0.25"/>
   </g>
   <g id="patch_61">
    <path d="M 274.276065 307.584 
L 285.411806 307.584 
L 285.411806 307.478959 
L 274.276065 307.478959 
z
" clip-path="url(#p5e98f7b4a6)" style="fill: #988ed5; opacity: 0.25"/>
   </g>
   <g id="patch_62">
    <path d="M 285.411806 307.584 
L 296.547547 307.584 
L 296.547547 307.541983 
L 285.411806 307.541983 
z
" clip-path="url(#p5e98f7b4a6)" style="fill: #988ed5; opacity: 0.25"/>
   </g>
   <g id="patch_63">
    <path d="M 57.6 307.584 
L 57.6 41.472 
" style="fill: none; stroke: #ffffff; stroke-linejoin: miter; stroke-linecap: square"/>
   </g>
   <g id="patch_64">
    <path d="M 414.72 307.584 
L 414.72 41.472 
" style="fill: none; stroke: #ffffff; stroke-linejoin: miter; stroke-linecap: square"/>
   </g>
   <g id="patch_65">
    <path d="M 57.6 307.584 
L 414.72 307.584 
" style="fill: none; stroke: #ffffff; stroke-linejoin: miter; stroke-linecap: square"/>
   </g>
   <g id="patch_66">
    <path d="M 57.6 41.472 
L 414.72 41.472 
" style="fill: none; stroke: #ffffff; stroke-linejoin: miter; stroke-linecap: square"/>
   </g>
   <g id="text_17">
    <!-- Histograms of $p_t^δ$ for different δ -->
    <g transform="translate(123.336 35.472)">
     <text>
      <tspan style="font: 14.4px 'DejaVu Sans'" x="0 10.821075 14.819244 22.316696 27.959106 36.763519 45.898193 51.814651 60.633118 74.651321 82.148773 86.723129 95.527542 100.593765 121.529009 126.103365 131.169589 139.974001 145.89046 150.464816 159.59949 163.597659 168.663882 173.730105 182.583712 188.50017 197.353777 206.474398 212.116808 216.691165" y="-0.006250000000001421">Histograms of  for different δ</tspan>
      <tspan style="font: oblique 14.4px 'DejaVu Sans'" x="105.168121" y="-0.006250000000001421">p</tspan>
      <tspan style="font: oblique 10.08px 'DejaVu Sans'" x="114.302795 114.97217" y="3.9312499999999986 -5.518750000000001">tδ</tspan>
     </text>
    </g>
   </g>
   <g id="legend_1">
    <g id="patch_67">
     <path d="M 64.6 93.506375 
L 172.129687 93.506375 
Q 174.129687 93.506375 174.129687 91.506375 
L 174.129687 48.472 
Q 174.129687 46.472 172.129687 46.472 
L 64.6 46.472 
Q 62.6 46.472 62.6 48.472 
L 62.6 91.506375 
Q 62.6 93.506375 64.6 93.506375 
z
" style="fill: #e5e5e5; opacity: 0.8; stroke: #cccccc; stroke-width: 0.5; stroke-linejoin: miter"/>
    </g>
    <g id="patch_68">
     <path d="M 66.6 58.070438 
L 86.6 58.070438 
L 86.6 51.070438 
L 66.6 51.070438 
z
" style="fill: #e24a33; opacity: 0.25"/>
    </g>
    <g id="text_18">
     <text style="font: 10px 'DejaVu Sans', 'Bitstream Vera Sans', 'Computer Modern Sans Serif', 'Lucida Grande', 'Verdana', 'Geneva', 'Lucid', 'Arial', 'Helvetica', 'Avant Garde', sans-serif; text-anchor: start" x="94.6" y="58.070438" transform="rotate(-0 94.6 58.070438)">δ=0.3 (right)</text>
    </g>
    <g id="patch_69">
     <path d="M 66.6 72.748563 
L 86.6 72.748563 
L 86.6 65.748563 
L 66.6 65.748563 
z
" style="fill: #348abd; opacity: 0.25"/>
    </g>
    <g id="text_19">
     <text style="font: 10px 'DejaVu Sans', 'Bitstream Vera Sans', 'Computer Modern Sans Serif', 'Lucida Grande', 'Verdana', 'Geneva', 'Lucid', 'Arial', 'Helvetica', 'Avant Garde', sans-serif; text-anchor: start" x="94.6" y="72.748563" transform="rotate(-0 94.6 72.748563)">δ=1.0 (middle)</text>
    </g>
    <g id="patch_70">
     <path d="M 66.6 87.426688 
L 86.6 87.426688 
L 86.6 80.426688 
L 66.6 80.426688 
z
" style="fill: #988ed5; opacity: 0.25"/>
    </g>
    <g id="text_20">
     <text style="font: 10px 'DejaVu Sans', 'Bitstream Vera Sans', 'Computer Modern Sans Serif', 'Lucida Grande', 'Verdana', 'Geneva', 'Lucid', 'Arial', 'Helvetica', 'Avant Garde', sans-serif; text-anchor: start" x="94.6" y="87.426688" transform="rotate(-0 94.6 87.426688)">δ=3.0 (left)</text>
    </g>
   </g>
  </g>
 </g>
 <defs>
  <clipPath id="p5e98f7b4a6">
   <rect x="57.6" y="41.472" width="357.12" height="266.112"/>
  </clipPath>
 </defs>
</svg>
