<?xml version="1.0" encoding="utf-8" standalone="no"?>
<!DOCTYPE svg PUBLIC "-//W3C//DTD SVG 1.1//EN"
  "http://www.w3.org/Graphics/SVG/1.1/DTD/svg11.dtd">
<!-- Created with matplotlib (http://matplotlib.org/) -->
<svg height="288pt" version="1.1" viewBox="0 0 432 288" width="432pt" xmlns="http://www.w3.org/2000/svg" xmlns:xlink="http://www.w3.org/1999/xlink">
 <defs>
  <style type="text/css">
*{stroke-linecap:butt;stroke-linejoin:round;}
  </style>
 </defs>
 <g id="figure_1">
  <g id="patch_1">
   <path d="M 0 288 
L 432 288 
L 432 0 
L 0 0 
z
" style="fill:#ffffff;"/>
  </g>
  <g id="axes_1">
   <g id="patch_2">
    <path d="M 54 252 
L 388.8 252 
L 388.8 34.56 
L 54 34.56 
z
" style="fill:#e5e5e5;"/>
   </g>
   <g id="matplotlib.axis_1">
    <g id="xtick_1">
     <g id="line2d_1">
      <path clip-path="url(#p86a3fba70f)" d="M 68.452848 252 
L 68.452848 34.56 
" style="fill:none;stroke:#ffffff;stroke-linecap:square;stroke-width:0.8;"/>
     </g>
     <g id="line2d_2">
      <defs>
       <path d="M 0 0 
L 0 3.5 
" id="m548a7427c8" style="stroke:#555555;stroke-width:0.8;"/>
      </defs>
      <g>
       <use style="fill:#555555;stroke:#555555;stroke-width:0.8;" x="68.452848" xlink:href="#m548a7427c8" y="252"/>
      </g>
     </g>
     <g id="text_1">
      <text style="fill:#555555;font-family:DejaVu Sans;font-size:10px;font-style:normal;font-weight:400;text-anchor:middle;" transform="rotate(-0, 68.452848, 266.598437)" x="68.452848" y="266.598437">0.0</text>
     </g>
    </g>
    <g id="xtick_2">
     <g id="line2d_3">
      <path clip-path="url(#p86a3fba70f)" d="M 132.217373 252 
L 132.217373 34.56 
" style="fill:none;stroke:#ffffff;stroke-linecap:square;stroke-width:0.8;"/>
     </g>
     <g id="line2d_4">
      <g>
       <use style="fill:#555555;stroke:#555555;stroke-width:0.8;" x="132.217373" xlink:href="#m548a7427c8" y="252"/>
      </g>
     </g>
     <g id="text_2">
      <text style="fill:#555555;font-family:DejaVu Sans;font-size:10px;font-style:normal;font-weight:400;text-anchor:middle;" transform="rotate(-0, 132.217373, 266.598437)" x="132.217373" y="266.598437">0.2</text>
     </g>
    </g>
    <g id="xtick_3">
     <g id="line2d_5">
      <path clip-path="url(#p86a3fba70f)" d="M 195.981897 252 
L 195.981897 34.56 
" style="fill:none;stroke:#ffffff;stroke-linecap:square;stroke-width:0.8;"/>
     </g>
     <g id="line2d_6">
      <g>
       <use style="fill:#555555;stroke:#555555;stroke-width:0.8;" x="195.981897" xlink:href="#m548a7427c8" y="252"/>
      </g>
     </g>
     <g id="text_3">
      <text style="fill:#555555;font-family:DejaVu Sans;font-size:10px;font-style:normal;font-weight:400;text-anchor:middle;" transform="rotate(-0, 195.981897, 266.598437)" x="195.981897" y="266.598437">0.4</text>
     </g>
    </g>
    <g id="xtick_4">
     <g id="line2d_7">
      <path clip-path="url(#p86a3fba70f)" d="M 259.746422 252 
L 259.746422 34.56 
" style="fill:none;stroke:#ffffff;stroke-linecap:square;stroke-width:0.8;"/>
     </g>
     <g id="line2d_8">
      <g>
       <use style="fill:#555555;stroke:#555555;stroke-width:0.8;" x="259.746422" xlink:href="#m548a7427c8" y="252"/>
      </g>
     </g>
     <g id="text_4">
      <text style="fill:#555555;font-family:DejaVu Sans;font-size:10px;font-style:normal;font-weight:400;text-anchor:middle;" transform="rotate(-0, 259.746422, 266.598437)" x="259.746422" y="266.598437">0.6</text>
     </g>
    </g>
    <g id="xtick_5">
     <g id="line2d_9">
      <path clip-path="url(#p86a3fba70f)" d="M 323.510946 252 
L 323.510946 34.56 
" style="fill:none;stroke:#ffffff;stroke-linecap:square;stroke-width:0.8;"/>
     </g>
     <g id="line2d_10">
      <g>
       <use style="fill:#555555;stroke:#555555;stroke-width:0.8;" x="323.510946" xlink:href="#m548a7427c8" y="252"/>
      </g>
     </g>
     <g id="text_5">
      <text style="fill:#555555;font-family:DejaVu Sans;font-size:10px;font-style:normal;font-weight:400;text-anchor:middle;" transform="rotate(-0, 323.510946, 266.598437)" x="323.510946" y="266.598437">0.8</text>
     </g>
    </g>
    <g id="xtick_6">
     <g id="line2d_11">
      <path clip-path="url(#p86a3fba70f)" d="M 387.275471 252 
L 387.275471 34.56 
" style="fill:none;stroke:#ffffff;stroke-linecap:square;stroke-width:0.8;"/>
     </g>
     <g id="line2d_12">
      <g>
       <use style="fill:#555555;stroke:#555555;stroke-width:0.8;" x="387.275471" xlink:href="#m548a7427c8" y="252"/>
      </g>
     </g>
     <g id="text_6">
      <text style="fill:#555555;font-family:DejaVu Sans;font-size:10px;font-style:normal;font-weight:400;text-anchor:middle;" transform="rotate(-0, 387.275471, 266.598437)" x="387.275471" y="266.598437">1.0</text>
     </g>
    </g>
    <g id="text_7">
     <text style="fill:#555555;font-family:DejaVu Sans;font-size:12px;font-style:normal;font-weight:400;text-anchor:middle;" transform="rotate(-0, 221.4, 281.79625)" x="221.4" y="281.79625">π (recall probability)</text>
    </g>
   </g>
   <g id="matplotlib.axis_2">
    <g id="ytick_1">
     <g id="line2d_13">
      <path clip-path="url(#p86a3fba70f)" d="M 54 252 
L 388.8 252 
" style="fill:none;stroke:#ffffff;stroke-linecap:square;stroke-width:0.8;"/>
     </g>
     <g id="line2d_14">
      <defs>
       <path d="M 0 0 
L -3.5 0 
" id="m97b35343f0" style="stroke:#555555;stroke-width:0.8;"/>
      </defs>
      <g>
       <use style="fill:#555555;stroke:#555555;stroke-width:0.8;" x="54" xlink:href="#m97b35343f0" y="252"/>
      </g>
     </g>
     <g id="text_8">
      <text style="fill:#555555;font-family:DejaVu Sans;font-size:10px;font-style:normal;font-weight:400;text-anchor:end;" transform="rotate(-0, 47, 255.799219)" x="47" y="255.799219">0</text>
     </g>
    </g>
    <g id="ytick_2">
     <g id="line2d_15">
      <path clip-path="url(#p86a3fba70f)" d="M 54 225.495221 
L 388.8 225.495221 
" style="fill:none;stroke:#ffffff;stroke-linecap:square;stroke-width:0.8;"/>
     </g>
     <g id="line2d_16">
      <g>
       <use style="fill:#555555;stroke:#555555;stroke-width:0.8;" x="54" xlink:href="#m97b35343f0" y="225.495221"/>
      </g>
     </g>
     <g id="text_9">
      <text style="fill:#555555;font-family:DejaVu Sans;font-size:10px;font-style:normal;font-weight:400;text-anchor:end;" transform="rotate(-0, 47, 229.294439)" x="47" y="229.294439">1</text>
     </g>
    </g>
    <g id="ytick_3">
     <g id="line2d_17">
      <path clip-path="url(#p86a3fba70f)" d="M 54 198.990441 
L 388.8 198.990441 
" style="fill:none;stroke:#ffffff;stroke-linecap:square;stroke-width:0.8;"/>
     </g>
     <g id="line2d_18">
      <g>
       <use style="fill:#555555;stroke:#555555;stroke-width:0.8;" x="54" xlink:href="#m97b35343f0" y="198.990441"/>
      </g>
     </g>
     <g id="text_10">
      <text style="fill:#555555;font-family:DejaVu Sans;font-size:10px;font-style:normal;font-weight:400;text-anchor:end;" transform="rotate(-0, 47, 202.78966)" x="47" y="202.78966">2</text>
     </g>
    </g>
    <g id="ytick_4">
     <g id="line2d_19">
      <path clip-path="url(#p86a3fba70f)" d="M 54 172.485662 
L 388.8 172.485662 
" style="fill:none;stroke:#ffffff;stroke-linecap:square;stroke-width:0.8;"/>
     </g>
     <g id="line2d_20">
      <g>
       <use style="fill:#555555;stroke:#555555;stroke-width:0.8;" x="54" xlink:href="#m97b35343f0" y="172.485662"/>
      </g>
     </g>
     <g id="text_11">
      <text style="fill:#555555;font-family:DejaVu Sans;font-size:10px;font-style:normal;font-weight:400;text-anchor:end;" transform="rotate(-0, 47, 176.284881)" x="47" y="176.284881">3</text>
     </g>
    </g>
    <g id="ytick_5">
     <g id="line2d_21">
      <path clip-path="url(#p86a3fba70f)" d="M 54 145.980883 
L 388.8 145.980883 
" style="fill:none;stroke:#ffffff;stroke-linecap:square;stroke-width:0.8;"/>
     </g>
     <g id="line2d_22">
      <g>
       <use style="fill:#555555;stroke:#555555;stroke-width:0.8;" x="54" xlink:href="#m97b35343f0" y="145.980883"/>
      </g>
     </g>
     <g id="text_12">
      <text style="fill:#555555;font-family:DejaVu Sans;font-size:10px;font-style:normal;font-weight:400;text-anchor:end;" transform="rotate(-0, 47, 149.780102)" x="47" y="149.780102">4</text>
     </g>
    </g>
    <g id="ytick_6">
     <g id="line2d_23">
      <path clip-path="url(#p86a3fba70f)" d="M 54 119.476104 
L 388.8 119.476104 
" style="fill:none;stroke:#ffffff;stroke-linecap:square;stroke-width:0.8;"/>
     </g>
     <g id="line2d_24">
      <g>
       <use style="fill:#555555;stroke:#555555;stroke-width:0.8;" x="54" xlink:href="#m97b35343f0" y="119.476104"/>
      </g>
     </g>
     <g id="text_13">
      <text style="fill:#555555;font-family:DejaVu Sans;font-size:10px;font-style:normal;font-weight:400;text-anchor:end;" transform="rotate(-0, 47, 123.275322)" x="47" y="123.275322">5</text>
     </g>
    </g>
    <g id="ytick_7">
     <g id="line2d_25">
      <path clip-path="url(#p86a3fba70f)" d="M 54 92.971324 
L 388.8 92.971324 
" style="fill:none;stroke:#ffffff;stroke-linecap:square;stroke-width:0.8;"/>
     </g>
     <g id="line2d_26">
      <g>
       <use style="fill:#555555;stroke:#555555;stroke-width:0.8;" x="54" xlink:href="#m97b35343f0" y="92.971324"/>
      </g>
     </g>
     <g id="text_14">
      <text style="fill:#555555;font-family:DejaVu Sans;font-size:10px;font-style:normal;font-weight:400;text-anchor:end;" transform="rotate(-0, 47, 96.770543)" x="47" y="96.770543">6</text>
     </g>
    </g>
    <g id="ytick_8">
     <g id="line2d_27">
      <path clip-path="url(#p86a3fba70f)" d="M 54 66.466545 
L 388.8 66.466545 
" style="fill:none;stroke:#ffffff;stroke-linecap:square;stroke-width:0.8;"/>
     </g>
     <g id="line2d_28">
      <g>
       <use style="fill:#555555;stroke:#555555;stroke-width:0.8;" x="54" xlink:href="#m97b35343f0" y="66.466545"/>
      </g>
     </g>
     <g id="text_15">
      <text style="fill:#555555;font-family:DejaVu Sans;font-size:10px;font-style:normal;font-weight:400;text-anchor:end;" transform="rotate(-0, 47, 70.265764)" x="47" y="70.265764">7</text>
     </g>
    </g>
    <g id="ytick_9">
     <g id="line2d_29">
      <path clip-path="url(#p86a3fba70f)" d="M 54 39.961766 
L 388.8 39.961766 
" style="fill:none;stroke:#ffffff;stroke-linecap:square;stroke-width:0.8;"/>
     </g>
     <g id="line2d_30">
      <g>
       <use style="fill:#555555;stroke:#555555;stroke-width:0.8;" x="54" xlink:href="#m97b35343f0" y="39.961766"/>
      </g>
     </g>
     <g id="text_16">
      <text style="fill:#555555;font-family:DejaVu Sans;font-size:10px;font-style:normal;font-weight:400;text-anchor:end;" transform="rotate(-0, 47, 43.760984)" x="47" y="43.760984">8</text>
     </g>
    </g>
    <g id="text_17">
     <text style="fill:#555555;font-family:DejaVu Sans;font-size:12px;font-style:normal;font-weight:400;text-anchor:middle;" transform="rotate(-90, 34.141875, 143.28)" x="34.141875" y="143.28">Probability(π)</text>
    </g>
   </g>
   <g id="patch_3">
    <path clip-path="url(#p86a3fba70f)" d="M 246.071477 252 
L 252.446994 252 
L 252.446994 251.893965 
L 246.071477 251.893965 
z
" style="fill:#e24a33;opacity:0.25;"/>
   </g>
   <g id="patch_4">
    <path clip-path="url(#p86a3fba70f)" d="M 252.446994 252 
L 258.822511 252 
L 258.822511 251.867457 
L 252.446994 251.867457 
z
" style="fill:#e24a33;opacity:0.25;"/>
   </g>
   <g id="patch_5">
    <path clip-path="url(#p86a3fba70f)" d="M 258.822511 252 
L 265.198028 252 
L 265.198028 251.522844 
L 258.822511 251.522844 
z
" style="fill:#e24a33;opacity:0.25;"/>
   </g>
   <g id="patch_6">
    <path clip-path="url(#p86a3fba70f)" d="M 265.198028 252 
L 271.573545 252 
L 271.573545 250.462497 
L 265.198028 250.462497 
z
" style="fill:#e24a33;opacity:0.25;"/>
   </g>
   <g id="patch_7">
    <path clip-path="url(#p86a3fba70f)" d="M 271.573545 252 
L 277.949062 252 
L 277.949062 248.686417 
L 271.573545 248.686417 
z
" style="fill:#e24a33;opacity:0.25;"/>
   </g>
   <g id="patch_8">
    <path clip-path="url(#p86a3fba70f)" d="M 277.949062 252 
L 284.324579 252 
L 284.324579 245.160764 
L 277.949062 245.160764 
z
" style="fill:#e24a33;opacity:0.25;"/>
   </g>
   <g id="patch_9">
    <path clip-path="url(#p86a3fba70f)" d="M 284.324579 252 
L 290.700097 252 
L 290.700097 237.287689 
L 284.324579 237.287689 
z
" style="fill:#e24a33;opacity:0.25;"/>
   </g>
   <g id="patch_10">
    <path clip-path="url(#p86a3fba70f)" d="M 290.700097 252 
L 297.075614 252 
L 297.075614 223.423656 
L 290.700097 223.423656 
z
" style="fill:#e24a33;opacity:0.25;"/>
   </g>
   <g id="patch_11">
    <path clip-path="url(#p86a3fba70f)" d="M 297.075614 252 
L 303.451131 252 
L 303.451131 197.259601 
L 297.075614 197.259601 
z
" style="fill:#e24a33;opacity:0.25;"/>
   </g>
   <g id="patch_12">
    <path clip-path="url(#p86a3fba70f)" d="M 303.451131 252 
L 309.826648 252 
L 309.826648 160.439061 
L 303.451131 160.439061 
z
" style="fill:#e24a33;opacity:0.25;"/>
   </g>
   <g id="patch_13">
    <path clip-path="url(#p86a3fba70f)" d="M 309.826648 252 
L 316.202165 252 
L 316.202165 119.85429 
L 309.826648 119.85429 
z
" style="fill:#e24a33;opacity:0.25;"/>
   </g>
   <g id="patch_14">
    <path clip-path="url(#p86a3fba70f)" d="M 316.202165 252 
L 322.577682 252 
L 322.577682 78.553785 
L 316.202165 78.553785 
z
" style="fill:#e24a33;opacity:0.25;"/>
   </g>
   <g id="patch_15">
    <path clip-path="url(#p86a3fba70f)" d="M 322.577682 252 
L 328.953199 252 
L 328.953199 46.478297 
L 322.577682 46.478297 
z
" style="fill:#e24a33;opacity:0.25;"/>
   </g>
   <g id="patch_16">
    <path clip-path="url(#p86a3fba70f)" d="M 328.953199 252 
L 335.328716 252 
L 335.328716 44.914286 
L 328.953199 44.914286 
z
" style="fill:#e24a33;opacity:0.25;"/>
   </g>
   <g id="patch_17">
    <path clip-path="url(#p86a3fba70f)" d="M 335.328716 252 
L 341.704233 252 
L 341.704233 70.256572 
L 335.328716 70.256572 
z
" style="fill:#e24a33;opacity:0.25;"/>
   </g>
   <g id="patch_18">
    <path clip-path="url(#p86a3fba70f)" d="M 341.704233 252 
L 348.07975 252 
L 348.07975 126.614 
L 341.704233 126.614 
z
" style="fill:#e24a33;opacity:0.25;"/>
   </g>
   <g id="patch_19">
    <path clip-path="url(#p86a3fba70f)" d="M 348.07975 252 
L 354.455267 252 
L 354.455267 185.3307 
L 348.07975 185.3307 
z
" style="fill:#e24a33;opacity:0.25;"/>
   </g>
   <g id="patch_20">
    <path clip-path="url(#p86a3fba70f)" d="M 354.455267 252 
L 360.830784 252 
L 360.830784 227.32043 
L 354.455267 227.32043 
z
" style="fill:#e24a33;opacity:0.25;"/>
   </g>
   <g id="patch_21">
    <path clip-path="url(#p86a3fba70f)" d="M 360.830784 252 
L 367.206301 252 
L 367.206301 245.849989 
L 360.830784 245.849989 
z
" style="fill:#e24a33;opacity:0.25;"/>
   </g>
   <g id="patch_22">
    <path clip-path="url(#p86a3fba70f)" d="M 367.206301 252 
L 373.581818 252 
L 373.581818 251.390301 
L 367.206301 251.390301 
z
" style="fill:#e24a33;opacity:0.25;"/>
   </g>
   <g id="patch_23">
    <path clip-path="url(#p86a3fba70f)" d="M 113.30205 252 
L 124.723816 252 
L 124.723816 251.881625 
L 113.30205 251.881625 
z
" style="fill:#348abd;opacity:0.25;"/>
   </g>
   <g id="patch_24">
    <path clip-path="url(#p86a3fba70f)" d="M 124.723816 252 
L 136.145582 252 
L 136.145582 251.334141 
L 124.723816 251.334141 
z
" style="fill:#348abd;opacity:0.25;"/>
   </g>
   <g id="patch_25">
    <path clip-path="url(#p86a3fba70f)" d="M 136.145582 252 
L 147.567348 252 
L 147.567348 249.67689 
L 136.145582 249.67689 
z
" style="fill:#348abd;opacity:0.25;"/>
   </g>
   <g id="patch_26">
    <path clip-path="url(#p86a3fba70f)" d="M 147.567348 252 
L 158.989114 252 
L 158.989114 244.927093 
L 147.567348 244.927093 
z
" style="fill:#348abd;opacity:0.25;"/>
   </g>
   <g id="patch_27">
    <path clip-path="url(#p86a3fba70f)" d="M 158.989114 252 
L 170.41088 252 
L 170.41088 237.040358 
L 158.989114 237.040358 
z
" style="fill:#348abd;opacity:0.25;"/>
   </g>
   <g id="patch_28">
    <path clip-path="url(#p86a3fba70f)" d="M 170.41088 252 
L 181.832646 252 
L 181.832646 222.243481 
L 170.41088 222.243481 
z
" style="fill:#348abd;opacity:0.25;"/>
   </g>
   <g id="patch_29">
    <path clip-path="url(#p86a3fba70f)" d="M 181.832646 252 
L 193.254412 252 
L 193.254412 201.661025 
L 181.832646 201.661025 
z
" style="fill:#348abd;opacity:0.25;"/>
   </g>
   <g id="patch_30">
    <path clip-path="url(#p86a3fba70f)" d="M 193.254412 252 
L 204.676178 252 
L 204.676178 180.516288 
L 193.254412 180.516288 
z
" style="fill:#348abd;opacity:0.25;"/>
   </g>
   <g id="patch_31">
    <path clip-path="url(#p86a3fba70f)" d="M 204.676178 252 
L 216.097944 252 
L 216.097944 163.041177 
L 204.676178 163.041177 
z
" style="fill:#348abd;opacity:0.25;"/>
   </g>
   <g id="patch_32">
    <path clip-path="url(#p86a3fba70f)" d="M 216.097944 252 
L 227.51971 252 
L 227.51971 150.449034 
L 216.097944 150.449034 
z
" style="fill:#348abd;opacity:0.25;"/>
   </g>
   <g id="patch_33">
    <path clip-path="url(#p86a3fba70f)" d="M 227.51971 252 
L 238.941476 252 
L 238.941476 151.470019 
L 227.51971 151.470019 
z
" style="fill:#348abd;opacity:0.25;"/>
   </g>
   <g id="patch_34">
    <path clip-path="url(#p86a3fba70f)" d="M 238.941476 252 
L 250.363242 252 
L 250.363242 162.626864 
L 238.941476 162.626864 
z
" style="fill:#348abd;opacity:0.25;"/>
   </g>
   <g id="patch_35">
    <path clip-path="url(#p86a3fba70f)" d="M 250.363242 252 
L 261.785008 252 
L 261.785008 180.486694 
L 250.363242 180.486694 
z
" style="fill:#348abd;opacity:0.25;"/>
   </g>
   <g id="patch_36">
    <path clip-path="url(#p86a3fba70f)" d="M 261.785008 252 
L 273.206774 252 
L 273.206774 200.373697 
L 261.785008 200.373697 
z
" style="fill:#348abd;opacity:0.25;"/>
   </g>
   <g id="patch_37">
    <path clip-path="url(#p86a3fba70f)" d="M 273.206774 252 
L 284.62854 252 
L 284.62854 220.157121 
L 273.206774 220.157121 
z
" style="fill:#348abd;opacity:0.25;"/>
   </g>
   <g id="patch_38">
    <path clip-path="url(#p86a3fba70f)" d="M 284.62854 252 
L 296.050306 252 
L 296.050306 235.545873 
L 284.62854 235.545873 
z
" style="fill:#348abd;opacity:0.25;"/>
   </g>
   <g id="patch_39">
    <path clip-path="url(#p86a3fba70f)" d="M 296.050306 252 
L 307.472072 252 
L 307.472072 244.23164 
L 296.050306 244.23164 
z
" style="fill:#348abd;opacity:0.25;"/>
   </g>
   <g id="patch_40">
    <path clip-path="url(#p86a3fba70f)" d="M 307.472072 252 
L 318.893838 252 
L 318.893838 249.336562 
L 307.472072 249.336562 
z
" style="fill:#348abd;opacity:0.25;"/>
   </g>
   <g id="patch_41">
    <path clip-path="url(#p86a3fba70f)" d="M 318.893838 252 
L 330.315604 252 
L 330.315604 251.245359 
L 318.893838 251.245359 
z
" style="fill:#348abd;opacity:0.25;"/>
   </g>
   <g id="patch_42">
    <path clip-path="url(#p86a3fba70f)" d="M 330.315604 252 
L 341.73737 252 
L 341.73737 251.911219 
L 330.315604 251.911219 
z
" style="fill:#348abd;opacity:0.25;"/>
   </g>
   <g id="patch_43">
    <path clip-path="url(#p86a3fba70f)" d="M 69.218182 252 
L 79.776764 252 
L 79.776764 217.473875 
L 69.218182 217.473875 
z
" style="fill:#988ed5;opacity:0.25;"/>
   </g>
   <g id="patch_44">
    <path clip-path="url(#p86a3fba70f)" d="M 79.776764 252 
L 90.335347 252 
L 90.335347 136.608792 
L 79.776764 136.608792 
z
" style="fill:#988ed5;opacity:0.25;"/>
   </g>
   <g id="patch_45">
    <path clip-path="url(#p86a3fba70f)" d="M 90.335347 252 
L 100.89393 252 
L 100.89393 104.515662 
L 90.335347 104.515662 
z
" style="fill:#988ed5;opacity:0.25;"/>
   </g>
   <g id="patch_46">
    <path clip-path="url(#p86a3fba70f)" d="M 100.89393 252 
L 111.452512 252 
L 111.452512 109.81383 
L 100.89393 109.81383 
z
" style="fill:#988ed5;opacity:0.25;"/>
   </g>
   <g id="patch_47">
    <path clip-path="url(#p86a3fba70f)" d="M 111.452512 252 
L 122.011095 252 
L 122.011095 136.704831 
L 111.452512 136.704831 
z
" style="fill:#988ed5;opacity:0.25;"/>
   </g>
   <g id="patch_48">
    <path clip-path="url(#p86a3fba70f)" d="M 122.011095 252 
L 132.569678 252 
L 132.569678 166.380972 
L 122.011095 166.380972 
z
" style="fill:#988ed5;opacity:0.25;"/>
   </g>
   <g id="patch_49">
    <path clip-path="url(#p86a3fba70f)" d="M 132.569678 252 
L 143.12826 252 
L 143.12826 193.127915 
L 132.569678 193.127915 
z
" style="fill:#988ed5;opacity:0.25;"/>
   </g>
   <g id="patch_50">
    <path clip-path="url(#p86a3fba70f)" d="M 143.12826 252 
L 153.686843 252 
L 153.686843 212.335773 
L 143.12826 212.335773 
z
" style="fill:#988ed5;opacity:0.25;"/>
   </g>
   <g id="patch_51">
    <path clip-path="url(#p86a3fba70f)" d="M 153.686843 252 
L 164.245425 252 
L 164.245425 226.389522 
L 153.686843 226.389522 
z
" style="fill:#988ed5;opacity:0.25;"/>
   </g>
   <g id="patch_52">
    <path clip-path="url(#p86a3fba70f)" d="M 164.245425 252 
L 174.804008 252 
L 174.804008 236.457641 
L 164.245425 236.457641 
z
" style="fill:#988ed5;opacity:0.25;"/>
   </g>
   <g id="patch_53">
    <path clip-path="url(#p86a3fba70f)" d="M 174.804008 252 
L 185.362591 252 
L 185.362591 242.876267 
L 174.804008 242.876267 
z
" style="fill:#988ed5;opacity:0.25;"/>
   </g>
   <g id="patch_54">
    <path clip-path="url(#p86a3fba70f)" d="M 185.362591 252 
L 195.921173 252 
L 195.921173 246.765859 
L 185.362591 246.765859 
z
" style="fill:#988ed5;opacity:0.25;"/>
   </g>
   <g id="patch_55">
    <path clip-path="url(#p86a3fba70f)" d="M 195.921173 252 
L 206.479756 252 
L 206.479756 249.214861 
L 195.921173 249.214861 
z
" style="fill:#988ed5;opacity:0.25;"/>
   </g>
   <g id="patch_56">
    <path clip-path="url(#p86a3fba70f)" d="M 206.479756 252 
L 217.038339 252 
L 217.038339 250.447365 
L 206.479756 250.447365 
z
" style="fill:#988ed5;opacity:0.25;"/>
   </g>
   <g id="patch_57">
    <path clip-path="url(#p86a3fba70f)" d="M 217.038339 252 
L 227.596921 252 
L 227.596921 251.183666 
L 217.038339 251.183666 
z
" style="fill:#988ed5;opacity:0.25;"/>
   </g>
   <g id="patch_58">
    <path clip-path="url(#p86a3fba70f)" d="M 227.596921 252 
L 238.155504 252 
L 238.155504 251.711882 
L 227.596921 251.711882 
z
" style="fill:#988ed5;opacity:0.25;"/>
   </g>
   <g id="patch_59">
    <path clip-path="url(#p86a3fba70f)" d="M 238.155504 252 
L 248.714087 252 
L 248.714087 251.743895 
L 238.155504 251.743895 
z
" style="fill:#988ed5;opacity:0.25;"/>
   </g>
   <g id="patch_60">
    <path clip-path="url(#p86a3fba70f)" d="M 248.714087 252 
L 259.272669 252 
L 259.272669 251.967987 
L 248.714087 251.967987 
z
" style="fill:#988ed5;opacity:0.25;"/>
   </g>
   <g id="patch_61">
    <path clip-path="url(#p86a3fba70f)" d="M 259.272669 252 
L 269.831252 252 
L 269.831252 251.967987 
L 259.272669 251.967987 
z
" style="fill:#988ed5;opacity:0.25;"/>
   </g>
   <g id="patch_62">
    <path clip-path="url(#p86a3fba70f)" d="M 269.831252 252 
L 280.389834 252 
L 280.389834 251.983993 
L 269.831252 251.983993 
z
" style="fill:#988ed5;opacity:0.25;"/>
   </g>
   <g id="patch_63">
    <path d="M 54 252 
L 54 34.56 
" style="fill:none;stroke:#ffffff;stroke-linecap:square;stroke-linejoin:miter;"/>
   </g>
   <g id="patch_64">
    <path d="M 388.8 252 
L 388.8 34.56 
" style="fill:none;stroke:#ffffff;stroke-linecap:square;stroke-linejoin:miter;"/>
   </g>
   <g id="patch_65">
    <path d="M 54 252 
L 388.8 252 
" style="fill:none;stroke:#ffffff;stroke-linecap:square;stroke-linejoin:miter;"/>
   </g>
   <g id="patch_66">
    <path d="M 54 34.56 
L 388.8 34.56 
" style="fill:none;stroke:#ffffff;stroke-linecap:square;stroke-linejoin:miter;"/>
   </g>
   <g id="text_18">
    <text style="font-family:DejaVu Sans;font-size:14.4px;font-style:normal;font-weight:400;text-anchor:middle;" transform="rotate(-0, 221.4, 28.56)" x="221.4" y="28.56">Histograms of π_t^δ for different δ</text>
   </g>
   <g id="legend_1">
    <g id="patch_67">
     <path d="M 61 86.594375 
L 123.401562 86.594375 
Q 125.401562 86.594375 125.401562 84.594375 
L 125.401562 41.56 
Q 125.401562 39.56 123.401562 39.56 
L 61 39.56 
Q 59 39.56 59 41.56 
L 59 84.594375 
Q 59 86.594375 61 86.594375 
z
" style="fill:#e5e5e5;opacity:0.8;stroke:#cccccc;stroke-linejoin:miter;stroke-width:0.5;"/>
    </g>
    <g id="patch_68">
     <path d="M 63 51.158438 
L 83 51.158438 
L 83 44.158438 
L 63 44.158438 
z
" style="fill:#e24a33;opacity:0.25;"/>
    </g>
    <g id="text_19">
     <text style="font-family:DejaVu Sans;font-size:10px;font-style:normal;font-weight:400;text-anchor:start;" transform="rotate(-0, 91, 51.158438)" x="91" y="51.158438">δ=0.3</text>
    </g>
    <g id="patch_69">
     <path d="M 63 65.836563 
L 83 65.836563 
L 83 58.836563 
L 63 58.836563 
z
" style="fill:#348abd;opacity:0.25;"/>
    </g>
    <g id="text_20">
     <text style="font-family:DejaVu Sans;font-size:10px;font-style:normal;font-weight:400;text-anchor:start;" transform="rotate(-0, 91, 65.836563)" x="91" y="65.836563">δ=1.0</text>
    </g>
    <g id="patch_70">
     <path d="M 63 80.514688 
L 83 80.514688 
L 83 73.514688 
L 63 73.514688 
z
" style="fill:#988ed5;opacity:0.25;"/>
    </g>
    <g id="text_21">
     <text style="font-family:DejaVu Sans;font-size:10px;font-style:normal;font-weight:400;text-anchor:start;" transform="rotate(-0, 91, 80.514688)" x="91" y="80.514688">δ=3.0</text>
    </g>
   </g>
  </g>
 </g>
 <defs>
  <clipPath id="p86a3fba70f">
   <rect height="217.44" width="334.8" x="54" y="34.56"/>
  </clipPath>
 </defs>
</svg>
