<?xml version="1.0" encoding="utf-8" standalone="no"?>
<!DOCTYPE svg PUBLIC "-//W3C//DTD SVG 1.1//EN"
  "http://www.w3.org/Graphics/SVG/1.1/DTD/svg11.dtd">
<!-- Created with matplotlib (http://matplotlib.org/) -->
<svg height="288pt" version="1.1" viewBox="0 0 432 288" width="432pt" xmlns="http://www.w3.org/2000/svg" xmlns:xlink="http://www.w3.org/1999/xlink">
 <defs>
  <style type="text/css">
*{stroke-linecap:butt;stroke-linejoin:round;}
  </style>
 </defs>
 <g id="figure_1">
  <g id="patch_1">
   <path d="M 0 288 
L 432 288 
L 432 0 
L 0 0 
z
" style="fill:#ffffff;"/>
  </g>
  <g id="axes_1">
   <g id="patch_2">
    <path d="M 54 252 
L 388.8 252 
L 388.8 34.56 
L 54 34.56 
z
" style="fill:#e5e5e5;"/>
   </g>
   <g id="matplotlib.axis_1">
    <g id="xtick_1">
     <g id="line2d_1">
      <path clip-path="url(#p0e1abf72c0)" d="M 69.218182 252 
L 69.218182 34.56 
" style="fill:none;stroke:#ffffff;stroke-linecap:square;stroke-width:0.8;"/>
     </g>
     <g id="line2d_2">
      <defs>
       <path d="M 0 0 
L 0 3.5 
" id="m7427675553" style="stroke:#555555;stroke-width:0.8;"/>
      </defs>
      <g>
       <use style="fill:#555555;stroke:#555555;stroke-width:0.8;" x="69.218182" xlink:href="#m7427675553" y="252"/>
      </g>
     </g>
     <g id="text_1">
      <text style="fill:#555555;font-family:DejaVu Sans;font-size:10px;font-style:normal;font-weight:400;text-anchor:middle;" transform="rotate(-0, 69.218182, 266.598437)" x="69.218182" y="266.598437">0.0</text>
     </g>
    </g>
    <g id="xtick_2">
     <g id="line2d_3">
      <path clip-path="url(#p0e1abf72c0)" d="M 130.090909 252 
L 130.090909 34.56 
" style="fill:none;stroke:#ffffff;stroke-linecap:square;stroke-width:0.8;"/>
     </g>
     <g id="line2d_4">
      <g>
       <use style="fill:#555555;stroke:#555555;stroke-width:0.8;" x="130.090909" xlink:href="#m7427675553" y="252"/>
      </g>
     </g>
     <g id="text_2">
      <text style="fill:#555555;font-family:DejaVu Sans;font-size:10px;font-style:normal;font-weight:400;text-anchor:middle;" transform="rotate(-0, 130.090909, 266.598437)" x="130.090909" y="266.598437">0.2</text>
     </g>
    </g>
    <g id="xtick_3">
     <g id="line2d_5">
      <path clip-path="url(#p0e1abf72c0)" d="M 190.963636 252 
L 190.963636 34.56 
" style="fill:none;stroke:#ffffff;stroke-linecap:square;stroke-width:0.8;"/>
     </g>
     <g id="line2d_6">
      <g>
       <use style="fill:#555555;stroke:#555555;stroke-width:0.8;" x="190.963636" xlink:href="#m7427675553" y="252"/>
      </g>
     </g>
     <g id="text_3">
      <text style="fill:#555555;font-family:DejaVu Sans;font-size:10px;font-style:normal;font-weight:400;text-anchor:middle;" transform="rotate(-0, 190.963636, 266.598437)" x="190.963636" y="266.598437">0.4</text>
     </g>
    </g>
    <g id="xtick_4">
     <g id="line2d_7">
      <path clip-path="url(#p0e1abf72c0)" d="M 251.836364 252 
L 251.836364 34.56 
" style="fill:none;stroke:#ffffff;stroke-linecap:square;stroke-width:0.8;"/>
     </g>
     <g id="line2d_8">
      <g>
       <use style="fill:#555555;stroke:#555555;stroke-width:0.8;" x="251.836364" xlink:href="#m7427675553" y="252"/>
      </g>
     </g>
     <g id="text_4">
      <text style="fill:#555555;font-family:DejaVu Sans;font-size:10px;font-style:normal;font-weight:400;text-anchor:middle;" transform="rotate(-0, 251.836364, 266.598437)" x="251.836364" y="266.598437">0.6</text>
     </g>
    </g>
    <g id="xtick_5">
     <g id="line2d_9">
      <path clip-path="url(#p0e1abf72c0)" d="M 312.709091 252 
L 312.709091 34.56 
" style="fill:none;stroke:#ffffff;stroke-linecap:square;stroke-width:0.8;"/>
     </g>
     <g id="line2d_10">
      <g>
       <use style="fill:#555555;stroke:#555555;stroke-width:0.8;" x="312.709091" xlink:href="#m7427675553" y="252"/>
      </g>
     </g>
     <g id="text_5">
      <text style="fill:#555555;font-family:DejaVu Sans;font-size:10px;font-style:normal;font-weight:400;text-anchor:middle;" transform="rotate(-0, 312.709091, 266.598437)" x="312.709091" y="266.598437">0.8</text>
     </g>
    </g>
    <g id="xtick_6">
     <g id="line2d_11">
      <path clip-path="url(#p0e1abf72c0)" d="M 373.581818 252 
L 373.581818 34.56 
" style="fill:none;stroke:#ffffff;stroke-linecap:square;stroke-width:0.8;"/>
     </g>
     <g id="line2d_12">
      <g>
       <use style="fill:#555555;stroke:#555555;stroke-width:0.8;" x="373.581818" xlink:href="#m7427675553" y="252"/>
      </g>
     </g>
     <g id="text_6">
      <text style="fill:#555555;font-family:DejaVu Sans;font-size:10px;font-style:normal;font-weight:400;text-anchor:middle;" transform="rotate(-0, 373.581818, 266.598437)" x="373.581818" y="266.598437">1.0</text>
     </g>
    </g>
    <g id="text_7">
     <text style="fill:#555555;font-family:DejaVu Sans;font-size:12px;font-style:normal;font-weight:400;text-anchor:middle;" transform="rotate(-0, 221.4, 281.79625)" x="221.4" y="281.79625">π (recall probability)</text>
    </g>
   </g>
   <g id="matplotlib.axis_2">
    <g id="ytick_1">
     <g id="line2d_13">
      <path clip-path="url(#p0e1abf72c0)" d="M 54 252 
L 388.8 252 
" style="fill:none;stroke:#ffffff;stroke-linecap:square;stroke-width:0.8;"/>
     </g>
     <g id="line2d_14">
      <defs>
       <path d="M 0 0 
L -3.5 0 
" id="m32dc18fd14" style="stroke:#555555;stroke-width:0.8;"/>
      </defs>
      <g>
       <use style="fill:#555555;stroke:#555555;stroke-width:0.8;" x="54" xlink:href="#m32dc18fd14" y="252"/>
      </g>
     </g>
     <g id="text_8">
      <text style="fill:#555555;font-family:DejaVu Sans;font-size:10px;font-style:normal;font-weight:400;text-anchor:end;" transform="rotate(-0, 47, 255.799219)" x="47" y="255.799219">0</text>
     </g>
    </g>
    <g id="ytick_2">
     <g id="line2d_15">
      <path clip-path="url(#p0e1abf72c0)" d="M 54 224.606615 
L 388.8 224.606615 
" style="fill:none;stroke:#ffffff;stroke-linecap:square;stroke-width:0.8;"/>
     </g>
     <g id="line2d_16">
      <g>
       <use style="fill:#555555;stroke:#555555;stroke-width:0.8;" x="54" xlink:href="#m32dc18fd14" y="224.606615"/>
      </g>
     </g>
     <g id="text_9">
      <text style="fill:#555555;font-family:DejaVu Sans;font-size:10px;font-style:normal;font-weight:400;text-anchor:end;" transform="rotate(-0, 47, 228.405834)" x="47" y="228.405834">2</text>
     </g>
    </g>
    <g id="ytick_3">
     <g id="line2d_17">
      <path clip-path="url(#p0e1abf72c0)" d="M 54 197.21323 
L 388.8 197.21323 
" style="fill:none;stroke:#ffffff;stroke-linecap:square;stroke-width:0.8;"/>
     </g>
     <g id="line2d_18">
      <g>
       <use style="fill:#555555;stroke:#555555;stroke-width:0.8;" x="54" xlink:href="#m32dc18fd14" y="197.21323"/>
      </g>
     </g>
     <g id="text_10">
      <text style="fill:#555555;font-family:DejaVu Sans;font-size:10px;font-style:normal;font-weight:400;text-anchor:end;" transform="rotate(-0, 47, 201.012449)" x="47" y="201.012449">4</text>
     </g>
    </g>
    <g id="ytick_4">
     <g id="line2d_19">
      <path clip-path="url(#p0e1abf72c0)" d="M 54 169.819845 
L 388.8 169.819845 
" style="fill:none;stroke:#ffffff;stroke-linecap:square;stroke-width:0.8;"/>
     </g>
     <g id="line2d_20">
      <g>
       <use style="fill:#555555;stroke:#555555;stroke-width:0.8;" x="54" xlink:href="#m32dc18fd14" y="169.819845"/>
      </g>
     </g>
     <g id="text_11">
      <text style="fill:#555555;font-family:DejaVu Sans;font-size:10px;font-style:normal;font-weight:400;text-anchor:end;" transform="rotate(-0, 47, 173.619064)" x="47" y="173.619064">6</text>
     </g>
    </g>
    <g id="ytick_5">
     <g id="line2d_21">
      <path clip-path="url(#p0e1abf72c0)" d="M 54 142.42646 
L 388.8 142.42646 
" style="fill:none;stroke:#ffffff;stroke-linecap:square;stroke-width:0.8;"/>
     </g>
     <g id="line2d_22">
      <g>
       <use style="fill:#555555;stroke:#555555;stroke-width:0.8;" x="54" xlink:href="#m32dc18fd14" y="142.42646"/>
      </g>
     </g>
     <g id="text_12">
      <text style="fill:#555555;font-family:DejaVu Sans;font-size:10px;font-style:normal;font-weight:400;text-anchor:end;" transform="rotate(-0, 47, 146.225679)" x="47" y="146.225679">8</text>
     </g>
    </g>
    <g id="ytick_6">
     <g id="line2d_23">
      <path clip-path="url(#p0e1abf72c0)" d="M 54 115.033075 
L 388.8 115.033075 
" style="fill:none;stroke:#ffffff;stroke-linecap:square;stroke-width:0.8;"/>
     </g>
     <g id="line2d_24">
      <g>
       <use style="fill:#555555;stroke:#555555;stroke-width:0.8;" x="54" xlink:href="#m32dc18fd14" y="115.033075"/>
      </g>
     </g>
     <g id="text_13">
      <text style="fill:#555555;font-family:DejaVu Sans;font-size:10px;font-style:normal;font-weight:400;text-anchor:end;" transform="rotate(-0, 47, 118.832294)" x="47" y="118.832294">10</text>
     </g>
    </g>
    <g id="ytick_7">
     <g id="line2d_25">
      <path clip-path="url(#p0e1abf72c0)" d="M 54 87.63969 
L 388.8 87.63969 
" style="fill:none;stroke:#ffffff;stroke-linecap:square;stroke-width:0.8;"/>
     </g>
     <g id="line2d_26">
      <g>
       <use style="fill:#555555;stroke:#555555;stroke-width:0.8;" x="54" xlink:href="#m32dc18fd14" y="87.63969"/>
      </g>
     </g>
     <g id="text_14">
      <text style="fill:#555555;font-family:DejaVu Sans;font-size:10px;font-style:normal;font-weight:400;text-anchor:end;" transform="rotate(-0, 47, 91.438909)" x="47" y="91.438909">12</text>
     </g>
    </g>
    <g id="ytick_8">
     <g id="line2d_27">
      <path clip-path="url(#p0e1abf72c0)" d="M 54 60.246305 
L 388.8 60.246305 
" style="fill:none;stroke:#ffffff;stroke-linecap:square;stroke-width:0.8;"/>
     </g>
     <g id="line2d_28">
      <g>
       <use style="fill:#555555;stroke:#555555;stroke-width:0.8;" x="54" xlink:href="#m32dc18fd14" y="60.246305"/>
      </g>
     </g>
     <g id="text_15">
      <text style="fill:#555555;font-family:DejaVu Sans;font-size:10px;font-style:normal;font-weight:400;text-anchor:end;" transform="rotate(-0, 47, 64.045524)" x="47" y="64.045524">14</text>
     </g>
    </g>
    <g id="text_16">
     <text style="fill:#555555;font-family:DejaVu Sans;font-size:12px;font-style:normal;font-weight:400;text-anchor:middle;" transform="rotate(-90, 27.779375, 143.28)" x="27.779375" y="143.28">Frequency</text>
    </g>
   </g>
   <g id="patch_3">
    <path clip-path="url(#p0e1abf72c0)" d="M 275.17413 252 
L 279.654815 252 
L 279.654815 251.962784 
L 275.17413 251.962784 
z
" style="fill:#e24a33;opacity:0.25;"/>
   </g>
   <g id="patch_4">
    <path clip-path="url(#p0e1abf72c0)" d="M 279.654815 252 
L 284.135501 252 
L 284.135501 251.944177 
L 279.654815 251.944177 
z
" style="fill:#e24a33;opacity:0.25;"/>
   </g>
   <g id="patch_5">
    <path clip-path="url(#p0e1abf72c0)" d="M 284.135501 252 
L 288.616186 252 
L 288.616186 251.925569 
L 284.135501 251.925569 
z
" style="fill:#e24a33;opacity:0.25;"/>
   </g>
   <g id="patch_6">
    <path clip-path="url(#p0e1abf72c0)" d="M 288.616186 252 
L 293.096872 252 
L 293.096872 251.851138 
L 288.616186 251.851138 
z
" style="fill:#e24a33;opacity:0.25;"/>
   </g>
   <g id="patch_7">
    <path clip-path="url(#p0e1abf72c0)" d="M 293.096872 252 
L 297.577558 252 
L 297.577558 251.702276 
L 293.096872 251.702276 
z
" style="fill:#e24a33;opacity:0.25;"/>
   </g>
   <g id="patch_8">
    <path clip-path="url(#p0e1abf72c0)" d="M 297.577558 252 
L 302.058243 252 
L 302.058243 251.478983 
L 297.577558 251.478983 
z
" style="fill:#e24a33;opacity:0.25;"/>
   </g>
   <g id="patch_9">
    <path clip-path="url(#p0e1abf72c0)" d="M 302.058243 252 
L 306.538929 252 
L 306.538929 250.92075 
L 302.058243 250.92075 
z
" style="fill:#e24a33;opacity:0.25;"/>
   </g>
   <g id="patch_10">
    <path clip-path="url(#p0e1abf72c0)" d="M 306.538929 252 
L 311.019614 252 
L 311.019614 249.897324 
L 306.538929 249.897324 
z
" style="fill:#e24a33;opacity:0.25;"/>
   </g>
   <g id="patch_11">
    <path clip-path="url(#p0e1abf72c0)" d="M 311.019614 252 
L 315.5003 252 
L 315.5003 248.055156 
L 311.019614 248.055156 
z
" style="fill:#e24a33;opacity:0.25;"/>
   </g>
   <g id="patch_12">
    <path clip-path="url(#p0e1abf72c0)" d="M 315.5003 252 
L 319.980985 252 
L 319.980985 245.077915 
L 315.5003 245.077915 
z
" style="fill:#e24a33;opacity:0.25;"/>
   </g>
   <g id="patch_13">
    <path clip-path="url(#p0e1abf72c0)" d="M 319.980985 252 
L 324.461671 252 
L 324.461671 239.142041 
L 319.980985 239.142041 
z
" style="fill:#e24a33;opacity:0.25;"/>
   </g>
   <g id="patch_14">
    <path clip-path="url(#p0e1abf72c0)" d="M 324.461671 252 
L 328.942356 252 
L 328.942356 228.107642 
L 324.461671 228.107642 
z
" style="fill:#e24a33;opacity:0.25;"/>
   </g>
   <g id="patch_15">
    <path clip-path="url(#p0e1abf72c0)" d="M 328.942356 252 
L 333.423042 252 
L 333.423042 210.802429 
L 328.942356 210.802429 
z
" style="fill:#e24a33;opacity:0.25;"/>
   </g>
   <g id="patch_16">
    <path clip-path="url(#p0e1abf72c0)" d="M 333.423042 252 
L 337.903728 252 
L 337.903728 179.932162 
L 333.423042 179.932162 
z
" style="fill:#e24a33;opacity:0.25;"/>
   </g>
   <g id="patch_17">
    <path clip-path="url(#p0e1abf72c0)" d="M 337.903728 252 
L 342.384413 252 
L 342.384413 136.390013 
L 337.903728 136.390013 
z
" style="fill:#e24a33;opacity:0.25;"/>
   </g>
   <g id="patch_18">
    <path clip-path="url(#p0e1abf72c0)" d="M 342.384413 252 
L 346.865099 252 
L 346.865099 83.618418 
L 342.384413 83.618418 
z
" style="fill:#e24a33;opacity:0.25;"/>
   </g>
   <g id="patch_19">
    <path clip-path="url(#p0e1abf72c0)" d="M 346.865099 252 
L 351.345784 252 
L 351.345784 44.914286 
L 346.865099 44.914286 
z
" style="fill:#e24a33;opacity:0.25;"/>
   </g>
   <g id="patch_20">
    <path clip-path="url(#p0e1abf72c0)" d="M 351.345784 252 
L 355.82647 252 
L 355.82647 70.611596 
L 351.345784 70.611596 
z
" style="fill:#e24a33;opacity:0.25;"/>
   </g>
   <g id="patch_21">
    <path clip-path="url(#p0e1abf72c0)" d="M 355.82647 252 
L 360.307155 252 
L 360.307155 169.269918 
L 355.82647 169.269918 
z
" style="fill:#e24a33;opacity:0.25;"/>
   </g>
   <g id="patch_22">
    <path clip-path="url(#p0e1abf72c0)" d="M 360.307155 252 
L 364.787841 252 
L 364.787841 242.007635 
L 360.307155 242.007635 
z
" style="fill:#e24a33;opacity:0.25;"/>
   </g>
   <g id="patch_23">
    <path clip-path="url(#p0e1abf72c0)" d="M 89.198663 252 
L 100.866573 252 
L 100.866573 251.907106 
L 89.198663 251.907106 
z
" style="fill:#348abd;opacity:0.25;"/>
   </g>
   <g id="patch_24">
    <path clip-path="url(#p0e1abf72c0)" d="M 100.866573 252 
L 112.534484 252 
L 112.534484 251.742754 
L 100.866573 251.742754 
z
" style="fill:#348abd;opacity:0.25;"/>
   </g>
   <g id="patch_25">
    <path clip-path="url(#p0e1abf72c0)" d="M 112.534484 252 
L 124.202394 252 
L 124.202394 251.321158 
L 112.534484 251.321158 
z
" style="fill:#348abd;opacity:0.25;"/>
   </g>
   <g id="patch_26">
    <path clip-path="url(#p0e1abf72c0)" d="M 124.202394 252 
L 135.870305 252 
L 135.870305 250.38507 
L 124.202394 250.38507 
z
" style="fill:#348abd;opacity:0.25;"/>
   </g>
   <g id="patch_27">
    <path clip-path="url(#p0e1abf72c0)" d="M 135.870305 252 
L 147.538216 252 
L 147.538216 248.891616 
L 135.870305 248.891616 
z
" style="fill:#348abd;opacity:0.25;"/>
   </g>
   <g id="patch_28">
    <path clip-path="url(#p0e1abf72c0)" d="M 147.538216 252 
L 159.206126 252 
L 159.206126 246.233412 
L 147.538216 246.233412 
z
" style="fill:#348abd;opacity:0.25;"/>
   </g>
   <g id="patch_29">
    <path clip-path="url(#p0e1abf72c0)" d="M 159.206126 252 
L 170.874037 252 
L 170.874037 242.296126 
L 159.206126 242.296126 
z
" style="fill:#348abd;opacity:0.25;"/>
   </g>
   <g id="patch_30">
    <path clip-path="url(#p0e1abf72c0)" d="M 170.874037 252 
L 182.541948 252 
L 182.541948 236.901115 
L 170.874037 236.901115 
z
" style="fill:#348abd;opacity:0.25;"/>
   </g>
   <g id="patch_31">
    <path clip-path="url(#p0e1abf72c0)" d="M 182.541948 252 
L 194.209858 252 
L 194.209858 229.862591 
L 182.541948 229.862591 
z
" style="fill:#348abd;opacity:0.25;"/>
   </g>
   <g id="patch_32">
    <path clip-path="url(#p0e1abf72c0)" d="M 194.209858 252 
L 205.877769 252 
L 205.877769 222.60255 
L 194.209858 222.60255 
z
" style="fill:#348abd;opacity:0.25;"/>
   </g>
   <g id="patch_33">
    <path clip-path="url(#p0e1abf72c0)" d="M 205.877769 252 
L 217.545679 252 
L 217.545679 213.784744 
L 205.877769 213.784744 
z
" style="fill:#348abd;opacity:0.25;"/>
   </g>
   <g id="patch_34">
    <path clip-path="url(#p0e1abf72c0)" d="M 217.545679 252 
L 229.21359 252 
L 229.21359 206.624743 
L 217.545679 206.624743 
z
" style="fill:#348abd;opacity:0.25;"/>
   </g>
   <g id="patch_35">
    <path clip-path="url(#p0e1abf72c0)" d="M 229.21359 252 
L 240.881501 252 
L 240.881501 202.96614 
L 229.21359 202.96614 
z
" style="fill:#348abd;opacity:0.25;"/>
   </g>
   <g id="patch_36">
    <path clip-path="url(#p0e1abf72c0)" d="M 240.881501 252 
L 252.549411 252 
L 252.549411 204.538196 
L 240.881501 204.538196 
z
" style="fill:#348abd;opacity:0.25;"/>
   </g>
   <g id="patch_37">
    <path clip-path="url(#p0e1abf72c0)" d="M 252.549411 252 
L 264.217322 252 
L 264.217322 211.162269 
L 252.549411 211.162269 
z
" style="fill:#348abd;opacity:0.25;"/>
   </g>
   <g id="patch_38">
    <path clip-path="url(#p0e1abf72c0)" d="M 264.217322 252 
L 275.885233 252 
L 275.885233 223.788738 
L 264.217322 223.788738 
z
" style="fill:#348abd;opacity:0.25;"/>
   </g>
   <g id="patch_39">
    <path clip-path="url(#p0e1abf72c0)" d="M 275.885233 252 
L 287.553143 252 
L 287.553143 237.730018 
L 275.885233 237.730018 
z
" style="fill:#348abd;opacity:0.25;"/>
   </g>
   <g id="patch_40">
    <path clip-path="url(#p0e1abf72c0)" d="M 287.553143 252 
L 299.221054 252 
L 299.221054 247.11948 
L 287.553143 247.11948 
z
" style="fill:#348abd;opacity:0.25;"/>
   </g>
   <g id="patch_41">
    <path clip-path="url(#p0e1abf72c0)" d="M 299.221054 252 
L 310.888965 252 
L 310.888965 250.928144 
L 299.221054 250.928144 
z
" style="fill:#348abd;opacity:0.25;"/>
   </g>
   <g id="patch_42">
    <path clip-path="url(#p0e1abf72c0)" d="M 310.888965 252 
L 322.556875 252 
L 322.556875 251.928543 
L 310.888965 251.928543 
z
" style="fill:#348abd;opacity:0.25;"/>
   </g>
   <g id="patch_43">
    <path clip-path="url(#p0e1abf72c0)" d="M 69.226093 252 
L 76.179833 252 
L 76.179833 149.976883 
L 69.226093 149.976883 
z
" style="fill:#988ed5;opacity:0.25;"/>
   </g>
   <g id="patch_44">
    <path clip-path="url(#p0e1abf72c0)" d="M 76.179833 252 
L 83.133572 252 
L 83.133572 142.099437 
L 76.179833 142.099437 
z
" style="fill:#988ed5;opacity:0.25;"/>
   </g>
   <g id="patch_45">
    <path clip-path="url(#p0e1abf72c0)" d="M 83.133572 252 
L 90.087311 252 
L 90.087311 154.952743 
L 83.133572 154.952743 
z
" style="fill:#988ed5;opacity:0.25;"/>
   </g>
   <g id="patch_46">
    <path clip-path="url(#p0e1abf72c0)" d="M 90.087311 252 
L 97.04105 252 
L 97.04105 171.067336 
L 90.087311 171.067336 
z
" style="fill:#988ed5;opacity:0.25;"/>
   </g>
   <g id="patch_47">
    <path clip-path="url(#p0e1abf72c0)" d="M 97.04105 252 
L 103.99479 252 
L 103.99479 191.066696 
L 97.04105 191.066696 
z
" style="fill:#988ed5;opacity:0.25;"/>
   </g>
   <g id="patch_48">
    <path clip-path="url(#p0e1abf72c0)" d="M 103.99479 252 
L 110.948529 252 
L 110.948529 205.035075 
L 103.99479 205.035075 
z
" style="fill:#988ed5;opacity:0.25;"/>
   </g>
   <g id="patch_49">
    <path clip-path="url(#p0e1abf72c0)" d="M 110.948529 252 
L 117.902268 252 
L 117.902268 215.981967 
L 110.948529 215.981967 
z
" style="fill:#988ed5;opacity:0.25;"/>
   </g>
   <g id="patch_50">
    <path clip-path="url(#p0e1abf72c0)" d="M 117.902268 252 
L 124.856007 252 
L 124.856007 227.672241 
L 117.902268 227.672241 
z
" style="fill:#988ed5;opacity:0.25;"/>
   </g>
   <g id="patch_51">
    <path clip-path="url(#p0e1abf72c0)" d="M 124.856007 252 
L 131.809747 252 
L 131.809747 235.681577 
L 124.856007 235.681577 
z
" style="fill:#988ed5;opacity:0.25;"/>
   </g>
   <g id="patch_52">
    <path clip-path="url(#p0e1abf72c0)" d="M 131.809747 252 
L 138.763486 252 
L 138.763486 241.173008 
L 131.809747 241.173008 
z
" style="fill:#988ed5;opacity:0.25;"/>
   </g>
   <g id="patch_53">
    <path clip-path="url(#p0e1abf72c0)" d="M 138.763486 252 
L 145.717225 252 
L 145.717225 245.849118 
L 138.763486 245.849118 
z
" style="fill:#988ed5;opacity:0.25;"/>
   </g>
   <g id="patch_54">
    <path clip-path="url(#p0e1abf72c0)" d="M 145.717225 252 
L 152.670964 252 
L 152.670964 248.343043 
L 145.717225 248.343043 
z
" style="fill:#988ed5;opacity:0.25;"/>
   </g>
   <g id="patch_55">
    <path clip-path="url(#p0e1abf72c0)" d="M 152.670964 252 
L 159.624704 252 
L 159.624704 249.733885 
L 152.670964 249.733885 
z
" style="fill:#988ed5;opacity:0.25;"/>
   </g>
   <g id="patch_56">
    <path clip-path="url(#p0e1abf72c0)" d="M 159.624704 252 
L 166.578443 252 
L 166.578443 250.944878 
L 159.624704 250.944878 
z
" style="fill:#988ed5;opacity:0.25;"/>
   </g>
   <g id="patch_57">
    <path clip-path="url(#p0e1abf72c0)" d="M 166.578443 252 
L 173.532182 252 
L 173.532182 251.388509 
L 166.578443 251.388509 
z
" style="fill:#988ed5;opacity:0.25;"/>
   </g>
   <g id="patch_58">
    <path clip-path="url(#p0e1abf72c0)" d="M 173.532182 252 
L 180.485921 252 
L 180.485921 251.736219 
L 173.532182 251.736219 
z
" style="fill:#988ed5;opacity:0.25;"/>
   </g>
   <g id="patch_59">
    <path clip-path="url(#p0e1abf72c0)" d="M 180.485921 252 
L 187.43966 252 
L 187.43966 251.85612 
L 180.485921 251.85612 
z
" style="fill:#988ed5;opacity:0.25;"/>
   </g>
   <g id="patch_60">
    <path clip-path="url(#p0e1abf72c0)" d="M 187.43966 252 
L 194.3934 252 
L 194.3934 251.95204 
L 187.43966 251.95204 
z
" style="fill:#988ed5;opacity:0.25;"/>
   </g>
   <g id="patch_61">
    <path clip-path="url(#p0e1abf72c0)" d="M 194.3934 252 
L 201.347139 252 
L 201.347139 252 
L 194.3934 252 
z
" style="fill:#988ed5;opacity:0.25;"/>
   </g>
   <g id="patch_62">
    <path clip-path="url(#p0e1abf72c0)" d="M 201.347139 252 
L 208.300878 252 
L 208.300878 251.98801 
L 201.347139 251.98801 
z
" style="fill:#988ed5;opacity:0.25;"/>
   </g>
   <g id="line2d_29">
    <path clip-path="url(#p0e1abf72c0)" d="M 69.218182 252 
L 302.289435 251.895469 
L 306.859459 251.662047 
L 309.906143 251.289048 
L 312.038821 250.826142 
L 313.86683 250.219093 
L 315.390172 249.503106 
L 316.913514 248.530012 
L 318.132187 247.514229 
L 319.35086 246.235507 
L 320.569533 244.637377 
L 321.788206 242.655007 
L 323.00688 240.215213 
L 324.225553 237.23696 
L 325.444226 233.632546 
L 326.662899 229.309654 
L 327.881572 224.174461 
L 329.100246 218.136019 
L 330.318919 211.112039 
L 331.84226 200.847341 
L 333.365602 188.868636 
L 334.888943 175.195878 
L 336.716953 156.77027 
L 339.458968 126.320086 
L 342.505651 92.750518 
L 344.028993 78.384525 
L 345.247666 69.119225 
L 346.161671 63.878315 
L 346.771007 61.337011 
L 347.380344 59.637033 
L 347.685012 59.121644 
L 347.989681 58.838455 
L 348.294349 58.793555 
L 348.599017 58.992353 
L 348.903686 59.439524 
L 349.513022 61.093667 
L 350.122359 63.776589 
L 350.731695 67.493795 
L 351.6457 74.980129 
L 352.559705 84.65311 
L 353.778378 100.5853 
L 355.30172 124.297741 
L 360.176413 204.657343 
L 361.395086 220.062867 
L 362.309091 229.446746 
L 363.223096 236.902222 
L 364.137101 242.511775 
L 365.051106 246.472743 
L 365.660442 248.333886 
L 366.269779 249.681585 
L 366.879115 250.613608 
L 367.488452 251.224315 
L 368.097789 251.599572 
L 369.011794 251.877704 
L 370.535135 251.992478 
L 373.581818 252 
L 373.581818 252 
" style="fill:none;opacity:0.5;stroke:#808080;stroke-dasharray:3.3,3.3;stroke-dashoffset:0;stroke-width:3;"/>
   </g>
   <g id="line2d_30">
    <path clip-path="url(#p0e1abf72c0)" d="M 69.218182 252 
L 117.965111 251.891147 
L 126.800491 251.62884 
L 133.198526 251.220231 
L 138.377887 250.67698 
L 142.947912 249.985875 
L 147.213268 249.120232 
L 151.173956 248.093997 
L 155.134644 246.827587 
L 158.790663 245.427712 
L 162.446683 243.794913 
L 166.102703 241.92454 
L 170.063391 239.633451 
L 174.024079 237.080886 
L 178.289435 234.06971 
L 183.164128 230.356969 
L 190.171499 224.707157 
L 199.616216 217.121568 
L 204.186241 213.747124 
L 207.84226 211.302209 
L 211.193612 209.316183 
L 214.240295 207.759685 
L 216.98231 206.586054 
L 219.724324 205.646231 
L 222.466339 204.954835 
L 224.903686 204.557872 
L 227.341032 204.37131 
L 229.778378 204.397976 
L 232.215725 204.638168 
L 234.653071 205.089638 
L 237.090418 205.747619 
L 239.832432 206.725612 
L 242.574447 207.941967 
L 245.62113 209.551924 
L 248.972482 211.604337 
L 252.628501 214.130296 
L 256.893857 217.374887 
L 262.377887 221.855048 
L 276.087961 233.185365 
L 280.657985 236.61002 
L 284.618673 239.32194 
L 288.579361 241.758985 
L 292.235381 243.746303 
L 295.8914 245.475204 
L 299.54742 246.948431 
L 303.20344 248.176636 
L 306.859459 249.176992 
L 310.820147 250.029319 
L 315.085504 250.714394 
L 319.960197 251.255565 
L 325.444226 251.631123 
L 332.451597 251.872907 
L 343.114988 251.985046 
L 373.581818 252 
L 373.581818 252 
" style="fill:none;opacity:0.5;stroke:#808080;stroke-dasharray:3.3,3.3;stroke-dashoffset:0;stroke-width:3;"/>
   </g>
   <g id="line2d_31">
    <path clip-path="url(#p0e1abf72c0)" d="M 69.218182 252 
L 69.52285 201.088818 
L 70.132187 176.823499 
L 70.741523 163.332325 
L 71.35086 154.167448 
L 71.960197 147.518197 
L 72.569533 142.562642 
L 73.17887 138.842269 
L 73.788206 136.068799 
L 74.397543 134.046113 
L 75.00688 132.633124 
L 75.616216 131.724023 
L 76.225553 131.236869 
L 76.834889 131.106579 
L 77.444226 131.280393 
L 78.053563 131.714815 
L 78.967568 132.777121 
L 79.881572 134.245072 
L 81.100246 136.698129 
L 82.623587 140.36023 
L 84.451597 145.351777 
L 87.193612 153.528279 
L 96.028993 180.319533 
L 99.075676 188.712662 
L 102.122359 196.448914 
L 104.864373 202.818684 
L 107.606388 208.624554 
L 110.348403 213.88061 
L 113.090418 218.611165 
L 115.527764 222.399656 
L 117.965111 225.821165 
L 120.402457 228.900865 
L 123.144472 231.988695 
L 125.886486 234.712033 
L 128.628501 237.105548 
L 131.370516 239.202229 
L 134.112531 241.033063 
L 137.159214 242.790494 
L 140.205897 244.291486 
L 143.557248 245.685461 
L 147.213268 246.943227 
L 150.869287 247.969679 
L 155.134644 248.925745 
L 159.704668 249.716895 
L 164.884029 250.385763 
L 170.977396 250.940593 
L 178.289435 251.373418 
L 187.734152 251.692646 
L 200.834889 251.893206 
L 223.685012 251.986502 
L 319.35086 252 
L 373.581818 252 
L 373.581818 252 
" style="fill:none;opacity:0.5;stroke:#808080;stroke-dasharray:3.3,3.3;stroke-dashoffset:0;stroke-width:3;"/>
   </g>
   <g id="patch_63">
    <path d="M 54 252 
L 54 34.56 
" style="fill:none;stroke:#ffffff;stroke-linecap:square;stroke-linejoin:miter;"/>
   </g>
   <g id="patch_64">
    <path d="M 388.8 252 
L 388.8 34.56 
" style="fill:none;stroke:#ffffff;stroke-linecap:square;stroke-linejoin:miter;"/>
   </g>
   <g id="patch_65">
    <path d="M 54 252 
L 388.8 252 
" style="fill:none;stroke:#ffffff;stroke-linecap:square;stroke-linejoin:miter;"/>
   </g>
   <g id="patch_66">
    <path d="M 54 34.56 
L 388.8 34.56 
" style="fill:none;stroke:#ffffff;stroke-linecap:square;stroke-linejoin:miter;"/>
   </g>
   <g id="text_17">
    <text style="font-family:DejaVu Sans;font-size:14.4px;font-style:normal;font-weight:400;text-anchor:middle;" transform="rotate(-0, 221.4, 28.56)" x="221.4" y="28.56">Histogram of π for different t, with Beta fit</text>
   </g>
   <g id="legend_1">
    <g id="patch_67">
     <path d="M 61 86.594375 
L 127.565625 86.594375 
Q 129.565625 86.594375 129.565625 84.594375 
L 129.565625 41.56 
Q 129.565625 39.56 127.565625 39.56 
L 61 39.56 
Q 59 39.56 59 41.56 
L 59 84.594375 
Q 59 86.594375 61 86.594375 
z
" style="fill:#e5e5e5;opacity:0.8;stroke:#cccccc;stroke-linejoin:miter;stroke-width:0.5;"/>
    </g>
    <g id="patch_68">
     <path d="M 63 51.158438 
L 83 51.158438 
L 83 44.158438 
L 63 44.158438 
z
" style="fill:#e24a33;opacity:0.25;"/>
    </g>
    <g id="text_18">
     <text style="font-family:DejaVu Sans;font-size:10px;font-style:normal;font-weight:400;text-anchor:start;" transform="rotate(-0, 91, 51.158438)" x="91" y="51.158438">t=1.0</text>
    </g>
    <g id="patch_69">
     <path d="M 63 65.836563 
L 83 65.836563 
L 83 58.836563 
L 63 58.836563 
z
" style="fill:#348abd;opacity:0.25;"/>
    </g>
    <g id="text_19">
     <text style="font-family:DejaVu Sans;font-size:10px;font-style:normal;font-weight:400;text-anchor:start;" transform="rotate(-0, 91, 65.836563)" x="91" y="65.836563">t=7.0</text>
    </g>
    <g id="patch_70">
     <path d="M 63 80.514688 
L 83 80.514688 
L 83 73.514688 
L 63 73.514688 
z
" style="fill:#988ed5;opacity:0.25;"/>
    </g>
    <g id="text_20">
     <text style="font-family:DejaVu Sans;font-size:10px;font-style:normal;font-weight:400;text-anchor:start;" transform="rotate(-0, 91, 80.514688)" x="91" y="80.514688">t=30.0</text>
    </g>
   </g>
  </g>
 </g>
 <defs>
  <clipPath id="p0e1abf72c0">
   <rect height="217.44" width="334.8" x="54" y="34.56"/>
  </clipPath>
 </defs>
</svg>
