<?xml version="1.0" encoding="utf-8" standalone="no"?>
<!DOCTYPE svg PUBLIC "-//W3C//DTD SVG 1.1//EN"
  "http://www.w3.org/Graphics/SVG/1.1/DTD/svg11.dtd">
<!-- Created with matplotlib (http://matplotlib.org/) -->
<svg height="288pt" version="1.1" viewBox="0 0 432 288" width="432pt" xmlns="http://www.w3.org/2000/svg" xmlns:xlink="http://www.w3.org/1999/xlink">
 <defs>
  <style type="text/css">
*{stroke-linecap:butt;stroke-linejoin:round;}
  </style>
 </defs>
 <g id="figure_1">
  <g id="patch_1">
   <path d="M 0 288 
L 432 288 
L 432 0 
L 0 0 
z
" style="fill:#ffffff;"/>
  </g>
  <g id="axes_1">
   <g id="patch_2">
    <path d="M 54 252 
L 388.8 252 
L 388.8 34.56 
L 54 34.56 
z
" style="fill:#e5e5e5;"/>
   </g>
   <g id="matplotlib.axis_1">
    <g id="xtick_1">
     <g id="line2d_1">
      <path clip-path="url(#p7dd5b35d59)" d="M 69.212697 252 
L 69.212697 34.56 
" style="fill:none;stroke:#ffffff;stroke-linecap:square;stroke-width:0.8;"/>
     </g>
     <g id="line2d_2">
      <defs>
       <path d="M 0 0 
L 0 3.5 
" id="m99004bafd5" style="stroke:#555555;stroke-width:0.8;"/>
      </defs>
      <g>
       <use style="fill:#555555;stroke:#555555;stroke-width:0.8;" x="69.212697" xlink:href="#m99004bafd5" y="252"/>
      </g>
     </g>
     <g id="text_1">
      <text style="fill:#555555;font-family:DejaVu Sans;font-size:10px;font-style:normal;font-weight:400;text-anchor:middle;" transform="rotate(-0, 69.212697, 266.598437)" x="69.212697" y="266.598437">0.0</text>
     </g>
    </g>
    <g id="xtick_2">
     <g id="line2d_3">
      <path clip-path="url(#p7dd5b35d59)" d="M 131.861022 252 
L 131.861022 34.56 
" style="fill:none;stroke:#ffffff;stroke-linecap:square;stroke-width:0.8;"/>
     </g>
     <g id="line2d_4">
      <g>
       <use style="fill:#555555;stroke:#555555;stroke-width:0.8;" x="131.861022" xlink:href="#m99004bafd5" y="252"/>
      </g>
     </g>
     <g id="text_2">
      <text style="fill:#555555;font-family:DejaVu Sans;font-size:10px;font-style:normal;font-weight:400;text-anchor:middle;" transform="rotate(-0, 131.861022, 266.598437)" x="131.861022" y="266.598437">0.2</text>
     </g>
    </g>
    <g id="xtick_3">
     <g id="line2d_5">
      <path clip-path="url(#p7dd5b35d59)" d="M 194.509347 252 
L 194.509347 34.56 
" style="fill:none;stroke:#ffffff;stroke-linecap:square;stroke-width:0.8;"/>
     </g>
     <g id="line2d_6">
      <g>
       <use style="fill:#555555;stroke:#555555;stroke-width:0.8;" x="194.509347" xlink:href="#m99004bafd5" y="252"/>
      </g>
     </g>
     <g id="text_3">
      <text style="fill:#555555;font-family:DejaVu Sans;font-size:10px;font-style:normal;font-weight:400;text-anchor:middle;" transform="rotate(-0, 194.509347, 266.598437)" x="194.509347" y="266.598437">0.4</text>
     </g>
    </g>
    <g id="xtick_4">
     <g id="line2d_7">
      <path clip-path="url(#p7dd5b35d59)" d="M 257.157673 252 
L 257.157673 34.56 
" style="fill:none;stroke:#ffffff;stroke-linecap:square;stroke-width:0.8;"/>
     </g>
     <g id="line2d_8">
      <g>
       <use style="fill:#555555;stroke:#555555;stroke-width:0.8;" x="257.157673" xlink:href="#m99004bafd5" y="252"/>
      </g>
     </g>
     <g id="text_4">
      <text style="fill:#555555;font-family:DejaVu Sans;font-size:10px;font-style:normal;font-weight:400;text-anchor:middle;" transform="rotate(-0, 257.157673, 266.598437)" x="257.157673" y="266.598437">0.6</text>
     </g>
    </g>
    <g id="xtick_5">
     <g id="line2d_9">
      <path clip-path="url(#p7dd5b35d59)" d="M 319.805998 252 
L 319.805998 34.56 
" style="fill:none;stroke:#ffffff;stroke-linecap:square;stroke-width:0.8;"/>
     </g>
     <g id="line2d_10">
      <g>
       <use style="fill:#555555;stroke:#555555;stroke-width:0.8;" x="319.805998" xlink:href="#m99004bafd5" y="252"/>
      </g>
     </g>
     <g id="text_5">
      <text style="fill:#555555;font-family:DejaVu Sans;font-size:10px;font-style:normal;font-weight:400;text-anchor:middle;" transform="rotate(-0, 319.805998, 266.598437)" x="319.805998" y="266.598437">0.8</text>
     </g>
    </g>
    <g id="xtick_6">
     <g id="line2d_11">
      <path clip-path="url(#p7dd5b35d59)" d="M 382.454323 252 
L 382.454323 34.56 
" style="fill:none;stroke:#ffffff;stroke-linecap:square;stroke-width:0.8;"/>
     </g>
     <g id="line2d_12">
      <g>
       <use style="fill:#555555;stroke:#555555;stroke-width:0.8;" x="382.454323" xlink:href="#m99004bafd5" y="252"/>
      </g>
     </g>
     <g id="text_6">
      <text style="fill:#555555;font-family:DejaVu Sans;font-size:10px;font-style:normal;font-weight:400;text-anchor:middle;" transform="rotate(-0, 382.454323, 266.598437)" x="382.454323" y="266.598437">1.0</text>
     </g>
    </g>
    <g id="text_7">
     <text style="fill:#555555;font-family:DejaVu Sans;font-size:12px;font-style:normal;font-weight:400;text-anchor:middle;" transform="rotate(-0, 221.4, 281.79625)" x="221.4" y="281.79625">π (recall probability)</text>
    </g>
   </g>
   <g id="matplotlib.axis_2">
    <g id="ytick_1">
     <g id="line2d_13">
      <path clip-path="url(#p7dd5b35d59)" d="M 54 252 
L 388.8 252 
" style="fill:none;stroke:#ffffff;stroke-linecap:square;stroke-width:0.8;"/>
     </g>
     <g id="line2d_14">
      <defs>
       <path d="M 0 0 
L -3.5 0 
" id="m89a09032dc" style="stroke:#555555;stroke-width:0.8;"/>
      </defs>
      <g>
       <use style="fill:#555555;stroke:#555555;stroke-width:0.8;" x="54" xlink:href="#m89a09032dc" y="252"/>
      </g>
     </g>
     <g id="text_8">
      <text style="fill:#555555;font-family:DejaVu Sans;font-size:10px;font-style:normal;font-weight:400;text-anchor:end;" transform="rotate(-0, 47, 255.799219)" x="47" y="255.799219">0</text>
     </g>
    </g>
    <g id="ytick_2">
     <g id="line2d_15">
      <path clip-path="url(#p7dd5b35d59)" d="M 54 225.225741 
L 388.8 225.225741 
" style="fill:none;stroke:#ffffff;stroke-linecap:square;stroke-width:0.8;"/>
     </g>
     <g id="line2d_16">
      <g>
       <use style="fill:#555555;stroke:#555555;stroke-width:0.8;" x="54" xlink:href="#m89a09032dc" y="225.225741"/>
      </g>
     </g>
     <g id="text_9">
      <text style="fill:#555555;font-family:DejaVu Sans;font-size:10px;font-style:normal;font-weight:400;text-anchor:end;" transform="rotate(-0, 47, 229.02496)" x="47" y="229.02496">2</text>
     </g>
    </g>
    <g id="ytick_3">
     <g id="line2d_17">
      <path clip-path="url(#p7dd5b35d59)" d="M 54 198.451483 
L 388.8 198.451483 
" style="fill:none;stroke:#ffffff;stroke-linecap:square;stroke-width:0.8;"/>
     </g>
     <g id="line2d_18">
      <g>
       <use style="fill:#555555;stroke:#555555;stroke-width:0.8;" x="54" xlink:href="#m89a09032dc" y="198.451483"/>
      </g>
     </g>
     <g id="text_10">
      <text style="fill:#555555;font-family:DejaVu Sans;font-size:10px;font-style:normal;font-weight:400;text-anchor:end;" transform="rotate(-0, 47, 202.250702)" x="47" y="202.250702">4</text>
     </g>
    </g>
    <g id="ytick_4">
     <g id="line2d_19">
      <path clip-path="url(#p7dd5b35d59)" d="M 54 171.677224 
L 388.8 171.677224 
" style="fill:none;stroke:#ffffff;stroke-linecap:square;stroke-width:0.8;"/>
     </g>
     <g id="line2d_20">
      <g>
       <use style="fill:#555555;stroke:#555555;stroke-width:0.8;" x="54" xlink:href="#m89a09032dc" y="171.677224"/>
      </g>
     </g>
     <g id="text_11">
      <text style="fill:#555555;font-family:DejaVu Sans;font-size:10px;font-style:normal;font-weight:400;text-anchor:end;" transform="rotate(-0, 47, 175.476443)" x="47" y="175.476443">6</text>
     </g>
    </g>
    <g id="ytick_5">
     <g id="line2d_21">
      <path clip-path="url(#p7dd5b35d59)" d="M 54 144.902966 
L 388.8 144.902966 
" style="fill:none;stroke:#ffffff;stroke-linecap:square;stroke-width:0.8;"/>
     </g>
     <g id="line2d_22">
      <g>
       <use style="fill:#555555;stroke:#555555;stroke-width:0.8;" x="54" xlink:href="#m89a09032dc" y="144.902966"/>
      </g>
     </g>
     <g id="text_12">
      <text style="fill:#555555;font-family:DejaVu Sans;font-size:10px;font-style:normal;font-weight:400;text-anchor:end;" transform="rotate(-0, 47, 148.702184)" x="47" y="148.702184">8</text>
     </g>
    </g>
    <g id="ytick_6">
     <g id="line2d_23">
      <path clip-path="url(#p7dd5b35d59)" d="M 54 118.128707 
L 388.8 118.128707 
" style="fill:none;stroke:#ffffff;stroke-linecap:square;stroke-width:0.8;"/>
     </g>
     <g id="line2d_24">
      <g>
       <use style="fill:#555555;stroke:#555555;stroke-width:0.8;" x="54" xlink:href="#m89a09032dc" y="118.128707"/>
      </g>
     </g>
     <g id="text_13">
      <text style="fill:#555555;font-family:DejaVu Sans;font-size:10px;font-style:normal;font-weight:400;text-anchor:end;" transform="rotate(-0, 47, 121.927926)" x="47" y="121.927926">10</text>
     </g>
    </g>
    <g id="ytick_7">
     <g id="line2d_25">
      <path clip-path="url(#p7dd5b35d59)" d="M 54 91.354448 
L 388.8 91.354448 
" style="fill:none;stroke:#ffffff;stroke-linecap:square;stroke-width:0.8;"/>
     </g>
     <g id="line2d_26">
      <g>
       <use style="fill:#555555;stroke:#555555;stroke-width:0.8;" x="54" xlink:href="#m89a09032dc" y="91.354448"/>
      </g>
     </g>
     <g id="text_14">
      <text style="fill:#555555;font-family:DejaVu Sans;font-size:10px;font-style:normal;font-weight:400;text-anchor:end;" transform="rotate(-0, 47, 95.153667)" x="47" y="95.153667">12</text>
     </g>
    </g>
    <g id="ytick_8">
     <g id="line2d_27">
      <path clip-path="url(#p7dd5b35d59)" d="M 54 64.58019 
L 388.8 64.58019 
" style="fill:none;stroke:#ffffff;stroke-linecap:square;stroke-width:0.8;"/>
     </g>
     <g id="line2d_28">
      <g>
       <use style="fill:#555555;stroke:#555555;stroke-width:0.8;" x="54" xlink:href="#m89a09032dc" y="64.58019"/>
      </g>
     </g>
     <g id="text_15">
      <text style="fill:#555555;font-family:DejaVu Sans;font-size:10px;font-style:normal;font-weight:400;text-anchor:end;" transform="rotate(-0, 47, 68.379408)" x="47" y="68.379408">14</text>
     </g>
    </g>
    <g id="ytick_9">
     <g id="line2d_29">
      <path clip-path="url(#p7dd5b35d59)" d="M 54 37.805931 
L 388.8 37.805931 
" style="fill:none;stroke:#ffffff;stroke-linecap:square;stroke-width:0.8;"/>
     </g>
     <g id="line2d_30">
      <g>
       <use style="fill:#555555;stroke:#555555;stroke-width:0.8;" x="54" xlink:href="#m89a09032dc" y="37.805931"/>
      </g>
     </g>
     <g id="text_16">
      <text style="fill:#555555;font-family:DejaVu Sans;font-size:10px;font-style:normal;font-weight:400;text-anchor:end;" transform="rotate(-0, 47, 41.60515)" x="47" y="41.60515">16</text>
     </g>
    </g>
    <g id="text_17">
     <text style="fill:#555555;font-family:DejaVu Sans;font-size:12px;font-style:normal;font-weight:400;text-anchor:middle;" transform="rotate(-90, 27.779375, 143.28)" x="27.779375" y="143.28">Density</text>
    </g>
   </g>
   <g id="patch_3">
    <path clip-path="url(#p7dd5b35d59)" d="M 285.236794 252 
L 289.654046 252 
L 289.654046 251.905068 
L 285.236794 251.905068 
z
" style="fill:#e24a33;opacity:0.25;"/>
   </g>
   <g id="patch_4">
    <path clip-path="url(#p7dd5b35d59)" d="M 289.654046 252 
L 294.071297 252 
L 294.071297 251.962027 
L 289.654046 251.962027 
z
" style="fill:#e24a33;opacity:0.25;"/>
   </g>
   <g id="patch_5">
    <path clip-path="url(#p7dd5b35d59)" d="M 294.071297 252 
L 298.488548 252 
L 298.488548 251.848108 
L 294.071297 251.848108 
z
" style="fill:#e24a33;opacity:0.25;"/>
   </g>
   <g id="patch_6">
    <path clip-path="url(#p7dd5b35d59)" d="M 298.488548 252 
L 302.905799 252 
L 302.905799 251.791149 
L 298.488548 251.791149 
z
" style="fill:#e24a33;opacity:0.25;"/>
   </g>
   <g id="patch_7">
    <path clip-path="url(#p7dd5b35d59)" d="M 302.905799 252 
L 307.32305 252 
L 307.32305 251.525338 
L 302.905799 251.525338 
z
" style="fill:#e24a33;opacity:0.25;"/>
   </g>
   <g id="patch_8">
    <path clip-path="url(#p7dd5b35d59)" d="M 307.32305 252 
L 311.740301 252 
L 311.740301 251.031689 
L 307.32305 251.031689 
z
" style="fill:#e24a33;opacity:0.25;"/>
   </g>
   <g id="patch_9">
    <path clip-path="url(#p7dd5b35d59)" d="M 311.740301 252 
L 316.157553 252 
L 316.157553 250.291215 
L 311.740301 250.291215 
z
" style="fill:#e24a33;opacity:0.25;"/>
   </g>
   <g id="patch_10">
    <path clip-path="url(#p7dd5b35d59)" d="M 316.157553 252 
L 320.574804 252 
L 320.574804 249.208985 
L 316.157553 249.208985 
z
" style="fill:#e24a33;opacity:0.25;"/>
   </g>
   <g id="patch_11">
    <path clip-path="url(#p7dd5b35d59)" d="M 320.574804 252 
L 324.992055 252 
L 324.992055 246.607835 
L 320.574804 246.607835 
z
" style="fill:#e24a33;opacity:0.25;"/>
   </g>
   <g id="patch_12">
    <path clip-path="url(#p7dd5b35d59)" d="M 324.992055 252 
L 329.409306 252 
L 329.409306 243.000401 
L 324.992055 243.000401 
z
" style="fill:#e24a33;opacity:0.25;"/>
   </g>
   <g id="patch_13">
    <path clip-path="url(#p7dd5b35d59)" d="M 329.409306 252 
L 333.826557 252 
L 333.826557 235.25391 
L 329.409306 235.25391 
z
" style="fill:#e24a33;opacity:0.25;"/>
   </g>
   <g id="patch_14">
    <path clip-path="url(#p7dd5b35d59)" d="M 333.826557 252 
L 338.243809 252 
L 338.243809 223.862013 
L 333.826557 223.862013 
z
" style="fill:#e24a33;opacity:0.25;"/>
   </g>
   <g id="patch_15">
    <path clip-path="url(#p7dd5b35d59)" d="M 338.243809 252 
L 342.66106 252 
L 342.66106 203.39457 
L 338.243809 203.39457 
z
" style="fill:#e24a33;opacity:0.25;"/>
   </g>
   <g id="patch_16">
    <path clip-path="url(#p7dd5b35d59)" d="M 342.66106 252 
L 347.078311 252 
L 347.078311 172.370635 
L 342.66106 172.370635 
z
" style="fill:#e24a33;opacity:0.25;"/>
   </g>
   <g id="patch_17">
    <path clip-path="url(#p7dd5b35d59)" d="M 347.078311 252 
L 351.495562 252 
L 351.495562 128.568788 
L 347.078311 128.568788 
z
" style="fill:#e24a33;opacity:0.25;"/>
   </g>
   <g id="patch_18">
    <path clip-path="url(#p7dd5b35d59)" d="M 351.495562 252 
L 355.912813 252 
L 355.912813 75.767342 
L 351.495562 75.767342 
z
" style="fill:#e24a33;opacity:0.25;"/>
   </g>
   <g id="patch_19">
    <path clip-path="url(#p7dd5b35d59)" d="M 355.912813 252 
L 360.330065 252 
L 360.330065 44.914286 
L 355.912813 44.914286 
z
" style="fill:#e24a33;opacity:0.25;"/>
   </g>
   <g id="patch_20">
    <path clip-path="url(#p7dd5b35d59)" d="M 360.330065 252 
L 364.747316 252 
L 364.747316 81.178493 
L 360.330065 81.178493 
z
" style="fill:#e24a33;opacity:0.25;"/>
   </g>
   <g id="patch_21">
    <path clip-path="url(#p7dd5b35d59)" d="M 364.747316 252 
L 369.164567 252 
L 369.164567 181.541113 
L 364.747316 181.541113 
z
" style="fill:#e24a33;opacity:0.25;"/>
   </g>
   <g id="patch_22">
    <path clip-path="url(#p7dd5b35d59)" d="M 369.164567 252 
L 373.581818 252 
L 373.581818 244.652226 
L 369.164567 244.652226 
z
" style="fill:#e24a33;opacity:0.25;"/>
   </g>
   <g id="patch_23">
    <path clip-path="url(#p7dd5b35d59)" d="M 87.312877 252 
L 99.349818 252 
L 99.349818 251.979097 
L 87.312877 251.979097 
z
" style="fill:#348abd;opacity:0.25;"/>
   </g>
   <g id="patch_24">
    <path clip-path="url(#p7dd5b35d59)" d="M 99.349818 252 
L 111.386759 252 
L 111.386759 251.804908 
L 99.349818 251.804908 
z
" style="fill:#348abd;opacity:0.25;"/>
   </g>
   <g id="patch_25">
    <path clip-path="url(#p7dd5b35d59)" d="M 111.386759 252 
L 123.423699 252 
L 123.423699 251.40079 
L 111.386759 251.40079 
z
" style="fill:#348abd;opacity:0.25;"/>
   </g>
   <g id="patch_26">
    <path clip-path="url(#p7dd5b35d59)" d="M 123.423699 252 
L 135.46064 252 
L 135.46064 250.738871 
L 123.423699 250.738871 
z
" style="fill:#348abd;opacity:0.25;"/>
   </g>
   <g id="patch_27">
    <path clip-path="url(#p7dd5b35d59)" d="M 135.46064 252 
L 147.49758 252 
L 147.49758 249.017884 
L 135.46064 249.017884 
z
" style="fill:#348abd;opacity:0.25;"/>
   </g>
   <g id="patch_28">
    <path clip-path="url(#p7dd5b35d59)" d="M 147.49758 252 
L 159.534521 252 
L 159.534521 246.739491 
L 147.49758 246.739491 
z
" style="fill:#348abd;opacity:0.25;"/>
   </g>
   <g id="patch_29">
    <path clip-path="url(#p7dd5b35d59)" d="M 159.534521 252 
L 171.571461 252 
L 171.571461 243.395062 
L 159.534521 243.395062 
z
" style="fill:#348abd;opacity:0.25;"/>
   </g>
   <g id="patch_30">
    <path clip-path="url(#p7dd5b35d59)" d="M 171.571461 252 
L 183.608402 252 
L 183.608402 238.678023 
L 171.571461 238.678023 
z
" style="fill:#348abd;opacity:0.25;"/>
   </g>
   <g id="patch_31">
    <path clip-path="url(#p7dd5b35d59)" d="M 183.608402 252 
L 195.645343 252 
L 195.645343 231.661688 
L 183.608402 231.661688 
z
" style="fill:#348abd;opacity:0.25;"/>
   </g>
   <g id="patch_32">
    <path clip-path="url(#p7dd5b35d59)" d="M 195.645343 252 
L 207.682283 252 
L 207.682283 224.192462 
L 195.645343 224.192462 
z
" style="fill:#348abd;opacity:0.25;"/>
   </g>
   <g id="patch_33">
    <path clip-path="url(#p7dd5b35d59)" d="M 207.682283 252 
L 219.719224 252 
L 219.719224 216.326085 
L 207.682283 216.326085 
z
" style="fill:#348abd;opacity:0.25;"/>
   </g>
   <g id="patch_34">
    <path clip-path="url(#p7dd5b35d59)" d="M 219.719224 252 
L 231.756164 252 
L 231.756164 209.086789 
L 219.719224 209.086789 
z
" style="fill:#348abd;opacity:0.25;"/>
   </g>
   <g id="patch_35">
    <path clip-path="url(#p7dd5b35d59)" d="M 231.756164 252 
L 243.793105 252 
L 243.793105 203.909891 
L 231.756164 203.909891 
z
" style="fill:#348abd;opacity:0.25;"/>
   </g>
   <g id="patch_36">
    <path clip-path="url(#p7dd5b35d59)" d="M 243.793105 252 
L 255.830046 252 
L 255.830046 203.652091 
L 243.793105 203.652091 
z
" style="fill:#348abd;opacity:0.25;"/>
   </g>
   <g id="patch_37">
    <path clip-path="url(#p7dd5b35d59)" d="M 255.830046 252 
L 267.866986 252 
L 267.866986 211.448792 
L 255.830046 211.448792 
z
" style="fill:#348abd;opacity:0.25;"/>
   </g>
   <g id="patch_38">
    <path clip-path="url(#p7dd5b35d59)" d="M 267.866986 252 
L 279.903927 252 
L 279.903927 222.764112 
L 267.866986 222.764112 
z
" style="fill:#348abd;opacity:0.25;"/>
   </g>
   <g id="patch_39">
    <path clip-path="url(#p7dd5b35d59)" d="M 279.903927 252 
L 291.940867 252 
L 291.940867 236.183636 
L 279.903927 236.183636 
z
" style="fill:#348abd;opacity:0.25;"/>
   </g>
   <g id="patch_40">
    <path clip-path="url(#p7dd5b35d59)" d="M 291.940867 252 
L 303.977808 252 
L 303.977808 246.147248 
L 291.940867 246.147248 
z
" style="fill:#348abd;opacity:0.25;"/>
   </g>
   <g id="patch_41">
    <path clip-path="url(#p7dd5b35d59)" d="M 303.977808 252 
L 316.014749 252 
L 316.014749 250.634358 
L 303.977808 250.634358 
z
" style="fill:#348abd;opacity:0.25;"/>
   </g>
   <g id="patch_42">
    <path clip-path="url(#p7dd5b35d59)" d="M 316.014749 252 
L 328.051689 252 
L 328.051689 251.860649 
L 316.014749 251.860649 
z
" style="fill:#348abd;opacity:0.25;"/>
   </g>
   <g id="patch_43">
    <path clip-path="url(#p7dd5b35d59)" d="M 69.218182 252 
L 75.500008 252 
L 75.500008 153.430193 
L 69.218182 153.430193 
z
" style="fill:#988ed5;opacity:0.25;"/>
   </g>
   <g id="patch_44">
    <path clip-path="url(#p7dd5b35d59)" d="M 75.500008 252 
L 81.781833 252 
L 81.781833 141.908353 
L 75.500008 141.908353 
z
" style="fill:#988ed5;opacity:0.25;"/>
   </g>
   <g id="patch_45">
    <path clip-path="url(#p7dd5b35d59)" d="M 81.781833 252 
L 88.063659 252 
L 88.063659 151.974943 
L 81.781833 151.974943 
z
" style="fill:#988ed5;opacity:0.25;"/>
   </g>
   <g id="patch_46">
    <path clip-path="url(#p7dd5b35d59)" d="M 88.063659 252 
L 94.345485 252 
L 94.345485 166.941319 
L 88.063659 166.941319 
z
" style="fill:#988ed5;opacity:0.25;"/>
   </g>
   <g id="patch_47">
    <path clip-path="url(#p7dd5b35d59)" d="M 94.345485 252 
L 100.627311 252 
L 100.627311 182.588592 
L 94.345485 182.588592 
z
" style="fill:#988ed5;opacity:0.25;"/>
   </g>
   <g id="patch_48">
    <path clip-path="url(#p7dd5b35d59)" d="M 100.627311 252 
L 106.909136 252 
L 106.909136 195.058346 
L 100.627311 195.058346 
z
" style="fill:#988ed5;opacity:0.25;"/>
   </g>
   <g id="patch_49">
    <path clip-path="url(#p7dd5b35d59)" d="M 106.909136 252 
L 113.190962 252 
L 113.190962 208.622876 
L 106.909136 208.622876 
z
" style="fill:#988ed5;opacity:0.25;"/>
   </g>
   <g id="patch_50">
    <path clip-path="url(#p7dd5b35d59)" d="M 113.190962 252 
L 119.472788 252 
L 119.472788 220.171418 
L 113.190962 220.171418 
z
" style="fill:#988ed5;opacity:0.25;"/>
   </g>
   <g id="patch_51">
    <path clip-path="url(#p7dd5b35d59)" d="M 119.472788 252 
L 125.754613 252 
L 125.754613 228.448985 
L 119.472788 228.448985 
z
" style="fill:#988ed5;opacity:0.25;"/>
   </g>
   <g id="patch_52">
    <path clip-path="url(#p7dd5b35d59)" d="M 125.754613 252 
L 132.036439 252 
L 132.036439 235.044338 
L 125.754613 235.044338 
z
" style="fill:#988ed5;opacity:0.25;"/>
   </g>
   <g id="patch_53">
    <path clip-path="url(#p7dd5b35d59)" d="M 132.036439 252 
L 138.318265 252 
L 138.318265 240.344651 
L 132.036439 240.344651 
z
" style="fill:#988ed5;opacity:0.25;"/>
   </g>
   <g id="patch_54">
    <path clip-path="url(#p7dd5b35d59)" d="M 138.318265 252 
L 144.600091 252 
L 144.600091 244.296522 
L 138.318265 244.296522 
z
" style="fill:#988ed5;opacity:0.25;"/>
   </g>
   <g id="patch_55">
    <path clip-path="url(#p7dd5b35d59)" d="M 144.600091 252 
L 150.881916 252 
L 150.881916 246.739739 
L 144.600091 246.739739 
z
" style="fill:#988ed5;opacity:0.25;"/>
   </g>
   <g id="patch_56">
    <path clip-path="url(#p7dd5b35d59)" d="M 150.881916 252 
L 157.163742 252 
L 157.163742 249.009395 
L 150.881916 249.009395 
z
" style="fill:#988ed5;opacity:0.25;"/>
   </g>
   <g id="patch_57">
    <path clip-path="url(#p7dd5b35d59)" d="M 157.163742 252 
L 163.445568 252 
L 163.445568 250.117521 
L 157.163742 250.117521 
z
" style="fill:#988ed5;opacity:0.25;"/>
   </g>
   <g id="patch_58">
    <path clip-path="url(#p7dd5b35d59)" d="M 163.445568 252 
L 169.727394 252 
L 169.727394 250.878523 
L 163.445568 250.878523 
z
" style="fill:#988ed5;opacity:0.25;"/>
   </g>
   <g id="patch_59">
    <path clip-path="url(#p7dd5b35d59)" d="M 169.727394 252 
L 176.009219 252 
L 176.009219 251.252349 
L 169.727394 251.252349 
z
" style="fill:#988ed5;opacity:0.25;"/>
   </g>
   <g id="patch_60">
    <path clip-path="url(#p7dd5b35d59)" d="M 176.009219 252 
L 182.291045 252 
L 182.291045 251.826438 
L 176.009219 251.826438 
z
" style="fill:#988ed5;opacity:0.25;"/>
   </g>
   <g id="patch_61">
    <path clip-path="url(#p7dd5b35d59)" d="M 182.291045 252 
L 188.572871 252 
L 188.572871 251.879842 
L 182.291045 251.879842 
z
" style="fill:#988ed5;opacity:0.25;"/>
   </g>
   <g id="patch_62">
    <path clip-path="url(#p7dd5b35d59)" d="M 188.572871 252 
L 194.854697 252 
L 194.854697 251.919895 
L 188.572871 251.919895 
z
" style="fill:#988ed5;opacity:0.25;"/>
   </g>
   <g id="patch_63">
    <path d="M 54 252 
L 54 34.56 
" style="fill:none;stroke:#ffffff;stroke-linecap:square;stroke-linejoin:miter;"/>
   </g>
   <g id="patch_64">
    <path d="M 388.8 252 
L 388.8 34.56 
" style="fill:none;stroke:#ffffff;stroke-linecap:square;stroke-linejoin:miter;"/>
   </g>
   <g id="patch_65">
    <path d="M 54 252 
L 388.8 252 
" style="fill:none;stroke:#ffffff;stroke-linecap:square;stroke-linejoin:miter;"/>
   </g>
   <g id="patch_66">
    <path d="M 54 34.56 
L 388.8 34.56 
" style="fill:none;stroke:#ffffff;stroke-linecap:square;stroke-linejoin:miter;"/>
   </g>
   <g id="text_18">
    <text style="font-family:DejaVu Sans;font-size:14.4px;font-style:normal;font-weight:400;text-anchor:middle;" transform="rotate(-0, 221.4, 28.56)" x="221.4" y="28.56">Histogram of π for different t</text>
   </g>
   <g id="legend_1">
    <g id="patch_67">
     <path d="M 61 86.594375 
L 127.565625 86.594375 
Q 129.565625 86.594375 129.565625 84.594375 
L 129.565625 41.56 
Q 129.565625 39.56 127.565625 39.56 
L 61 39.56 
Q 59 39.56 59 41.56 
L 59 84.594375 
Q 59 86.594375 61 86.594375 
z
" style="fill:#e5e5e5;opacity:0.8;stroke:#cccccc;stroke-linejoin:miter;stroke-width:0.5;"/>
    </g>
    <g id="patch_68">
     <path d="M 63 51.158438 
L 83 51.158438 
L 83 44.158438 
L 63 44.158438 
z
" style="fill:#e24a33;opacity:0.25;"/>
    </g>
    <g id="text_19">
     <text style="font-family:DejaVu Sans;font-size:10px;font-style:normal;font-weight:400;text-anchor:start;" transform="rotate(-0, 91, 51.158438)" x="91" y="51.158438">t=1.0</text>
    </g>
    <g id="patch_69">
     <path d="M 63 65.836563 
L 83 65.836563 
L 83 58.836563 
L 63 58.836563 
z
" style="fill:#348abd;opacity:0.25;"/>
    </g>
    <g id="text_20">
     <text style="font-family:DejaVu Sans;font-size:10px;font-style:normal;font-weight:400;text-anchor:start;" transform="rotate(-0, 91, 65.836563)" x="91" y="65.836563">t=7.0</text>
    </g>
    <g id="patch_70">
     <path d="M 63 80.514688 
L 83 80.514688 
L 83 73.514688 
L 63 73.514688 
z
" style="fill:#988ed5;opacity:0.25;"/>
    </g>
    <g id="text_21">
     <text style="font-family:DejaVu Sans;font-size:10px;font-style:normal;font-weight:400;text-anchor:start;" transform="rotate(-0, 91, 80.514688)" x="91" y="80.514688">t=30.0</text>
    </g>
   </g>
  </g>
 </g>
 <defs>
  <clipPath id="p7dd5b35d59">
   <rect height="217.44" width="334.8" x="54" y="34.56"/>
  </clipPath>
 </defs>
</svg>
